<svg width="204" height="24" viewBox="0 0 204 24" fill="none" xmlns="http://www.w3.org/2000/svg">
<path d="M37.5312 5.34375V9.46875H39.5625V10.7188H37.5312V15.625H36.0469V5.34375H37.5312ZM27.0781 13.3125V6.34375H28.5312V8.57812H32.2031V6.34375H33.6719V13.3125H27.0781ZM28.5312 12.125H32.2031V9.75H28.5312V12.125ZM28.6562 19.0312V14.6094H30.1406V17.8281H38.125V19.0312H28.6562ZM51.7031 11.9688V13.1875H41.9531V6.57812H51.5781V7.79688H43.4219V11.9688H51.7031ZM40.3594 17.4844V16.25H53.1719V17.4844H40.3594ZM59.3281 8.89062C59.3125 11.4453 60.8594 14.0234 63.0312 14.9844L62.1406 16.1562C60.5312 15.3906 59.2578 13.8203 58.6016 11.9062C57.9531 13.9609 56.6641 15.6484 54.9844 16.4688L54.0781 15.2188C56.2812 14.2422 57.8281 11.5625 57.8281 8.89062V6.5H59.3281V8.89062ZM64.2969 19.3594V5.32812H65.7812V19.3594H64.2969ZM84.7188 11.625V12.8438H79.0156V14.3438H77.5469V12.8438H71.9219V11.625H84.7188ZM72.6094 9.54688C75.3281 9.22656 77.5391 7.73438 77.5469 6.09375V5.48438H79.0625V6.09375C79.0703 7.71094 81.2969 9.22656 84 9.54688L83.4688 10.7031C81.2031 10.3984 79.2109 9.34375 78.3125 7.875C77.4062 9.35938 75.4219 10.3906 73.1562 10.7031L72.6094 9.54688ZM72.8125 18.1406C75.5 17.8828 77.5078 16.7188 77.5 15.3438V14.9531H79.0312V15.3438C79.0312 16.75 81.0078 17.8828 83.7188 18.1406L83.2656 19.2656C80.9766 19.0234 79.1094 18.1953 78.2656 16.9375C77.4219 18.1797 75.5703 19.0312 73.2969 19.2656L72.8125 18.1406ZM90.625 9.45312C90.6172 11.6641 92.0781 14.1328 94.2031 15.1406L93.3594 16.2969C91.7891 15.5469 90.5391 13.9688 89.9062 12.1406C89.2656 14.1328 87.9531 15.8594 86.3594 16.6562L85.4844 15.4844C87.6094 14.4609 89.1484 11.8203 89.1562 9.45312V7.96875H86V6.73438H93.6719V7.96875H90.625V9.45312ZM95.1719 19.3281V5.32812H96.6562V10.875H98.9062V12.125H96.6562V19.3281H95.1719ZM106.672 6.5625V13.0938H100.125V6.5625H106.672ZM101.578 11.9219H105.219V7.76562H101.578V11.9219ZM101.703 19.0312V14.5938H103.188V17.8281H111.172V19.0312H101.703ZM109.094 15.5781V5.3125H110.578V9.5H112.609V10.75H110.578V15.5781H109.094ZM128.922 5.32812V12.8438H127.438V5.32812H128.922ZM117.594 9.21875C117.602 7.29688 119.18 5.96094 121.328 5.96875C123.469 5.96094 125.047 7.29688 125.047 9.21875C125.047 11.1328 123.469 12.4688 121.328 12.4531C119.18 12.4688 117.602 11.1328 117.594 9.21875ZM119.047 9.21875C119.039 10.4297 120 11.2344 121.328 11.2344C122.641 11.2344 123.594 10.4297 123.594 9.21875C123.594 8.02344 122.641 7.21094 121.328 7.21875C120 7.21094 119.039 8.02344 119.047 9.21875ZM119.766 19.1562V13.5156H121.219V15.0938H127.453V13.5156H128.922V19.1562H119.766ZM121.219 17.9375H127.453V16.2656H121.219V17.9375ZM137.812 6.17188V10.25H133.188V12.1875C135.625 12.1875 136.953 12.1328 138.531 11.8438L138.672 13.0469C136.961 13.3359 135.523 13.3828 132.734 13.3906H131.719V9.125H136.328V7.35938H131.703V6.17188H137.812ZM133.312 15.8594V14.6562H142.812V19.3438H141.328V15.8594H133.312ZM138.703 11.4844V10.2969H141.328V8.5625H138.703V7.375H141.328V5.34375H142.812V13.9531H141.328V11.4844H138.703ZM151.891 7.64062V8.84375H144.938V7.64062H147.688V5.73438H149.156V7.64062H151.891ZM145.391 12.9062C145.383 11.0234 146.664 9.6875 148.422 9.6875C150.195 9.6875 151.461 11.0234 151.469 12.9062C151.461 14.8203 150.195 16.1641 148.422 16.1562C146.664 16.1641 145.383 14.8203 145.391 12.9062ZM146.703 12.9062C146.695 14.0938 147.414 14.8906 148.422 14.8906C149.43 14.8906 150.156 14.0938 150.156 12.9062C150.156 11.7422 149.43 10.9297 148.422 10.9219C147.414 10.9297 146.695 11.7422 146.703 12.9062ZM152.531 18.6719V5.64062H153.938V11.1562H155.547V5.32812H156.953V19.3281H155.547V12.375H153.938V18.6719H152.531ZM171.562 13.2188V14.4219H165.875V19.3125H164.422V14.4219H158.797V13.2188H171.562ZM159.516 10.9844C162.125 10.625 164.297 9.07031 164.344 7.34375H159.984V6.15625H170.359V7.34375H166.031C166.055 9.07031 168.211 10.625 170.859 10.9844L170.312 12.1562C168.016 11.7969 166.031 10.6641 165.18 9.07031C164.32 10.6641 162.344 11.7969 160.078 12.1562L159.516 10.9844ZM176.891 9.15625C176.891 11.3906 177.828 13.7734 179.703 14.9219L178.875 16.0625C177.562 15.2734 176.68 13.875 176.195 12.2578C175.688 14.0312 174.719 15.5469 173.359 16.375L172.438 15.2656C174.414 14.0781 175.461 11.6016 175.453 9.21875V6.60938H176.891V9.15625ZM178.188 11.4844V10.25H180.359V5.59375H181.766V18.6406H180.359V11.4844H178.188ZM183.25 19.3281V5.32812H184.672V19.3281H183.25ZM199.266 16.3438V17.5781H186.453V16.3438H189.516V12.6875C188.367 12.0547 187.664 11.0547 187.672 9.79688C187.664 7.59375 189.828 6.14844 192.828 6.14062C195.836 6.14844 198 7.59375 198 9.79688C198 11.0312 197.328 12.0234 196.203 12.6562V16.3438H199.266ZM189.109 9.79688C189.109 11.2969 190.633 12.2734 192.828 12.2812C195.008 12.2734 196.555 11.2969 196.562 9.79688C196.555 8.28906 195.008 7.32812 192.828 7.32812C190.633 7.32812 189.109 8.28906 189.109 9.79688ZM190.984 16.3438H194.703V13.2344C194.133 13.3672 193.5 13.4375 192.828 13.4375C192.172 13.4375 191.547 13.3672 190.984 13.2344V16.3438ZM201.875 18.1094C201.266 18.1016 200.758 17.6094 200.766 17C200.758 16.3906 201.266 15.8906 201.875 15.8906C202.477 15.8906 202.977 16.3906 202.984 17C202.977 17.6094 202.477 18.1016 201.875 18.1094Z" fill="#56CCC3"/>
<path d="M22.56 16.2999L14.89 3.57994C14.5799 3.09475 14.1526 2.69546 13.6475 2.41888C13.1424 2.14229 12.5758 1.99731 12 1.99731C11.4242 1.99731 10.8576 2.14229 10.3525 2.41888C9.84746 2.69546 9.42015 3.09475 9.11001 3.57994L1.44001 16.2999C1.16906 16.7516 1.0218 17.2666 1.01302 17.7932C1.00424 18.3199 1.13426 18.8395 1.39001 19.2999C1.68569 19.8182 2.11367 20.2487 2.63021 20.5474C3.14675 20.846 3.73333 21.0022 4.33001 20.9999H19.67C20.2628 21.0063 20.8467 20.8561 21.3629 20.5647C21.8791 20.2732 22.3093 19.8508 22.61 19.3399C22.8733 18.8747 23.0074 18.3476 22.9986 17.8131C22.9899 17.2787 22.8384 16.7563 22.56 16.2999ZM12 16.9999C11.8022 16.9999 11.6089 16.9413 11.4444 16.8314C11.28 16.7215 11.1518 16.5653 11.0761 16.3826C11.0004 16.1999 10.9806 15.9988 11.0192 15.8048C11.0578 15.6109 11.153 15.4327 11.2929 15.2928C11.4328 15.153 11.6109 15.0577 11.8049 15.0192C11.9989 14.9806 12.2 15.0004 12.3827 15.0761C12.5654 15.1517 12.7216 15.2799 12.8315 15.4444C12.9414 15.6088 13 15.8022 13 15.9999C13 16.2652 12.8947 16.5195 12.7071 16.707C12.5196 16.8946 12.2652 16.9999 12 16.9999ZM13 12.9999C13 13.2652 12.8947 13.5195 12.7071 13.707C12.5196 13.8946 12.2652 13.9999 12 13.9999C11.7348 13.9999 11.4804 13.8946 11.2929 13.707C11.1054 13.5195 11 13.2652 11 12.9999V8.99994C11 8.73472 11.1054 8.48037 11.2929 8.29283C11.4804 8.1053 11.7348 7.99994 12 7.99994C12.2652 7.99994 12.5196 8.1053 12.7071 8.29283C12.8947 8.48037 13 8.73472 13 8.99994V12.9999Z" fill="#56CCC3"/>
</svg>
