<svg width="24" height="24" viewBox="0 0 24 24" fill="none" xmlns="http://www.w3.org/2000/svg">
<path d="M12 0C5.37188 0 0 5.37188 0 12C0 18.6281 5.37188 24 12 24C18.6281 24 24 18.6281 24 12C24 5.37188 18.6281 0 12 0ZM12.8625 18.6047C12.5812 18.8531 12.2625 18.975 11.8969 18.975C11.5172 18.975 11.1891 18.8531 10.9078 18.6094C10.6266 18.3656 10.4859 18.0234 10.4859 17.5828C10.4859 17.1938 10.6219 16.8656 10.8937 16.5984C11.1656 16.3313 11.5031 16.2 11.8969 16.2C12.2859 16.2 12.6141 16.3313 12.8812 16.5984C13.1484 16.8656 13.2797 17.1938 13.2797 17.5828C13.2797 18.0188 13.1437 18.3562 12.8625 18.6047ZM16.3359 9.99375C16.1203 10.3922 15.8672 10.7344 15.5719 11.0203C15.2766 11.3109 14.7469 11.7938 13.9875 12.4781C13.7766 12.6703 13.6078 12.8391 13.4813 12.9844C13.3547 13.1297 13.2609 13.2656 13.1953 13.3828C13.1344 13.5047 13.0875 13.6266 13.05 13.7438C13.0172 13.8656 12.9656 14.0766 12.8953 14.3812C12.7781 15.0281 12.4078 15.3469 11.7891 15.3469C11.4656 15.3469 11.1938 15.2438 10.9734 15.0328C10.7531 14.8219 10.6453 14.5078 10.6453 14.0953C10.6453 13.575 10.725 13.125 10.8891 12.7406C11.0484 12.3609 11.2641 12.0234 11.5312 11.7375C11.7984 11.4469 12.1594 11.1047 12.6094 10.7109C13.0078 10.3641 13.2937 10.1016 13.4719 9.92344C13.65 9.74531 13.7953 9.54844 13.9172 9.33281C14.0391 9.11719 14.1 8.87813 14.1 8.625C14.1 8.12813 13.9172 7.71094 13.5469 7.36875C13.1766 7.02656 12.7031 6.85781 12.1172 6.85781C11.4328 6.85781 10.9312 7.03125 10.6125 7.37344C10.2891 7.71563 10.0172 8.22656 9.79219 8.89219C9.58125 9.59531 9.18281 9.94219 8.59219 9.94219C8.24531 9.94219 7.95 9.82031 7.71094 9.57656C7.47188 9.33281 7.35469 9.06563 7.35469 8.77969C7.35469 8.18906 7.54219 7.59375 7.92188 6.98906C8.30156 6.38438 8.85 5.88281 9.57656 5.48438C10.3031 5.08594 11.1469 4.88906 12.1172 4.88906C13.0172 4.88906 13.8094 5.05313 14.4984 5.38594C15.1875 5.71875 15.7172 6.16875 16.0922 6.74063C16.4672 7.3125 16.6547 7.93125 16.6547 8.60156C16.6594 9.13125 16.5516 9.59531 16.3359 9.99375Z" fill="#56CCC3"/>
</svg>
