<svg width="108" height="44" viewBox="0 0 108 44" fill="none" xmlns="http://www.w3.org/2000/svg">
<path d="M1.86539 40.4519V24.9419H8.64139C10.2694 24.9419 11.5307 25.3012 12.4254 26.0199C13.3201 26.7239 13.7674 27.7066 13.7674 28.9679C13.7674 29.9066 13.4961 30.6986 12.9534 31.3439C12.4107 31.9892 11.6701 32.4219 10.7314 32.6419V32.3119C11.4501 32.4146 12.0661 32.6346 12.5794 32.9719C13.0927 33.3092 13.4814 33.7419 13.7454 34.2699C14.0241 34.7979 14.1634 35.4139 14.1634 36.1179C14.1634 37.0272 13.9507 37.8119 13.5254 38.4719C13.1147 39.1172 12.5134 39.6086 11.7214 39.9459C10.9294 40.2832 9.98339 40.4519 8.88339 40.4519H1.86539ZM4.57139 38.3179H8.53139C8.92739 38.3179 9.27939 38.2886 9.58739 38.2299C9.91005 38.1712 10.1814 38.0832 10.4014 37.9659C10.6361 37.8339 10.8267 37.6726 10.9734 37.4819C11.1347 37.2912 11.2521 37.0712 11.3254 36.8219C11.3987 36.5726 11.4354 36.2939 11.4354 35.9859C11.4354 35.6632 11.3987 35.3772 11.3254 35.1279C11.2521 34.8786 11.1347 34.6659 10.9734 34.4899C10.8267 34.2992 10.6361 34.1452 10.4014 34.0279C10.1814 33.8959 9.91005 33.8006 9.58739 33.7419C9.27939 33.6832 8.92739 33.6539 8.53139 33.6539H4.57139V38.3179ZM4.57139 31.5199H8.15739C9.12539 31.5199 9.84405 31.3366 10.3134 30.9699C10.7974 30.5886 11.0394 30.0312 11.0394 29.2979C11.0394 28.5646 10.7974 28.0146 10.3134 27.6479C9.84405 27.2666 9.12539 27.0759 8.15739 27.0759H4.57139V31.5199ZM19.9699 40.6719C19.1925 40.6719 18.4959 40.5252 17.8799 40.2319C17.2785 39.9239 16.8019 39.5132 16.4499 38.9999C16.1125 38.4866 15.9439 37.9072 15.9439 37.2619C15.9439 36.4699 16.1492 35.8466 16.5599 35.3919C16.9705 34.9226 17.6379 34.5852 18.5619 34.3799C19.4859 34.1746 20.7252 34.0719 22.2799 34.0719H23.3799V35.6559H22.3019C21.6125 35.6559 21.0332 35.6852 20.5639 35.7439C20.0945 35.7879 19.7132 35.8686 19.4199 35.9859C19.1412 36.0886 18.9359 36.2352 18.8039 36.4259C18.6865 36.6166 18.6279 36.8512 18.6279 37.1299C18.6279 37.6139 18.7965 38.0099 19.1339 38.3179C19.4712 38.6259 19.9405 38.7799 20.5419 38.7799C21.0259 38.7799 21.4512 38.6699 21.8179 38.4499C22.1992 38.2152 22.4999 37.8999 22.7199 37.5039C22.9399 37.1079 23.0499 36.6532 23.0499 36.1399V33.6099C23.0499 32.8766 22.8885 32.3486 22.5659 32.0259C22.2432 31.7032 21.7005 31.5419 20.9379 31.5419C20.3365 31.5419 19.7205 31.6372 19.0899 31.8279C18.4592 32.0039 17.8212 32.2826 17.1759 32.6639L16.3839 30.7939C16.7652 30.5299 17.2125 30.3026 17.7259 30.1119C18.2539 29.9066 18.8039 29.7526 19.3759 29.6499C19.9625 29.5326 20.5125 29.4739 21.0259 29.4739C22.0819 29.4739 22.9472 29.6352 23.6219 29.9579C24.3112 30.2806 24.8245 30.7719 25.1619 31.4319C25.4992 32.0772 25.6679 32.9132 25.6679 33.9399V40.4519H23.0939V38.1639H23.2699C23.1672 38.6772 22.9619 39.1246 22.6539 39.5059C22.3605 39.8726 21.9865 40.1586 21.5319 40.3639C21.0772 40.5692 20.5565 40.6719 19.9699 40.6719ZM32.2751 40.6719C31.3365 40.6719 30.5078 40.4446 29.7891 39.9899C29.0851 39.5352 28.5351 38.8899 28.1391 38.0539C27.7431 37.2032 27.5451 36.2059 27.5451 35.0619C27.5451 33.9032 27.7431 32.9132 28.1391 32.0919C28.5351 31.2559 29.0851 30.6106 29.7891 30.1559C30.5078 29.7012 31.3365 29.4739 32.2751 29.4739C33.1698 29.4739 33.9471 29.6939 34.6071 30.1339C35.2818 30.5739 35.7365 31.1532 35.9711 31.8719H35.7291V24.9419H38.4791V40.4519H35.7951V38.1639H35.9931C35.7731 38.9266 35.3258 39.5352 34.6511 39.9899C33.9765 40.4446 33.1845 40.6719 32.2751 40.6719ZM33.0451 38.5819C33.8665 38.5819 34.5265 38.2886 35.0251 37.7019C35.5238 37.1006 35.7731 36.2206 35.7731 35.0619C35.7731 33.8886 35.5238 33.0159 35.0251 32.4439C34.5265 31.8572 33.8665 31.5639 33.0451 31.5639C32.2238 31.5639 31.5638 31.8572 31.0651 32.4439C30.5665 33.0159 30.3171 33.8886 30.3171 35.0619C30.3171 36.2206 30.5665 37.1006 31.0651 37.7019C31.5638 38.2886 32.2238 38.5819 33.0451 38.5819ZM46.6202 40.4519V24.9419H49.3702V31.8499H49.0622C49.3849 31.0726 49.8835 30.4859 50.5582 30.0899C51.2475 29.6792 52.0249 29.4739 52.8902 29.4739C53.7555 29.4739 54.4669 29.6352 55.0242 29.9579C55.5815 30.2806 55.9995 30.7719 56.2782 31.4319C56.5569 32.0772 56.6962 32.8986 56.6962 33.8959V40.4519H53.9462V34.0279C53.9462 33.4706 53.8729 33.0159 53.7262 32.6639C53.5942 32.3119 53.3815 32.0552 53.0882 31.8939C52.8095 31.7179 52.4502 31.6299 52.0102 31.6299C51.4822 31.6299 51.0202 31.7472 50.6242 31.9819C50.2282 32.2019 49.9202 32.5246 49.7002 32.9499C49.4802 33.3606 49.3702 33.8446 49.3702 34.4019V40.4519H46.6202ZM62.7114 40.6719C61.934 40.6719 61.2374 40.5252 60.6214 40.2319C60.02 39.9239 59.5434 39.5132 59.1914 38.9999C58.854 38.4866 58.6854 37.9072 58.6854 37.2619C58.6854 36.4699 58.8907 35.8466 59.3014 35.3919C59.712 34.9226 60.3794 34.5852 61.3034 34.3799C62.2274 34.1746 63.4667 34.0719 65.0214 34.0719H66.1214V35.6559H65.0434C64.354 35.6559 63.7747 35.6852 63.3054 35.7439C62.836 35.7879 62.4547 35.8686 62.1614 35.9859C61.8827 36.0886 61.6774 36.2352 61.5454 36.4259C61.428 36.6166 61.3694 36.8512 61.3694 37.1299C61.3694 37.6139 61.538 38.0099 61.8754 38.3179C62.2127 38.6259 62.682 38.7799 63.2834 38.7799C63.7674 38.7799 64.1927 38.6699 64.5594 38.4499C64.9407 38.2152 65.2414 37.8999 65.4614 37.5039C65.6814 37.1079 65.7914 36.6532 65.7914 36.1399V33.6099C65.7914 32.8766 65.63 32.3486 65.3074 32.0259C64.9847 31.7032 64.442 31.5419 63.6794 31.5419C63.078 31.5419 62.462 31.6372 61.8314 31.8279C61.2007 32.0039 60.5627 32.2826 59.9174 32.6639L59.1254 30.7939C59.5067 30.5299 59.954 30.3026 60.4674 30.1119C60.9954 29.9066 61.5454 29.7526 62.1174 29.6499C62.704 29.5326 63.254 29.4739 63.7674 29.4739C64.8234 29.4739 65.6887 29.6352 66.3634 29.9579C67.0527 30.2806 67.566 30.7719 67.9034 31.4319C68.2407 32.0772 68.4094 32.9132 68.4094 33.9399V40.4519H65.8354V38.1639H66.0114C65.9087 38.6772 65.7034 39.1246 65.3954 39.5059C65.102 39.8726 64.728 40.1586 64.2734 40.3639C63.8187 40.5692 63.298 40.6719 62.7114 40.6719ZM77.0846 40.6719C76.1753 40.6719 75.3759 40.4446 74.6866 39.9899C74.0119 39.5352 73.5646 38.9266 73.3446 38.1639H73.5646V40.4519H70.8806V24.9419H73.6306V31.8719H73.3666C73.6013 31.1532 74.0559 30.5739 74.7306 30.1339C75.4053 29.6939 76.1899 29.4739 77.0846 29.4739C78.0379 29.4739 78.8666 29.7012 79.5706 30.1559C80.2746 30.6106 80.8246 31.2559 81.2206 32.0919C81.6166 32.9132 81.8146 33.9032 81.8146 35.0619C81.8146 36.2059 81.6166 37.2032 81.2206 38.0539C80.8246 38.8899 80.2673 39.5352 79.5486 39.9899C78.8446 40.4446 78.0233 40.6719 77.0846 40.6719ZM76.3146 38.5819C77.1359 38.5819 77.7959 38.2886 78.2946 37.7019C78.7933 37.1006 79.0426 36.2206 79.0426 35.0619C79.0426 33.8886 78.7933 33.0159 78.2946 32.4439C77.7959 31.8572 77.1359 31.5639 76.3146 31.5639C75.4933 31.5639 74.8333 31.8572 74.3346 32.4439C73.8359 33.0159 73.5866 33.8886 73.5866 35.0619C73.5866 36.2206 73.8359 37.1006 74.3346 37.7019C74.8333 38.2886 75.4933 38.5819 76.3146 38.5819ZM83.576 27.3839V24.6999H86.656V27.3839H83.576ZM83.752 40.4519V29.6939H86.502V40.4519H83.752ZM93.9674 40.6719C92.5301 40.6719 91.4594 40.3126 90.7554 39.5939C90.0514 38.8752 89.6994 37.8266 89.6994 36.4479V31.7619H87.6314V29.6939H89.6994V26.4819H92.4494V29.6939H95.7054V31.7619H92.4494V36.2939C92.4494 36.9979 92.6034 37.5259 92.9114 37.8779C93.2194 38.2299 93.7181 38.4059 94.4074 38.4059C94.6128 38.4059 94.8254 38.3839 95.0454 38.3399C95.2654 38.2812 95.4928 38.2226 95.7274 38.1639L96.1454 40.1879C95.8814 40.3346 95.5441 40.4519 95.1334 40.5399C94.7374 40.6279 94.3488 40.6719 93.9674 40.6719ZM101.101 40.6719C100.499 40.6719 99.9128 40.6206 99.3408 40.5179C98.7835 40.4152 98.2701 40.2759 97.8008 40.0999C97.3315 39.9092 96.9208 39.6746 96.5688 39.3959L97.2728 37.5919C97.6395 37.8266 98.0355 38.0319 98.4608 38.2079C98.8861 38.3839 99.3261 38.5159 99.7808 38.6039C100.235 38.6919 100.683 38.7359 101.123 38.7359C101.827 38.7359 102.347 38.6186 102.685 38.3839C103.037 38.1346 103.213 37.8119 103.213 37.4159C103.213 37.0786 103.095 36.8219 102.861 36.6459C102.641 36.4552 102.303 36.3159 101.849 36.2279L99.6488 35.8099C98.7395 35.6339 98.0428 35.3039 97.5588 34.8199C97.0895 34.3212 96.8548 33.6832 96.8548 32.9059C96.8548 32.2019 97.0455 31.5932 97.4268 31.0799C97.8228 30.5666 98.3655 30.1706 99.0548 29.8919C99.7441 29.6132 100.536 29.4739 101.431 29.4739C101.944 29.4739 102.443 29.5252 102.927 29.6279C103.411 29.7159 103.865 29.8552 104.291 30.0459C104.731 30.2219 105.112 30.4566 105.435 30.7499L104.687 32.5539C104.408 32.3192 104.085 32.1212 103.719 31.9599C103.352 31.7839 102.971 31.6519 102.575 31.5639C102.193 31.4612 101.819 31.4099 101.453 31.4099C100.734 31.4099 100.199 31.5346 99.8468 31.7839C99.5095 32.0332 99.3408 32.3632 99.3408 32.7739C99.3408 33.0819 99.4435 33.3386 99.6488 33.5439C99.8541 33.7492 100.169 33.8886 100.595 33.9619L102.795 34.3799C103.748 34.5559 104.467 34.8786 104.951 35.3479C105.449 35.8172 105.699 36.4479 105.699 37.2399C105.699 37.9586 105.508 38.5746 105.127 39.0879C104.745 39.6012 104.21 39.9972 103.521 40.2759C102.831 40.5399 102.025 40.6719 101.101 40.6719Z" fill="white"/>
<path d="M24.3198 6.77661V7.52661C24.3198 8.32935 24.3198 9.29614 24.0269 10.6204H25.5972V11.2415H16.1284V10.6204H23.2769C23.5815 9.28442 23.5815 8.32935 23.5815 7.52661V7.39771H17.3472V6.77661H24.3198ZM24.3784 12.7649V16.386H17.312V12.7649H24.3784ZM18.0386 13.3625V15.7766H23.6519V13.3625H18.0386ZM34.699 6.20239V13.8782H33.9608V10.9602H31.1834C30.7088 11.6047 29.9354 11.9915 29.0154 11.9915C27.4686 11.9915 26.3436 10.9368 26.3553 9.43677C26.3436 7.93677 27.4686 6.88208 29.0154 6.87036C29.9237 6.87622 30.6912 7.26294 31.16 7.88989H33.9608V6.20239H34.699ZM35.0037 15.6711V16.2922H28.1365V13.0579H28.8748V15.6711H35.0037ZM29.0154 7.53833C27.8787 7.55005 27.0584 8.35864 27.0584 9.43677C27.0584 10.5266 27.8787 11.3352 29.0154 11.3352C30.117 11.3352 30.949 10.5266 30.949 9.43677C30.949 8.35864 30.117 7.55005 29.0154 7.53833ZM31.4998 8.51099C31.6053 8.79224 31.6639 9.10278 31.6639 9.43677C31.6639 9.75903 31.6053 10.0637 31.5115 10.3391H33.9608V8.51099H31.4998ZM46.9965 6.77661V7.52661C46.9965 8.32935 46.9965 9.29614 46.7036 10.6204H48.2739V11.2415H38.8051V10.6204H45.9536C46.2583 9.28442 46.2583 8.32935 46.2583 7.52661V7.39771H40.0239V6.77661H46.9965ZM47.0551 12.7649V16.386H39.9887V12.7649H47.0551ZM40.7153 13.3625V15.7766H46.3286V13.3625H40.7153ZM53.9656 7.65552C53.9656 9.1438 56.0281 10.3274 57.6805 10.5852L57.3992 11.1711C55.8699 10.8899 54.1824 10.011 53.5672 8.71021C52.9402 10.011 51.2469 10.8899 49.7469 11.1711L49.4539 10.5852C51.0945 10.3274 53.157 9.1438 53.157 7.65552V7.49146H49.7586V6.88208H57.3523V7.49146H53.9656V7.65552ZM58.2781 12.1438V12.7766H53.907V16.5266H53.1922V12.7766H48.8562V12.1438H58.2781ZM64.4819 8.19458C64.4819 9.29614 65.4194 10.4094 66.7201 10.8665L66.3686 11.429C65.3139 11.0422 64.5112 10.2629 64.142 9.34302C63.7787 10.3333 62.9819 11.1946 61.9272 11.6282L61.5522 11.054C62.8647 10.5383 63.767 9.34302 63.7787 8.19458V8.04224H61.7748V7.43286H63.7787V6.26099H64.4819V7.43286H66.4389V8.04224H64.4819V8.19458ZM70.224 6.20239V11.7688H69.5209V9.26099H67.9975V11.675H67.2709V6.40161H67.9975V8.63989H69.5209V6.20239H70.224ZM70.224 12.261V14.5344H64.1889V15.8H70.6694V16.386H63.4623V13.9602H69.5092V12.8469H63.4272V12.261H70.224ZM80.0173 6.20239V13.8196H79.2908V6.20239H80.0173ZM80.3337 15.6711V16.2922H73.3025V13.2336H74.0408V15.6711H80.3337ZM72.8923 11.6633C74.779 11.6633 76.1736 11.593 77.8845 11.3118L77.9665 11.9329C76.2087 12.2258 74.8025 12.2844 72.8923 12.2844H72.072V9.23755H76.0212V7.57349H72.0486V6.95239H76.7478V9.83521H72.7869V11.6633H72.8923ZM85.1817 9.49536C85.1817 11.2649 86.5997 13.0579 88.0528 13.6907L87.6309 14.2766C86.4415 13.72 85.3047 12.4836 84.8184 11.0071C84.338 12.5598 83.2071 13.9309 82.0528 14.5344L81.6075 13.9485C83.0137 13.2571 84.4317 11.2883 84.4434 9.49536V7.91333H81.9239V7.28052H87.7364V7.91333H85.1817V9.49536ZM90.0684 6.20239V16.5383H89.3301V6.20239H90.0684Z" fill="white"/>
</svg>
