<svg width="69" height="43" viewBox="0 0 69 43" fill="none" xmlns="http://www.w3.org/2000/svg">
<path d="M1.98709 39.7947V24.2847H4.80309V30.7527H12.7891V24.2847H15.6051V39.7947H12.7891V33.1067H4.80309V39.7947H1.98709ZM23.7207 40.0147C22.5034 40.0147 21.4547 39.7873 20.5747 39.3327C19.6947 38.878 19.0127 38.2327 18.5287 37.3967C18.0594 36.5607 17.8247 35.5707 17.8247 34.4267C17.8247 33.312 18.052 32.3367 18.5067 31.5007C18.976 30.6647 19.614 30.012 20.4207 29.5427C21.242 29.0587 22.1734 28.8167 23.2147 28.8167C24.2414 28.8167 25.1214 29.0367 25.8547 29.4767C26.588 29.9167 27.1527 30.54 27.5487 31.3467C27.9594 32.1533 28.1647 33.114 28.1647 34.2287V35.0427H20.0467V33.4587H26.2287L25.8767 33.7887C25.8767 32.7913 25.6567 32.0287 25.2167 31.5007C24.7767 30.958 24.146 30.6867 23.3247 30.6867C22.7087 30.6867 22.1807 30.8333 21.7407 31.1267C21.3154 31.4053 20.9854 31.8087 20.7507 32.3367C20.5307 32.85 20.4207 33.466 20.4207 34.1847V34.3387C20.4207 35.1453 20.5454 35.8127 20.7947 36.3407C21.044 36.8687 21.418 37.2647 21.9167 37.5287C22.4154 37.7927 23.0314 37.9247 23.7647 37.9247C24.366 37.9247 24.9674 37.8367 25.5687 37.6607C26.17 37.47 26.7201 37.1767 27.2187 36.7807L27.9887 38.6287C27.4754 39.054 26.8301 39.3913 26.0527 39.6407C25.2754 39.89 24.4981 40.0147 23.7207 40.0147ZM33.5645 40.0147C32.7872 40.0147 32.0905 39.868 31.4745 39.5747C30.8732 39.2667 30.3965 38.856 30.0445 38.3427C29.7072 37.8293 29.5385 37.25 29.5385 36.6047C29.5385 35.8127 29.7439 35.1893 30.1545 34.7347C30.5652 34.2653 31.2325 33.928 32.1565 33.7227C33.0805 33.5173 34.3199 33.4147 35.8745 33.4147H36.9745V34.9987H35.8965C35.2072 34.9987 34.6279 35.028 34.1585 35.0867C33.6892 35.1307 33.3079 35.2113 33.0145 35.3287C32.7359 35.4313 32.5305 35.578 32.3985 35.7687C32.2812 35.9593 32.2225 36.194 32.2225 36.4727C32.2225 36.9567 32.3912 37.3527 32.7285 37.6607C33.0659 37.9687 33.5352 38.1227 34.1365 38.1227C34.6205 38.1227 35.0459 38.0127 35.4125 37.7927C35.7939 37.558 36.0945 37.2427 36.3145 36.8467C36.5345 36.4507 36.6445 35.996 36.6445 35.4827V32.9527C36.6445 32.2193 36.4832 31.6913 36.1605 31.3687C35.8379 31.046 35.2952 30.8847 34.5325 30.8847C33.9312 30.8847 33.3152 30.98 32.6845 31.1707C32.0539 31.3467 31.4159 31.6253 30.7705 32.0067L29.9785 30.1367C30.3599 29.8727 30.8072 29.6453 31.3205 29.4547C31.8485 29.2493 32.3985 29.0953 32.9705 28.9927C33.5572 28.8753 34.1072 28.8167 34.6205 28.8167C35.6765 28.8167 36.5419 28.978 37.2165 29.3007C37.9059 29.6233 38.4192 30.1147 38.7565 30.7747C39.0939 31.42 39.2625 32.256 39.2625 33.2827V39.7947H36.6885V37.5067H36.8645C36.7619 38.02 36.5565 38.4673 36.2485 38.8487C35.9552 39.2153 35.5812 39.5013 35.1265 39.7067C34.6719 39.912 34.1512 40.0147 33.5645 40.0147ZM45.4738 40.0147C44.1978 40.0147 43.2518 39.67 42.6358 38.9807C42.0345 38.2767 41.7338 37.25 41.7338 35.9007V24.2847H44.4838V35.7687C44.4838 36.194 44.5425 36.5607 44.6598 36.8687C44.7918 37.162 44.9825 37.382 45.2318 37.5287C45.4811 37.6753 45.7891 37.7487 46.1558 37.7487C46.3171 37.7487 46.4785 37.7413 46.6398 37.7267C46.8011 37.712 46.9551 37.6827 47.1018 37.6387L47.0578 39.8167C46.7938 39.8753 46.5298 39.9193 46.2658 39.9487C46.0165 39.9927 45.7525 40.0147 45.4738 40.0147ZM53.0879 40.0147C51.6506 40.0147 50.5799 39.6553 49.8759 38.9367C49.1719 38.218 48.8199 37.1693 48.8199 35.7907V31.1047H46.7519V29.0367H48.8199V25.8247H51.5699V29.0367H54.8259V31.1047H51.5699V35.6367C51.5699 36.3407 51.7239 36.8687 52.0319 37.2207C52.3399 37.5727 52.8386 37.7487 53.5279 37.7487C53.7332 37.7487 53.9459 37.7267 54.1659 37.6827C54.3859 37.624 54.6132 37.5653 54.8479 37.5067L55.2659 39.5307C55.0019 39.6773 54.6646 39.7947 54.2539 39.8827C53.8579 39.9707 53.4692 40.0147 53.0879 40.0147ZM56.2832 39.7947V24.2847H59.0332V31.1927H58.7252C59.0479 30.4153 59.5466 29.8287 60.2212 29.4327C60.9106 29.022 61.6879 28.8167 62.5532 28.8167C63.4186 28.8167 64.1299 28.978 64.6872 29.3007C65.2446 29.6233 65.6626 30.1147 65.9412 30.7747C66.2199 31.42 66.3592 32.2413 66.3592 33.2387V39.7947H63.6092V33.3707C63.6092 32.8133 63.5359 32.3587 63.3892 32.0067C63.2572 31.6547 63.0446 31.398 62.7512 31.2367C62.4726 31.0607 62.1132 30.9727 61.6732 30.9727C61.1452 30.9727 60.6832 31.09 60.2872 31.3247C59.8912 31.5447 59.5832 31.8673 59.3632 32.2927C59.1432 32.7033 59.0332 33.1873 59.0332 33.7447V39.7947H56.2832Z" fill="#424242"/>
<path d="M10.1954 11.6931V12.3259H5.91809V14.5408H5.16809V12.3259H0.738403V11.6931H10.1954ZM9.14075 15.8181V16.4626H1.99231V13.4626H2.71887V15.8181H9.14075ZM5.44934 6.65405C7.65247 6.65405 9.07043 7.43921 9.07043 8.71655C9.07043 9.98218 7.65247 10.7556 5.44934 10.7556C3.25793 10.7556 1.82825 9.98218 1.83997 8.71655C1.82825 7.43921 3.25793 6.65405 5.44934 6.65405ZM5.44934 7.27515C3.76184 7.27515 2.6134 7.83765 2.6134 8.71655C2.6134 9.57202 3.76184 10.1345 5.44934 10.1345C7.14856 10.1345 8.297 9.57202 8.297 8.71655C8.297 7.83765 7.14856 7.27515 5.44934 7.27515ZM20.2231 11.5525V12.1619H10.8012V11.5525H15.1489V10.24H12.0082V6.86499H19.0395V7.46265H12.7348V9.6189H19.1098V10.24H15.8637V11.5525H20.2231ZM15.5122 12.9939C17.7153 12.9939 19.0512 13.6619 19.0512 14.8337C19.0512 16.0291 17.7153 16.6853 15.5122 16.697C13.2856 16.6853 11.9497 16.0291 11.9497 14.8337C11.9497 13.6619 13.2856 12.9939 15.5122 12.9939ZM15.5122 13.5798C13.7778 13.5916 12.6997 14.0603 12.6997 14.8337C12.6997 15.6189 13.7778 16.0876 15.5122 16.0876C17.2231 16.0876 18.3129 15.6189 18.3129 14.8337C18.3129 14.0603 17.2231 13.5916 15.5122 13.5798ZM26.4268 8.36499C26.4268 9.46655 27.3643 10.5798 28.6651 11.0369L28.3136 11.5994C27.2589 11.2126 26.4561 10.4333 26.087 9.51343C25.7237 10.5037 24.9268 11.365 23.8722 11.7986L23.4972 11.2244C24.8097 10.7087 25.712 9.51343 25.7237 8.36499V8.21265H23.7198V7.60327H25.7237V6.4314H26.4268V7.60327H28.3839V8.21265H26.4268V8.36499ZM32.169 6.3728V11.9392H31.4659V9.4314H29.9425V11.8455H29.2159V6.57202H29.9425V8.8103H31.4659V6.3728H32.169ZM32.169 12.4314V14.7048H26.1339V15.9705H32.6143V16.5564H25.4073V14.1306H31.4542V13.0173H25.3722V12.4314H32.169ZM41.9623 6.3728V13.99H41.2357V6.3728H41.9623ZM42.2787 15.8416V16.4626H35.2475V13.4041H35.9857V15.8416H42.2787ZM34.8373 11.8337C36.724 11.8337 38.1186 11.7634 39.8295 11.4822L39.9115 12.1033C38.1537 12.3962 36.7475 12.4548 34.8373 12.4548H34.017V9.40796H37.9662V7.7439H33.9936V7.1228H38.6928V10.0056H34.7318V11.8337H34.8373ZM47.1267 9.66577C47.1267 11.4353 48.5447 13.2283 49.9978 13.8611L49.5759 14.447C48.3865 13.8904 47.2497 12.6541 46.7634 11.1775C46.2829 12.7302 45.1521 14.1013 43.9978 14.7048L43.5525 14.1189C44.9587 13.4275 46.3767 11.4587 46.3884 9.66577V8.08374H43.8689V7.45093H49.6814V8.08374H47.1267V9.66577ZM52.0134 6.3728V16.7087H51.2751V6.3728H52.0134Z" fill="#424242"/>
</svg>
