<svg width="85" height="45" viewBox="0 0 85 45" fill="none" xmlns="http://www.w3.org/2000/svg">
<path d="M6.035 40.452L0.556998 24.942H3.461L7.751 37.658H6.871L11.359 24.942H13.449L17.783 37.658H17.013L21.369 24.942H24.119L18.597 40.452H16.265L12.085 28.528H12.591L8.367 40.452H6.035ZM27.9066 40.672C27.1293 40.672 26.4326 40.5254 25.8166 40.232C25.2153 39.924 24.7386 39.5134 24.3866 39C24.0493 38.4867 23.8806 37.9074 23.8806 37.262C23.8806 36.47 24.086 35.8467 24.4966 35.392C24.9073 34.9227 25.5746 34.5854 26.4986 34.38C27.4226 34.1747 28.662 34.072 30.2166 34.072H31.3166V35.656H30.2386C29.5493 35.656 28.97 35.6854 28.5006 35.744C28.0313 35.788 27.65 35.8687 27.3566 35.986C27.078 36.0887 26.8726 36.2354 26.7406 36.426C26.6233 36.6167 26.5646 36.8514 26.5646 37.13C26.5646 37.614 26.7333 38.01 27.0706 38.318C27.408 38.626 27.8773 38.78 28.4786 38.78C28.9626 38.78 29.388 38.67 29.7546 38.45C30.136 38.2154 30.4366 37.9 30.6566 37.504C30.8766 37.108 30.9866 36.6534 30.9866 36.14V33.61C30.9866 32.8767 30.8253 32.3487 30.5026 32.026C30.18 31.7034 29.6373 31.542 28.8746 31.542C28.2733 31.542 27.6573 31.6374 27.0266 31.828C26.396 32.004 25.758 32.2827 25.1126 32.664L24.3206 30.794C24.702 30.53 25.1493 30.3027 25.6626 30.112C26.1906 29.9067 26.7406 29.7527 27.3126 29.65C27.8993 29.5327 28.4493 29.474 28.9626 29.474C30.0186 29.474 30.884 29.6354 31.5586 29.958C32.248 30.2807 32.7613 30.772 33.0986 31.432C33.436 32.0774 33.6046 32.9134 33.6046 33.94V40.452H31.0306V38.164H31.2066C31.104 38.6774 30.8986 39.1247 30.5906 39.506C30.2973 39.8727 29.9233 40.1587 29.4686 40.364C29.014 40.5694 28.4933 40.672 27.9066 40.672ZM39.8159 40.672C38.5399 40.672 37.5939 40.3274 36.9779 39.638C36.3766 38.934 36.0759 37.9074 36.0759 36.558V24.942H38.8259V36.426C38.8259 36.8514 38.8846 37.218 39.0019 37.526C39.1339 37.8194 39.3246 38.0394 39.5739 38.186C39.8232 38.3327 40.1312 38.406 40.4979 38.406C40.6592 38.406 40.8206 38.3987 40.9819 38.384C41.1432 38.3694 41.2972 38.34 41.4439 38.296L41.3999 40.474C41.1359 40.5327 40.8719 40.5767 40.6079 40.606C40.3586 40.65 40.0946 40.672 39.8159 40.672ZM42.7813 40.452V24.942H45.5313V34.27H45.5753L49.9093 29.694H53.2313L47.8193 35.414V34.27L53.5393 40.452H50.1733L45.5753 35.656H45.5313V40.452H42.7813ZM54.0802 27.384V24.7H57.1602V27.384H54.0802ZM54.2562 40.452V29.694H57.0062V40.452H54.2562ZM59.5436 40.452V29.694H62.2276V31.85H61.9856C62.3083 31.0727 62.807 30.486 63.4816 30.09C64.171 29.6794 64.9483 29.474 65.8136 29.474C66.679 29.474 67.3903 29.6354 67.9476 29.958C68.505 30.2807 68.923 30.772 69.2016 31.432C69.4803 32.0774 69.6196 32.8987 69.6196 33.896V40.452H66.8696V34.028C66.8696 33.4707 66.7963 33.016 66.6496 32.664C66.5176 32.312 66.305 32.0554 66.0116 31.894C65.733 31.718 65.3736 31.63 64.9336 31.63C64.4056 31.63 63.9436 31.7474 63.5476 31.982C63.1516 32.202 62.8436 32.5247 62.6236 32.95C62.4036 33.3607 62.2936 33.8447 62.2936 34.402V40.452H59.5436ZM77.1088 44.632C76.1114 44.632 75.1728 44.5147 74.2928 44.28C73.4274 44.06 72.6648 43.7154 72.0048 43.246L72.7968 41.332C73.2074 41.596 73.6401 41.816 74.0948 41.992C74.5494 42.1827 75.0114 42.322 75.4808 42.41C75.9501 42.498 76.4194 42.542 76.8888 42.542C77.8714 42.542 78.6048 42.3 79.0888 41.816C79.5874 41.3467 79.8368 40.6427 79.8368 39.704V37.724H80.0348C79.8148 38.472 79.3528 39.0734 78.6488 39.528C77.9594 39.968 77.1748 40.188 76.2948 40.188C75.3268 40.188 74.4834 39.968 73.7648 39.528C73.0461 39.0734 72.4888 38.4427 72.0928 37.636C71.6968 36.8294 71.4988 35.8907 71.4988 34.82C71.4988 33.7494 71.6968 32.818 72.0928 32.026C72.4888 31.2194 73.0461 30.596 73.7648 30.156C74.4834 29.7014 75.3268 29.474 76.2948 29.474C77.2041 29.474 77.9961 29.7014 78.6708 30.156C79.3601 30.596 79.8074 31.1827 80.0128 31.916H79.8368V29.694H82.5208V39.374C82.5208 40.5327 82.3154 41.5007 81.9048 42.278C81.4941 43.07 80.8854 43.6567 80.0788 44.038C79.2721 44.434 78.2821 44.632 77.1088 44.632ZM77.0428 38.098C77.8934 38.098 78.5681 37.8047 79.0668 37.218C79.5654 36.6314 79.8148 35.832 79.8148 34.82C79.8148 33.808 79.5654 33.016 79.0668 32.444C78.5681 31.8574 77.8934 31.564 77.0428 31.564C76.1921 31.564 75.5174 31.8574 75.0188 32.444C74.5201 33.016 74.2708 33.808 74.2708 34.82C74.2708 35.832 74.5201 36.6314 75.0188 37.218C75.5174 37.8047 76.1921 38.098 77.0428 38.098Z" fill="#424242"/>
<path d="M18.5218 8.20642C18.5101 9.65955 19.6937 10.9838 21.1702 11.5111L20.7835 12.1088C19.6116 11.6693 18.639 10.7552 18.1937 9.62439C17.7601 10.9193 16.7757 11.9037 15.557 12.39L15.1468 11.7924C16.6702 11.2299 17.7952 9.83533 17.7952 8.15955V6.82361H18.5218V8.20642ZM23.1976 6.1908V9.42517H24.7913V10.058H23.1976V13.8549H22.4593V6.1908H23.1976ZM23.7015 15.6713V16.2924H16.8109V13.1166H17.5726V15.6713H23.7015ZM28.1979 8.39392C28.1979 9.68298 29.0768 10.9369 30.401 11.4408L30.026 12.015C28.9831 11.5814 28.2272 10.7494 27.8698 9.7533C27.5065 10.8373 26.7389 11.7396 25.6901 12.2025L25.3151 11.6517C26.6276 11.0892 27.4831 9.77673 27.4948 8.39392V8.2533H25.4909V7.6322H27.4948V6.33142H28.1979V7.6322H30.1549V8.2533H28.1979V8.39392ZM33.9401 6.20251V12.5424H33.237V9.64783H31.7135V12.472H30.987V6.40173H31.7135V9.02673H33.237V6.20251H33.9401ZM33.9401 13.1283V16.5385H33.2252V13.7377H27.026V13.1283H33.9401ZM40.8235 8.1947C40.8235 9.29626 41.761 10.4095 43.0618 10.8666L42.7102 11.4291C41.6556 11.0424 40.8528 10.2631 40.4837 9.34314C40.1204 10.3334 39.3235 11.1947 38.2688 11.6283L37.8938 11.0541C39.2063 10.5385 40.1087 9.34314 40.1204 8.1947V8.04236H38.1165V7.43298H40.1204V6.26111H40.8235V7.43298H42.7806V8.04236H40.8235V8.1947ZM46.5657 6.20251V11.7689H45.8626V9.26111H44.3391V11.6752H43.6126V6.40173H44.3391V8.64001H45.8626V6.20251H46.5657ZM46.5657 12.2611V14.5345H40.5306V15.8002H47.011V16.3861H39.804V13.9603H45.8509V12.847H39.7688V12.2611H46.5657ZM56.359 6.20251V13.8197H55.6324V6.20251H56.359ZM56.6754 15.6713V16.2924H49.6441V13.2338H50.3824V15.6713H56.6754ZM49.234 11.6635C51.1207 11.6635 52.5152 11.5931 54.2262 11.3119L54.3082 11.933C52.5504 12.226 51.1441 12.2845 49.234 12.2845H48.4137V9.23767H52.3629V7.57361H48.3902V6.95251H53.0895V9.83533H49.1285V11.6635H49.234ZM61.5234 9.49548C61.5234 11.265 62.9413 13.058 64.3945 13.6908L63.9726 14.2767C62.7831 13.7201 61.6464 12.4838 61.1601 11.0072C60.6796 12.5599 59.5488 13.931 58.3945 14.5345L57.9491 13.9486C59.3554 13.2572 60.7734 11.2885 60.7851 9.49548V7.91345H58.2656V7.28064H64.0781V7.91345H61.5234V9.49548ZM66.4101 6.20251V16.5385H65.6718V6.20251H66.4101Z" fill="#424242"/>
</svg>
