<svg width="76" height="50" viewBox="0 0 76 50" fill="none" xmlns="http://www.w3.org/2000/svg">
<path d="M18.55 42.1615C17.8167 42.1615 17.1867 42.0149 16.66 41.7215C16.14 41.4215 15.74 41.0015 15.46 40.4615C15.18 39.9149 15.04 39.2715 15.04 38.5315C15.04 37.7915 15.18 37.1515 15.46 36.6115C15.74 36.0715 16.14 35.6549 16.66 35.3615C17.1867 35.0615 17.8167 34.9115 18.55 34.9115C19.0233 34.9115 19.47 34.9849 19.89 35.1315C20.3167 35.2782 20.6667 35.4882 20.94 35.7615L20.52 36.7815C20.22 36.5282 19.9133 36.3449 19.6 36.2315C19.2867 36.1115 18.95 36.0515 18.59 36.0515C17.8767 36.0515 17.3333 36.2682 16.96 36.7015C16.5867 37.1282 16.4 37.7382 16.4 38.5315C16.4 39.3249 16.5867 39.9382 16.96 40.3715C17.3333 40.8049 17.8767 41.0215 18.59 41.0215C18.95 41.0215 19.2867 40.9649 19.6 40.8515C19.9133 40.7315 20.22 40.5449 20.52 40.2915L20.94 41.3115C20.6667 41.5782 20.3167 41.7882 19.89 41.9415C19.47 42.0882 19.0233 42.1615 18.55 42.1615ZM21.6171 42.0615V35.0115H22.8671V37.8815C23.0338 37.6149 23.2571 37.4149 23.5371 37.2815C23.8171 37.1415 24.1271 37.0715 24.4671 37.0715C25.6204 37.0715 26.1971 37.7415 26.1971 39.0815V42.0615H24.9471V39.1415C24.9471 38.7615 24.8738 38.4849 24.7271 38.3115C24.5871 38.1382 24.3671 38.0515 24.0671 38.0515C23.7004 38.0515 23.4071 38.1682 23.1871 38.4015C22.9738 38.6282 22.8671 38.9315 22.8671 39.3115V42.0615H21.6171ZM28.7567 42.1615C28.4034 42.1615 28.0867 42.0949 27.8067 41.9615C27.5334 41.8215 27.3167 41.6349 27.1567 41.4015C27.0034 41.1682 26.9267 40.9049 26.9267 40.6115C26.9267 40.2515 27.0201 39.9682 27.2067 39.7615C27.3934 39.5482 27.6967 39.3949 28.1167 39.3015C28.5367 39.2082 29.1001 39.1615 29.8067 39.1615H30.1567V38.9515C30.1567 38.6182 30.0834 38.3782 29.9367 38.2315C29.7901 38.0849 29.5434 38.0115 29.1967 38.0115C28.9234 38.0115 28.6434 38.0549 28.3567 38.1415C28.0701 38.2215 27.7801 38.3482 27.4867 38.5215L27.1267 37.6715C27.3001 37.5515 27.5034 37.4482 27.7367 37.3615C27.9767 37.2682 28.2267 37.1982 28.4867 37.1515C28.7534 37.0982 29.0034 37.0715 29.2367 37.0715C29.9501 37.0715 30.4801 37.2382 30.8267 37.5715C31.1734 37.8982 31.3467 38.4082 31.3467 39.1015V42.0615H30.1767V41.2815C30.0634 41.5549 29.8834 41.7715 29.6367 41.9315C29.3901 42.0849 29.0967 42.1615 28.7567 42.1615ZM29.0167 41.3015C29.3434 41.3015 29.6134 41.1882 29.8267 40.9615C30.0467 40.7349 30.1567 40.4482 30.1567 40.1015V39.8815H29.8167C29.1901 39.8815 28.7534 39.9315 28.5067 40.0315C28.2667 40.1249 28.1467 40.2982 28.1467 40.5515C28.1467 40.7715 28.2234 40.9515 28.3767 41.0915C28.5301 41.2315 28.7434 41.3015 29.0167 41.3015ZM33.9955 42.1615C33.4155 42.1615 32.9855 42.0049 32.7055 41.6915C32.4321 41.3715 32.2955 40.9049 32.2955 40.2915V35.0115H33.5455V40.2315C33.5455 40.8315 33.7988 41.1315 34.3055 41.1315C34.3788 41.1315 34.4521 41.1282 34.5255 41.1215C34.5988 41.1149 34.6688 41.1015 34.7355 41.0815L34.7155 42.0715C34.4755 42.1315 34.2355 42.1615 33.9955 42.1615ZM36.8688 42.1615C36.2888 42.1615 35.8588 42.0049 35.5788 41.6915C35.3055 41.3715 35.1688 40.9049 35.1688 40.2915V35.0115H36.4188V40.2315C36.4188 40.8315 36.6722 41.1315 37.1788 41.1315C37.2522 41.1315 37.3255 41.1282 37.3988 41.1215C37.4722 41.1149 37.5422 41.1015 37.6088 41.0815L37.5888 42.0715C37.3488 42.1315 37.1088 42.1615 36.8688 42.1615ZM40.4034 42.1615C39.85 42.1615 39.3734 42.0582 38.9734 41.8515C38.5734 41.6449 38.2634 41.3515 38.0434 40.9715C37.83 40.5915 37.7234 40.1415 37.7234 39.6215C37.7234 39.1149 37.8267 38.6715 38.0334 38.2915C38.2467 37.9115 38.5367 37.6149 38.9034 37.4015C39.2767 37.1815 39.7 37.0715 40.1734 37.0715C40.8667 37.0715 41.4134 37.2915 41.8134 37.7315C42.22 38.1715 42.4234 38.7715 42.4234 39.5315V39.9015H38.9234C39.0167 40.7749 39.5167 41.2115 40.4234 41.2115C40.6967 41.2115 40.97 41.1715 41.2434 41.0915C41.5167 41.0049 41.7667 40.8715 41.9934 40.6915L42.3434 41.5315C42.11 41.7249 41.8167 41.8782 41.4634 41.9915C41.11 42.1049 40.7567 42.1615 40.4034 42.1615ZM40.2234 37.9215C39.8567 37.9215 39.56 38.0349 39.3334 38.2615C39.1067 38.4882 38.97 38.7949 38.9234 39.1815H41.3834C41.3567 38.7749 41.2434 38.4649 41.0434 38.2515C40.85 38.0315 40.5767 37.9215 40.2234 37.9215ZM43.0933 42.0615V37.1715H44.3133V37.9315C44.4799 37.6515 44.7033 37.4382 44.9833 37.2915C45.2699 37.1449 45.5899 37.0715 45.9433 37.0715C47.0966 37.0715 47.6733 37.7415 47.6733 39.0815V42.0615H46.4233V39.1415C46.4233 38.7615 46.3499 38.4849 46.2033 38.3115C46.0633 38.1382 45.8433 38.0515 45.5433 38.0515C45.1766 38.0515 44.8833 38.1682 44.6633 38.4015C44.4499 38.6282 44.3433 38.9315 44.3433 39.3115V42.0615H43.0933ZM50.9029 43.9615C50.4496 43.9615 50.0229 43.9082 49.6229 43.8015C49.2296 43.7015 48.8829 43.5449 48.5829 43.3315L48.9429 42.4615C49.2229 42.6482 49.5229 42.7849 49.8429 42.8715C50.1629 42.9649 50.4829 43.0115 50.8029 43.0115C51.6962 43.0115 52.1429 42.5815 52.1429 41.7215V41.0515C52.0029 41.3249 51.7862 41.5415 51.4929 41.7015C51.2062 41.8615 50.8862 41.9415 50.5329 41.9415C50.0929 41.9415 49.7096 41.8415 49.3829 41.6415C49.0562 41.4349 48.8029 41.1482 48.6229 40.7815C48.4429 40.4149 48.3529 39.9882 48.3529 39.5015C48.3529 39.0149 48.4429 38.5915 48.6229 38.2315C48.8029 37.8649 49.0562 37.5815 49.3829 37.3815C49.7096 37.1749 50.0929 37.0715 50.5329 37.0715C50.8996 37.0715 51.2262 37.1549 51.5129 37.3215C51.7996 37.4815 52.0096 37.6982 52.1429 37.9715V37.1715H53.3629V41.5715C53.3629 42.3649 53.1529 42.9615 52.7329 43.3615C52.3129 43.7615 51.7029 43.9615 50.9029 43.9615ZM50.8729 40.9915C51.2596 40.9915 51.5662 40.8582 51.7929 40.5915C52.0196 40.3249 52.1329 39.9615 52.1329 39.5015C52.1329 39.0415 52.0196 38.6815 51.7929 38.4215C51.5662 38.1549 51.2596 38.0215 50.8729 38.0215C50.4862 38.0215 50.1796 38.1549 49.9529 38.4215C49.7262 38.6815 49.6129 39.0415 49.6129 39.5015C49.6129 39.9615 49.7262 40.3249 49.9529 40.5915C50.1796 40.8582 50.4862 40.9915 50.8729 40.9915ZM56.748 42.1615C56.1947 42.1615 55.718 42.0582 55.318 41.8515C54.918 41.6449 54.608 41.3515 54.388 40.9715C54.1747 40.5915 54.068 40.1415 54.068 39.6215C54.068 39.1149 54.1714 38.6715 54.378 38.2915C54.5914 37.9115 54.8814 37.6149 55.248 37.4015C55.6214 37.1815 56.0447 37.0715 56.518 37.0715C57.2114 37.0715 57.758 37.2915 58.158 37.7315C58.5647 38.1715 58.768 38.7715 58.768 39.5315V39.9015H55.268C55.3614 40.7749 55.8614 41.2115 56.768 41.2115C57.0414 41.2115 57.3147 41.1715 57.588 41.0915C57.8614 41.0049 58.1114 40.8715 58.338 40.6915L58.688 41.5315C58.4547 41.7249 58.1614 41.8782 57.808 41.9915C57.4547 42.1049 57.1014 42.1615 56.748 42.1615ZM56.568 37.9215C56.2014 37.9215 55.9047 38.0349 55.678 38.2615C55.4514 38.4882 55.3147 38.7949 55.268 39.1815H57.728C57.7014 38.7749 57.588 38.4649 57.388 38.2515C57.1947 38.0315 56.9214 37.9215 56.568 37.9215Z" fill="#56CCC3"/>
<path fill-rule="evenodd" clip-rule="evenodd" d="M46.3457 25.3043C44.6637 25.3043 42.7147 24.8237 40.6589 24.3164C38.3895 23.7558 36.0668 23.1951 33.9042 23.1951C32.4624 23.1951 31.261 23.4621 30.2732 23.996C29.9528 24.1829 29.5256 24.1829 29.2052 23.996C28.8848 23.7825 28.6979 23.4354 28.6979 23.0616V6.72204C28.6979 6.13467 29.1518 5.6541 29.7392 5.6541C33.7974 5.5473 37.2415 6.74874 40.5788 7.89678C42.2341 8.45745 43.7827 9.01812 45.3846 9.3919C46.8263 9.71229 47.7875 9.84578 48.7486 9.84578C49.7899 9.84578 50.8578 9.68559 52.1393 9.28511C52.4864 9.17831 52.8869 9.28511 53.1539 9.52539C53.4476 9.79238 53.5544 10.1662 53.4743 10.5399L51.0981 21.6199C50.5641 24.0761 48.9622 25.3043 46.3457 25.3043ZM35.3726 22.7145C35.6663 22.7145 35.9066 22.5009 35.9066 22.1805V7.38951C35.9066 7.09582 35.6663 6.85553 35.3726 6.85553C35.0789 6.85553 34.8386 7.09582 34.8386 7.38951V22.1805C34.8386 22.5009 35.0789 22.7145 35.3726 22.7145Z" fill="#56CCC3"/>
<path fill-rule="evenodd" clip-rule="evenodd" d="M29.6877 30.6473C29.1433 30.6473 28.6979 30.2019 28.6979 29.6575V6.64552C28.6979 6.10116 29.1433 5.65576 29.6877 5.65576C30.2321 5.65576 30.6775 6.10116 30.6775 6.64552V29.6575C30.6775 30.2019 30.2321 30.6473 29.6877 30.6473Z" fill="#56CCC3"/>
</svg>
