<svg width="76" height="50" viewBox="0 0 76 50" fill="none" xmlns="http://www.w3.org/2000/svg">
<path d="M24.7697 42.0615V35.0115H26.0897V37.9315H29.6697V35.0115H30.9897V42.0615H29.6697V39.0415H26.0897V42.0615H24.7697ZM34.5196 42.1615C33.9996 42.1615 33.5463 42.0582 33.1596 41.8515C32.7796 41.6382 32.4829 41.3382 32.2696 40.9515C32.0629 40.5649 31.9596 40.1115 31.9596 39.5915C31.9596 39.0649 32.0629 38.6115 32.2696 38.2315C32.4829 37.8449 32.7796 37.5482 33.1596 37.3415C33.5463 37.1282 33.9996 37.0215 34.5196 37.0215C35.0463 37.0215 35.4996 37.1282 35.8796 37.3415C36.2596 37.5482 36.5529 37.8449 36.7596 38.2315C36.9729 38.6182 37.0796 39.0682 37.0796 39.5815C37.0796 40.1082 36.9729 40.5649 36.7596 40.9515C36.5529 41.3382 36.2596 41.6382 35.8796 41.8515C35.4996 42.0582 35.0463 42.1615 34.5196 42.1615ZM34.5196 41.1415C34.9129 41.1415 35.2229 41.0082 35.4496 40.7415C35.6763 40.4682 35.7896 40.0815 35.7896 39.5815C35.7896 39.0815 35.6763 38.7015 35.4496 38.4415C35.2229 38.1749 34.9129 38.0415 34.5196 38.0415C34.1329 38.0415 33.8229 38.1749 33.5896 38.4415C33.3629 38.7015 33.2496 39.0815 33.2496 39.5815C33.2496 40.0815 33.3629 40.4682 33.5896 40.7415C33.8229 41.0082 34.1329 41.1415 34.5196 41.1415ZM37.9257 42.0615V37.1215H39.1457V38.1315H39.0957C39.1824 37.9049 39.3057 37.7115 39.4657 37.5515C39.6257 37.3849 39.8157 37.2549 40.0357 37.1615C40.2557 37.0682 40.4957 37.0215 40.7557 37.0215C41.1557 37.0215 41.4857 37.1182 41.7457 37.3115C42.0124 37.5049 42.1957 37.7815 42.2957 38.1415H42.2157C42.349 37.8149 42.5657 37.5482 42.8657 37.3415C43.1657 37.1282 43.5257 37.0215 43.9457 37.0215C44.319 37.0215 44.6324 37.0982 44.8857 37.2515C45.139 37.3982 45.329 37.6249 45.4557 37.9315C45.589 38.2382 45.6557 38.6249 45.6557 39.0915V42.0615H44.3657V39.1415C44.3657 38.7749 44.3024 38.5049 44.1757 38.3315C44.0557 38.1515 43.8424 38.0615 43.5357 38.0615C43.309 38.0615 43.109 38.1149 42.9357 38.2215C42.769 38.3282 42.6424 38.4782 42.5557 38.6715C42.469 38.8582 42.4257 39.0815 42.4257 39.3415V42.0615H41.1457V39.1415C41.1457 38.7749 41.079 38.5049 40.9457 38.3315C40.819 38.1515 40.609 38.0615 40.3157 38.0615C40.089 38.0615 39.8924 38.1182 39.7257 38.2315C39.5657 38.3382 39.439 38.4882 39.3457 38.6815C39.259 38.8749 39.2157 39.0949 39.2157 39.3415V42.0615H37.9257ZM49.2756 42.1615C48.6889 42.1615 48.1856 42.0582 47.7656 41.8515C47.3523 41.6449 47.0356 41.3482 46.8156 40.9615C46.5956 40.5749 46.4856 40.1182 46.4856 39.5915C46.4856 39.0915 46.5889 38.6515 46.7956 38.2715C47.0089 37.8849 47.3056 37.5815 47.6856 37.3615C48.0656 37.1349 48.5089 37.0215 49.0156 37.0215C49.4889 37.0215 49.8989 37.1249 50.2456 37.3315C50.5923 37.5315 50.8589 37.8215 51.0456 38.2015C51.2389 38.5749 51.3356 39.0215 51.3356 39.5415V39.9315H47.5256V39.1615H50.4156L50.2556 39.3215C50.2556 38.8615 50.1489 38.5149 49.9356 38.2815C49.7289 38.0415 49.4323 37.9215 49.0456 37.9215C48.7723 37.9215 48.5356 37.9849 48.3356 38.1115C48.1356 38.2315 47.9789 38.4049 47.8656 38.6315C47.7589 38.8582 47.7056 39.1349 47.7056 39.4615V39.5615C47.7056 39.9282 47.7656 40.2315 47.8856 40.4715C48.0056 40.7049 48.1856 40.8782 48.4256 40.9915C48.6656 41.1049 48.9589 41.1615 49.3056 41.1615C49.5723 41.1615 49.8423 41.1249 50.1156 41.0515C50.3956 40.9782 50.6489 40.8549 50.8756 40.6815L51.2356 41.5615C50.9889 41.7549 50.6856 41.9049 50.3256 42.0115C49.9723 42.1115 49.6223 42.1615 49.2756 42.1615Z" fill="#6B7F7C"/>
<path d="M25.5225 17.456L36.4884 7.47868C36.9073 7.09538 37.4546 6.88281 38.0225 6.88281C38.5903 6.88281 39.1376 7.09538 39.5566 7.47868L50.5225 17.456" stroke="#6B7F7C" stroke-width="2.5" stroke-linecap="round" stroke-linejoin="round"/>
<path d="M27.7952 15.1836V28.82C27.7952 29.1213 27.9149 29.4104 28.128 29.6235C28.3411 29.8366 28.6301 29.9563 28.9315 29.9563H34.6133V20.8654H41.4315V29.9563H47.1133C47.4147 29.9563 47.7038 29.8366 47.9169 29.6235C48.13 29.4104 48.2497 29.1213 48.2497 28.82V15.1836" stroke="#6B7F7C" stroke-width="2.5" stroke-linejoin="round"/>
</svg>
