<svg width="75" height="50" viewBox="0 0 75 50" fill="none" xmlns="http://www.w3.org/2000/svg">
<path d="M30.87 42V34.95H32.13L34.6 39.67H34.41L36.88 34.95H38.12V42H36.89V36.91H37.02L34.91 40.9H34.08L31.95 36.9H32.09V42H30.87ZM39.8544 43.8L40.8844 41.52V42.26L38.6644 37.06H40.0344L41.4844 40.79H41.3044L42.7644 37.06H44.0844L41.1944 43.8H39.8544Z" fill="#56CCC3"/>
<path d="M37 17C40.3137 17 43 14.3137 43 11C43 7.68629 40.3137 5 37 5C33.6863 5 31 7.68629 31 11C31 14.3137 33.6863 17 37 17Z" fill="#56CCC3"/>
<path d="M47.08 26.262V28.6429C47.08 28.9587 46.9742 29.2615 46.7859 29.4847C46.5976 29.708 46.3423 29.8334 46.076 29.8334H28.004C27.7377 29.8334 27.4824 29.708 27.2941 29.4847C27.1058 29.2615 27 28.9587 27 28.6429V26.262C27 24.3676 27.6347 22.5508 28.7644 21.2112C29.8941 19.8717 31.4263 19.1191 33.024 19.1191H41.056C42.6537 19.1191 44.1859 19.8717 45.3156 21.2112C46.4453 22.5508 47.08 24.3676 47.08 26.262Z" fill="#56CCC3"/>
</svg>
