<svg width="75" height="50" viewBox="0 0 75 50" fill="none" xmlns="http://www.w3.org/2000/svg">
<path d="M29.1441 42.0615V35.0115H30.2141L32.7141 39.6215L35.2041 35.0115H36.2541V42.0615H35.0941V37.3115L33.0741 40.9915H32.3241L30.3041 37.3315V42.0615H29.1441ZM37.8057 43.8615L38.7057 41.8615L36.6757 37.1715H38.0057L39.3757 40.5915L40.7757 37.1715H42.0357L39.0957 43.8615H37.8057Z" fill="#6B7F7C"/>
<path d="M40.1556 12.19C40.1556 12.4231 40.1397 12.6563 40.1105 12.8868C40.1238 12.7941 40.137 12.6987 40.1476 12.606C40.084 13.067 39.9622 13.5148 39.7846 13.944C39.8191 13.8592 39.8562 13.7745 39.8906 13.6897C39.7131 14.1083 39.4852 14.5005 39.207 14.8608L39.3739 14.6462C39.0984 15.0013 38.7778 15.3219 38.4227 15.5974L38.6373 15.4305C38.277 15.7061 37.8848 15.9366 37.4662 16.1141C37.551 16.0797 37.6358 16.0426 37.7205 16.0081C37.2913 16.1856 36.8435 16.3075 36.3825 16.3711C36.4752 16.3579 36.5706 16.3446 36.6633 16.334C36.1996 16.395 35.7333 16.395 35.2696 16.334C35.3624 16.3473 35.4577 16.3605 35.5505 16.3711C35.0894 16.3075 34.6416 16.1856 34.2124 16.0081C34.2972 16.0426 34.382 16.0797 34.4668 16.1141C34.0481 15.9366 33.656 15.7087 33.2956 15.4305L33.5102 15.5974C33.1552 15.3219 32.8346 15.0013 32.559 14.6462L32.7259 14.8608C32.4504 14.5005 32.2199 14.1083 32.0423 13.6897C32.0768 13.7745 32.1139 13.8592 32.1483 13.944C31.9708 13.5148 31.8489 13.067 31.7853 12.606C31.7986 12.6987 31.8118 12.7941 31.8224 12.8868C31.7615 12.4231 31.7615 11.9568 31.8224 11.4931C31.8092 11.5858 31.7959 11.6812 31.7853 11.774C31.8489 11.3129 31.9708 10.8651 32.1483 10.4359C32.1139 10.5207 32.0768 10.6055 32.0423 10.6903C32.2199 10.2716 32.4477 9.87946 32.7259 9.51911L32.559 9.73373C32.8346 9.37868 33.1552 9.05807 33.5102 8.7825L33.2956 8.94943C33.656 8.67387 34.0481 8.44335 34.4668 8.26582C34.382 8.30027 34.2972 8.33736 34.2124 8.37181C34.6416 8.19428 35.0894 8.07239 35.5505 8.0088C35.4577 8.02205 35.3624 8.0353 35.2696 8.0459C35.7333 7.98496 36.1996 7.98496 36.6633 8.0459C36.5706 8.03265 36.4752 8.0194 36.3825 8.0088C36.8435 8.07239 37.2913 8.19428 37.7205 8.37181C37.6358 8.33736 37.551 8.30027 37.4662 8.26582C37.8848 8.44335 38.277 8.67122 38.6373 8.94943L38.4227 8.7825C38.7778 9.05807 39.0984 9.37868 39.3739 9.73373L39.207 9.51911C39.4826 9.87946 39.7131 10.2716 39.8906 10.6903C39.8562 10.6055 39.8191 10.5207 39.7846 10.4359C39.9622 10.8651 40.084 11.3129 40.1476 11.774C40.1344 11.6812 40.1211 11.5858 40.1105 11.4931C40.1397 11.7236 40.1529 11.9568 40.1556 12.19C40.1582 12.7437 40.6405 13.2763 41.2154 13.2498C41.7878 13.2233 42.278 12.7835 42.2753 12.19C42.27 10.9208 41.8885 9.62245 41.1413 8.58908C40.9399 8.31086 40.7253 8.03795 40.4868 7.79153C40.2457 7.54246 39.9807 7.32784 39.7051 7.11852C39.2044 6.73697 38.6453 6.4561 38.0518 6.23883C35.6591 5.36179 32.7736 6.14344 31.1547 8.11479C30.9321 8.38505 30.7201 8.66592 30.54 8.96798C30.3598 9.26739 30.2194 9.58535 30.0895 9.90861C29.8458 10.5074 29.7212 11.1433 29.6709 11.7872C29.5728 13.0485 29.9014 14.3653 30.5585 15.4464C31.1918 16.4904 32.1483 17.3859 33.2665 17.892C33.595 18.0404 33.9315 18.1782 34.2813 18.2762C34.6284 18.3716 34.9808 18.4246 35.3385 18.467C35.9903 18.5438 36.6554 18.4909 37.2993 18.361C39.7449 17.8629 41.7931 15.7564 42.172 13.2843C42.2276 12.9239 42.27 12.5636 42.27 12.1979C42.2727 11.6441 41.7798 11.1116 41.2101 11.1381C40.6378 11.1566 40.1556 11.5964 40.1556 12.19ZM43.6717 28.7583H30.0763C29.4748 28.7583 28.8733 28.7636 28.2719 28.7583C28.2056 28.7583 28.1394 28.753 28.0758 28.745C28.1685 28.7583 28.2639 28.7715 28.3567 28.7821C28.2507 28.7662 28.15 28.7371 28.0519 28.6973C28.1367 28.7318 28.2215 28.7689 28.3063 28.8033C28.2003 28.7583 28.1023 28.7 28.0095 28.6284L28.2242 28.7954C28.1447 28.7291 28.0705 28.6576 28.0069 28.5781L28.1738 28.7927C28.1023 28.7 28.0466 28.602 27.999 28.496C28.0334 28.5808 28.0705 28.6655 28.1049 28.7503C28.0652 28.6523 28.0387 28.549 28.0201 28.4456C28.0334 28.5384 28.0466 28.6337 28.0572 28.7265C28.0148 28.4059 28.044 28.0667 28.044 27.7435V26.6094C28.044 26.3259 28.0599 26.045 28.097 25.7642C28.0837 25.8569 28.0705 25.9523 28.0599 26.045C28.1341 25.5019 28.2772 24.9693 28.4918 24.4632C28.4573 24.548 28.4202 24.6328 28.3858 24.7176C28.5925 24.2353 28.8574 23.7822 29.178 23.3662L29.0111 23.5808C29.3317 23.1702 29.7 22.7992 30.1134 22.4786L29.8988 22.6455C30.3148 22.3249 30.7678 22.0599 31.2501 21.8533C31.1653 21.8877 31.0805 21.9248 30.9957 21.9593C31.5018 21.7473 32.0317 21.6016 32.5776 21.5274C32.4848 21.5406 32.3894 21.5539 32.2967 21.5645C32.6888 21.5141 33.0783 21.5115 33.4731 21.5115H38.322C38.7592 21.5115 39.1938 21.5088 39.631 21.5645C39.5382 21.5512 39.4428 21.538 39.3501 21.5274C39.8933 21.6016 40.4258 21.7446 40.9319 21.9593C40.8471 21.9248 40.7624 21.8877 40.6776 21.8533C41.1598 22.0599 41.6129 22.3249 42.0289 22.6455L41.8143 22.4786C42.225 22.7992 42.5959 23.1675 42.9165 23.5808L42.7496 23.3662C43.0702 23.7822 43.3352 24.2353 43.5418 24.7176C43.5074 24.6328 43.4703 24.548 43.4359 24.4632C43.6478 24.9693 43.7936 25.4992 43.8678 26.045C43.8545 25.9523 43.8413 25.8569 43.8307 25.7642C43.881 26.1643 43.8837 26.5617 43.8837 26.9645V28.276C43.8837 28.4271 43.889 28.5781 43.8704 28.7265C43.8837 28.6337 43.8969 28.5384 43.9075 28.4456C43.8916 28.5516 43.8625 28.6523 43.8227 28.7503C43.8572 28.6655 43.8943 28.5808 43.9287 28.496C43.8837 28.602 43.8254 28.7 43.7538 28.7927L43.9207 28.5781C43.8545 28.6576 43.783 28.7318 43.7035 28.7954L43.9181 28.6284C43.8254 28.7 43.7273 28.7556 43.6213 28.8033C43.7061 28.7689 43.7909 28.7318 43.8757 28.6973C43.7777 28.7371 43.6743 28.7636 43.571 28.7821C43.6637 28.7689 43.7591 28.7556 43.8519 28.745C43.7936 28.753 43.7326 28.7556 43.6717 28.7583C43.3988 28.7609 43.1179 28.8749 42.9218 29.0683C42.739 29.2511 42.5986 29.5532 42.6118 29.8181C42.6383 30.3852 43.0782 30.886 43.6717 30.878C44.7024 30.8621 45.6086 30.1891 45.9106 29.2008C46.0299 28.8086 46.0034 28.3873 46.0034 27.9846C46.0034 27.0625 46.0325 26.1484 45.8735 25.2342C45.6404 23.8962 44.9674 22.6376 44.0453 21.6492C43.1232 20.6609 41.8832 19.9349 40.5716 19.6117C39.8191 19.4262 39.0613 19.397 38.2929 19.397H33.5924C32.8054 19.397 32.0238 19.4341 31.258 19.6382C29.957 19.9826 28.7329 20.7166 27.8294 21.7128C26.9179 22.7171 26.2581 23.9783 26.0435 25.3243C25.9004 26.2279 25.9296 27.134 25.9296 28.0455C25.9296 28.4642 25.9057 28.9014 26.0568 29.3015C26.2528 29.8155 26.5655 30.2209 27.0239 30.5256C27.3816 30.7614 27.8347 30.8754 28.2586 30.8807C28.4653 30.8833 28.672 30.8807 28.8786 30.8807H43.6743C44.2281 30.8807 44.7607 30.3931 44.7342 29.8208C44.7077 29.2432 44.2679 28.7583 43.6717 28.7583Z" fill="#6B7F7C"/>
<path d="M40.1556 12.19C40.1556 12.4231 40.1397 12.6563 40.1105 12.8868C40.1238 12.7941 40.137 12.6987 40.1476 12.606C40.084 13.067 39.9622 13.5148 39.7846 13.944C39.8191 13.8592 39.8562 13.7745 39.8906 13.6897C39.7131 14.1083 39.4852 14.5005 39.207 14.8608L39.3739 14.6462C39.0984 15.0013 38.7778 15.3219 38.4227 15.5974L38.6373 15.4305C38.277 15.7061 37.8848 15.9366 37.4662 16.1141C37.551 16.0797 37.6358 16.0426 37.7205 16.0081C37.2913 16.1856 36.8435 16.3075 36.3825 16.3711C36.4752 16.3579 36.5706 16.3446 36.6633 16.334C36.1996 16.395 35.7333 16.395 35.2696 16.334C35.3624 16.3473 35.4577 16.3605 35.5505 16.3711C35.0894 16.3075 34.6416 16.1856 34.2124 16.0081C34.2972 16.0426 34.382 16.0797 34.4668 16.1141C34.0481 15.9366 33.656 15.7087 33.2956 15.4305L33.5102 15.5974C33.1552 15.3219 32.8346 15.0013 32.559 14.6462L32.7259 14.8608C32.4504 14.5005 32.2199 14.1083 32.0423 13.6897C32.0768 13.7745 32.1139 13.8592 32.1483 13.944C31.9708 13.5148 31.8489 13.067 31.7853 12.606C31.7986 12.6987 31.8118 12.7941 31.8224 12.8868C31.7615 12.4231 31.7615 11.9568 31.8224 11.4931C31.8092 11.5858 31.7959 11.6812 31.7853 11.774C31.8489 11.3129 31.9708 10.8651 32.1483 10.4359C32.1139 10.5207 32.0768 10.6055 32.0423 10.6903C32.2199 10.2716 32.4477 9.87946 32.7259 9.51911L32.559 9.73373C32.8346 9.37868 33.1552 9.05807 33.5102 8.7825L33.2956 8.94943C33.656 8.67387 34.0481 8.44335 34.4668 8.26582C34.382 8.30027 34.2972 8.33736 34.2124 8.37181C34.6416 8.19428 35.0894 8.07239 35.5505 8.0088C35.4577 8.02205 35.3624 8.0353 35.2696 8.0459C35.7333 7.98496 36.1996 7.98496 36.6633 8.0459C36.5706 8.03265 36.4752 8.0194 36.3825 8.0088C36.8435 8.07239 37.2913 8.19428 37.7205 8.37181C37.6358 8.33736 37.551 8.30027 37.4662 8.26582C37.8848 8.44335 38.277 8.67122 38.6373 8.94943L38.4227 8.7825C38.7778 9.05807 39.0984 9.37868 39.3739 9.73373L39.207 9.51911C39.4826 9.87946 39.7131 10.2716 39.8906 10.6903C39.8562 10.6055 39.8191 10.5207 39.7846 10.4359C39.9622 10.8651 40.084 11.3129 40.1476 11.774C40.1344 11.6812 40.1211 11.5858 40.1105 11.4931C40.1397 11.7236 40.1529 11.9568 40.1556 12.19ZM40.1556 12.19C40.1582 12.7437 40.6405 13.2763 41.2154 13.2498C41.7878 13.2233 42.278 12.7835 42.2753 12.19C42.27 10.9208 41.8885 9.62245 41.1413 8.58908C40.9399 8.31086 40.7253 8.03795 40.4868 7.79153C40.2457 7.54246 39.9807 7.32784 39.7051 7.11852C39.2044 6.73697 38.6453 6.4561 38.0518 6.23883C35.6591 5.36179 32.7736 6.14344 31.1547 8.11479C30.9321 8.38505 30.7202 8.66592 30.54 8.96798C30.3598 9.26739 30.2194 9.58535 30.0895 9.90861C29.8458 10.5074 29.7212 11.1433 29.6709 11.7872C29.5728 13.0485 29.9014 14.3653 30.5585 15.4464C31.1918 16.4904 32.1483 17.3859 33.2665 17.892C33.595 18.0404 33.9315 18.1782 34.2813 18.2762C34.6284 18.3716 34.9808 18.4246 35.3385 18.467C35.9903 18.5438 36.6554 18.4909 37.2993 18.361C39.7449 17.8629 41.7931 15.7564 42.172 13.2843C42.2276 12.9239 42.27 12.5636 42.27 12.1979C42.2727 11.6441 41.7798 11.1116 41.2101 11.138C40.6378 11.1566 40.1556 11.5964 40.1556 12.19ZM43.6717 28.7583H30.0763C29.4748 28.7583 28.8733 28.7636 28.2719 28.7583C28.2056 28.7583 28.1394 28.753 28.0758 28.745C28.1685 28.7583 28.2639 28.7715 28.3567 28.7821C28.2507 28.7662 28.15 28.7371 28.0519 28.6973C28.1367 28.7318 28.2215 28.7689 28.3063 28.8033C28.2003 28.7583 28.1023 28.7 28.0095 28.6284L28.2242 28.7954C28.1447 28.7291 28.0705 28.6576 28.0069 28.5781L28.1738 28.7927C28.1023 28.7 28.0466 28.602 27.999 28.496C28.0334 28.5808 28.0705 28.6655 28.1049 28.7503C28.0652 28.6523 28.0387 28.549 28.0201 28.4456C28.0334 28.5384 28.0466 28.6337 28.0572 28.7265C28.0148 28.4059 28.044 28.0667 28.044 27.7435V26.6094C28.044 26.3259 28.0599 26.045 28.097 25.7642C28.0837 25.8569 28.0705 25.9523 28.0599 26.045C28.1341 25.5019 28.2772 24.9693 28.4918 24.4632C28.4573 24.548 28.4202 24.6328 28.3858 24.7176C28.5925 24.2353 28.8574 23.7822 29.178 23.3662L29.0111 23.5808C29.3317 23.1702 29.7 22.7992 30.1134 22.4786L29.8988 22.6455C30.3148 22.3249 30.7678 22.0599 31.2501 21.8533C31.1653 21.8877 31.0805 21.9248 30.9957 21.9593C31.5018 21.7473 32.0317 21.6016 32.5776 21.5274C32.4848 21.5406 32.3894 21.5539 32.2967 21.5645C32.6888 21.5141 33.0783 21.5115 33.4731 21.5115H38.322C38.7592 21.5115 39.1938 21.5088 39.631 21.5645C39.5382 21.5512 39.4428 21.538 39.3501 21.5274C39.8933 21.6016 40.4259 21.7446 40.9319 21.9593C40.8471 21.9248 40.7624 21.8877 40.6776 21.8533C41.1598 22.0599 41.6129 22.3249 42.0289 22.6455L41.8143 22.4786C42.225 22.7992 42.5959 23.1675 42.9165 23.5808L42.7496 23.3662C43.0702 23.7822 43.3352 24.2353 43.5418 24.7176C43.5074 24.6328 43.4703 24.548 43.4359 24.4632C43.6478 24.9693 43.7936 25.4992 43.8678 26.045C43.8545 25.9523 43.8413 25.8569 43.8307 25.7642C43.881 26.1643 43.8837 26.5617 43.8837 26.9645V28.276C43.8837 28.4271 43.889 28.5781 43.8704 28.7265C43.8837 28.6337 43.8969 28.5384 43.9075 28.4456C43.8916 28.5516 43.8625 28.6523 43.8227 28.7503C43.8572 28.6655 43.8943 28.5808 43.9287 28.496C43.8837 28.602 43.8254 28.7 43.7538 28.7927L43.9208 28.5781C43.8545 28.6576 43.783 28.7318 43.7035 28.7954L43.9181 28.6284C43.8254 28.7 43.7273 28.7556 43.6213 28.8033C43.7061 28.7689 43.7909 28.7318 43.8757 28.6973C43.7777 28.7371 43.6743 28.7636 43.571 28.7821C43.6637 28.7689 43.7591 28.7556 43.8519 28.745C43.7936 28.753 43.7326 28.7556 43.6717 28.7583ZM43.6717 28.7583C43.3988 28.7609 43.1179 28.8749 42.9218 29.0683C42.739 29.2511 42.5986 29.5532 42.6118 29.8181C42.6383 30.3852 43.0782 30.886 43.6717 30.878C44.7024 30.8621 45.6086 30.1891 45.9106 29.2008C46.0299 28.8086 46.0034 28.3873 46.0034 27.9846C46.0034 27.0625 46.0325 26.1484 45.8735 25.2342C45.6404 23.8962 44.9674 22.6376 44.0453 21.6492C43.1232 20.6609 41.8832 19.9349 40.5716 19.6117C39.8191 19.4262 39.0613 19.397 38.2929 19.397H33.5924C32.8054 19.397 32.0238 19.4341 31.258 19.6382C29.957 19.9826 28.7329 20.7166 27.8294 21.7128C26.9179 22.7171 26.2581 23.9783 26.0435 25.3243C25.9004 26.2279 25.9296 27.134 25.9296 28.0455C25.9296 28.4642 25.9057 28.9014 26.0568 29.3015C26.2528 29.8155 26.5655 30.2209 27.0239 30.5256C27.3816 30.7614 27.8347 30.8754 28.2586 30.8807C28.4653 30.8833 28.672 30.8807 28.8786 30.8807H43.6743C44.2281 30.8807 44.7607 30.3931 44.7342 29.8208C44.7077 29.2432 44.2679 28.7583 43.6717 28.7583Z" stroke="#6B7F7C" stroke-width="0.5"/>
</svg>
