<svg width="81" height="17" viewBox="0 0 81 17" fill="none" xmlns="http://www.w3.org/2000/svg">
<path d="M13.8896 0.746338V12.4006H11.9385V7.05688H8.87988V5.4397H11.9385V0.746338H13.8896ZM8.98535 1.94165C8.98535 6.12524 6.20801 9.27173 1.62012 10.7307L0.793945 9.16626C4.22168 8.07642 6.48047 6.05493 6.8584 3.54126H1.62012V1.94165H8.98535ZM14.2939 14.7209V16.303H3.53613V11.2229H5.52246V14.7209H14.2939ZM28.6729 0.72876V4.59595H30.8877V6.19556H28.6729V10.0452H26.7217V0.72876H28.6729ZM24.2783 1.8186C24.2783 6.0022 21.5537 8.95532 16.8604 10.2913L16.0869 8.70923C19.6904 7.72485 21.8262 5.78247 22.1689 3.40063H16.8076V1.8186H24.2783ZM23.54 10.2385C26.7568 10.2385 28.8486 11.469 28.8486 13.4202C28.8486 15.4065 26.7568 16.6018 23.54 16.6018C20.3408 16.6018 18.2139 15.4065 18.2314 13.4202C18.2139 11.469 20.3408 10.2385 23.54 10.2385ZM23.54 11.7678C21.4482 11.7678 20.1475 12.3655 20.165 13.4202C20.1475 14.4573 21.4482 15.0725 23.54 15.0725C25.6318 15.0725 26.9326 14.4573 26.9326 13.4202C26.9326 12.3655 25.6318 11.7678 23.54 11.7678ZM43.4561 2.32837V3.87524H40.8721C40.8984 5.28149 41.9883 6.71411 43.9482 7.35571L43.1045 8.77954C41.5928 8.31372 40.5469 7.3645 39.9756 6.19556C39.3955 7.46997 38.3496 8.53345 36.8467 9.07837L35.9678 7.60181C37.9102 6.87231 38.9824 5.31665 39.0264 3.87524H36.4072V2.32837H39.0264V0.799072H40.8721V2.32837H43.4561ZM49.5557 0.746338V9.1311H47.6924V5.70337H46.1631V9.02563H44.3174V1.04517H46.1631V4.13892H47.6924V0.746338H49.5557ZM49.5557 9.74634V13.7366H40.7666V14.967H50.1182V16.426H38.8154V12.3127H47.6221V11.2229H38.7979V9.74634H49.5557ZM64.7256 0.746338V12.4358H62.792V0.746338H64.7256ZM65.165 14.7209V16.303H54.1436V11.4866H56.1123V14.7209H65.165ZM59.6631 1.8186V6.7229H54.2842V8.72681C57.1582 8.71802 59.0479 8.63013 61.2451 8.23462L61.4561 9.79907C59.0654 10.2385 56.9736 10.3264 53.7217 10.3264H52.3682V5.24634H57.7295V3.38306H52.333V1.8186H59.6631ZM73.0752 5.24634C73.0752 7.8479 74.6045 10.5901 77.1709 11.6624L76.0986 13.2092C74.2178 12.4006 72.8467 10.7307 72.126 8.70923C71.3877 10.8889 69.999 12.717 68.1357 13.5959L67.0107 12.0667C69.5244 10.9065 71.0889 7.95337 71.0889 5.24634V3.9104H67.5908V2.29321H76.5557V3.9104H73.0752V5.24634ZM80.2998 0.72876V16.6194H78.3311V0.72876H80.2998Z" fill="white"/>
</svg>
