<svg width="80" height="17" viewBox="0 0 80 17" fill="none" xmlns="http://www.w3.org/2000/svg">
<path d="M13.1901 0.746338V12.4006H11.2389V7.05688H8.1803V5.4397H11.2389V0.746338H13.1901ZM8.28577 1.94165C8.28577 6.12524 5.50842 9.27173 0.920532 10.7307L0.0943604 9.16626C3.52209 8.07642 5.78088 6.05493 6.15881 3.54126H0.920532V1.94165H8.28577ZM13.5944 14.7209V16.303H2.83655V11.2229H4.82288V14.7209H13.5944ZM27.9733 0.72876V4.59595H30.1881V6.19556H27.9733V10.0452H26.0221V0.72876H27.9733ZM23.5787 1.8186C23.5787 6.0022 20.8541 8.95532 16.1608 10.2913L15.3873 8.70923C18.9908 7.72485 21.1266 5.78247 21.4694 3.40063H16.108V1.8186H23.5787ZM22.8405 10.2385C26.0573 10.2385 28.149 11.469 28.149 13.4202C28.149 15.4065 26.0573 16.6018 22.8405 16.6018C19.6412 16.6018 17.5143 15.4065 17.5319 13.4202C17.5143 11.469 19.6412 10.2385 22.8405 10.2385ZM22.8405 11.7678C20.7487 11.7678 19.4479 12.3655 19.4655 13.4202C19.4479 14.4573 20.7487 15.0725 22.8405 15.0725C24.9323 15.0725 26.233 14.4573 26.233 13.4202C26.233 12.3655 24.9323 11.7678 22.8405 11.7678ZM42.7565 2.32837V3.87524H40.1725C40.1989 5.28149 41.2887 6.71411 43.2487 7.35571L42.4049 8.77954C40.8932 8.31372 39.8473 7.3645 39.276 6.19556C38.6959 7.46997 37.65 8.53345 36.1471 9.07837L35.2682 7.60181C37.2106 6.87231 38.2828 5.31665 38.3268 3.87524H35.7076V2.32837H38.3268V0.799072H40.1725V2.32837H42.7565ZM48.8561 0.746338V9.1311H46.9928V5.70337H45.4635V9.02563H43.6178V1.04517H45.4635V4.13892H46.9928V0.746338H48.8561ZM48.8561 9.74634V13.7366H40.067V14.967H49.4186V16.426H38.1158V12.3127H46.9225V11.2229H38.0983V9.74634H48.8561ZM64.026 0.746338V12.4358H62.0924V0.746338H64.026ZM64.4655 14.7209V16.303H53.444V11.4866H55.4127V14.7209H64.4655ZM58.9635 1.8186V6.7229H53.5846V8.72681C56.4586 8.71802 58.3483 8.63013 60.5455 8.23462L60.7565 9.79907C58.3658 10.2385 56.274 10.3264 53.0221 10.3264H51.6686V5.24634H57.0299V3.38306H51.6334V1.8186H58.9635ZM72.3756 5.24634C72.3756 7.8479 73.9049 10.5901 76.4713 11.6624L75.399 13.2092C73.5182 12.4006 72.1471 10.7307 71.4264 8.70923C70.6881 10.8889 69.2994 12.717 67.4362 13.5959L66.3112 12.0667C68.8248 10.9065 70.3893 7.95337 70.3893 5.24634V3.9104H66.8912V2.29321H75.8561V3.9104H72.3756V5.24634ZM79.6002 0.72876V16.6194H77.6315V0.72876H79.6002Z" fill="#56CCC3"/>
</svg>
