<svg width="390" height="50" viewBox="0 0 390 50" fill="none" xmlns="http://www.w3.org/2000/svg">
<path d="M322.154 42.0618V35.0118H323.224L325.724 39.6218L328.214 35.0118H329.264V42.0618H328.104V37.3118L326.084 40.9918H325.334L323.314 37.3318V42.0618H322.154ZM330.816 43.8618L331.716 41.8618L329.686 37.1718H331.016L332.386 40.5918L333.786 37.1718H335.046L332.106 43.8618H330.816Z" fill="#6B7F7C"/>
<path d="M333.166 12.1896C333.166 12.4228 333.15 12.6559 333.121 12.8865C333.134 12.7937 333.147 12.6983 333.158 12.6056C333.094 13.0666 332.972 13.5144 332.795 13.9437C332.829 13.8589 332.866 13.7741 332.901 13.6893C332.723 14.108 332.495 14.5001 332.217 14.8605L332.384 14.6458C332.108 15.0009 331.788 15.3215 331.433 15.5971L331.647 15.4301C331.287 15.7057 330.895 15.9362 330.476 16.1137C330.561 16.0793 330.646 16.0422 330.731 16.0078C330.301 16.1853 329.854 16.3072 329.392 16.3708C329.485 16.3575 329.581 16.3443 329.673 16.3337C329.21 16.3946 328.743 16.3946 328.28 16.3337C328.372 16.3469 328.468 16.3602 328.56 16.3708C328.099 16.3072 327.652 16.1853 327.222 16.0078C327.307 16.0422 327.392 16.0793 327.477 16.1137C327.058 15.9362 326.666 15.7083 326.306 15.4301L326.52 15.5971C326.165 15.3215 325.845 15.0009 325.569 14.6458L325.736 14.8605C325.46 14.5001 325.23 14.108 325.052 13.6893C325.087 13.7741 325.124 13.8589 325.158 13.9437C324.981 13.5144 324.859 13.0666 324.795 12.6056C324.809 12.6983 324.822 12.7937 324.832 12.8865C324.771 12.4228 324.771 11.9564 324.832 11.4927C324.819 11.5855 324.806 11.6809 324.795 11.7736C324.859 11.3126 324.981 10.8648 325.158 10.4355C325.124 10.5203 325.087 10.6051 325.052 10.6899C325.23 10.2712 325.458 9.8791 325.736 9.51874L325.569 9.73336C325.845 9.37831 326.165 9.0577 326.52 8.78214L326.306 8.94907C326.666 8.6735 327.058 8.44298 327.477 8.26545C327.392 8.2999 327.307 8.33699 327.222 8.37144C327.652 8.19391 328.099 8.07203 328.56 8.00844C328.468 8.02168 328.372 8.03493 328.28 8.04553C328.743 7.98459 329.21 7.98459 329.673 8.04553C329.581 8.03228 329.485 8.01904 329.392 8.00844C329.854 8.07203 330.301 8.19391 330.731 8.37144C330.646 8.33699 330.561 8.2999 330.476 8.26545C330.895 8.44298 331.287 8.67085 331.647 8.94907L331.433 8.78214C331.788 9.0577 332.108 9.37831 332.384 9.73336L332.217 9.51874C332.493 9.8791 332.723 10.2712 332.901 10.6899C332.866 10.6051 332.829 10.5203 332.795 10.4355C332.972 10.8648 333.094 11.3126 333.158 11.7736C333.144 11.6809 333.131 11.5855 333.121 11.4927C333.15 11.7233 333.163 11.9564 333.166 12.1896C333.168 12.7434 333.65 13.276 334.225 13.2495C334.798 13.223 335.288 12.7831 335.285 12.1896C335.28 10.9204 334.898 9.62208 334.151 8.58871C333.95 8.3105 333.735 8.03758 333.497 7.79116C333.256 7.5421 332.991 7.32747 332.715 7.11815C332.214 6.7366 331.655 6.45574 331.062 6.23846C328.669 5.36143 325.784 6.14308 324.165 8.11442C323.942 8.38469 323.73 8.66555 323.55 8.96761C323.37 9.26702 323.229 9.58498 323.1 9.90824C322.856 10.5071 322.731 11.143 322.681 11.7869C322.583 13.0481 322.911 14.365 323.569 15.446C324.202 16.49 325.158 17.3856 326.276 17.8917C326.605 18.04 326.942 18.1778 327.291 18.2759C327.638 18.3713 327.991 18.4242 328.349 18.4666C329 18.5435 329.665 18.4905 330.309 18.3607C332.755 17.8625 334.803 15.756 335.182 13.2839C335.238 12.9236 335.28 12.5632 335.28 12.1975C335.283 11.6438 334.79 11.1112 334.22 11.1377C333.648 11.1562 333.166 11.5961 333.166 12.1896ZM336.682 28.7579H323.086C322.485 28.7579 321.883 28.7632 321.282 28.7579C321.216 28.7579 321.149 28.7526 321.086 28.7447C321.179 28.7579 321.274 28.7712 321.367 28.7818C321.261 28.7659 321.16 28.7367 321.062 28.697C321.147 28.7314 321.232 28.7685 321.316 28.803C321.21 28.7579 321.112 28.6996 321.02 28.6281L321.234 28.795C321.155 28.7288 321.081 28.6572 321.017 28.5777L321.184 28.7924C321.112 28.6996 321.057 28.6016 321.009 28.4956C321.043 28.5804 321.081 28.6652 321.115 28.75C321.075 28.6519 321.049 28.5486 321.03 28.4453C321.043 28.538 321.057 28.6334 321.067 28.7261C321.025 28.4055 321.054 28.0664 321.054 27.7431V26.609C321.054 26.3255 321.07 26.0447 321.107 25.7638C321.094 25.8565 321.081 25.9519 321.07 26.0447C321.144 25.5015 321.287 24.9689 321.502 24.4628C321.467 24.5476 321.43 24.6324 321.396 24.7172C321.602 24.2349 321.867 23.7819 322.188 23.3659L322.021 23.5805C322.342 23.1698 322.71 22.7988 323.123 22.4782L322.909 22.6452C323.325 22.3245 323.778 22.0596 324.26 21.8529C324.175 21.8873 324.091 21.9244 324.006 21.9589C324.512 21.7469 325.042 21.6012 325.588 21.527C325.495 21.5402 325.399 21.5535 325.307 21.5641C325.699 21.5137 326.088 21.5111 326.483 21.5111H331.332C331.769 21.5111 332.204 21.5084 332.641 21.5641C332.548 21.5508 332.453 21.5376 332.36 21.527C332.903 21.6012 333.436 21.7443 333.942 21.9589C333.857 21.9244 333.772 21.8873 333.688 21.8529C334.17 22.0596 334.623 22.3245 335.039 22.6452L334.824 22.4782C335.235 22.7988 335.606 23.1671 335.927 23.5805L335.76 23.3659C336.08 23.7819 336.345 24.2349 336.552 24.7172C336.517 24.6324 336.48 24.5476 336.446 24.4628C336.658 24.9689 336.804 25.4988 336.878 26.0447C336.865 25.9519 336.851 25.8565 336.841 25.7638C336.891 26.1639 336.894 26.5613 336.894 26.9641V28.2757C336.894 28.4267 336.899 28.5777 336.88 28.7261C336.894 28.6334 336.907 28.538 336.918 28.4453C336.902 28.5512 336.872 28.6519 336.833 28.75C336.867 28.6652 336.904 28.5804 336.939 28.4956C336.894 28.6016 336.835 28.6996 336.764 28.7924L336.931 28.5777C336.865 28.6572 336.793 28.7314 336.713 28.795L336.928 28.6281C336.835 28.6996 336.737 28.7553 336.631 28.803C336.716 28.7685 336.801 28.7314 336.886 28.697C336.788 28.7367 336.684 28.7632 336.581 28.7818C336.674 28.7685 336.769 28.7553 336.862 28.7447C336.804 28.7526 336.743 28.7553 336.682 28.7579C336.409 28.7606 336.128 28.8745 335.932 29.0679C335.749 29.2508 335.609 29.5528 335.622 29.8178C335.648 30.3848 336.088 30.8856 336.682 30.8776C337.712 30.8617 338.619 30.1887 338.921 29.2004C339.04 28.8083 339.013 28.387 339.013 27.9842C339.013 27.0621 339.043 26.148 338.884 25.2339C338.65 23.8958 337.977 22.6372 337.055 21.6489C336.133 20.6606 334.893 19.9346 333.582 19.6113C332.829 19.4258 332.071 19.3967 331.303 19.3967H326.602C325.815 19.3967 325.034 19.4338 324.268 19.6378C322.967 19.9822 321.743 20.7162 320.839 21.7125C319.928 22.7167 319.268 23.9779 319.054 25.324C318.91 26.2275 318.94 27.1337 318.94 28.0452C318.94 28.4638 318.916 28.901 319.067 29.3011C319.263 29.8151 319.575 30.2205 320.034 30.5252C320.392 30.7611 320.845 30.875 321.269 30.8803C321.475 30.8829 321.682 30.8803 321.889 30.8803H336.684C337.238 30.8803 337.771 30.3928 337.744 29.8204C337.718 29.2428 337.278 28.7579 336.682 28.7579Z" fill="#6B7F7C"/>
<path d="M333.166 12.1896C333.166 12.4228 333.15 12.6559 333.121 12.8865C333.134 12.7937 333.147 12.6983 333.158 12.6056C333.094 13.0666 332.972 13.5144 332.795 13.9437C332.829 13.8589 332.866 13.7741 332.901 13.6893C332.723 14.108 332.495 14.5001 332.217 14.8605L332.384 14.6458C332.108 15.0009 331.788 15.3215 331.433 15.5971L331.647 15.4301C331.287 15.7057 330.895 15.9362 330.476 16.1137C330.561 16.0793 330.646 16.0422 330.731 16.0078C330.301 16.1853 329.854 16.3072 329.392 16.3708C329.485 16.3575 329.581 16.3443 329.673 16.3337C329.21 16.3946 328.743 16.3946 328.28 16.3337C328.372 16.3469 328.468 16.3602 328.56 16.3708C328.099 16.3072 327.652 16.1853 327.222 16.0078C327.307 16.0422 327.392 16.0793 327.477 16.1137C327.058 15.9362 326.666 15.7083 326.306 15.4301L326.52 15.5971C326.165 15.3215 325.845 15.0009 325.569 14.6458L325.736 14.8605C325.46 14.5001 325.23 14.108 325.052 13.6893C325.087 13.7741 325.124 13.8589 325.158 13.9437C324.981 13.5144 324.859 13.0666 324.795 12.6056C324.809 12.6983 324.822 12.7937 324.832 12.8865C324.771 12.4228 324.771 11.9564 324.832 11.4927C324.819 11.5855 324.806 11.6809 324.795 11.7736C324.859 11.3126 324.981 10.8648 325.158 10.4355C325.124 10.5203 325.087 10.6051 325.052 10.6899C325.23 10.2712 325.458 9.8791 325.736 9.51874L325.569 9.73336C325.845 9.37831 326.165 9.0577 326.52 8.78214L326.306 8.94907C326.666 8.6735 327.058 8.44298 327.477 8.26545C327.392 8.2999 327.307 8.33699 327.222 8.37144C327.652 8.19391 328.099 8.07203 328.56 8.00844C328.468 8.02168 328.372 8.03493 328.28 8.04553C328.743 7.98459 329.21 7.98459 329.673 8.04553C329.581 8.03228 329.485 8.01904 329.392 8.00844C329.854 8.07203 330.301 8.19391 330.731 8.37144C330.646 8.33699 330.561 8.2999 330.476 8.26545C330.895 8.44298 331.287 8.67085 331.647 8.94907L331.433 8.78214C331.788 9.0577 332.108 9.37831 332.384 9.73336L332.217 9.51874C332.493 9.8791 332.723 10.2712 332.901 10.6899C332.866 10.6051 332.829 10.5203 332.795 10.4355C332.972 10.8648 333.094 11.3126 333.158 11.7736C333.144 11.6809 333.131 11.5855 333.121 11.4927C333.15 11.7233 333.163 11.9564 333.166 12.1896ZM333.166 12.1896C333.168 12.7434 333.65 13.276 334.225 13.2495C334.798 13.223 335.288 12.7831 335.285 12.1896C335.28 10.9204 334.898 9.62208 334.151 8.58871C333.95 8.3105 333.735 8.03758 333.497 7.79116C333.256 7.5421 332.991 7.32747 332.715 7.11815C332.214 6.7366 331.655 6.45574 331.062 6.23846C328.669 5.36143 325.784 6.14308 324.165 8.11442C323.942 8.38469 323.73 8.66555 323.55 8.96761C323.37 9.26702 323.229 9.58498 323.1 9.90824C322.856 10.5071 322.731 11.143 322.681 11.7869C322.583 13.0481 322.911 14.365 323.569 15.446C324.202 16.49 325.158 17.3856 326.276 17.8917C326.605 18.04 326.942 18.1778 327.291 18.2759C327.638 18.3713 327.991 18.4242 328.349 18.4666C329 18.5435 329.665 18.4905 330.309 18.3607C332.755 17.8625 334.803 15.756 335.182 13.2839C335.238 12.9236 335.28 12.5632 335.28 12.1975C335.283 11.6438 334.79 11.1112 334.22 11.1377C333.648 11.1562 333.166 11.5961 333.166 12.1896ZM336.682 28.7579H323.086C322.485 28.7579 321.883 28.7632 321.282 28.7579C321.216 28.7579 321.149 28.7526 321.086 28.7447C321.179 28.7579 321.274 28.7712 321.367 28.7818C321.261 28.7659 321.16 28.7367 321.062 28.697C321.147 28.7314 321.232 28.7685 321.316 28.803C321.21 28.7579 321.112 28.6996 321.02 28.6281L321.234 28.795C321.155 28.7288 321.081 28.6572 321.017 28.5777L321.184 28.7924C321.112 28.6996 321.057 28.6016 321.009 28.4956C321.043 28.5804 321.081 28.6652 321.115 28.75C321.075 28.6519 321.049 28.5486 321.03 28.4453C321.043 28.538 321.057 28.6334 321.067 28.7261C321.025 28.4055 321.054 28.0664 321.054 27.7431V26.609C321.054 26.3255 321.07 26.0447 321.107 25.7638C321.094 25.8565 321.081 25.9519 321.07 26.0447C321.144 25.5015 321.287 24.9689 321.502 24.4628C321.467 24.5476 321.43 24.6324 321.396 24.7172C321.602 24.2349 321.867 23.7819 322.188 23.3659L322.021 23.5805C322.342 23.1698 322.71 22.7988 323.123 22.4782L322.909 22.6452C323.325 22.3245 323.778 22.0596 324.26 21.8529C324.175 21.8873 324.091 21.9244 324.006 21.9589C324.512 21.7469 325.042 21.6012 325.588 21.527C325.495 21.5402 325.399 21.5535 325.307 21.5641C325.699 21.5137 326.088 21.5111 326.483 21.5111H331.332C331.769 21.5111 332.204 21.5084 332.641 21.5641C332.548 21.5508 332.453 21.5376 332.36 21.527C332.903 21.6012 333.436 21.7443 333.942 21.9589C333.857 21.9244 333.772 21.8873 333.688 21.8529C334.17 22.0596 334.623 22.3245 335.039 22.6452L334.824 22.4782C335.235 22.7988 335.606 23.1671 335.927 23.5805L335.76 23.3659C336.08 23.7819 336.345 24.2349 336.552 24.7172C336.517 24.6324 336.48 24.5476 336.446 24.4628C336.658 24.9689 336.804 25.4988 336.878 26.0447C336.865 25.9519 336.851 25.8565 336.841 25.7638C336.891 26.1639 336.894 26.5613 336.894 26.9641V28.2757C336.894 28.4267 336.899 28.5777 336.88 28.7261C336.894 28.6334 336.907 28.538 336.918 28.4453C336.902 28.5512 336.872 28.6519 336.833 28.75C336.867 28.6652 336.904 28.5804 336.939 28.4956C336.894 28.6016 336.835 28.6996 336.764 28.7924L336.931 28.5777C336.865 28.6572 336.793 28.7314 336.713 28.795L336.928 28.6281C336.835 28.6996 336.737 28.7553 336.631 28.803C336.716 28.7685 336.801 28.7314 336.886 28.697C336.788 28.7367 336.684 28.7632 336.581 28.7818C336.674 28.7685 336.769 28.7553 336.862 28.7447C336.804 28.7526 336.743 28.7553 336.682 28.7579ZM336.682 28.7579C336.409 28.7606 336.128 28.8745 335.932 29.0679C335.749 29.2508 335.609 29.5528 335.622 29.8178C335.648 30.3848 336.088 30.8856 336.682 30.8776C337.712 30.8617 338.619 30.1887 338.921 29.2004C339.04 28.8083 339.013 28.387 339.013 27.9842C339.013 27.0621 339.043 26.148 338.884 25.2339C338.65 23.8958 337.977 22.6372 337.055 21.6489C336.133 20.6606 334.893 19.9346 333.582 19.6113C332.829 19.4258 332.071 19.3967 331.303 19.3967H326.602C325.815 19.3967 325.034 19.4338 324.268 19.6378C322.967 19.9822 321.743 20.7162 320.839 21.7125C319.928 22.7167 319.268 23.9779 319.054 25.324C318.91 26.2275 318.94 27.1337 318.94 28.0452C318.94 28.4638 318.916 28.901 319.067 29.3011C319.263 29.8151 319.575 30.2205 320.034 30.5252C320.392 30.7611 320.845 30.875 321.269 30.8803C321.475 30.8829 321.682 30.8803 321.889 30.8803H336.684C337.238 30.8803 337.771 30.3928 337.744 29.8204C337.718 29.2428 337.278 28.7579 336.682 28.7579Z" stroke="#6B7F7C" stroke-width="0.5"/>
<path d="M175.55 42.1618C174.817 42.1618 174.187 42.0151 173.66 41.7218C173.14 41.4218 172.74 41.0018 172.46 40.4618C172.18 39.9151 172.04 39.2718 172.04 38.5318C172.04 37.7918 172.18 37.1518 172.46 36.6118C172.74 36.0718 173.14 35.6551 173.66 35.3618C174.187 35.0618 174.817 34.9118 175.55 34.9118C176.023 34.9118 176.47 34.9851 176.89 35.1318C177.317 35.2784 177.667 35.4884 177.94 35.7618L177.52 36.7818C177.22 36.5284 176.913 36.3451 176.6 36.2318C176.287 36.1118 175.95 36.0518 175.59 36.0518C174.877 36.0518 174.333 36.2684 173.96 36.7018C173.587 37.1284 173.4 37.7384 173.4 38.5318C173.4 39.3251 173.587 39.9384 173.96 40.3718C174.333 40.8051 174.877 41.0218 175.59 41.0218C175.95 41.0218 176.287 40.9651 176.6 40.8518C176.913 40.7318 177.22 40.5451 177.52 40.2918L177.94 41.3118C177.667 41.5784 177.317 41.7884 176.89 41.9418C176.47 42.0884 176.023 42.1618 175.55 42.1618ZM178.617 42.0618V35.0118H179.867V37.8818C180.034 37.6151 180.257 37.4151 180.537 37.2818C180.817 37.1418 181.127 37.0718 181.467 37.0718C182.62 37.0718 183.197 37.7418 183.197 39.0818V42.0618H181.947V39.1418C181.947 38.7618 181.874 38.4851 181.727 38.3118C181.587 38.1384 181.367 38.0518 181.067 38.0518C180.7 38.0518 180.407 38.1684 180.187 38.4018C179.974 38.6284 179.867 38.9318 179.867 39.3118V42.0618H178.617ZM185.757 42.1618C185.403 42.1618 185.087 42.0951 184.807 41.9618C184.533 41.8218 184.317 41.6351 184.157 41.4018C184.003 41.1684 183.927 40.9051 183.927 40.6118C183.927 40.2518 184.02 39.9684 184.207 39.7618C184.393 39.5484 184.697 39.3951 185.117 39.3018C185.537 39.2084 186.1 39.1618 186.807 39.1618H187.157V38.9518C187.157 38.6184 187.083 38.3784 186.937 38.2318C186.79 38.0851 186.543 38.0118 186.197 38.0118C185.923 38.0118 185.643 38.0551 185.357 38.1418C185.07 38.2218 184.78 38.3484 184.487 38.5218L184.127 37.6718C184.3 37.5518 184.503 37.4484 184.737 37.3618C184.977 37.2684 185.227 37.1984 185.487 37.1518C185.753 37.0984 186.003 37.0718 186.237 37.0718C186.95 37.0718 187.48 37.2384 187.827 37.5718C188.173 37.8984 188.347 38.4084 188.347 39.1018V42.0618H187.177V41.2818C187.063 41.5551 186.883 41.7718 186.637 41.9318C186.39 42.0851 186.097 42.1618 185.757 42.1618ZM186.017 41.3018C186.343 41.3018 186.613 41.1884 186.827 40.9618C187.047 40.7351 187.157 40.4484 187.157 40.1018V39.8818H186.817C186.19 39.8818 185.753 39.9318 185.507 40.0318C185.267 40.1251 185.147 40.2984 185.147 40.5518C185.147 40.7718 185.223 40.9518 185.377 41.0918C185.53 41.2318 185.743 41.3018 186.017 41.3018ZM190.995 42.1618C190.415 42.1618 189.985 42.0051 189.705 41.6918C189.432 41.3718 189.295 40.9051 189.295 40.2918V35.0118H190.545V40.2318C190.545 40.8318 190.799 41.1318 191.305 41.1318C191.379 41.1318 191.452 41.1284 191.525 41.1218C191.599 41.1151 191.669 41.1018 191.735 41.0818L191.715 42.0718C191.475 42.1318 191.235 42.1618 190.995 42.1618ZM193.869 42.1618C193.289 42.1618 192.859 42.0051 192.579 41.6918C192.305 41.3718 192.169 40.9051 192.169 40.2918V35.0118H193.419V40.2318C193.419 40.8318 193.672 41.1318 194.179 41.1318C194.252 41.1318 194.325 41.1284 194.399 41.1218C194.472 41.1151 194.542 41.1018 194.609 41.0818L194.589 42.0718C194.349 42.1318 194.109 42.1618 193.869 42.1618ZM197.403 42.1618C196.85 42.1618 196.373 42.0584 195.973 41.8518C195.573 41.6451 195.263 41.3518 195.043 40.9718C194.83 40.5918 194.723 40.1418 194.723 39.6218C194.723 39.1151 194.827 38.6718 195.033 38.2918C195.247 37.9118 195.537 37.6151 195.903 37.4018C196.277 37.1818 196.7 37.0718 197.173 37.0718C197.867 37.0718 198.413 37.2918 198.813 37.7318C199.22 38.1718 199.423 38.7718 199.423 39.5318V39.9018H195.923C196.017 40.7751 196.517 41.2118 197.423 41.2118C197.697 41.2118 197.97 41.1718 198.243 41.0918C198.517 41.0051 198.767 40.8718 198.993 40.6918L199.343 41.5318C199.11 41.7251 198.817 41.8784 198.463 41.9918C198.11 42.1051 197.757 42.1618 197.403 42.1618ZM197.223 37.9218C196.857 37.9218 196.56 38.0351 196.333 38.2618C196.107 38.4884 195.97 38.7951 195.923 39.1818H198.383C198.357 38.7751 198.243 38.4651 198.043 38.2518C197.85 38.0318 197.577 37.9218 197.223 37.9218ZM200.093 42.0618V37.1718H201.313V37.9318C201.48 37.6518 201.703 37.4384 201.983 37.2918C202.27 37.1451 202.59 37.0718 202.943 37.0718C204.097 37.0718 204.673 37.7418 204.673 39.0818V42.0618H203.423V39.1418C203.423 38.7618 203.35 38.4851 203.203 38.3118C203.063 38.1384 202.843 38.0518 202.543 38.0518C202.177 38.0518 201.883 38.1684 201.663 38.4018C201.45 38.6284 201.343 38.9318 201.343 39.3118V42.0618H200.093ZM207.903 43.9618C207.45 43.9618 207.023 43.9084 206.623 43.8018C206.23 43.7018 205.883 43.5451 205.583 43.3318L205.943 42.4618C206.223 42.6484 206.523 42.7851 206.843 42.8718C207.163 42.9651 207.483 43.0118 207.803 43.0118C208.696 43.0118 209.143 42.5818 209.143 41.7218V41.0518C209.003 41.3251 208.786 41.5418 208.493 41.7018C208.206 41.8618 207.886 41.9418 207.533 41.9418C207.093 41.9418 206.71 41.8418 206.383 41.6418C206.056 41.4351 205.803 41.1484 205.623 40.7818C205.443 40.4151 205.353 39.9884 205.353 39.5018C205.353 39.0151 205.443 38.5918 205.623 38.2318C205.803 37.8651 206.056 37.5818 206.383 37.3818C206.71 37.1751 207.093 37.0718 207.533 37.0718C207.9 37.0718 208.226 37.1551 208.513 37.3218C208.8 37.4818 209.01 37.6984 209.143 37.9718V37.1718H210.363V41.5718C210.363 42.3651 210.153 42.9618 209.733 43.3618C209.313 43.7618 208.703 43.9618 207.903 43.9618ZM207.873 40.9918C208.26 40.9918 208.566 40.8584 208.793 40.5918C209.02 40.3251 209.133 39.9618 209.133 39.5018C209.133 39.0418 209.02 38.6818 208.793 38.4218C208.566 38.1551 208.26 38.0218 207.873 38.0218C207.486 38.0218 207.18 38.1551 206.953 38.4218C206.726 38.6818 206.613 39.0418 206.613 39.5018C206.613 39.9618 206.726 40.3251 206.953 40.5918C207.18 40.8584 207.486 40.9918 207.873 40.9918ZM213.748 42.1618C213.195 42.1618 212.718 42.0584 212.318 41.8518C211.918 41.6451 211.608 41.3518 211.388 40.9718C211.175 40.5918 211.068 40.1418 211.068 39.6218C211.068 39.1151 211.171 38.6718 211.378 38.2918C211.591 37.9118 211.881 37.6151 212.248 37.4018C212.621 37.1818 213.045 37.0718 213.518 37.0718C214.211 37.0718 214.758 37.2918 215.158 37.7318C215.565 38.1718 215.768 38.7718 215.768 39.5318V39.9018H212.268C212.361 40.7751 212.861 41.2118 213.768 41.2118C214.041 41.2118 214.315 41.1718 214.588 41.0918C214.861 41.0051 215.111 40.8718 215.338 40.6918L215.688 41.5318C215.455 41.7251 215.161 41.8784 214.808 41.9918C214.455 42.1051 214.101 42.1618 213.748 42.1618ZM213.568 37.9218C213.201 37.9218 212.905 38.0351 212.678 38.2618C212.451 38.4884 212.315 38.7951 212.268 39.1818H214.728C214.701 38.7751 214.588 38.4651 214.388 38.2518C214.195 38.0318 213.921 37.9218 213.568 37.9218Z" fill="#56CCC3"/>
<path fill-rule="evenodd" clip-rule="evenodd" d="M203.346 25.3044C201.664 25.3044 199.715 24.8238 197.659 24.3166C195.39 23.7559 193.067 23.1952 190.904 23.1952C189.462 23.1952 188.261 23.4622 187.273 23.9962C186.953 24.1831 186.526 24.1831 186.205 23.9962C185.885 23.7826 185.698 23.4355 185.698 23.0617V6.72216C185.698 6.13479 186.152 5.65422 186.739 5.65422C190.797 5.54742 194.241 6.74886 197.579 7.8969C199.234 8.45757 200.783 9.01824 202.385 9.39202C203.826 9.71241 204.787 9.8459 205.749 9.8459C206.79 9.8459 207.858 9.68571 209.139 9.28523C209.486 9.17843 209.887 9.28523 210.154 9.52552C210.448 9.7925 210.554 10.1663 210.474 10.5401L208.098 21.62C207.564 24.0763 205.962 25.3044 203.346 25.3044ZM192.373 22.7146C192.666 22.7146 192.907 22.501 192.907 22.1807V7.38963C192.907 7.09594 192.666 6.85566 192.373 6.85566C192.079 6.85566 191.839 7.09594 191.839 7.38963V22.1807C191.839 22.501 192.079 22.7146 192.373 22.7146Z" fill="#56CCC3"/>
<path fill-rule="evenodd" clip-rule="evenodd" d="M186.688 30.6475C186.143 30.6475 185.698 30.2021 185.698 29.6578V6.64577C185.698 6.1014 186.143 5.65601 186.688 5.65601C187.232 5.65601 187.677 6.1014 187.677 6.64577V29.6578C187.677 30.2021 187.232 30.6475 186.688 30.6475Z" fill="#56CCC3"/>
<path d="M44.6897 42.0618V35.0118H45.9697V37.9518H49.5997V35.0118H50.8797V42.0618H49.5997V39.0218H45.9697V42.0618H44.6897ZM54.2141 42.1618C53.7074 42.1618 53.2674 42.0584 52.8941 41.8518C52.5207 41.6451 52.2307 41.3518 52.0241 40.9718C51.8174 40.5851 51.7141 40.1318 51.7141 39.6118C51.7141 39.0918 51.8174 38.6418 52.0241 38.2618C52.2307 37.8818 52.5207 37.5884 52.8941 37.3818C53.2674 37.1751 53.7074 37.0718 54.2141 37.0718C54.7207 37.0718 55.1607 37.1751 55.5341 37.3818C55.9074 37.5884 56.1974 37.8818 56.4041 38.2618C56.6107 38.6418 56.7141 39.0918 56.7141 39.6118C56.7141 40.1318 56.6107 40.5851 56.4041 40.9718C56.1974 41.3518 55.9074 41.6451 55.5341 41.8518C55.1607 42.0584 54.7207 42.1618 54.2141 42.1618ZM54.2141 41.2118C54.5874 41.2118 54.8874 41.0784 55.1141 40.8118C55.3407 40.5384 55.4541 40.1384 55.4541 39.6118C55.4541 39.0784 55.3407 38.6818 55.1141 38.4218C54.8874 38.1551 54.5874 38.0218 54.2141 38.0218C53.8407 38.0218 53.5407 38.1551 53.3141 38.4218C53.0874 38.6818 52.9741 39.0784 52.9741 39.6118C52.9741 40.1384 53.0874 40.5384 53.3141 40.8118C53.5407 41.0784 53.8407 41.2118 54.2141 41.2118ZM57.4458 42.0618V37.1718H58.6658V37.9218C58.8124 37.6551 59.0158 37.4484 59.2758 37.3018C59.5358 37.1484 59.8358 37.0718 60.1758 37.0718C60.9091 37.0718 61.3891 37.3918 61.6158 38.0318C61.7691 37.7318 61.9891 37.4984 62.2758 37.3318C62.5624 37.1584 62.8891 37.0718 63.2558 37.0718C64.3558 37.0718 64.9058 37.7418 64.9058 39.0818V42.0618H63.6558V39.1318C63.6558 38.7584 63.5924 38.4851 63.4658 38.3118C63.3458 38.1384 63.1391 38.0518 62.8458 38.0518C62.5191 38.0518 62.2624 38.1684 62.0758 38.4018C61.8891 38.6284 61.7958 38.9451 61.7958 39.3518V42.0618H60.5458V39.1318C60.5458 38.7584 60.4824 38.4851 60.3558 38.3118C60.2358 38.1384 60.0324 38.0518 59.7458 38.0518C59.4191 38.0518 59.1624 38.1684 58.9758 38.4018C58.7891 38.6284 58.6958 38.9451 58.6958 39.3518V42.0618H57.4458ZM68.2853 42.1618C67.732 42.1618 67.2553 42.0584 66.8553 41.8518C66.4553 41.6451 66.1453 41.3518 65.9253 40.9718C65.712 40.5918 65.6053 40.1418 65.6053 39.6218C65.6053 39.1151 65.7086 38.6718 65.9153 38.2918C66.1286 37.9118 66.4186 37.6151 66.7853 37.4018C67.1586 37.1818 67.582 37.0718 68.0553 37.0718C68.7486 37.0718 69.2953 37.2918 69.6953 37.7318C70.102 38.1718 70.3053 38.7718 70.3053 39.5318V39.9018H66.8053C66.8986 40.7751 67.3986 41.2118 68.3053 41.2118C68.5786 41.2118 68.852 41.1718 69.1253 41.0918C69.3986 41.0051 69.6486 40.8718 69.8753 40.6918L70.2253 41.5318C69.992 41.7251 69.6986 41.8784 69.3453 41.9918C68.992 42.1051 68.6386 42.1618 68.2853 42.1618ZM68.1053 37.9218C67.7386 37.9218 67.442 38.0351 67.2153 38.2618C66.9886 38.4884 66.852 38.7951 66.8053 39.1818H69.2653C69.2386 38.7751 69.1253 38.4651 68.9253 38.2518C68.732 38.0318 68.4586 37.9218 68.1053 37.9218Z" fill="#6B7F7C"/>
<path d="M45.5225 17.4558L56.4884 7.47856C56.9073 7.09526 57.4546 6.88269 58.0225 6.88269C58.5903 6.88269 59.1376 7.09526 59.5566 7.47856L70.5225 17.4558" stroke="#6B7F7C" stroke-width="2.5" stroke-linecap="round" stroke-linejoin="round"/>
<path d="M47.7952 15.1832V28.8196C47.7952 29.121 47.9149 29.41 48.128 29.6231C48.3411 29.8362 48.6301 29.956 48.9315 29.956H54.6133V20.865H61.4315V29.956H67.1133C67.4147 29.956 67.7038 29.8362 67.9169 29.6231C68.13 29.41 68.2497 29.121 68.2497 28.8196V15.1832" stroke="#6B7F7C" stroke-width="2.5" stroke-linejoin="round"/>
</svg>
