<svg width="80" height="17" viewBox="0 0 80 17" fill="none" xmlns="http://www.w3.org/2000/svg">
<path d="M5.84344 3.06665C5.82587 4.77173 7.12665 6.54712 9.55243 7.25024L8.63837 8.79712C6.83661 8.26978 5.56219 7.15356 4.85907 5.7561C4.13837 7.30298 2.80243 8.5686 0.956726 9.14868L-0.0100708 7.61938C2.46844 6.81079 3.87469 4.8772 3.87469 3.04907V2.99634H0.534851V1.41431H9.13055V2.99634H5.84344V3.06665ZM13.3669 0.72876V8.86743H11.4157V5.65063H8.6911V4.08618H11.4157V0.72876H13.3669ZM13.3669 9.5354V13.6663H4.85907V14.9143H13.8766V16.4436H2.9079V12.2073H11.4157V11.0823H2.89032V9.5354H13.3669ZM30.3122 2.9436V4.52563H28.1501V6.35376H30.3122V7.98853H28.1501V10.1155H26.1989V0.72876H28.1501V2.9436H30.3122ZM28.1501 10.801V16.6194H26.1989V12.3831H17.5681V10.801H28.1501ZM20.0817 1.64282C22.5251 1.62524 24.3532 3.22485 24.3708 5.45728C24.3532 7.72485 22.5251 9.30688 20.0817 9.30688C17.6208 9.30688 15.7751 7.72485 15.7927 5.45728C15.7751 3.22485 17.6208 1.62524 20.0817 1.64282ZM20.0817 3.29517C18.7106 3.31274 17.6911 4.13892 17.7087 5.45728C17.6911 6.81079 18.7106 7.65454 20.0817 7.63696C21.4352 7.65454 22.4548 6.81079 22.4548 5.45728C22.4548 4.13892 21.4352 3.31274 20.0817 3.29517ZM42.9333 2.32837V3.87524H40.3493C40.3757 5.28149 41.4655 6.71411 43.4255 7.35571L42.5817 8.77954C41.07 8.31372 40.0241 7.3645 39.4528 6.19556C38.8727 7.46997 37.8268 8.53345 36.3239 9.07837L35.445 7.60181C37.3874 6.87231 38.4597 5.31665 38.5036 3.87524H35.8845V2.32837H38.5036V0.799072H40.3493V2.32837H42.9333ZM49.0329 0.746338V9.1311H47.1696V5.70337H45.6403V9.02563H43.7946V1.04517H45.6403V4.13892H47.1696V0.746338H49.0329ZM49.0329 9.74634V13.7366H40.2438V14.967H49.5954V16.426H38.2927V12.3127H47.0993V11.2229H38.2751V9.74634H49.0329ZM64.2028 0.746338V12.4358H62.2692V0.746338H64.2028ZM64.6423 14.7209V16.303H53.6208V11.4866H55.5895V14.7209H64.6423ZM59.1403 1.8186V6.7229H53.7614V8.72681C56.6354 8.71802 58.5251 8.63013 60.7224 8.23462L60.9333 9.79907C58.5427 10.2385 56.4509 10.3264 53.1989 10.3264H51.8454V5.24634H57.2067V3.38306H51.8102V1.8186H59.1403ZM72.5524 5.24634C72.5524 7.8479 74.0817 10.5901 76.6481 11.6624L75.5759 13.2092C73.695 12.4006 72.3239 10.7307 71.6032 8.70923C70.8649 10.8889 69.4763 12.717 67.613 13.5959L66.488 12.0667C69.0016 10.9065 70.5661 7.95337 70.5661 5.24634V3.9104H67.0681V2.29321H76.0329V3.9104H72.5524V5.24634ZM79.777 0.72876V16.6194H77.8083V0.72876H79.777Z" fill="white"/>
</svg>
