<svg width="81" height="17" viewBox="0 0 81 17" fill="none" xmlns="http://www.w3.org/2000/svg">
<path d="M6.54303 3.06665C6.52545 4.77173 7.82623 6.54712 10.252 7.25024L9.33795 8.79712C7.53619 8.26978 6.26178 7.15356 5.55865 5.7561C4.83795 7.30298 3.50201 8.5686 1.65631 9.14868L0.689514 7.61938C3.16803 6.81079 4.57428 4.8772 4.57428 3.04907V2.99634H1.23444V1.41431H9.83014V2.99634H6.54303V3.06665ZM14.0665 0.72876V8.86743H12.1153V5.65063H9.39069V4.08618H12.1153V0.72876H14.0665ZM14.0665 9.5354V13.6663H5.55865V14.9143H14.5762V16.4436H3.60748V12.2073H12.1153V11.0823H3.5899V9.5354H14.0665ZM31.0118 2.9436V4.52563H28.8497V6.35376H31.0118V7.98853H28.8497V10.1155H26.8985V0.72876H28.8497V2.9436H31.0118ZM28.8497 10.801V16.6194H26.8985V12.3831H18.2676V10.801H28.8497ZM20.7813 1.64282C23.2247 1.62524 25.0528 3.22485 25.0704 5.45728C25.0528 7.72485 23.2247 9.30688 20.7813 9.30688C18.3204 9.30688 16.4747 7.72485 16.4922 5.45728C16.4747 3.22485 18.3204 1.62524 20.7813 1.64282ZM20.7813 3.29517C19.4102 3.31274 18.3907 4.13892 18.4083 5.45728C18.3907 6.81079 19.4102 7.65454 20.7813 7.63696C22.1348 7.65454 23.1544 6.81079 23.1544 5.45728C23.1544 4.13892 22.1348 3.31274 20.7813 3.29517ZM43.6329 2.32837V3.87524H41.0489C41.0753 5.28149 42.1651 6.71411 44.1251 7.35571L43.2813 8.77954C41.7696 8.31372 40.7237 7.3645 40.1524 6.19556C39.5723 7.46997 38.5264 8.53345 37.0235 9.07837L36.1446 7.60181C38.087 6.87231 39.1592 5.31665 39.2032 3.87524H36.584V2.32837H39.2032V0.799072H41.0489V2.32837H43.6329ZM49.7325 0.746338V9.1311H47.8692V5.70337H46.3399V9.02563H44.4942V1.04517H46.3399V4.13892H47.8692V0.746338H49.7325ZM49.7325 9.74634V13.7366H40.9434V14.967H50.295V16.426H38.9922V12.3127H47.7989V11.2229H38.9747V9.74634H49.7325ZM64.9024 0.746338V12.4358H62.9688V0.746338H64.9024ZM65.3419 14.7209V16.303H54.3204V11.4866H56.2891V14.7209H65.3419ZM59.8399 1.8186V6.7229H54.461V8.72681C57.335 8.71802 59.2247 8.63013 61.4219 8.23462L61.6329 9.79907C59.2422 10.2385 57.1505 10.3264 53.8985 10.3264H52.545V5.24634H57.9063V3.38306H52.5098V1.8186H59.8399ZM73.252 5.24634C73.252 7.8479 74.7813 10.5901 77.3477 11.6624L76.2755 13.2092C74.3946 12.4006 73.0235 10.7307 72.3028 8.70923C71.5645 10.8889 70.1758 12.717 68.3126 13.5959L67.1876 12.0667C69.7012 10.9065 71.2657 7.95337 71.2657 5.24634V3.9104H67.7676V2.29321H76.7325V3.9104H73.252V5.24634ZM80.4766 0.72876V16.6194H78.5079V0.72876H80.4766Z" fill="#56CCC3"/>
</svg>
