<svg width="288" height="31" viewBox="0 0 288 31" fill="none" xmlns="http://www.w3.org/2000/svg">
<path d="M0.805 24V0.734999H8.824C11.354 0.734999 13.499 1.186 15.259 2.088C17.041 2.968 18.394 4.277 19.318 6.015C20.242 7.731 20.704 9.843 20.704 12.351C20.704 14.859 20.242 16.982 19.318 18.72C18.394 20.436 17.041 21.745 15.259 22.647C13.499 23.549 11.354 24 8.824 24H0.805ZM3.874 21.393H8.626C11.596 21.393 13.818 20.645 15.292 19.149C16.766 17.631 17.503 15.365 17.503 12.351C17.503 9.337 16.755 7.082 15.259 5.586C13.785 4.09 11.574 3.342 8.626 3.342H3.874V21.393ZM31.5733 24.297C29.9893 24.297 28.6143 23.956 27.4483 23.274C26.2823 22.592 25.3803 21.624 24.7423 20.37C24.1043 19.116 23.7853 17.642 23.7853 15.948C23.7853 14.254 24.1043 12.791 24.7423 11.559C25.3803 10.305 26.2823 9.337 27.4483 8.655C28.6143 7.973 29.9893 7.632 31.5733 7.632C33.1573 7.632 34.5323 7.973 35.6983 8.655C36.8643 9.337 37.7663 10.305 38.4043 11.559C39.0423 12.791 39.3613 14.254 39.3613 15.948C39.3613 17.642 39.0423 19.116 38.4043 20.37C37.7663 21.624 36.8643 22.592 35.6983 23.274C34.5323 23.956 33.1573 24.297 31.5733 24.297ZM31.5733 21.921C33.0253 21.921 34.1803 21.415 35.0383 20.403C35.8963 19.369 36.3253 17.884 36.3253 15.948C36.3253 14.012 35.8963 12.538 35.0383 11.526C34.1803 10.514 33.0253 10.008 31.5733 10.008C30.1433 10.008 28.9883 10.514 28.1083 11.526C27.2503 12.538 26.8213 14.012 26.8213 15.948C26.8213 17.884 27.2503 19.369 28.1083 20.403C28.9883 21.415 30.1433 21.921 31.5733 21.921ZM52.9224 29.94L55.9914 23.043V24.297L48.9624 7.929H52.1964L57.7734 21.657H56.8494L62.5254 7.929H65.6274L56.0574 29.94H52.9224ZM74.4414 24.297C72.8574 24.297 71.4824 23.956 70.3164 23.274C69.1504 22.592 68.2484 21.624 67.6104 20.37C66.9724 19.116 66.6534 17.642 66.6534 15.948C66.6534 14.254 66.9724 12.791 67.6104 11.559C68.2484 10.305 69.1504 9.337 70.3164 8.655C71.4824 7.973 72.8574 7.632 74.4414 7.632C76.0254 7.632 77.4004 7.973 78.5664 8.655C79.7324 9.337 80.6344 10.305 81.2724 11.559C81.9104 12.791 82.2294 14.254 82.2294 15.948C82.2294 17.642 81.9104 19.116 81.2724 20.37C80.6344 21.624 79.7324 22.592 78.5664 23.274C77.4004 23.956 76.0254 24.297 74.4414 24.297ZM74.4414 21.921C75.8934 21.921 77.0484 21.415 77.9064 20.403C78.7644 19.369 79.1934 17.884 79.1934 15.948C79.1934 14.012 78.7644 12.538 77.9064 11.526C77.0484 10.514 75.8934 10.008 74.4414 10.008C73.0114 10.008 71.8564 10.514 70.9764 11.526C70.1184 12.538 69.6894 14.012 69.6894 15.948C69.6894 17.884 70.1184 19.369 70.9764 20.403C71.8564 21.415 73.0114 21.921 74.4414 21.921ZM91.4983 24.297C90.2003 24.297 89.1113 24.055 88.2313 23.571C87.3733 23.087 86.7353 22.372 86.3173 21.426C85.8993 20.48 85.6903 19.292 85.6903 17.862V7.929H88.6933V17.862C88.6933 18.764 88.8143 19.512 89.0563 20.106C89.2983 20.7 89.6723 21.14 90.1783 21.426C90.7063 21.712 91.3663 21.855 92.1583 21.855C93.0383 21.855 93.8083 21.657 94.4683 21.261C95.1283 20.865 95.6453 20.304 96.0193 19.578C96.3933 18.852 96.5803 18.005 96.5803 17.037V7.929H99.5833V24H96.6463V20.37H97.0753C96.6353 21.646 95.9203 22.625 94.9303 23.307C93.9623 23.967 92.8183 24.297 91.4983 24.297ZM104.095 24V7.929H107.032V11.757H106.702C107.054 10.437 107.692 9.447 108.616 8.787C109.54 8.105 110.761 7.709 112.279 7.599L113.302 7.5L113.533 10.107L111.652 10.272C110.2 10.426 109.078 10.899 108.286 11.691C107.516 12.483 107.131 13.572 107.131 14.958V24H104.095ZM134.805 24.363C132.715 24.363 130.845 23.967 129.195 23.175C127.545 22.361 126.247 21.173 125.301 19.611C124.355 18.027 123.882 16.058 123.882 13.704C123.882 11.834 124.168 10.096 124.74 8.49C125.312 6.862 126.137 5.443 127.215 4.233C128.315 3.023 129.657 2.077 131.241 1.395C132.847 0.712999 134.673 0.371999 136.719 0.371999C138.325 0.371999 139.821 0.624999 141.207 1.131C142.593 1.615 143.693 2.253 144.507 3.045L142.494 7.104C141.636 6.378 140.712 5.828 139.722 5.454C138.732 5.08 137.698 4.893 136.62 4.893C135.036 4.893 133.694 5.278 132.594 6.048C131.516 6.796 130.702 7.83 130.152 9.15C129.602 10.448 129.327 11.911 129.327 13.539C129.327 14.991 129.547 16.19 129.987 17.136C130.427 18.06 131.098 18.742 132 19.182C132.902 19.622 134.035 19.842 135.399 19.842C136.345 19.842 137.302 19.688 138.27 19.38C139.238 19.05 140.228 18.522 141.24 17.796L142.593 21.822C141.977 22.35 141.24 22.812 140.382 23.208C139.524 23.582 138.611 23.868 137.643 24.066C136.697 24.264 135.751 24.363 134.805 24.363ZM144.505 24L148.201 0.734999H153.184L151.6 10.866H151.237C151.787 9.766 152.557 8.93 153.547 8.358C154.537 7.764 155.703 7.467 157.045 7.467C158.233 7.467 159.234 7.709 160.048 8.193C160.862 8.677 161.434 9.425 161.764 10.437C162.116 11.449 162.171 12.758 161.929 14.364L160.411 24H155.428L156.913 14.463C157.023 13.759 157.023 13.176 156.913 12.714C156.825 12.252 156.616 11.911 156.286 11.691C155.956 11.449 155.494 11.328 154.9 11.328C154.152 11.328 153.492 11.493 152.92 11.823C152.37 12.131 151.919 12.582 151.567 13.176C151.237 13.77 151.006 14.496 150.874 15.354L149.488 24H144.505ZM169.421 24.363C168.409 24.363 167.485 24.132 166.649 23.67C165.835 23.186 165.175 22.559 164.669 21.789C164.185 21.019 163.943 20.183 163.943 19.281C163.943 18.137 164.262 17.202 164.9 16.476C165.538 15.75 166.528 15.222 167.87 14.892C169.212 14.54 170.928 14.364 173.018 14.364H175.625L175.229 16.938H173.117C172.039 16.938 171.181 17.004 170.543 17.136C169.905 17.246 169.443 17.455 169.157 17.763C168.871 18.049 168.728 18.445 168.728 18.951C168.728 19.611 168.948 20.128 169.388 20.502C169.85 20.854 170.422 21.03 171.104 21.03C171.742 21.03 172.303 20.898 172.787 20.634C173.293 20.37 173.711 19.996 174.041 19.512C174.393 19.028 174.613 18.456 174.701 17.796L175.328 13.935C175.482 13.033 175.317 12.34 174.833 11.856C174.371 11.372 173.579 11.13 172.457 11.13C171.489 11.13 170.543 11.262 169.619 11.526C168.695 11.79 167.771 12.197 166.847 12.747L165.824 9.381C166.396 8.985 167.078 8.644 167.87 8.358C168.662 8.072 169.509 7.852 170.411 7.698C171.335 7.544 172.248 7.467 173.15 7.467C174.998 7.467 176.45 7.808 177.506 8.49C178.562 9.172 179.277 10.096 179.651 11.262C180.025 12.406 180.091 13.693 179.849 15.123L178.463 24H173.81L174.338 20.7H174.635C174.305 21.536 173.865 22.229 173.315 22.779C172.787 23.329 172.193 23.736 171.533 24C170.873 24.242 170.169 24.363 169.421 24.363ZM188.031 24.363C186.007 24.363 184.555 23.813 183.675 22.713C182.817 21.591 182.542 19.974 182.85 17.862L185.556 0.734999H190.539L187.833 17.796C187.767 18.368 187.778 18.841 187.866 19.215C187.976 19.589 188.185 19.875 188.493 20.073C188.823 20.249 189.241 20.337 189.747 20.337C189.989 20.337 190.22 20.326 190.44 20.304C190.682 20.282 190.924 20.26 191.166 20.238L190.506 24.033C190.154 24.121 189.758 24.198 189.318 24.264C188.9 24.33 188.471 24.363 188.031 24.363ZM198.7 24.363C196.676 24.363 195.224 23.813 194.344 22.713C193.486 21.591 193.211 19.974 193.519 17.862L196.225 0.734999H201.208L198.502 17.796C198.436 18.368 198.447 18.841 198.535 19.215C198.645 19.589 198.854 19.875 199.162 20.073C199.492 20.249 199.91 20.337 200.416 20.337C200.658 20.337 200.889 20.326 201.109 20.304C201.351 20.282 201.593 20.26 201.835 20.238L201.175 24.033C200.823 24.121 200.427 24.198 199.987 24.264C199.569 24.33 199.14 24.363 198.7 24.363ZM211.848 24.363C210.154 24.363 208.68 24.055 207.426 23.439C206.172 22.801 205.204 21.921 204.522 20.799C203.84 19.677 203.499 18.379 203.499 16.905C203.499 15.057 203.895 13.429 204.687 12.021C205.479 10.613 206.557 9.502 207.921 8.688C209.307 7.874 210.869 7.467 212.607 7.467C214.411 7.467 215.852 7.863 216.93 8.655C218.008 9.425 218.756 10.47 219.174 11.79C219.592 13.088 219.702 14.529 219.504 16.113L219.372 16.971H207.525L207.888 14.397H216.171L215.643 14.859C215.753 14.067 215.72 13.374 215.544 12.78C215.368 12.164 215.038 11.68 214.554 11.328C214.07 10.954 213.41 10.767 212.574 10.767C211.738 10.767 211.023 10.965 210.429 11.361C209.857 11.735 209.406 12.23 209.076 12.846C208.746 13.44 208.515 14.1 208.383 14.826L208.218 15.981C208.064 16.949 208.119 17.785 208.383 18.489C208.669 19.171 209.142 19.699 209.802 20.073C210.484 20.447 211.331 20.634 212.343 20.634C213.267 20.634 214.158 20.502 215.016 20.238C215.896 19.974 216.677 19.589 217.359 19.083L218.448 22.35C217.656 22.966 216.677 23.461 215.511 23.835C214.345 24.187 213.124 24.363 211.848 24.363ZM220.829 24L223.403 7.797H228.287L227.792 10.866H227.561C228.111 9.766 228.881 8.93 229.871 8.358C230.861 7.764 232.027 7.467 233.369 7.467C234.557 7.467 235.558 7.709 236.372 8.193C237.186 8.677 237.758 9.425 238.088 10.437C238.44 11.449 238.495 12.758 238.253 14.364L236.735 24H231.752L233.237 14.463C233.347 13.759 233.347 13.176 233.237 12.714C233.149 12.252 232.94 11.911 232.61 11.691C232.28 11.449 231.818 11.328 231.224 11.328C230.476 11.328 229.816 11.493 229.244 11.823C228.694 12.131 228.243 12.582 227.891 13.176C227.561 13.77 227.33 14.496 227.198 15.354L225.812 24H220.829ZM248.088 30.303C246.46 30.303 244.964 30.116 243.6 29.742C242.258 29.368 241.026 28.818 239.904 28.092L241.389 24.693C242.005 25.067 242.632 25.397 243.27 25.683C243.93 25.969 244.59 26.189 245.25 26.343C245.932 26.497 246.636 26.574 247.362 26.574C248.616 26.574 249.628 26.31 250.398 25.782C251.19 25.254 251.685 24.385 251.883 23.175L252.345 20.436L252.609 20.469C252.279 21.151 251.828 21.734 251.256 22.218C250.684 22.68 250.046 23.032 249.342 23.274C248.638 23.494 247.89 23.604 247.098 23.604C245.8 23.604 244.656 23.34 243.666 22.812C242.698 22.284 241.939 21.525 241.389 20.535C240.861 19.523 240.597 18.324 240.597 16.938C240.597 15.662 240.795 14.452 241.191 13.308C241.587 12.142 242.137 11.13 242.841 10.272C243.567 9.392 244.436 8.71 245.448 8.226C246.482 7.72 247.615 7.467 248.847 7.467C250.101 7.467 251.19 7.753 252.114 8.325C253.038 8.875 253.687 9.689 254.061 10.767L253.797 10.668L254.259 7.797H259.143L256.734 22.911C256.492 24.473 256.008 25.804 255.282 26.904C254.578 28.004 253.621 28.84 252.411 29.412C251.223 30.006 249.782 30.303 248.088 30.303ZM248.715 19.875C249.617 19.875 250.387 19.622 251.025 19.116C251.663 18.61 252.147 17.95 252.477 17.136C252.829 16.3 253.005 15.398 253.005 14.43C253.027 13.44 252.752 12.659 252.18 12.087C251.63 11.493 250.849 11.196 249.837 11.196C248.957 11.196 248.198 11.449 247.56 11.955C246.922 12.439 246.438 13.099 246.108 13.935C245.778 14.749 245.613 15.651 245.613 16.641C245.591 17.631 245.844 18.423 246.372 19.017C246.922 19.589 247.703 19.875 248.715 19.875ZM268.928 24.363C267.234 24.363 265.76 24.055 264.506 23.439C263.252 22.801 262.284 21.921 261.602 20.799C260.92 19.677 260.579 18.379 260.579 16.905C260.579 15.057 260.975 13.429 261.767 12.021C262.559 10.613 263.637 9.502 265.001 8.688C266.387 7.874 267.949 7.467 269.687 7.467C271.491 7.467 272.932 7.863 274.01 8.655C275.088 9.425 275.836 10.47 276.254 11.79C276.672 13.088 276.782 14.529 276.584 16.113L276.452 16.971H264.605L264.968 14.397H273.251L272.723 14.859C272.833 14.067 272.8 13.374 272.624 12.78C272.448 12.164 272.118 11.68 271.634 11.328C271.15 10.954 270.49 10.767 269.654 10.767C268.818 10.767 268.103 10.965 267.509 11.361C266.937 11.735 266.486 12.23 266.156 12.846C265.826 13.44 265.595 14.1 265.463 14.826L265.298 15.981C265.144 16.949 265.199 17.785 265.463 18.489C265.749 19.171 266.222 19.699 266.882 20.073C267.564 20.447 268.411 20.634 269.423 20.634C270.347 20.634 271.238 20.502 272.096 20.238C272.976 19.974 273.757 19.589 274.439 19.083L275.528 22.35C274.736 22.966 273.757 23.461 272.591 23.835C271.425 24.187 270.204 24.363 268.928 24.363ZM279.955 16.443L280.912 0.734999H287.017L282.991 16.443H279.955ZM277.612 24L278.47 18.72H283.816L282.991 24H277.612Z" fill="#424242"/>
</svg>
