<svg width="255" height="31" viewBox="0 0 255 31" fill="none" xmlns="http://www.w3.org/2000/svg">
<path d="M4.53906 4.68872C4.53906 6.63013 5.81055 8.62622 7.57422 9.47388L6.94531 10.3079C5.60547 9.65161 4.5459 8.32544 4.04688 6.75317C3.51367 8.44165 2.38574 9.85669 0.998047 10.5266L0.382812 9.69263C2.16016 8.85864 3.48633 6.78052 3.5 4.68872V3.71802H0.710938V2.84302H3.48633V0.956299H4.56641V2.84302H7.30078V3.71802H4.53906V4.68872ZM9.89844 0.723877V5.71411H11.9355V6.63013H9.89844V12.8782H8.83203V0.723877H9.89844ZM23.246 6.50708V7.39575H12.1855V6.50708H16.7655V4.04614H17.8183V6.50708H23.246ZM21.8378 8.79028V12.8782H20.7441V9.67896H13.3612V8.79028H21.8378ZM21.8378 1.3938V2.30981C21.8378 3.2395 21.8378 4.29224 21.537 5.6731L20.457 5.56372C20.7714 4.19653 20.7714 3.22583 20.7714 2.30981V2.2688H13.498V1.3938H21.8378ZM27.8983 4.68872C27.8983 6.63013 29.1698 8.62622 30.9334 9.47388L30.3045 10.3079C28.9647 9.65161 27.9051 8.32544 27.4061 6.75317C26.8729 8.44165 25.745 9.85669 24.3573 10.5266L23.742 9.69263C25.5194 8.85864 26.8455 6.78052 26.8592 4.68872V3.71802H24.0702V2.84302H26.8455V0.956299H27.9256V2.84302H30.66V3.71802H27.8983V4.68872ZM33.2577 0.723877V5.71411H35.2948V6.63013H33.2577V12.8782H32.1912V0.723877H33.2577ZM46.6052 6.50708V7.39575H35.5447V6.50708H40.1248V4.04614H41.1775V6.50708H46.6052ZM45.197 8.79028V12.8782H44.1033V9.67896H36.7205V8.79028H45.197ZM45.197 1.3938V2.30981C45.197 3.2395 45.197 4.29224 44.8963 5.6731L43.8162 5.56372C44.1306 4.19653 44.1306 3.22583 44.1306 2.30981V2.2688H36.8572V1.3938H45.197ZM60.0523 0.723877V3.37622H61.652V4.27856H60.0523V7.20435H58.9859V0.723877H60.0523ZM53.1344 2.09106C53.1344 2.98657 53.3873 4.40161 54.3375 5.34497C55.2398 4.42896 55.4996 3.03442 55.4996 2.10474V1.25708H55.732V1.24341H56.4977V2.09106C56.4977 3.37622 57.0309 4.94849 58.4391 5.6731L57.8512 6.43872C56.901 5.9397 56.3336 5.07153 56.0328 4.10083C55.7525 5.07837 55.2398 6.02173 54.3238 6.57544C53.3941 6.00806 52.8746 5.01685 52.6148 4.03247C52.2936 5.00317 51.7262 5.91919 50.7965 6.43872L50.2086 5.6731C51.5758 4.8938 52.109 3.2395 52.1227 2.09106V1.24341H53.1344V2.09106ZM60.5582 7.91528V8.76294H51.9449V7.91528H55.732V6.69849H56.7984V7.91528H60.5582ZM56.2652 9.33716C58.4938 9.33716 59.8063 9.96606 59.8063 11.0872C59.8063 12.2493 58.4938 12.8508 56.2652 12.8508C53.9957 12.8508 52.6832 12.2493 52.6969 11.0872C52.6832 9.96606 53.9957 9.33716 56.2652 9.33716ZM56.2652 10.1165C54.652 10.1301 53.7496 10.4856 53.7633 11.0872C53.7496 11.7161 54.652 12.0715 56.2652 12.0579C57.8375 12.0715 58.7535 11.7161 58.7535 11.0872C58.7535 10.4856 57.8375 10.1301 56.2652 10.1165ZM65.2378 1.66724C67.0288 1.68091 68.3003 3.32153 68.314 5.90552C68.3003 8.4895 67.0288 10.1301 65.2378 10.1301C63.4331 10.1301 62.1753 8.4895 62.1753 5.90552C62.1753 3.32153 63.4331 1.68091 65.2378 1.66724ZM65.2378 2.62427C64.0347 2.63794 63.187 3.9231 63.187 5.90552C63.187 7.88794 64.0347 9.1731 65.2378 9.1731C66.4546 9.1731 67.2749 7.88794 67.2749 5.90552C67.2749 3.9231 66.4546 2.63794 65.2378 2.62427ZM71.3902 0.723877V5.57739H73.4273V6.50708H71.3902V12.8782H70.3237V0.723877H71.3902ZM83.0698 0.723877V5.6731H85.0385V6.57544H83.0698V12.8782H82.0034V0.723877H83.0698ZM79.9252 2.03638C79.9252 5.48169 78.312 8.61255 74.3471 10.5676L73.7455 9.71997C76.8901 8.15454 78.5991 5.81665 78.8452 2.93872H74.3061V2.03638H79.9252ZM95.1732 4.41528V5.27661H86.847V1.17505H87.9134V4.41528H95.1732ZM96.4584 6.93091V7.80591H85.3295V6.93091H96.4584ZM95.2416 11.6887V12.5774H86.7787V9.05005H87.8451V11.6887H95.2416ZM103.712 3.07544C103.712 4.30591 104.724 5.55005 106.255 6.08325L105.777 6.87622C104.56 6.45923 103.671 5.60474 103.234 4.57935C102.789 5.68677 101.907 6.63696 100.691 7.10864L100.171 6.28833C101.702 5.70044 102.687 4.3606 102.7 3.07544V2.96606H100.458V2.11841H102.7V0.792236H103.712V2.11841H105.913V2.96606H103.712V3.07544ZM110.439 0.737549V7.23169H109.413V4.38794H107.827V7.13599H106.788V0.969971H107.827V3.49927H109.413V0.737549H110.439ZM110.439 7.77856V10.5813H103.466V11.8801H110.931V12.7141H102.4V9.77466H109.386V8.61255H102.372V7.77856H110.439ZM121.817 0.737549V9.67896H120.765V0.737549H121.817ZM122.173 11.7161V12.6184H113.847V8.98169H114.927V11.7161H122.173ZM117.962 1.59888V5.11255H113.478V7.05396C115.734 7.05396 117.333 6.9856 119.261 6.6438L119.37 7.53247C117.388 7.87427 115.747 7.94263 113.423 7.9563H112.439V4.26489H116.896V2.47388H112.411V1.59888H117.962ZM127.823 4.4563C127.823 6.52075 129.327 8.61255 131.118 9.39185L130.517 10.2395C129.095 9.59009 127.864 8.18872 127.304 6.50708C126.73 8.29126 125.506 9.84302 124.118 10.5403L123.476 9.69263C125.212 8.85864 126.73 6.56177 126.743 4.4563V2.87036H123.872V1.98169H130.722V2.87036H127.823V4.4563ZM133.497 0.723877V12.8782H132.417V0.723877H133.497ZM139.821 1.65356V3.54028H142.528V1.65356H143.54V7.23169H138.809V1.65356H139.821ZM139.821 6.37036H142.528V4.40161H139.821V6.37036ZM148.571 0.737549V8.18872H147.546V4.86646H145.932V7.81958H144.921V0.969971H145.932V3.97778H147.546V0.737549H148.571ZM144.552 8.47583C147.067 8.47583 148.64 9.28247 148.64 10.6633C148.64 12.0579 147.067 12.8508 144.552 12.8508C142.022 12.8508 140.464 12.0579 140.477 10.6633C140.464 9.28247 142.022 8.47583 144.552 8.47583ZM144.552 9.30981C142.692 9.30981 141.53 9.81567 141.544 10.6633C141.53 11.511 142.692 12.0032 144.552 12.0032C146.397 12.0032 147.559 11.511 147.573 10.6633C147.559 9.81567 146.397 9.30981 144.552 9.30981ZM159.622 1.96802V3.47192C159.622 5.26294 159.622 6.91724 159.116 9.37817L158.036 9.28247C158.303 8.11353 158.439 7.10181 158.514 6.15161L151.091 6.56177L150.94 5.6731L158.555 5.35864C158.576 4.71606 158.576 4.09399 158.583 3.47192V2.87036H151.268V1.96802H159.622ZM161.003 10.2668V11.1692H149.929V10.2668H161.003ZM9.89844 16.7239V21.7415H11.9355V22.6301H9.89844V28.8782H8.83203V16.7239H9.89844ZM7.65625 18.679V19.5676H0.423828V18.679H3.55469V16.8743H4.62109V18.679H7.65625ZM4.10156 20.5793C5.82422 20.5793 7.06836 21.7278 7.08203 23.3684C7.06836 25.009 5.82422 26.1575 4.10156 26.1575C2.36523 26.1575 1.10742 25.009 1.12109 23.3684C1.10742 21.7278 2.36523 20.5793 4.10156 20.5793ZM4.10156 21.4817C2.9668 21.4817 2.13281 22.2747 2.14648 23.3684C2.13281 24.4758 2.9668 25.2551 4.10156 25.2415C5.22266 25.2551 6.04297 24.4758 6.05664 23.3684C6.04297 22.2747 5.22266 21.4817 4.10156 21.4817ZM21.9335 17.2161V20.3743H14.6054V21.9465H22.1933V22.8352H13.5253V19.5266H20.8398V18.0911H13.498V17.2161H21.9335ZM23.287 24.1204V24.9817H18.2284V28.9055H17.162V24.9817H12.1581V24.1204H23.287ZM36.3513 16.7239V21.7415H38.3884V22.6301H36.3513V28.8782H35.2849V16.7239H36.3513ZM34.1091 18.679V19.5676H26.8767V18.679H30.0076V16.8743H31.074V18.679H34.1091ZM30.5545 20.5793C32.2771 20.5793 33.5212 21.7278 33.5349 23.3684C33.5212 25.009 32.2771 26.1575 30.5545 26.1575C28.8181 26.1575 27.5603 25.009 27.574 23.3684C27.5603 21.7278 28.8181 20.5793 30.5545 20.5793ZM30.5545 21.4817C29.4197 21.4817 28.5857 22.2747 28.5994 23.3684C28.5857 24.4758 29.4197 25.2551 30.5545 25.2415C31.6755 25.2551 32.4959 24.4758 32.5095 23.3684C32.4959 22.2747 31.6755 21.4817 30.5545 21.4817ZM48.3864 17.2161V20.3743H41.0583V21.9465H48.6462V22.8352H39.9782V19.5266H47.2927V18.0911H39.9509V17.2161H48.3864ZM49.7399 24.1204V24.9817H44.6813V28.9055H43.6149V24.9817H38.611V24.1204H49.7399ZM52.3004 26.8547L51.234 30.5735H50.2223L50.9742 26.8547H52.3004ZM66.5815 16.7239V23.7922H65.5288V16.7239H66.5815ZM66.8959 24.6536V25.5012H63.2866C63.3481 26.6565 65.2621 27.7913 67.3198 28.0442L66.9233 28.8782C65.1049 28.6184 63.4438 27.7639 62.726 26.636C62.0014 27.7913 60.2924 28.6321 58.4604 28.8782L58.0776 28.0579C60.1352 27.8323 62.1176 26.6975 62.1791 25.5012H58.5834V24.6536H62.1928V23.4778H63.2592V24.6536H66.8959ZM58.269 17.2434V19.1301H61.851V17.2434H62.9174V22.6711H57.2026V17.2434H58.269ZM58.269 21.8098H61.851V19.9641H58.269V21.8098ZM79.6146 21.5774V22.4797H77.6459V28.8782H76.5795V16.7239H77.6459V21.5774H79.6146ZM69.8119 17.927V24.886C71.5892 24.8792 73.4007 24.7424 75.4037 24.3254L75.5404 25.2415C73.4486 25.6653 71.5619 25.7883 69.7162 25.7883H68.7455V17.927H69.8119ZM89.7493 20.4153V21.2766H81.4231V17.175H82.4895V20.4153H89.7493ZM91.0345 22.9309V23.8059H79.9055V22.9309H91.0345ZM89.8177 27.6887V28.5774H81.3548V25.05H82.4212V27.6887H89.8177ZM104.099 16.7239V21.5637H106.136V22.4661H104.099V28.9055H103.032V16.7239H104.099ZM100.694 17.8586V22.2063H96.2648V25.05C98.5206 25.05 100.093 24.9749 101.939 24.6262L102.048 25.5149C100.134 25.8704 98.507 25.9524 96.1691 25.9661H95.1984V21.3176H99.628V18.7473H95.171V17.8586H100.694ZM116.394 16.7239V28.9055H115.314V16.7239H116.394ZM109.927 17.6672C111.731 17.6809 113.03 19.3215 113.03 21.9055C113.03 24.4895 111.731 26.1301 109.927 26.1301C108.108 26.1301 106.823 24.4895 106.823 21.9055C106.823 19.3215 108.108 17.6809 109.927 17.6672ZM109.927 18.6243C108.71 18.6379 107.862 19.9231 107.862 21.9055C107.862 23.8879 108.71 25.1731 109.927 25.1731C111.144 25.1731 111.991 23.8879 111.991 21.9055C111.991 19.9231 111.144 18.6379 109.927 18.6243ZM129.181 26.4036V27.3196H118.052V26.4036H129.181ZM128.114 17.9543V18.843H126.186V23.095H128.087V23.97H119.063V23.095H120.964V18.843H119.036V17.9543H128.114ZM122.03 23.095H125.134V18.843H122.03V23.095ZM138.882 18.5149C138.882 20.593 141.261 22.4524 143.38 22.8489L142.887 23.7512C141.055 23.3274 139.121 22.0217 138.335 20.2239C137.549 22.0149 135.621 23.3206 133.782 23.7512L133.29 22.8489C135.395 22.4387 137.761 20.6067 137.761 18.5149V17.5852H138.882V18.5149ZM143.954 26.3352V27.2239H132.825V26.3352H143.954ZM150.739 17.8313V18.7336H146.118V21.2493H150.466V22.1243H146.118V25.0637C148.305 25.0637 149.843 24.9749 151.669 24.6672L151.792 25.5559C149.891 25.8704 148.292 25.9387 145.995 25.9524H145.038V17.8313H150.739ZM153.911 16.7239V21.6184H155.948V22.5344H153.911V28.8782H152.844V16.7239H153.911ZM159.63 17.175C161.448 17.1887 162.774 18.2825 162.774 19.8684C162.774 21.4543 161.448 22.5481 159.63 22.5481C157.784 22.5481 156.471 21.4543 156.471 19.8684C156.471 18.2825 157.784 17.1887 159.63 17.175ZM159.63 18.0774C158.413 18.0774 157.51 18.8157 157.524 19.8684C157.51 20.9348 158.413 21.6731 159.63 21.6731C160.833 21.6731 161.735 20.9348 161.735 19.8684C161.735 18.8157 160.833 18.0774 159.63 18.0774ZM166.219 16.7239V22.9719H165.153V16.7239H166.219ZM166.219 23.5598V26.4856H159.397V27.8528H166.657V28.7141H158.344V25.679H165.153V24.4211H158.317V23.5598H166.219ZM177.885 16.7239V28.9055H176.805V16.7239H177.885ZM171.419 17.6672C173.223 17.6809 174.522 19.3215 174.522 21.9055C174.522 24.4895 173.223 26.1301 171.419 26.1301C169.6 26.1301 168.315 24.4895 168.315 21.9055C168.315 19.3215 169.6 17.6809 171.419 17.6672ZM171.419 18.6243C170.202 18.6379 169.354 19.9231 169.354 21.9055C169.354 23.8879 170.202 25.1731 171.419 25.1731C172.635 25.1731 173.483 23.8879 173.483 21.9055C173.483 19.9231 172.635 18.6379 171.419 18.6243ZM192.713 16.7239V23.2317H191.633V21.3997H189.596V20.5247H191.633V19.3762H189.596V18.5149H191.633V16.7239H192.713ZM189.459 17.5168V18.3918H188.215V21.7961C188.783 21.762 189.336 21.7141 189.856 21.6594L189.911 22.4524C187.573 22.8079 184.825 22.8352 182.788 22.8352L182.664 21.9192L184.237 21.9055V18.3918H183.006V17.5168H189.459ZM192.713 23.8059V26.595H185.918V27.8801H193.164V28.7415H184.866V25.7747H191.647V24.6536H184.838V23.8059H192.713ZM185.276 21.8918C185.898 21.8918 186.54 21.8713 187.176 21.8508V18.3918H185.276V21.8918ZM204.379 16.7239V28.9055H203.313V24.011H200.811V23.1223H203.313V21.4817H200.811V20.5793H203.313V16.7239H204.379ZM198.514 20.6887C198.514 22.6985 199.881 24.6809 201.686 25.4875L201.071 26.3215C199.69 25.6858 198.541 24.3528 198.008 22.7395C197.475 24.4417 196.34 25.8567 194.959 26.5266L194.344 25.6926C196.121 24.8586 197.461 22.7805 197.461 20.6887V19.718H194.672V18.843H197.461V16.9563H198.528V18.843H201.276V19.718H198.514V20.6887ZM216.018 16.7239V23.0403H214.965V16.7239H216.018ZM216.031 23.6282V26.5266H209.209V27.8801H216.469V28.7415H208.156V25.72H214.965V24.4758H208.129V23.6282H216.031ZM210.371 18.4465C210.371 20.0325 211.67 21.4133 213.502 21.9602L212.969 22.7942C211.533 22.343 210.392 21.3792 209.852 20.1282C209.325 21.4954 208.163 22.5618 206.68 23.054L206.174 22.2063C207.992 21.6047 209.291 20.1145 209.291 18.4465V18.3098H206.447V17.4211H213.174V18.3098H210.371V18.4465ZM227.738 16.7239V28.8782H226.672V22.5071H223.774V21.6184H226.672V16.7239H227.738ZM223.801 18.05C223.801 21.4954 222.338 24.5579 218.277 26.5676L217.69 25.7063C220.985 24.1135 222.509 21.7756 222.721 18.925H218.223V18.05H223.801ZM239.774 16.7239V28.8782H238.734V16.7239H239.774ZM237.326 16.9836V28.2629H236.301V22.3567H234.742C234.626 24.7219 233.621 26.1985 232.117 26.1985C230.531 26.1985 229.506 24.5579 229.506 21.9739C229.506 19.3899 230.531 17.7493 232.117 17.7493C233.594 17.7493 234.592 19.178 234.729 21.468H236.301V16.9836H237.326ZM232.117 18.761C231.133 18.761 230.504 19.9915 230.518 21.9739C230.504 23.9426 231.133 25.1868 232.117 25.1731C233.102 25.1868 233.731 23.9426 233.731 21.9739C233.731 19.9915 233.102 18.761 232.117 18.761ZM252.164 26.4172V27.3196H241.035V26.4172H243.797V23.136C242.758 22.5959 242.129 21.7209 242.129 20.6204C242.129 18.7336 243.975 17.5032 246.572 17.4895C249.17 17.5032 251.016 18.7336 251.016 20.6204C251.016 21.7004 250.407 22.5686 249.402 23.1086V26.4172H252.164ZM246.572 18.3782C244.576 18.3645 243.168 19.2668 243.168 20.6204C243.168 21.9739 244.576 22.8899 246.572 22.8899C248.555 22.8899 249.977 21.9739 249.977 20.6204C249.977 19.2668 248.555 18.3645 246.572 18.3782ZM244.85 26.4172H248.322V23.5188C247.796 23.6624 247.208 23.7375 246.572 23.7375C245.95 23.7375 245.369 23.6692 244.85 23.5325V26.4172ZM254 27.8528C253.521 27.8528 253.111 27.4563 253.125 26.9641C253.111 26.4856 253.521 26.0891 254 26.0891C254.478 26.0891 254.875 26.4856 254.875 26.9641C254.875 27.4563 254.478 27.8528 254 27.8528Z" fill="#A9B3B9"/>
</svg>
