<svg width="253" height="91" viewBox="0 0 253 91" fill="none" xmlns="http://www.w3.org/2000/svg">
<path d="M21.9659 4.54395V26.5654H19.2071V21.5361H14.5196V19.4609H19.2071V4.54395H21.9659ZM3.24033 15.9209C7.61045 15.8965 12.9571 15.8965 17.6935 15.3838L17.8644 17.3857C15.838 17.6665 13.7506 17.8496 11.712 17.9717V25.9062H8.97764V18.0815C7.08555 18.1426 5.25449 18.167 3.58213 18.167L3.24033 15.9209ZM5.0958 13.8457V5.66699H16.1065V13.8457H5.0958ZM7.78135 11.6973H13.4454V7.83984H7.78135V11.6973ZM44.766 15.5059V17.6787H24.6244V15.5059H44.766ZM27.0903 13.5039V5.39844H42.3246V7.54688H29.8002V11.3066H42.5199V13.5039H27.0903ZM27.1147 26.126V19.6074H29.7758V23.9287H42.6664V26.126H27.1147ZM68.9307 4.4707V9.45117H72.0313V11.6484H68.9307V16.5068H66.2208V4.4707H68.9307ZM51.5479 8.37695V6.30176H56.7481V4.34863H59.4581V6.30176H64.6339V8.37695H51.5479ZM52.671 12.6738C52.671 10.4766 54.8316 9.07275 58.0909 9.06055C61.3624 9.07275 63.4742 10.4766 63.4864 12.6738C63.4742 14.9321 61.3624 16.2871 58.0909 16.2871C54.8316 16.2871 52.671 14.9321 52.671 12.6738ZM54.502 19.4609V17.4834H68.9307V22.8057H57.212V24.3682H69.6143V26.3945H54.5264V20.9258H66.2208V19.4609H54.502ZM55.3077 12.6738C55.2955 13.7603 56.3819 14.3218 58.0909 14.334C59.7999 14.3218 60.8985 13.7603 60.8985 12.6738C60.8985 11.624 59.7999 11.0015 58.0909 11.0137C56.3819 11.0015 55.2955 11.624 55.3077 12.6738ZM89.9216 6.35059C89.9094 9.12158 93.0222 11.9414 97.7341 12.5518L96.6599 14.749C92.9123 14.1875 89.9338 12.3442 88.4934 9.854C87.0529 12.3442 84.0866 14.1875 80.3757 14.749L79.3015 12.5518C83.9646 11.9414 87.0651 9.146 87.0651 6.35059V5.22754H89.9216V6.35059ZM78.4226 18.8994V16.6533H98.5397V18.8994H89.7751V26.5898H87.0896V18.8994H78.4226ZM113.159 18.875C113.159 20.7183 114.001 22.6348 115.893 23.8555C117.822 22.5493 118.713 20.5474 118.725 18.875V17.9717H121.386V18.875C121.374 21.1821 122.741 23.355 125.634 24.2705L124.316 26.248C122.167 25.5278 120.751 24.124 119.982 22.354C119.262 24.0996 117.968 25.6377 115.966 26.4434C113.867 25.6743 112.548 24.1851 111.852 22.4395C111.059 24.1362 109.655 25.5156 107.617 26.248L106.274 24.2705C109.13 23.2695 110.51 21.0234 110.522 18.875V17.9717H113.159V18.875ZM105.712 10.9648C105.712 7.86426 108.251 5.71582 111.669 5.71582C115.075 5.71582 117.614 7.86426 117.602 10.9648C117.614 14.0288 115.075 16.2017 111.669 16.1895C108.251 16.2017 105.712 14.0288 105.712 10.9648ZM108.373 10.9648C108.361 12.7715 109.741 13.9312 111.669 13.9434C113.561 13.9312 114.941 12.7715 114.941 10.9648C114.941 9.1582 113.561 7.99854 111.669 8.01074C109.741 7.99854 108.361 9.1582 108.373 10.9648ZM120.971 17.0439V4.54395H123.705V17.0439H120.971ZM144.479 10.7695V12.918H129.196V5.3252H131.882V10.7695H144.479ZM126.584 17.6299V15.4814H146.75V17.6299H126.584ZM129.001 26.0771V19.583H131.711V23.8799H144.626V26.0771H129.001ZM171.989 4.51953V19.4121H169.279V12.1123H164.835V16.1406H154.459V6.10645H164.835V9.91504H169.279V4.51953H171.989ZM156.095 24.3438C160.429 23.6724 163.261 21.1455 163.273 18.6797V17.9717H166.08V18.6797C166.056 21.2676 168.815 23.7212 173.283 24.3438L172.208 26.4678C168.68 25.9307 165.983 24.2827 164.652 22.0122C163.297 24.2461 160.587 25.9429 157.072 26.4678L156.095 24.3438ZM157.169 13.9678H162.15V8.30371H157.169V13.9678ZM183.168 9.01172C183.168 11.7583 185.047 14.4438 188.563 15.5303L187.172 17.6543C184.669 16.8486 182.85 15.1885 181.837 13.0889C180.848 15.3716 178.968 17.1904 176.356 18.0938L174.964 15.9453C178.517 14.7734 180.409 11.917 180.433 9.01172V8.37695H175.672V6.2041H187.806V8.37695H183.168V9.01172ZM178.578 26.1504V19.0947H181.312V23.9531H193.788V26.1504H178.578ZM190.443 20.5596V4.54395H193.177V20.5596H190.443ZM209.578 9.81738C209.554 13.7603 211.531 17.7397 214.949 19.3877L213.289 21.5605C210.897 20.3521 209.176 18.0205 208.236 15.2129C207.271 18.2158 205.465 20.7061 202.938 21.9756L201.278 19.8027C204.83 18.1182 206.856 13.8945 206.868 9.81738V6.30176H209.578V9.81738ZM216.268 26.5898V4.51953H218.978V13.1621H222.371V15.4814H218.978V26.5898H216.268ZM240.386 4.54395V9.91504H243.487V12.1855H240.386V17.6543H237.676V4.54395H240.386ZM223.809 7.83984V5.66699H233.892V12.1367H226.544V14.5049C230.279 14.4927 232.867 14.3828 235.87 13.8701L236.163 16.0186C232.879 16.6289 229.998 16.7388 225.64 16.7266H223.834V10.0859H231.231V7.83984H223.809ZM226.104 26.3213V18.6309H240.386V26.3213H226.104ZM228.765 24.124H237.725V20.7549H228.765V24.124ZM248.807 6.74121L248.538 19.2168H245.779L245.486 6.74121H248.807ZM245.267 22.708C245.254 21.6826 246.121 20.8403 247.171 20.8281C248.184 20.8403 249.051 21.6826 249.051 22.708C249.051 23.7578 248.184 24.6123 247.171 24.6123C246.121 24.6123 245.254 23.7578 245.267 22.708ZM20.2543 34.5439V50.7305H17.5444V43.3086H13.2963V41.0625H17.5444V34.5439H20.2543ZM2.06584 46.2383C6.81438 44.7368 9.95158 41.917 10.4765 38.4258H3.2133V36.2041H13.4428C13.4428 42.0269 9.59758 46.3726 3.2133 48.4111L2.06584 46.2383ZM5.87444 56.1504V49.0947H8.63322V53.9531H20.8158V56.1504H5.87444ZM40.4665 34.5195V39.8906H43.5427V42.1123H40.4665V47.459H37.7566V34.5195H40.4665ZM22.9861 45.6035C27.9788 44.2363 30.9573 41.5386 31.4211 38.2305H23.9871V36.0332H34.363C34.3752 41.8315 30.5911 45.9575 24.0603 47.8008L22.9861 45.6035ZM25.9646 52.1465C25.9402 49.4243 28.8943 47.7275 33.3376 47.7275C37.8176 47.7275 40.7107 49.4243 40.7107 52.1465C40.7107 54.8931 37.8176 56.5776 33.3376 56.5654C28.8943 56.5776 25.9402 54.8931 25.9646 52.1465ZM28.6501 52.1465C28.6379 53.5869 30.4202 54.4414 33.3376 54.4414C36.2429 54.4414 38.0373 53.5869 38.0496 52.1465C38.0373 50.6938 36.2429 49.8516 33.3376 49.8516C30.4202 49.8516 28.6379 50.6938 28.6501 52.1465ZM53.3764 36.0332V39.207H57.014V36.0332H59.5287V46.4336H50.8129V36.0332H53.3764ZM53.3764 44.2852H57.014V41.3311H53.3764V44.2852ZM53.8158 52.4883C53.8036 49.876 56.7333 48.3501 61.3842 48.3379C65.9984 48.3501 68.9403 49.876 68.9525 52.4883C68.9403 55.0518 65.9984 56.5654 61.3842 56.5654C56.7333 56.5654 53.8036 55.0518 53.8158 52.4883ZM56.5258 52.4883C56.5136 53.7822 58.3202 54.4658 61.3842 54.4658C64.3993 54.4658 66.2059 53.7822 66.2181 52.4883C66.2059 51.1577 64.3993 50.4375 61.3842 50.4375C58.3202 50.4375 56.5136 51.1577 56.5258 52.4883ZM61.5062 47.3369V34.959H64.0453V40.0615H66.2426V34.5439H68.8305V47.9473H66.2426V42.2832H64.0453V47.3369H61.5062ZM89.1403 36.5703V39.207C89.1403 42.4175 89.1403 45.4448 88.1638 50.1201L85.4538 49.876C85.9055 47.9473 86.1496 46.2505 86.2961 44.688L73.2956 45.3594L72.9294 43.1621L86.4182 42.6494C86.467 41.4653 86.4792 40.3301 86.4792 39.207V38.7676H73.5886V36.5703H89.1403ZM71.2448 53.7822V51.5605H91.362V53.7822H71.2448ZM111.574 34.5195V56.5898H108.962V34.5195H111.574ZM92.751 44.0654C92.751 39.207 94.6309 36.1919 97.5117 36.2041C100.185 36.1919 102.004 38.6943 102.321 42.8203H104.445V34.9102H107.033V55.5156H104.445V45.0176H102.346C102.089 49.3267 100.246 51.9634 97.5117 51.9512C94.6309 51.9634 92.751 48.936 92.751 44.0654ZM95.2656 44.0654C95.2534 47.52 96.1079 49.3755 97.5117 49.3633C98.9766 49.3755 99.8433 47.52 99.8555 44.0654C99.8433 40.623 98.9766 38.7554 97.5117 38.7676C96.1079 38.7554 95.2534 40.623 95.2656 44.0654ZM136.862 34.5195V39.9395H139.914V42.1611H136.862V47.4102H134.128V34.5195H136.862ZM120.285 46.0186V36.082H130.173V38.2793H122.97V43.8213C127.194 43.8091 129.55 43.6748 132.15 43.1377L132.419 45.3105C129.562 45.9209 126.962 46.0186 122.067 46.0186H120.285ZM122.189 52.1709C122.189 49.4365 125.094 47.8252 129.66 47.8252C134.189 47.8252 137.045 49.4365 137.057 52.1709C137.045 54.9541 134.189 56.5654 129.66 56.5654C125.094 56.5654 122.189 54.9541 122.189 52.1709ZM124.875 52.1709C124.862 53.5991 126.632 54.3926 129.66 54.3926C132.626 54.3926 134.408 53.5991 134.421 52.1709C134.408 50.7671 132.626 49.9858 129.66 49.998C126.632 49.9858 124.862 50.7671 124.875 52.1709ZM159.101 34.5439V50.6572H156.366V34.5439H159.101ZM140.741 45.457C144.318 44.1997 146.149 41.0869 146.137 37.9131V35.7646H148.944V37.9131C148.932 40.9893 150.739 43.8945 154.242 45.0664L152.851 47.2148C150.336 46.3359 148.541 44.5781 147.565 42.3198C146.588 44.7368 144.757 46.6655 142.157 47.6055L140.741 45.457ZM144.501 56.1504V49.1191H147.235V53.9531H159.711V56.1504H144.501ZM169.157 36.0576C172.66 36.0454 175.211 38.2549 175.236 41.3799C175.211 44.5171 172.66 46.7144 169.157 46.7266C165.69 46.7144 163.09 44.5171 163.102 41.3799C163.09 38.2549 165.69 36.0454 169.157 36.0576ZM162.101 49.7783C166.08 49.7783 171.586 49.7295 176.359 49.0459L176.578 51.0234C171.635 51.9634 166.337 52 162.443 52L162.101 49.7783ZM165.787 41.3799C165.775 43.2231 167.228 44.3584 169.157 44.3584C171.11 44.3584 172.562 43.2231 172.575 41.3799C172.562 39.5488 171.122 38.4014 169.157 38.4014C167.228 38.4014 165.775 39.5488 165.787 41.3799ZM177.677 56.6143V34.5195H180.387V56.6143H177.677ZM195.641 41.2578C195.641 44.6758 197.044 48.1182 200.133 49.7783L198.619 51.7803C196.568 50.6938 195.177 48.7529 194.383 46.4336C193.602 48.936 192.21 51.0845 190.147 52.293L188.56 50.2422C191.685 48.4355 193.065 44.749 193.077 41.2578V40.5742H189.317V38.377H193.077V35.3008H195.641V38.377H199.327V40.5742H195.641V41.2578ZM197.96 45.2373V42.9912H200.841V34.9346H203.404V55.5156H200.841V45.2373H197.96ZM205.309 56.5898V34.5195H207.896V56.5898H205.309ZM220.736 35.8379V42.4785H213.778V45.1885C217.33 45.1885 219.344 45.0908 221.688 44.6514L221.956 46.8486C219.32 47.3003 217.037 47.3613 212.703 47.3613H211.092V40.4521H218.026V37.9863H211.043V35.8379H220.736ZM213.582 51.3408V49.168H228.67V56.5898H225.96V51.3408H213.582ZM222.054 44.4805V42.3076H225.96V39.8418H222.054V37.6689H225.96V34.5439H228.67V48.1182H225.96V44.4805H222.054ZM249.835 34.5195V56.6143H247.1V34.5195H249.835ZM232.183 43.9189C232.171 39.1582 234.6 36.1309 237.945 36.1309C241.253 36.1309 243.694 39.1582 243.707 43.9189C243.694 48.7163 241.253 51.7314 237.945 51.7314C234.6 51.7314 232.171 48.7163 232.183 43.9189ZM234.795 43.9189C234.795 47.3125 236.077 49.2778 237.945 49.29C239.8 49.2778 241.07 47.3125 241.07 43.9189C241.07 40.5498 239.8 38.5723 237.945 38.5723C236.077 38.5723 234.795 40.5498 234.795 43.9189ZM77.3239 71.2334C77.3239 74.6025 78.7033 78.0693 81.8405 79.7051L80.3024 81.707C78.2517 80.6328 76.8601 78.7041 76.0666 76.397C75.2854 78.8872 73.8938 81.0234 71.8308 82.1953L70.2683 80.1934C73.3566 78.3989 74.7482 74.7246 74.7605 71.2334V70.623H70.903V68.4014H74.7605V65.3008H77.3239V68.4014H81.1325V70.623H77.3239V71.2334ZM82.3044 85.5156V64.9102H84.8679V73.1621H87.1384V64.5195H89.7263V86.5898H87.1384V75.4082H84.8679V85.5156H82.3044ZM110.5 64.5439V86.5654H107.741V81.5117H103.054V79.4609H107.741V64.5439H110.5ZM91.7744 75.8721C95.9248 75.8599 101.442 75.8477 106.228 75.1885L106.398 77.1904C104.372 77.5322 102.285 77.752 100.246 77.8862V85.9062H97.5117V78.0205C95.583 78.0938 93.752 78.0938 92.1162 78.0938L91.7744 75.8721ZM93.3614 69.9639C93.3614 67.3394 95.7051 65.4961 99.0254 65.4961C102.272 65.4961 104.641 67.3394 104.641 69.9639C104.641 72.6494 102.272 74.395 99.0254 74.4072C95.7051 74.395 93.3614 72.6494 93.3614 69.9639ZM95.9248 69.9639C95.9126 71.4409 97.1699 72.332 99.0254 72.332C100.783 72.332 102.053 71.4409 102.053 69.9639C102.053 68.5234 100.795 67.5713 99.0254 67.5713C97.1699 67.5713 95.9126 68.5234 95.9248 69.9639ZM131.64 64.5195V77.3369H128.93V74.4805H125.39V72.2832H128.93V70.6719H125.39V68.4746H128.93V64.5195H131.64ZM113.134 75.4814C116.686 74.3096 118.53 71.5142 118.554 68.5967V68.084H113.989V65.8867H125.805V68.084H121.313V68.5479C121.301 71.3066 123.058 73.9434 126.464 75.0664L125.121 77.166C122.656 76.3481 120.922 74.7124 119.958 72.6494C118.993 74.9321 117.162 76.7388 114.55 77.6299L113.134 75.4814ZM114.355 84.2705C117.211 83.2939 118.591 81.0112 118.603 78.8262V78.0205H121.24V78.8262C121.215 80.6938 122.057 82.6226 123.962 83.8677C125.878 82.5371 126.733 80.4985 126.757 78.8262V78.0205H129.418V78.8262C129.406 81.1333 130.761 83.3428 133.715 84.2705L132.348 86.2969C130.2 85.54 128.796 84.124 128.039 82.3418C127.306 84.0874 126 85.6499 123.974 86.4678C121.923 85.6987 120.605 84.2095 119.897 82.4395C119.103 84.1362 117.712 85.54 115.673 86.2969L114.355 84.2705ZM140.475 66.1309C143.454 66.1309 145.663 68.6211 146.054 72.6494H150.265V64.5195H152.951V86.6143H150.265V74.8467H146.078C145.785 79.1069 143.539 81.7314 140.475 81.7314C137.155 81.7314 134.799 78.7163 134.811 73.9189C134.799 69.1582 137.155 66.1309 140.475 66.1309ZM137.423 73.9189C137.411 77.3125 138.656 79.2778 140.475 79.29C142.306 79.2778 143.539 77.3125 143.551 73.9189C143.539 70.5498 142.306 68.5723 140.475 68.5723C138.656 68.5723 137.411 70.5498 137.423 73.9189ZM175.897 81.6826V83.9043H155.731V81.6826H160.395V76.104C158.637 75.0908 157.575 73.5039 157.587 71.5508C157.575 68.0352 161.017 65.7158 165.766 65.7158C170.539 65.7158 174.005 68.0352 173.993 71.5508C174.005 73.4795 172.968 75.0298 171.259 76.043V81.6826H175.897ZM160.248 71.5508C160.236 73.8091 162.47 75.2495 165.766 75.2373C169.049 75.2495 171.332 73.8091 171.332 71.5508C171.332 69.2559 169.049 67.8521 165.766 67.8643C162.47 67.8521 160.236 69.2559 160.248 71.5508ZM163.08 81.6826H168.5V77.0806C167.658 77.2637 166.742 77.3613 165.766 77.3613C164.813 77.3613 163.91 77.2637 163.08 77.0928V81.6826ZM181.559 66.7412L181.29 79.2168H178.532L178.239 66.7412H181.559ZM178.019 82.708C178.007 81.6826 178.873 80.8403 179.923 80.8281C180.936 80.8403 181.803 81.6826 181.803 82.708C181.803 83.7578 180.936 84.6123 179.923 84.6123C178.873 84.6123 178.007 83.7578 178.019 82.708Z" fill="#424242"/>
</svg>
