<svg width="254" height="48" viewBox="0 0 254 48" fill="none" xmlns="http://www.w3.org/2000/svg">
<path d="M80.4692 1.32129V2.34668C80.4766 3.37939 80.4766 4.55127 80.147 6.11133H81.9487V7.42969H69.8491V6.11133H78.499C78.814 4.67578 78.8433 3.5918 78.8433 2.625H71.3433V1.32129H80.4692ZM71.2993 13.7578V8.96777H80.4546V13.7578H71.2993ZM72.896 12.4395H78.8433V10.2422H72.896V12.4395ZM93.9019 0.691406V10.4033H92.2759V7.12207H89.1191C88.4893 7.83252 87.5518 8.25732 86.4897 8.26465C84.4902 8.25732 82.9888 6.83643 82.9888 4.88086C82.9888 2.90332 84.4902 1.48975 86.4897 1.48242C87.5444 1.48975 88.4819 1.90723 89.1118 2.61035H92.2759V0.691406H93.9019ZM84.5415 4.88086C84.5415 6.06006 85.3545 6.81445 86.4897 6.81445C87.5737 6.81445 88.4014 6.06006 88.4087 4.88086C88.4014 3.69434 87.5737 2.93262 86.4897 2.93262C85.3545 2.93262 84.5415 3.69434 84.5415 4.88086ZM85.2153 13.6553V9.40723H86.8413V12.3369H94.2388V13.6553H85.2153ZM89.8296 3.92871C89.9102 4.229 89.9614 4.54395 89.9614 4.88086C89.9614 5.20312 89.9175 5.51074 89.8369 5.80371H92.2759V3.92871H89.8296ZM99.7173 1.51172C99.7173 4.22168 98.9995 6.08936 96.7729 7.69336L95.7036 6.68262C97.2563 5.61328 97.9668 4.52197 98.1646 2.80078H96.187V1.51172H99.7173ZM97.9448 13.7432V8.7041H106.807V13.7432H97.9448ZM99.4976 7.2832C101.058 6.03076 101.709 4.70508 101.871 2.80078H100.201V1.51172H103.423C103.423 2.36865 103.365 3.15967 103.218 3.89941H105.137V0.691406H106.807V8.13281H105.137V5.21777H102.852C102.427 6.33105 101.731 7.3125 100.655 8.2207L99.4976 7.2832ZM99.5562 12.4541H105.181V9.97852H99.5562V12.4541ZM120.811 7.51758V8.82129H108.741V7.51758H120.811ZM109.986 3.78223C109.986 2.10498 111.868 1.09424 114.761 1.10156C117.647 1.09424 119.529 2.10498 119.537 3.78223C119.529 5.4668 117.647 6.49219 114.761 6.49219C111.868 6.49219 109.986 5.4668 109.986 3.78223ZM110.235 13.6553V9.80273H111.861V12.3369H119.449V13.6553H110.235ZM111.685 3.78223C111.67 4.68311 112.835 5.1665 114.761 5.15918C116.695 5.1665 117.852 4.68311 117.852 3.78223C117.852 2.91064 116.695 2.40527 114.761 2.40527C112.835 2.40527 111.67 2.91064 111.685 3.78223ZM136.368 0.691406V8.41113H134.727V7.86914H132.251V6.84375H134.727V0.691406H136.368ZM125.25 5.4668C127.806 5.4668 131.006 5.44482 133.848 5.15918L133.936 6.18457C132.728 6.3457 131.482 6.45557 130.259 6.51416V8.39648H128.648V6.58008C127.513 6.60938 126.421 6.6167 125.425 6.60938L125.25 5.4668ZM126.436 4.64648V1.08691H132.779V4.64648H126.436ZM127.183 9.93457V8.82129H136.368V11.7949H128.838V12.6445H136.719V13.8018H127.242V10.7549H134.756V9.93457H127.183ZM128.062 3.50391H131.167V2.22949H128.062V3.50391ZM150.328 11.0332V12.3809H138.228V11.0332H143.443V8.87988H139.664V4.54395H147.281V2.90332H139.634V1.58496H148.892V5.83301H141.29V7.54688H149.2V8.87988H145.054V11.0332H150.328ZM166.822 5.78906V7.09277H154.751V5.78906H158.157C158.56 4.38281 158.641 3.33545 158.655 2.50781H155.879V1.2041H160.259V1.98047C160.252 2.8667 160.252 4.14844 159.834 5.78906H163.401C163.746 4.39014 163.812 3.32812 163.826 2.50781H161.065V1.2041H165.43V1.95117C165.423 2.83008 165.423 4.10449 165.042 5.78906H166.822ZM156.099 13.5527V8.58691H157.681V12.2271C158.458 12.1831 159.3 12.0732 160.171 11.8242L160.362 13.1426C159.065 13.4941 157.916 13.5601 156.802 13.5527H156.099ZM160.083 9.89062V8.6748H162.339V7.67871H163.936V8.6748H166.133V9.89062H160.083ZM160.743 12.1025C160.743 11.0112 161.761 10.2935 163.145 10.2861C164.507 10.2935 165.518 11.0112 165.518 12.1025C165.518 13.2231 164.507 13.9116 163.145 13.9189C161.761 13.9116 160.743 13.2231 160.743 12.1025ZM162.134 12.1025C162.127 12.5566 162.552 12.791 163.145 12.791C163.724 12.791 164.141 12.5566 164.141 12.1025C164.141 11.6558 163.724 11.4141 163.145 11.3994C162.552 11.4141 162.127 11.6558 162.134 12.1025ZM171.333 1.64355C173.121 1.64355 174.446 3.1377 174.681 5.55469H177.208V0.676758H178.819V13.9336H177.208V6.87305H174.695C174.52 9.4292 173.172 11.0039 171.333 11.0039C169.341 11.0039 167.928 9.19482 167.935 6.31641C167.928 3.45996 169.341 1.64355 171.333 1.64355ZM169.502 6.31641C169.495 8.35254 170.242 9.53174 171.333 9.53906C172.432 9.53174 173.172 8.35254 173.179 6.31641C173.172 4.29492 172.432 3.1084 171.333 3.1084C170.242 3.1084 169.495 4.29492 169.502 6.31641ZM183.404 2.00977L183.243 9.49512H181.587L181.412 2.00977H183.404ZM181.28 11.5898C181.272 10.9746 181.792 10.4692 182.422 10.4619C183.03 10.4692 183.55 10.9746 183.55 11.5898C183.55 12.2197 183.03 12.7324 182.422 12.7324C181.792 12.7324 181.272 12.2197 181.28 11.5898ZM50.7622 18.9658V20.46C50.7622 22.2324 50.7622 24.0562 50.2788 26.8467L48.6235 26.7002C49.1362 24.1001 49.1362 22.1812 49.1362 20.46V20.2842H41.5044V18.9658H50.7622ZM40.23 29.1025V27.7695H52.3003V29.1025H40.23ZM59.9175 18.8193V25.0742H53.6479V18.8193H59.9175ZM55.1567 30.6553V26.4072H56.7827V29.3369H64.1655V30.6553H55.1567ZM55.2446 23.7852H58.3208V20.123H55.2446V23.7852ZM62.0122 27.3447V17.6768H63.6382V21.5586H65.4839V22.9209H63.6382V27.3447H62.0122ZM76.7778 18.1895V19.332C76.7852 20.5039 76.7852 21.8223 76.4336 23.6094H78.228V24.9424H66.1577V23.6094H74.7856C74.9102 23.0015 74.9907 22.4448 75.0493 21.9395L67.5054 22.2764L67.3149 20.9287L75.1299 20.7383C75.1519 20.2988 75.1519 19.8887 75.1519 19.4932H67.6519V18.1895H76.7778ZM67.6079 30.7578V26.1582H76.7632V30.7578H67.6079ZM69.2046 29.4395H75.1519V27.4619H69.2046V29.4395ZM93.7114 17.6768V25.6895H92.0708V17.6768H93.7114ZM82.8423 20.2549V18.9512H86.0649V17.5889H87.7056V18.9512H90.8989V20.2549H82.8423ZM83.5894 23.1113C83.582 21.6685 84.9077 20.7383 86.8853 20.7383C88.8701 20.7383 90.1812 21.6685 90.1812 23.1113C90.1812 24.5615 88.8701 25.4844 86.8853 25.4844C84.9077 25.4844 83.582 24.5615 83.5894 23.1113ZM84.9224 30.7578V26.29H93.7114V30.7578H84.9224ZM85.1421 23.1113C85.1421 23.8511 85.8159 24.2686 86.8853 24.2686C87.9473 24.2686 88.6211 23.8511 88.6284 23.1113C88.6211 22.3716 87.9473 21.9468 86.8853 21.9541C85.8159 21.9468 85.1421 22.3716 85.1421 23.1113ZM86.5337 29.4395H92.1147V27.5791H86.5337V29.4395ZM107.73 22.9795V24.2686H95.645V22.9795H107.73ZM97.0659 26.4072V25.1768H106.207V28.502H98.6772V29.5127H106.573V30.7871H97.0806V27.3301H104.61V26.4072H97.0659ZM97.1831 22.1299V18.0137H106.177V19.3174H98.8091V20.8408H106.294V22.1299H97.1831ZM118.98 17.6768V22.7012H121.016V24.0342H118.98V30.9336H117.354V17.6768H118.98ZM109.151 27.6963V18.9365H115.347V20.2549H110.777V26.334C112.835 26.3267 114.468 26.2241 116.285 25.9092L116.475 27.2861C114.417 27.6377 112.637 27.6963 110.25 27.6963H109.151ZM132.295 21.4268V22.7158H123.125V18.1602H124.737V21.4268H132.295ZM121.558 25.543V24.2539H133.658V25.543H121.558ZM123.008 30.6113V26.7148H124.634V29.293H132.383V30.6113H123.008ZM148.716 18.3213V19.3467C148.724 20.3794 148.724 21.5513 148.394 23.1113H150.196V24.4297H138.096V23.1113H146.746C147.061 21.6758 147.09 20.5918 147.09 19.625H139.59V18.3213H148.716ZM139.546 30.7578V25.9678H148.702V30.7578H139.546ZM141.143 29.4395H147.09V27.2422H141.143V29.4395ZM162.149 17.6914V27.4033H160.523V24.1221H157.366C156.736 24.8325 155.799 25.2573 154.737 25.2646C152.737 25.2573 151.236 23.8364 151.236 21.8809C151.236 19.9033 152.737 18.4897 154.737 18.4824C155.792 18.4897 156.729 18.9072 157.359 19.6104H160.523V17.6914H162.149ZM152.789 21.8809C152.789 23.0601 153.602 23.8145 154.737 23.8145C155.821 23.8145 156.648 23.0601 156.656 21.8809C156.648 20.6943 155.821 19.9326 154.737 19.9326C153.602 19.9326 152.789 20.6943 152.789 21.8809ZM153.462 30.6553V26.4072H155.088V29.3369H162.486V30.6553H153.462ZM158.077 20.9287C158.157 21.229 158.208 21.5439 158.208 21.8809C158.208 22.2031 158.165 22.5107 158.084 22.8037H160.523V20.9287H158.077ZM171.421 19.0537V19.9912C171.421 21.1704 171.421 22.8403 171.055 25.1182L169.444 24.9863C169.766 22.9795 169.803 21.4927 169.81 20.3574H164.61V19.0537H171.421ZM163.907 26.832C164.69 26.8247 165.562 26.8174 166.47 26.7954V22.833H168.082V26.7441C169.429 26.6855 170.813 26.5903 172.081 26.4365L172.168 27.6523C169.437 28.0991 166.404 28.1504 164.068 28.1357L163.907 26.832ZM172.769 30.9189V17.6768H174.41V23.0674H176.329V24.4443H174.41V30.9189H172.769ZM191.167 18.3213V19.3467C191.175 20.3794 191.175 21.5513 190.845 23.1113H192.647V24.4297H180.547V23.1113H189.197C189.512 21.6758 189.542 20.5918 189.542 19.625H182.042V18.3213H191.167ZM181.998 30.7578V25.9678H191.153V30.7578H181.998ZM183.594 29.4395H189.542V27.2422H183.594V29.4395ZM205.582 25.0596V26.3779H200.323V30.9043H198.711V26.3779H193.511V25.0596H205.582ZM194.141 22.8916C196.741 22.562 198.484 21.1631 198.602 19.7129H194.625V18.4238H204.468V19.7129H200.491C200.601 21.1631 202.33 22.562 204.952 22.8916L204.366 24.166C202.11 23.8438 200.352 22.811 199.546 21.3828C198.733 22.811 196.99 23.8438 194.756 24.166L194.141 22.8916ZM208.086 29.7324C207.457 29.7324 206.937 29.2197 206.944 28.5898C206.937 27.9746 207.457 27.4692 208.086 27.4619C208.694 27.4692 209.214 27.9746 209.214 28.5898C209.214 29.2197 208.694 29.7324 208.086 29.7324ZM212.173 29.7324C211.543 29.7324 211.023 29.2197 211.031 28.5898C211.023 27.9746 211.543 27.4692 212.173 27.4619C212.781 27.4692 213.301 27.9746 213.301 28.5898C213.301 29.2197 212.781 29.7324 212.173 29.7324ZM12.0244 39.7891V41.1221H10.0615V47.8896H8.43555V34.6768H10.0615V39.7891H12.0244ZM0.15918 44.623V35.9658H1.77051V43.2754C3.53564 43.2461 5.41064 43.0923 7.41016 42.6748L7.58594 44.0518C5.35205 44.4985 3.23535 44.6157 1.27246 44.623H0.15918ZM16.6094 35.4971C18.6455 35.4971 20.1982 36.8081 20.2129 38.6904C20.1982 40.3091 19.0557 41.5029 17.4443 41.8032V43.7588C18.5503 43.7002 19.6489 43.6196 20.6816 43.4805L20.7988 44.6963C18.0229 45.1943 14.998 45.209 12.7275 45.1797L12.4932 43.8467C13.4893 43.8467 14.6318 43.8394 15.8184 43.8101V41.8179C14.1558 41.5249 13.0059 40.3237 13.0205 38.6904C13.0059 36.8081 14.5293 35.4971 16.6094 35.4971ZM14.6025 38.6904C14.5952 39.7964 15.4521 40.5068 16.6094 40.4922C17.7446 40.5068 18.5942 39.7964 18.6016 38.6904C18.5942 37.5771 17.7446 36.8887 16.6094 36.874C15.4521 36.8887 14.5952 37.5771 14.6025 38.6904ZM21.4434 47.9189V34.6768H23.0693V39.9648H24.9883V41.3418H23.0693V47.9189H21.4434ZM40.5449 34.6768V47.9189H38.9775V41.2246H37.5127V47.2451H35.9893V34.9258H37.5127V39.8916H38.9775V34.6768H40.5449ZM29.749 44.623V36.2002H31.3896V43.1875C32.5322 43.1655 33.7773 43.063 35.1689 42.792L35.3301 44.2129C33.543 44.5278 32.0269 44.623 30.6279 44.623H29.749ZM56.0723 34.6768V39.8477H58.0352V41.21H56.0723V47.8896H54.4463V34.6768H56.0723ZM45.6279 44.2715C48.8506 42.6602 50.5938 40.4189 50.916 37.4014H46.3457V36.0537H52.5713C52.564 39.9429 50.9526 43.3633 46.5508 45.5312L45.6279 44.2715ZM69.6514 35.1895V36.4785H65.8208C66.0259 37.6064 67.6445 38.6465 70.1641 38.8955L69.5635 40.1699C67.1758 39.9136 65.4033 38.9541 64.6855 37.6064C63.9678 38.9468 62.21 39.9136 59.8223 40.1699L59.251 38.8955C61.7339 38.6465 63.3452 37.5991 63.5576 36.4785H59.7637V35.1895H69.6514ZM58.665 42.499V41.1953H63.8799V39.3643H65.4912V41.1953H70.7354V42.499H58.665ZM59.998 44.8721V43.5684H69.2559V47.9189H67.6299V44.8721H59.998ZM75.9209 35.5996C78.0229 35.5923 79.5537 36.918 79.5684 38.793C79.5537 40.6753 78.0229 41.9937 75.9209 42.001C73.8408 41.9937 72.2808 40.6753 72.2881 38.793C72.2808 36.918 73.8408 35.5923 75.9209 35.5996ZM71.6875 43.832C74.0752 43.832 77.3784 43.8027 80.2422 43.3926L80.374 44.5791C77.4077 45.1431 74.229 45.165 71.8926 45.165L71.6875 43.832ZM73.8994 38.793C73.8921 39.8989 74.7637 40.5801 75.9209 40.5801C77.0928 40.5801 77.9644 39.8989 77.9717 38.793C77.9644 37.6943 77.1001 37.0059 75.9209 37.0059C74.7637 37.0059 73.8921 37.6943 73.8994 38.793ZM81.0332 47.9336V34.6768H82.6592V47.9336H81.0332ZM99.2412 34.6914V44.4033H97.6152V39.9502H95.0664V38.6025H97.6152V34.6914H99.2412ZM88.3281 41.708C91.1772 40.8071 93.0596 39.1152 93.3745 37.0205H89.0166V35.6875H95.1543C95.1543 39.1812 92.8472 41.7886 89.0166 43.0117L88.3281 41.708ZM90.6133 47.6553V43.4219H92.2686V46.3369H99.5781V47.6553H90.6133ZM111.561 34.6768V37.8994H113.406V39.2324H111.561V42.4404H109.935V34.6768H111.561ZM101.072 41.3271C104.068 40.5068 105.855 38.8882 106.133 36.9033H101.673V35.585H107.898C107.906 39.064 105.635 41.5396 101.717 42.6455L101.072 41.3271ZM102.859 45.2529C102.845 43.6196 104.617 42.6016 107.283 42.6016C109.971 42.6016 111.707 43.6196 111.707 45.2529C111.707 46.9009 109.971 47.9116 107.283 47.9043C104.617 47.9116 102.845 46.9009 102.859 45.2529ZM104.471 45.2529C104.463 46.1172 105.533 46.6299 107.283 46.6299C109.026 46.6299 110.103 46.1172 110.11 45.2529C110.103 44.3813 109.026 43.876 107.283 43.876C105.533 43.876 104.463 44.3813 104.471 45.2529ZM120.101 34.8818C123.118 34.8892 124.869 35.6875 124.876 37.1523C124.869 38.6318 123.118 39.4302 120.101 39.4375C117.09 39.4302 115.325 38.6318 115.325 37.1523C115.325 35.6875 117.09 34.8892 120.101 34.8818ZM114.08 41.4443V40.1406H126.15V41.4443H114.08ZM115.501 43.5391V42.3379H124.642V45.5752H117.112V46.5566H125.008V47.8018H115.516V44.418H123.045V43.5391H115.501ZM117.039 37.1523C117.032 37.8848 118.086 38.2217 120.101 38.2217C122.144 38.2217 123.191 37.8848 123.191 37.1523C123.191 36.4712 122.144 36.083 120.101 36.083C118.086 36.083 117.032 36.4712 117.039 37.1523ZM134.925 35.2627C136.939 35.2554 138.396 36.3833 138.396 38.0459C138.396 39.6792 136.939 40.8218 134.925 40.8145C132.933 40.8218 131.482 39.6792 131.482 38.0459C131.482 36.3833 132.933 35.2554 134.925 35.2627ZM130.618 41.7227C133.006 41.7227 136.353 41.6787 139.202 41.2539L139.319 42.4551C138.177 42.6748 136.99 42.814 135.833 42.9019V47.5088H134.192V42.9971C132.969 43.0483 131.819 43.063 130.823 43.0703L130.618 41.7227ZM133.064 38.0459C133.057 38.9321 133.841 39.4888 134.925 39.4814C136.053 39.4888 136.844 38.9321 136.844 38.0459C136.844 37.1304 136.053 36.5664 134.925 36.5811C133.841 36.5664 133.057 37.1304 133.064 38.0459ZM140.066 47.9043V34.6914H141.678V47.9043H140.066ZM150.027 36.7861V38.0898H143.538V36.7861H145.999V35.0576H147.61V36.7861H150.027ZM143.919 41.8691C143.904 40.0674 145.127 38.7856 146.805 38.793C148.489 38.7856 149.69 40.0674 149.69 41.8691C149.69 43.7075 148.489 44.9893 146.805 44.9893C145.127 44.9893 143.904 43.7075 143.919 41.8691ZM145.354 41.8691C145.347 42.9385 145.948 43.605 146.805 43.5977C147.654 43.605 148.255 42.9385 148.255 41.8691C148.255 40.8291 147.654 40.1406 146.805 40.1406C145.948 40.1406 145.347 40.8291 145.354 41.8691ZM150.584 47.3184V34.9551H152.107V40.126H153.396V34.6768H154.949V47.9189H153.396V41.4443H152.107V47.3184H150.584ZM170.843 40.6973V41.9863H166.917V45.0186H172.19V46.3516H160.091V45.0186H165.306V41.9863H161.556V35.6582H170.74V36.9619H163.182V40.6973H170.843ZM184.144 34.6914V44.3594H182.518V39.5107H180.174V38.1924H182.518V34.6914H184.144ZM173.025 41.5029C175.135 40.8071 176.263 39.0786 176.263 37.3135V36.9619H173.509V35.6436H180.657V36.9619H177.918V37.3281C177.918 38.9175 178.987 40.5654 181.038 41.2393L180.218 42.543C178.738 42.0376 177.691 41.0269 177.112 39.7744C176.534 41.166 175.428 42.2793 173.86 42.8213L173.025 41.5029ZM175.457 47.6553V43.5098H177.083V46.3369H184.48V47.6553H175.457ZM192.479 36.7861V38.0898H185.989V36.7861H188.45V35.0576H190.062V36.7861H192.479ZM186.37 41.8691C186.355 40.0674 187.579 38.7856 189.256 38.793C190.94 38.7856 192.142 40.0674 192.142 41.8691C192.142 43.7075 190.94 44.9893 189.256 44.9893C187.579 44.9893 186.355 43.7075 186.37 41.8691ZM187.806 41.8691C187.798 42.9385 188.399 43.605 189.256 43.5977C190.105 43.605 190.706 42.9385 190.706 41.8691C190.706 40.8291 190.105 40.1406 189.256 40.1406C188.399 40.1406 187.798 40.8291 187.806 41.8691ZM193.035 47.3184V34.9551H194.559V40.126H195.848V34.6768H197.4V47.9189H195.848V41.4443H194.559V47.3184H193.035ZM211.082 44.9893V46.3223H198.982V44.9893H204.197V42.4111H200.315V35.5557H201.941V37.7236H208.079V35.5557H209.705V42.4111H205.809V44.9893H211.082ZM201.941 41.0928H208.079V39.0273H201.941V41.0928ZM216.692 38.4414C216.685 40.4849 217.916 42.814 220.003 43.7881L219.095 45.0771C217.601 44.374 216.495 42.9531 215.901 41.2979C215.301 43.1143 214.144 44.667 212.62 45.3994L211.668 44.125C213.777 43.1216 215.059 40.646 215.066 38.4414V37.3281H212.181V35.9805H219.461V37.3281H216.692V38.4414ZM220.691 47.9189V34.6768H222.317V39.833H224.354V41.1953H222.317V47.9189H220.691ZM235.501 35.4824V36.6689C235.494 37.9067 235.494 39.2617 235.149 41.1367H236.98V42.4551H231.722V47.9336H230.081V42.4551H224.91V41.1367H233.494C233.86 39.335 233.875 37.98 233.875 36.8008H226.331V35.4824H235.501ZM249.974 44.9746V46.3076H237.874V44.9746H240.672V41.6274C239.617 41.0195 238.98 40.0674 238.987 38.8955C238.98 36.7861 241.045 35.3945 243.895 35.3945C246.758 35.3945 248.838 36.7861 248.831 38.8955C248.838 40.0527 248.216 40.9829 247.19 41.5908V44.9746H249.974ZM240.584 38.8955C240.577 40.2505 241.917 41.1147 243.895 41.1074C245.865 41.1147 247.234 40.2505 247.234 38.8955C247.234 37.5186 245.865 36.6763 243.895 36.6836C241.917 36.6763 240.577 37.5186 240.584 38.8955ZM242.283 44.9746H245.535V42.2134C245.03 42.3232 244.48 42.3818 243.895 42.3818C243.323 42.3818 242.781 42.3232 242.283 42.2207V44.9746ZM253.562 36.0098L253.401 43.4951H251.746L251.57 36.0098H253.562ZM251.438 45.5898C251.431 44.9746 251.951 44.4692 252.581 44.4619C253.189 44.4692 253.709 44.9746 253.709 45.5898C253.709 46.2197 253.189 46.7324 252.581 46.7324C251.951 46.7324 251.431 46.2197 251.438 45.5898Z" fill="#A9B3B9"/>
</svg>
