<svg width="266" height="48" viewBox="0 0 266 48" fill="none" xmlns="http://www.w3.org/2000/svg">
<path d="M5.13574 2.01001V12.6155H3.50977V3.62134H3.45117L0.916992 5.27661V3.73853L3.55371 2.01001H5.13574ZM18.2607 0.750244V10.2864H16.8691V0.750244H18.2607ZM18.6562 12.4543V13.5823H9.67676V9.31958H11.083V12.4543H18.6562ZM11.1416 1.62915C13.1191 1.62915 14.6279 2.97681 14.6279 4.8811C14.6279 6.8147 13.1191 8.14771 11.1416 8.14771C9.16406 8.14771 7.64062 6.8147 7.64062 4.8811C7.64062 2.97681 9.16406 1.62915 11.1416 1.62915ZM11.1416 2.84497C9.91113 2.84497 9.00293 3.67993 9.00293 4.8811C9.00293 6.11157 9.91113 6.93188 11.1416 6.93188C12.3428 6.93188 13.2656 6.11157 13.2656 4.8811C13.2656 3.67993 12.3428 2.84497 11.1416 2.84497ZM30.668 0.735596V4.06079H32.5576V5.20337H30.668V8.48462H29.2617V0.735596H30.668ZM26.4199 8.73364C29.1006 8.73364 30.7705 9.67114 30.7705 11.2825C30.7705 12.8938 29.1006 13.8459 26.4199 13.8313C23.71 13.8459 22.0107 12.8938 22.0107 11.2825C22.0107 9.67114 23.71 8.73364 26.4199 8.73364ZM26.4199 9.86157C24.5156 9.84692 23.373 10.3743 23.3877 11.2825C23.373 12.1907 24.5156 12.718 26.4199 12.718C28.2803 12.718 29.4229 12.1907 29.4375 11.2825C29.4229 10.3743 28.2803 9.84692 26.4199 9.86157ZM26.7568 1.70239V2.83032H22.2744V6.40454C24.8599 6.39722 26.3174 6.31665 27.9727 5.97974L28.1045 7.10767C26.3467 7.47388 24.7793 7.53247 21.9375 7.53247H20.8975V1.70239H26.7568ZM47.2793 0.750244V4.96899H49.1836V6.12622H47.2793V10.5647H45.8877V0.750244H47.2793ZM44.8037 2.27368V3.40161H36.9814V2.27368H40.2041V0.735596H41.5957V2.27368H44.8037ZM40.8926 4.03149C42.7822 4.03149 44.0713 5.01294 44.0713 6.50708C44.0713 8.00122 42.7822 8.96802 40.8926 8.96802C38.9883 8.96802 37.6992 8.00122 37.6992 6.50708C37.6992 5.01294 38.9883 4.03149 40.8926 4.03149ZM40.8926 5.10083C39.7793 5.10083 39.0322 5.64282 39.0469 6.50708C39.0322 7.35669 39.7793 7.88403 40.8926 7.88403C42.0059 7.88403 42.7529 7.35669 42.7676 6.50708C42.7529 5.64282 42.0059 5.10083 40.8926 5.10083ZM47.8359 12.4543V13.5823H38.959V9.78833H40.3506V12.4543H47.8359ZM60.0088 1.46802V2.5813H55.5264V5.77466C58.002 5.78198 59.4961 5.67212 61.1953 5.33521L61.3564 6.43384C59.54 6.82935 57.9434 6.88794 55.1895 6.88794H54.1494V1.46802H60.0088ZM63.9053 0.735596V3.41626H65.8096V4.55884H63.9053V7.32739H62.5137V0.735596H63.9053ZM63.9053 7.94263V11.2971H56.8154V12.5715H64.3594V13.6995H55.4531V10.2278H62.5283V9.05591H55.4238V7.94263H63.9053ZM76.9131 2.0686C76.8984 5.93579 75.6387 9.37817 70.9805 11.7512L70.2041 10.6965C72.5039 9.51733 73.9248 8.10376 74.7158 6.43384L70.4678 6.84399L70.248 5.64282L75.1553 5.33521C75.353 4.66138 75.4775 3.9436 75.5361 3.19653H70.9219V2.0686H76.9131ZM81.1465 0.735596V13.8606H79.7695V7.07837H76.8838V5.93579H79.7695V0.735596H81.1465ZM94.0957 0.735596V13.8606H92.6895V0.735596H94.0957ZM90.9756 2.08325V3.22583H89.6133V9.31958C90.2944 9.27563 90.9683 9.21704 91.6201 9.1438L91.6934 10.1692C88.8516 10.6233 85.7314 10.6672 83.3145 10.6819L83.1533 9.52466L84.8818 9.51001V3.22583H83.5049V2.08325H90.9756ZM86.2295 9.48071C86.8887 9.46606 87.5698 9.44409 88.251 9.40747V3.22583H86.2295V9.48071ZM104.643 4.60278C104.643 6.80005 106.078 9.07056 108.1 9.93481L107.338 11.0188C105.792 10.3376 104.562 8.89478 103.954 7.13696C103.346 9.01196 102.108 10.6086 100.585 11.3557L99.7793 10.2571C101.757 9.33423 103.222 6.85864 103.236 4.60278V3.21118H100.233V2.05396H107.631V3.21118H104.643V4.60278ZM110.678 0.735596V13.8606H109.286V0.735596H110.678ZM124.726 6.49243V7.53247H119.438V8.6311H123.231V11.5901H115.585V12.6741H123.598V13.7288H114.223V10.6233H121.854V9.64185H114.208V8.6311H118.061V7.53247H112.787V6.49243H124.726ZM119.438 0.677002V1.83423H123.539V2.90356H119.555C119.818 4.01685 121.598 4.79321 124.14 4.92505L123.715 5.97974C121.43 5.8186 119.569 5.14478 118.749 3.98755C117.929 5.14478 116.068 5.8186 113.769 5.97974L113.373 4.92505C115.893 4.79321 117.665 4.01685 117.958 2.90356H113.974V1.83423H118.061V0.677002H119.438ZM128.856 1.54126C130.6 1.54126 131.874 2.84497 131.874 4.69067C131.874 6.53638 130.6 7.79614 128.856 7.79614C127.099 7.79614 125.839 6.53638 125.854 4.69067C125.839 2.84497 127.099 1.54126 128.856 1.54126ZM128.856 2.74243C127.831 2.74243 127.099 3.5188 127.099 4.69067C127.099 5.83325 127.831 6.63892 128.856 6.62427C129.867 6.63892 130.6 5.83325 130.614 4.69067C130.6 3.5188 129.867 2.74243 128.856 2.74243ZM136.928 0.750244V8.57251H135.609V5.18872H134.086V8.48462H132.782V0.984619H134.086V4.06079H135.609V0.750244H136.928ZM136.928 9.24634V13.8606H135.551V10.3596H128.007V9.24634H136.928ZM150.668 7.59106V8.70435H138.7V7.59106H150.668ZM149.32 12.4543V13.5823H140.209V9.77368H141.615V12.4543H149.32ZM144.677 1.17505C147.519 1.1604 149.364 2.15649 149.364 3.79712C149.364 5.45239 147.519 6.44849 144.677 6.46313C141.82 6.44849 139.989 5.45239 139.989 3.79712C139.989 2.15649 141.82 1.1604 144.677 1.17505ZM144.677 2.28833C142.67 2.28833 141.41 2.85962 141.425 3.79712C141.41 4.76392 142.67 5.32056 144.677 5.32056C146.684 5.32056 147.929 4.76392 147.929 3.79712C147.929 2.85962 146.684 2.28833 144.677 2.28833ZM162.68 1.68774V2.81567H161.42V6.7854C161.977 6.74146 162.511 6.69019 163.031 6.62427L163.09 7.67896C160.57 8.07446 157.626 8.11841 155.517 8.11841L155.341 6.96118L156.938 6.94653V2.81567H155.707V1.68774H162.68ZM166.269 0.735596V8.80688H164.877V6.52173H162.87V5.40845H164.877V4.13403H162.87V3.02075H164.877V0.735596H166.269ZM161.874 9.05591C164.643 9.05591 166.312 9.92017 166.312 11.4583C166.312 12.9524 164.643 13.8459 161.874 13.8313C159.105 13.8459 157.421 12.9524 157.436 11.4583C157.421 9.92017 159.105 9.05591 161.874 9.05591ZM161.874 10.1399C159.94 10.1399 158.812 10.6086 158.812 11.4583C158.812 12.2932 159.94 12.762 161.874 12.762C163.793 12.762 164.936 12.2932 164.936 11.4583C164.936 10.6086 163.793 10.1399 161.874 10.1399ZM158.285 6.93188C158.878 6.91724 159.479 6.89526 160.087 6.85864V2.81567H158.285V6.93188ZM178.778 1.42407V2.46411C178.778 3.51147 178.778 4.72729 178.485 6.31665H180.302V7.44458H177.064V10.5208H175.717V7.44458H173.637V10.5208H172.274V7.44458H168.29V6.31665H177.094C177.394 4.74194 177.401 3.57007 177.401 2.53735H169.784V1.42407H178.778ZM179.13 12.4543V13.5823H169.696V9.42212H171.088V12.4543H179.13ZM189.618 2.01001V12.6155H187.699V3.87036H187.641L185.165 5.45239V3.70923L187.787 2.01001H189.618ZM196.107 12.762C193.559 12.762 192.035 10.7844 192.035 7.31274C192.035 3.85571 193.559 1.86353 196.107 1.86353C198.642 1.86353 200.18 3.85571 200.18 7.31274C200.18 10.7844 198.656 12.762 196.107 12.762ZM196.107 11.1653C197.44 11.1653 198.261 9.86157 198.261 7.31274C198.261 4.77856 197.426 3.44556 196.107 3.44556C194.789 3.44556 193.954 4.77856 193.954 7.31274C193.954 9.86157 194.774 11.1653 196.107 11.1653ZM208.061 1.81958V8.07446H201.791V1.81958H208.061ZM203.388 3.12329V6.7854H206.464V3.12329H203.388ZM211.781 0.677002V4.55884H213.627V5.92114H211.781V10.345H210.155V0.677002H211.781ZM212.309 12.3372V13.6555H203.3V9.40747H204.926V12.3372H212.309ZM222.152 12.762C219.882 12.762 218.271 11.5315 218.227 9.74438H220.146C220.204 10.594 221.054 11.1506 222.152 11.1506C223.324 11.1506 224.159 10.5061 224.159 9.5686C224.159 8.61646 223.339 7.92798 221.962 7.92798H221.01V6.46313H221.962C223.09 6.46313 223.881 5.83325 223.866 4.9104C223.881 4.01685 223.207 3.41626 222.167 3.41626C221.171 3.41626 220.307 3.9729 220.277 4.86646H218.446C218.49 3.07935 220.102 1.86353 222.182 1.86353C224.335 1.86353 225.727 3.18188 225.712 4.80786C225.727 5.99438 224.936 6.85864 223.778 7.09302V7.18091C225.272 7.38599 226.122 8.33813 226.107 9.67114C226.122 11.4583 224.452 12.762 222.152 12.762ZM231.542 1.86353C233.622 1.87817 235.673 3.10864 235.688 6.99048C235.688 10.6526 234.032 12.762 231.425 12.762C229.374 12.762 227.968 11.4875 227.733 9.72974H229.623C229.813 10.5647 230.458 11.1067 231.425 11.1067C232.963 11.1067 233.827 9.74438 233.842 7.47388H233.725C233.183 8.39673 232.172 8.93872 231 8.93872C229.11 8.93872 227.646 7.50317 227.631 5.49634C227.631 3.41626 229.184 1.84888 231.542 1.86353ZM231.557 3.40161C230.37 3.40161 229.477 4.32446 229.491 5.45239C229.491 6.59497 230.341 7.48853 231.527 7.48853C232.699 7.48853 233.622 6.53638 233.607 5.43774C233.607 4.35376 232.743 3.40161 231.557 3.40161ZM237.372 12.6155L241.972 3.67993V3.60669H236.64V2.01001H243.949V3.63599L239.35 12.6155H237.372ZM249.135 12.762C246.776 12.762 245.106 11.5022 245.106 9.77368C245.106 8.42603 246.103 7.32739 247.377 7.12231V7.06372C246.264 6.82935 245.502 5.86255 245.502 4.70532C245.502 3.0647 247.04 1.86353 249.135 1.86353C251.215 1.86353 252.753 3.0647 252.753 4.70532C252.753 5.86255 251.977 6.82935 250.878 7.06372V7.12231C252.152 7.32739 253.163 8.42603 253.163 9.77368C253.163 11.5022 251.479 12.762 249.135 12.762ZM249.135 11.2532C250.38 11.2532 251.2 10.5793 251.2 9.5979C251.2 8.60181 250.321 7.86938 249.135 7.86938C247.934 7.86938 247.055 8.60181 247.069 9.5979C247.055 10.5793 247.875 11.2532 249.135 11.2532ZM249.135 6.44849C250.16 6.44849 250.893 5.80396 250.893 4.8811C250.893 3.98755 250.175 3.35767 249.135 3.35767C248.08 3.35767 247.362 3.9729 247.362 4.8811C247.362 5.80396 248.095 6.44849 249.135 6.44849ZM265.409 0.69165V10.7112H263.769V9.55396H261.176V8.41138H263.769V0.69165H265.409ZM265.717 12.3372V13.6555H256.005V9.74438H257.631V12.3372H265.717ZM254.247 6.63892C256.693 6.62427 259.975 6.59497 262.787 6.24341L262.875 7.41528C261.784 7.59839 260.656 7.7229 259.535 7.79614V10.345H257.909V7.88403C256.671 7.9353 255.492 7.94263 254.452 7.94263L254.247 6.63892ZM258.568 1.17505C260.502 1.17505 261.85 2.1272 261.864 3.5188C261.85 4.9397 260.502 5.8479 258.568 5.8479C256.605 5.8479 255.258 4.9397 255.258 3.5188C255.258 2.1272 256.605 1.17505 258.568 1.17505ZM258.568 2.37622C257.514 2.37622 256.796 2.80103 256.796 3.5188C256.796 4.23657 257.514 4.66138 258.568 4.66138C259.579 4.66138 260.297 4.23657 260.312 3.5188C260.297 2.80103 259.579 2.37622 258.568 2.37622ZM46.9644 20.0354C46.9497 21.7053 48.1216 23.2727 50.1431 23.9172L49.4399 25.0305C47.9458 24.5325 46.8545 23.5217 46.2759 22.2473C45.6973 23.6609 44.5547 24.7961 42.9946 25.3381L42.2769 24.2102C44.3423 23.5364 45.5581 21.8518 45.5581 20.05V19.7278H42.687V18.5999H49.7915V19.7278H46.9644V20.0354ZM52.7065 17.7356V20.9143H54.6108V22.0569H52.7065V25.426H51.3149V17.7356H52.7065ZM52.7065 25.9973V30.6995H44.3276V25.9973H52.7065ZM45.6899 27.0959V29.5715H51.3296V27.0959H45.6899ZM62.6675 19.1418V19.9475C62.6675 21.0461 62.6675 22.7454 62.2866 25.0891L60.9097 24.9866C61.2393 22.8845 61.2759 21.3684 61.2905 20.2698H55.9585V19.1418H62.6675ZM59.2983 22.8918V26.8176C60.6973 26.7737 62.1182 26.6785 63.4292 26.51L63.5024 27.55C60.7632 27.9895 57.7163 28.0481 55.3872 28.0334L55.2261 26.9055C56.0464 26.8982 56.9619 26.8909 57.9214 26.8616V22.8918H59.2983ZM65.5825 17.7356V23.1555H67.5894V24.342H65.5825V30.8606H64.1763V17.7356H65.5825ZM82.2964 17.7356V21.134H84.2007V22.3206H82.2964V25.6458H80.9048V17.7356H82.2964ZM82.2964 26.3342V30.6995H73.9175V26.3342H82.2964ZM75.2798 27.4329V29.5715H80.9194V27.4329H75.2798ZM79.8208 19.0686V20.1819H71.9985V19.0686H75.2212V17.6331H76.6128V19.0686H79.8208ZM75.9097 20.7532C77.7993 20.7532 79.0884 21.6907 79.0884 23.0969C79.0884 24.5178 77.7993 25.4407 75.9097 25.4553C73.9907 25.4407 72.7163 24.5178 72.7163 23.0969C72.7163 21.6907 73.9907 20.7532 75.9097 20.7532ZM75.9097 21.8225C74.7964 21.8079 74.0493 22.3059 74.064 23.0969C74.0493 23.9172 74.7964 24.4006 75.9097 24.4006C77.0229 24.4006 77.77 23.9172 77.7847 23.0969C77.77 22.3059 77.0229 21.8079 75.9097 21.8225ZM88.1997 19.2883C88.1851 22.2327 87.8188 25.2649 85.9878 27.843L84.9038 27.2278C86.4346 25.177 86.896 22.9065 86.9985 20.4309H85.2114V19.2883H88.1997ZM91.1147 19.2883C91.1147 20.3943 91.0928 21.6028 90.9536 22.8186H92.4917V18.0725H93.8101V30.2161H92.4917V23.9465H90.7925C90.4922 25.5798 89.9429 27.1985 88.9321 28.634L87.8481 28.0042C89.5474 25.7263 89.855 22.9651 89.9136 20.4309H88.5952V19.2883H91.1147ZM96.3003 17.7356V30.8606H94.9673V17.7356H96.3003ZM107.99 18.468V19.5813H103.507V22.7747C105.983 22.782 107.477 22.6721 109.176 22.3352L109.337 23.4338C107.521 23.8293 105.924 23.8879 103.17 23.8879H102.13V18.468H107.99ZM111.886 17.7356V20.4163H113.791V21.5588H111.886V24.3274H110.495V17.7356H111.886ZM111.886 24.9426V28.2971H104.796V29.5715H112.34V30.6995H103.434V27.2278H110.509V26.0559H103.405V24.9426H111.886ZM118.053 18.717C120.016 18.717 121.408 20.5042 121.422 23.3167C121.408 26.1438 120.016 27.9309 118.053 27.9309C116.09 27.9309 114.684 26.1438 114.699 23.3167C114.684 20.5042 116.09 18.717 118.053 18.717ZM118.053 19.9622C116.852 19.9622 116.032 21.2512 116.032 23.3167C116.032 25.3967 116.852 26.6858 118.053 26.6858C119.269 26.6858 120.089 25.3967 120.089 23.3167C120.089 21.2512 119.269 19.9622 118.053 19.9622ZM124.762 17.7356V22.8772H126.872V24.0491H124.762V30.8606H123.371V17.7356H124.762ZM139.762 22.8918V24.0344H137.726V30.8459H136.334V17.7356H137.726V22.8918H139.762ZM129.376 19.01V26.3928C131.208 26.3928 133.119 26.239 135.207 25.8069L135.368 26.9788C133.126 27.4329 131.046 27.55 129.083 27.55H128V19.01H129.376ZM151.085 21.5735V22.6868H142.047V18.2043H143.424V21.5735H151.085ZM152.462 24.342V25.4553H140.451V24.342H152.462ZM151.173 29.4104V30.553H141.945V26.7004H143.336V29.4104H151.173ZM168.327 17.7356V30.8606H166.994V24.137H165.309V30.1868H164.005V17.9993H165.309V22.9944H166.994V17.7356H168.327ZM159.098 19.2883V26.2903C160.314 26.283 161.64 26.1877 163.126 25.8948L163.273 27.1106C161.471 27.4329 159.962 27.5208 158.556 27.5208H157.707V19.2883H159.098ZM185.685 24.635V25.7336H173.688V24.635H178.991V23.4924H175.255V18.0872H184.22V19.1858H176.662V20.2551H183.883V21.2952H176.662V22.4084H184.308V23.4924H180.382V24.635H185.685ZM179.694 26.5979C182.58 26.5833 184.22 27.345 184.22 28.7219C184.22 30.1135 182.58 30.8459 179.694 30.8313C176.779 30.8459 175.138 30.1135 175.138 28.7219C175.138 27.345 176.779 26.5833 179.694 26.5979ZM179.694 27.6379C177.628 27.6379 176.515 28.0188 176.53 28.7219C176.515 29.425 177.628 29.7913 179.694 29.7766C181.73 29.7913 182.829 29.425 182.829 28.7219C182.829 28.0188 181.73 27.6379 179.694 27.6379ZM191.266 20.1526C191.266 21.8225 192.423 23.3459 194.416 23.9758L193.756 25.0598C192.262 24.5837 191.171 23.595 190.592 22.3499C190.021 23.7854 188.871 24.9207 187.296 25.47L186.579 24.3567C188.629 23.6829 189.86 21.9836 189.875 20.1672V19.801H186.989V18.6731H194.093V19.801H191.266V20.1526ZM196.994 17.7356V20.9875H198.898V22.1301H196.994V25.6165H195.602V17.7356H196.994ZM192.76 25.9387C195.47 25.9387 197.111 26.8323 197.111 28.3704C197.111 29.9231 195.47 30.8459 192.76 30.8313C190.021 30.8459 188.351 29.9231 188.351 28.3704C188.351 26.8323 190.021 25.9387 192.76 25.9387ZM192.76 27.0374C190.856 27.0374 189.728 27.5208 189.743 28.3704C189.728 29.2493 190.856 29.7327 192.76 29.7327C194.65 29.7327 195.749 29.2493 195.749 28.3704C195.749 27.5208 194.65 27.0374 192.76 27.0374ZM207.892 20.387C207.892 22.1008 209.064 23.6975 211.085 24.386L210.309 25.426C208.859 24.928 207.782 23.9026 207.218 22.6135C206.64 24.0564 205.497 25.2063 203.952 25.7629L203.219 24.6497C205.255 23.9465 206.486 22.2034 206.5 20.387V19.9475H203.644V18.8342H210.719V19.9475H207.892V20.387ZM213.62 17.7209V21.6907H215.524V22.8479H213.62V27.3303H212.228V17.7209H213.62ZM214.176 29.4543V30.5823H205.299V26.4514H206.691V29.4543H214.176ZM226.891 18.9954V20.2844C226.891 21.9104 226.891 23.7268 226.393 26.4075L224.987 26.261C225.5 23.7268 225.5 21.8665 225.5 20.2844V20.1233H217.531V18.9954H226.891ZM228.239 27.9309V29.0881H216.271V27.9309H220.827V23.302H222.204V27.9309H228.239ZM46.459 35.5266C49.2715 35.5413 51.3076 36.9182 51.3076 39.0129C51.3076 40.9832 49.6011 42.2795 47.1475 42.4846V45.0627H52.4941V46.22H40.4824V45.0627H45.7705V42.4846C43.3315 42.2795 41.625 40.9832 41.625 39.0129C41.625 36.9182 43.6611 35.5413 46.459 35.5266ZM46.459 36.6692C44.4375 36.6545 42.9727 37.592 42.9727 39.0129C42.9727 40.4924 44.4375 41.4006 46.459 41.4153C48.4951 41.4006 49.96 40.4924 49.96 39.0129C49.96 37.592 48.4951 36.6545 46.459 36.6692ZM64.0371 37.7239V38.8518H55.0283V34.926H56.3906V37.7239H64.0371ZM65.4434 40.009V41.1223H53.4316V40.009H65.4434ZM63.9346 42.177V45.385H56.3174V46.6008H64.3887V47.6995H54.9258V44.3596H62.5576V43.261H54.8965V42.177H63.9346ZM78.4072 42.4553V43.554H73.0459V47.8606H71.6836V43.554H66.3955V42.4553H78.4072ZM69.2666 35.2629V36.9768H75.5068V35.2629H76.8984V40.9612H67.8896V35.2629H69.2666ZM69.2666 39.8479H75.5068V38.0901H69.2666V39.8479ZM90.3164 34.7356V47.8899H88.9395V40.7268H86.332V39.5842H88.9395V34.7356H90.3164ZM86.1123 35.9075V37.0354H81.3809V39.5842H85.5557V40.6975H81.3809V43.6272C83.5781 43.6199 85.1016 43.5686 86.8447 43.261L86.9912 44.3889C85.0869 44.6965 83.4316 44.7698 81 44.7844H79.9746V35.9075H86.1123ZM102.65 35.7024V41.6057H96.5127V35.7024H102.65ZM97.875 36.801V40.4924H101.288V36.801H97.875ZM106.312 34.7356V38.0608H108.217V39.218H106.312V42.5139H104.921V34.7356H106.312ZM106.312 43.1731V47.8752H104.921V44.2864H97.6406V43.1731H106.312ZM112.479 35.717C114.442 35.717 115.834 37.5042 115.849 40.3167C115.834 43.1438 114.442 44.9309 112.479 44.9309C110.517 44.9309 109.11 43.1438 109.125 40.3167C109.11 37.5042 110.517 35.717 112.479 35.717ZM112.479 36.9622C111.278 36.9622 110.458 38.2512 110.458 40.3167C110.458 42.3967 111.278 43.6858 112.479 43.6858C113.695 43.6858 114.516 42.3967 114.516 40.3167C114.516 38.2512 113.695 36.9622 112.479 36.9622ZM119.188 34.7356V39.8772H121.298V41.0491H119.188V47.8606H117.797V34.7356H119.188ZM133.939 45.0774V46.2346H121.928V45.0774H127.216V42.3821H123.305V35.6292H124.696V37.885H131.142V35.6292H132.519V42.3821H128.593V45.0774H133.939ZM124.696 41.2542H131.142V39.0129H124.696V41.2542ZM145.512 38.5735V39.6868H136.474V35.2043H137.851V38.5735H145.512ZM146.889 41.342V42.4553H134.877V41.342H146.889ZM145.6 46.4104V47.553H136.371V43.7004H137.763V46.4104H145.6ZM162.46 34.7502V44.4182H161.068V39.8625H158.344V38.7053H161.068V34.7502H162.46ZM158.432 35.7317C158.417 39.1594 156.059 41.7375 152.294 42.9534L151.708 41.8401C154.63 40.8953 156.615 39.1082 156.908 36.8889H152.382V35.7317H158.432ZM162.797 46.4543V47.5823H154.008V43.4221H155.414V46.4543H162.797ZM171.703 35.717C173.483 35.717 174.787 37.2258 174.999 39.6575H177.709V34.7356H179.086V47.8899H177.709V40.7854H175.014C174.86 43.3416 173.527 44.9309 171.703 44.9309C169.74 44.9309 168.363 43.1438 168.378 40.3167C168.363 37.5042 169.74 35.717 171.703 35.717ZM171.703 36.9622C170.517 36.9622 169.696 38.2512 169.696 40.3167C169.696 42.3967 170.517 43.6858 171.703 43.6858C172.89 43.6858 173.71 42.3967 173.71 40.3167C173.71 38.2512 172.89 36.9622 171.703 36.9622ZM184.77 35.468V36.5813H182.777V39.8918C183.429 39.8699 184.14 39.804 184.931 39.6282L185.048 40.7415C183.847 40.9758 182.924 40.9905 182.016 40.9905H181.43V35.468H184.77ZM189.149 35.468V36.5813H186.864V39.8918C187.934 39.8845 188.703 39.8186 189.604 39.6135L189.721 40.7122C188.593 40.9758 187.685 40.9905 186.161 40.9905H185.487V35.468H189.149ZM192.167 42.0891V45.3557H184.652V46.5862H192.636V47.6995H183.246V44.3157H190.805V43.1877H183.217V42.0891H192.167ZM192.167 34.7356V41.4885H190.805V38.6174H188.505V37.5334H190.805V34.7356H192.167ZM204.501 34.7356V40.0676H206.405V41.2102H204.501V47.8606H203.109V34.7356H204.501ZM198.026 36.1418C198.026 39.4231 197.426 42.4114 195.053 44.9456L193.954 44.1692C195.873 42.177 196.569 39.9138 196.708 37.2844H194.423V36.1418H198.026ZM201.645 36.1418C201.645 39.467 201.234 42.9534 198.817 45.8098L197.704 45.0481C199.652 42.7703 200.238 40.0896 200.341 37.2844H198.451V36.1418H201.645ZM219.047 45.0627V46.22H207.035V45.0627H209.906V41.635C208.83 41.0417 208.178 40.0969 208.178 38.925C208.178 36.8596 210.199 35.4973 213.012 35.4973C215.839 35.4973 217.86 36.8596 217.86 38.925C217.86 40.0823 217.23 41.0125 216.176 41.6057V45.0627H219.047ZM213.012 36.6106C210.946 36.6106 209.525 37.5042 209.525 38.925C209.525 40.3313 210.946 41.2542 213.012 41.2542C215.062 41.2542 216.513 40.3313 216.513 38.925C216.513 37.5042 215.062 36.6106 213.012 36.6106ZM211.283 45.0627H214.77V42.1331C214.235 42.2722 213.642 42.3381 213.012 42.3381C212.396 42.3381 211.811 42.2722 211.283 42.1477V45.0627ZM222.152 43.4661C222.167 41.5471 222.738 40.9612 223.705 40.3606C224.32 39.9797 224.789 39.4524 224.789 38.676C224.789 37.7532 224.086 37.1819 223.207 37.1819C222.416 37.1819 221.654 37.6653 221.581 38.7493H219.999C220.058 36.8889 221.464 35.8635 223.207 35.8635C225.111 35.8635 226.386 37.0061 226.386 38.676C226.386 39.8479 225.829 40.6389 224.892 41.2102C224.013 41.7375 223.676 42.2795 223.646 43.4661V43.554H222.152V43.4661ZM222.958 46.718C222.387 46.718 221.903 46.2493 221.918 45.678C221.903 45.1067 222.387 44.6379 222.958 44.6379C223.515 44.6379 223.998 45.1067 223.998 45.678C223.998 46.2493 223.515 46.718 222.958 46.718Z" fill="#A9B3B9"/>
</svg>
