<svg width="266" height="48" viewBox="0 0 266 48" fill="none" xmlns="http://www.w3.org/2000/svg">
<path d="M10.9712 0.676758V13.9189H9.40381V7.22461H7.93896V13.2451H6.41553V0.925781H7.93896V5.8916H9.40381V0.676758H10.9712ZM0.175293 10.623V2.2002H1.81592V9.1875C2.9585 9.16553 4.20361 9.06299 5.59521 8.79199L5.75635 10.2129C3.96924 10.5278 2.45312 10.623 1.0542 10.623H0.175293ZM28.2271 10.9746V12.3076H16.1274V10.9746H21.3423V8.08887H17.4604V1.70215H26.8354V8.08887H22.9536V10.9746H28.2271ZM19.0571 6.81445H25.2241V3.00586H19.0571V6.81445ZM40.0776 0.676758V8.44043H38.4517V0.676758H40.0776ZM29.8677 7.54688V1.52637H31.5083V6.19922C33.4858 6.18457 35.3096 6.03809 37.2651 5.62793L37.4556 6.94629C35.2803 7.41504 33.2295 7.56152 30.9956 7.54688H29.8677ZM31.0835 11.2529C31.0762 9.56836 32.8267 8.57227 35.6099 8.58691C38.3931 8.57227 40.1289 9.56836 40.1362 11.2529C40.1289 12.9082 38.3931 13.9043 35.6099 13.9043C32.8267 13.9043 31.0762 12.9082 31.0835 11.2529ZM32.7095 11.2529C32.7021 12.1172 33.7568 12.6006 35.6099 12.6006C37.4556 12.6006 38.4956 12.1172 38.5103 11.2529C38.4956 10.3594 37.4556 9.89795 35.6099 9.90527C33.7568 9.89795 32.7021 10.3594 32.7095 11.2529ZM52.7046 0.984375V1.83398C52.6973 2.77881 52.6973 4.00928 52.4116 5.62793L50.7856 5.52539C50.8735 5.03467 50.9395 4.58789 50.9761 4.17773L43.2856 4.51465L43.1099 3.24023L51.064 3.0498C51.0713 2.76416 51.0786 2.50049 51.0786 2.25879H43.4614V0.984375H52.7046ZM42.0845 7.51758V6.22852H46.7134V4.86621H48.3394V6.22852H54.0962V7.51758H42.0845ZM43.4761 9.56836V8.33789H52.6167V11.6045H45.0874V12.4688H52.9829V13.7139H43.4907V10.4473H51.02V9.56836H43.4761ZM70.6782 10.96V12.2783H58.5786V10.96H63.7642V7.89844H65.3755V10.96H70.6782ZM58.9302 6.87305C61.6987 6.42627 63.6836 4.44141 63.6909 2.44922V1.48242H65.4194V2.44922C65.4194 4.44873 67.4189 6.42627 70.2095 6.87305L69.5063 8.2207C67.2725 7.7959 65.4341 6.51416 64.5552 4.77832C63.6836 6.50684 61.8672 7.80322 59.6333 8.2207L58.9302 6.87305ZM82.5728 0.676758V13.9336H80.9614V0.676758H82.5728ZM72.2603 3.15234V1.83398H78.5005V6.7998H73.9448V9.46582C76.0322 9.45117 77.8267 9.34131 79.8921 8.99707L80.0386 10.3301C77.79 10.7183 75.8125 10.8062 73.4321 10.7988H72.2749V5.51074H76.8452V3.15234H72.2603ZM96.606 10.9893V12.3223H84.5063V10.9893H89.7212V8.41113H85.8394V1.55566H87.4653V3.72363H93.603V1.55566H95.229V8.41113H91.3325V10.9893H96.606ZM87.4653 7.09277H93.603V5.02734H87.4653V7.09277ZM107.841 0.676758V5.70117H109.877V7.03418H107.841V13.9336H106.215V0.676758H107.841ZM98.0122 10.6963V1.93652H104.208V3.25488H99.6382V9.33398C101.696 9.32666 103.33 9.22412 105.146 8.90918L105.336 10.2861C103.278 10.6377 101.499 10.6963 99.1108 10.6963H98.0122ZM118.74 4.44141C118.732 6.48486 119.963 8.81396 122.05 9.78809L121.142 11.0771C119.648 10.374 118.542 8.95312 117.949 7.29785C117.348 9.11426 116.191 10.667 114.667 11.3994L113.715 10.125C115.825 9.12158 117.106 6.646 117.114 4.44141V3.32812H114.228V1.98047H121.508V3.32812H118.74V4.44141ZM122.739 13.9189V0.676758H124.365V5.83301H126.401V7.19531H124.365V13.9189H122.739ZM139.028 8.05957V9.37793H133.769V13.9043H132.158V9.37793H126.958V8.05957H139.028ZM127.587 5.8916C130.188 5.56201 131.931 4.16309 132.048 2.71289H128.071V1.42383H137.915V2.71289H133.938C134.047 4.16309 135.776 5.56201 138.398 5.8916L137.812 7.16602C135.556 6.84375 133.798 5.81104 132.993 4.38281C132.18 5.81104 130.437 6.84375 128.203 7.16602L127.587 5.8916ZM149.501 0.808594C152.519 0.815918 154.27 1.62158 154.277 3.0791C154.27 4.55859 152.519 5.35693 149.501 5.36426C146.491 5.35693 144.726 4.55859 144.726 3.0791C144.726 1.62158 146.491 0.815918 149.501 0.808594ZM143.481 7.32715V6.05273H155.551V7.32715H150.307V8.33789H154.042V11.5752H146.513V12.5566H154.409V13.8018H144.917V10.418H152.446V9.53906H144.902V8.33789H148.681V7.32715H143.481ZM146.44 3.0791C146.433 3.81152 147.487 4.14844 149.501 4.16309C151.545 4.14844 152.592 3.81152 152.592 3.0791C152.592 2.39795 151.545 2.03174 149.501 2.02441C147.487 2.03174 146.433 2.39795 146.44 3.0791ZM167.475 0.676758V13.9336H165.864V0.676758H167.475ZM157.163 3.15234V1.83398H163.403V6.7998H158.847V9.46582C160.935 9.45117 162.729 9.34131 164.794 8.99707L164.941 10.3301C162.692 10.7183 160.715 10.8062 158.334 10.7988H157.177V5.51074H161.748V3.15234H157.163ZM180.131 4.42676V5.71582H170.961V1.16016H172.573V4.42676H180.131ZM169.394 8.54297V7.25391H181.494V8.54297H169.394ZM170.844 13.6113V9.71484H172.47V12.293H180.219V13.6113H170.844ZM198.032 11.0186V12.3516H185.932V11.0186H191.162V8.2793H192.773V11.0186H198.032ZM186.43 7.45898C189.301 7.08545 191.022 5.56201 191.14 3.91406H187.001V2.5957H191.162V0.881836H192.773V2.5957H196.948V3.91406H192.81C192.919 5.56201 194.641 7.08545 197.504 7.45898L196.904 8.7334C194.619 8.41113 192.846 7.39307 191.967 5.9502C191.096 7.39307 189.338 8.41113 187.045 8.7334L186.43 7.45898ZM209.926 0.691406V10.2568H208.286V0.691406H209.926ZM199.13 4.86621C199.13 2.93994 200.69 1.56299 202.705 1.55566C204.719 1.56299 206.271 2.93994 206.264 4.86621C206.271 6.82178 204.719 8.19141 202.705 8.19141C200.69 8.19141 199.13 6.82178 199.13 4.86621ZM200.727 4.86621C200.72 6.03809 201.569 6.77051 202.705 6.77051C203.811 6.77051 204.667 6.03809 204.667 4.86621C204.667 3.72363 203.811 2.97656 202.705 2.97656C201.569 2.97656 200.72 3.72363 200.727 4.86621ZM201.167 13.6553V9.29004H202.807V12.3369H210.292V13.6553H201.167ZM218.686 5.4082V7.09277H223.93V8.41113H211.86V7.09277H217.075V5.4082H218.686ZM212.431 4.85156C214.877 4.60986 216.467 3.65039 216.738 2.56641H212.958V1.2627H222.846V2.56641H219.03C219.301 3.64307 220.891 4.60986 223.359 4.85156L222.773 6.12598C220.371 5.87695 218.598 4.93945 217.88 3.60645C217.163 4.93945 215.405 5.87695 213.002 6.12598L212.431 4.85156ZM213.266 11.5752C213.266 10.0884 214.987 9.26074 217.88 9.26074C220.751 9.26074 222.458 10.0884 222.465 11.5752C222.458 13.0767 220.751 13.9043 217.88 13.9043C214.987 13.9043 213.266 13.0767 213.266 11.5752ZM214.921 11.5752C214.914 12.3003 215.932 12.6738 217.88 12.6738C219.792 12.6738 220.825 12.3003 220.839 11.5752C220.825 10.8721 219.792 10.5132 217.88 10.5059C215.932 10.5132 214.914 10.8721 214.921 11.5752ZM239.707 0.691406V7.57617H238.154V0.691406H239.707ZM228.896 7.06348V1.43848H230.434V2.99121H232.617V1.43848H234.125V3.5332H235.488V0.94043H237.011V7.50293H235.488V4.85156H234.125V7.06348H228.896ZM230.434 5.80371H232.617V4.20703H230.434V5.80371ZM230.742 9.37793V8.11816H239.707V11.502H232.397V12.542H240.175V13.8018H230.756V10.3008H238.081V9.37793H230.742ZM253.447 10.96V12.2783H241.347V10.96H246.533V7.89844H248.144V10.96H253.447ZM241.699 6.87305C244.467 6.42627 246.452 4.44141 246.459 2.44922V1.48242H248.188V2.44922C248.188 4.44873 250.188 6.42627 252.978 6.87305L252.275 8.2207C250.041 7.7959 248.203 6.51416 247.324 4.77832C246.452 6.50684 244.636 7.80322 242.402 8.2207L241.699 6.87305ZM265.341 0.676758V13.9336H263.73V0.676758H265.341ZM255.029 3.15234V1.83398H261.269V6.7998H256.713V9.46582C258.801 9.45117 260.595 9.34131 262.661 8.99707L262.807 10.3301C260.559 10.7183 258.581 10.8062 256.201 10.7988H255.043V5.51074H259.614V3.15234H255.029ZM46.5156 17.6768V30.9189H44.875V17.6768H46.5156ZM35.5439 27.2715C39.0156 25.6235 40.6123 23.3823 40.9053 20.3721H36.2178V19.083H42.5605C42.5605 23.0234 41.0298 26.3706 36.3936 28.5752L35.5439 27.2715ZM51.5986 18.1748V19.6104H57.3115V18.1748H58.9229V23.5508H55.2607V24.7666H60.4902V26.085H48.4199V24.7666H53.6201V23.5508H49.9873V18.1748H51.5986ZM49.9141 30.6553V26.9346H51.54V29.3369H59.1279V30.6553H49.9141ZM51.5986 22.2471H57.3115V20.8701H51.5986V22.2471ZM65.3828 29.6152V28.2383L69.1328 24.6201C70.2021 23.5508 70.7588 22.9209 70.7588 22.0273C70.7588 21.0386 69.9751 20.416 68.9424 20.416C67.8511 20.416 67.1479 21.0972 67.1553 22.1738H65.3389C65.3315 20.167 66.8403 18.8633 68.957 18.8633C71.125 18.8633 72.5825 20.1597 72.5898 21.9395C72.5825 23.1333 72.0112 24.1001 69.9238 26.0703L68.0342 27.9453V28.0186H72.751V29.6152H65.3828ZM80.7051 18.8193V25.0742H74.4355V18.8193H80.7051ZM75.9443 30.6553V26.4072H77.5703V29.3369H84.9531V30.6553H75.9443ZM76.0322 23.7852H79.1084V20.123H76.0322V23.7852ZM82.7998 27.3447V17.6768H84.4258V21.5586H86.2715V22.9209H84.4258V27.3447H82.7998ZM98.0488 17.6914V27.7109H96.4082V26.5537H93.8154V25.4111H96.4082V17.6914H98.0488ZM86.8867 23.6387C89.3257 23.624 92.6143 23.6021 95.4268 23.2432L95.5146 24.415C94.4233 24.5981 93.2954 24.7153 92.1748 24.7959V27.3447H90.5488V24.8838C89.311 24.9351 88.1318 24.9424 87.0918 24.9424L86.8867 23.6387ZM87.8975 20.5186C87.8975 19.1196 89.2451 18.1675 91.208 18.1748C93.1343 18.1675 94.4893 19.1196 94.5039 20.5186C94.4893 21.9395 93.1343 22.8403 91.208 22.8477C89.2451 22.8403 87.8975 21.9395 87.8975 20.5186ZM88.6445 30.6553V26.7441H90.2705V29.3369H98.3564V30.6553H88.6445ZM89.4355 20.5186C89.4355 21.2363 90.146 21.6538 91.208 21.6611C92.2188 21.6538 92.9438 21.2363 92.9512 20.5186C92.9438 19.8008 92.2188 19.3687 91.208 19.376C90.146 19.3687 89.4355 19.8008 89.4355 20.5186ZM111.979 24.5176V25.8213H99.9092V24.5176H111.979ZM101.154 20.7822C101.154 19.105 103.037 18.0942 105.93 18.1016C108.815 18.0942 110.698 19.105 110.705 20.7822C110.698 22.4668 108.815 23.4922 105.93 23.4922C103.037 23.4922 101.154 22.4668 101.154 20.7822ZM101.403 30.6553V26.8027H103.029V29.3369H110.617V30.6553H101.403ZM102.854 20.7822C102.839 21.6831 104.003 22.1665 105.93 22.1592C107.863 22.1665 109.021 21.6831 109.021 20.7822C109.021 19.9106 107.863 19.4053 105.93 19.4053C104.003 19.4053 102.839 19.9106 102.854 20.7822ZM127.844 18.5557V19.7129H117.033V18.5557H121.647V17.5303H123.273V18.5557H127.844ZM116.433 25.1621V23.9902H128.503V25.1621H123.273V25.9531H126.994V28.8682H119.523V29.6445H127.36V30.8018H117.868V27.7842H125.339V27.0957H117.854V25.9531H121.647V25.1621H116.433ZM118.059 21.749C118.059 20.5991 119.56 20.0718 122.453 20.0645C125.346 20.0718 126.855 20.5991 126.862 21.749C126.855 22.8989 125.346 23.4482 122.453 23.4482C119.56 23.4482 118.059 22.8989 118.059 21.749ZM119.802 21.749C119.802 22.2104 120.593 22.3936 122.453 22.3936C124.313 22.3936 125.134 22.2104 125.148 21.749C125.134 21.3462 124.313 21.1265 122.453 21.1338C120.593 21.1265 119.802 21.3462 119.802 21.749ZM133.498 18.541V19.8447H132.722V20.1084C132.722 21.0972 132.927 22.4229 133.74 23.4043C134.531 22.4448 134.736 21.1411 134.743 20.1084V19.8447H133.981V18.541H137.731V19.8447H136.281V20.1084C136.281 21.5293 136.794 23.1699 138.317 23.9609L137.438 25.1035C136.472 24.5981 135.871 23.7412 135.52 22.7524C135.219 23.7705 134.67 24.6934 133.718 25.25C132.795 24.6934 132.253 23.7705 131.945 22.7744C131.601 23.7559 131 24.5981 130.041 25.1035L129.162 23.9609C130.664 23.1479 131.206 21.5073 131.198 20.1084V19.8447H129.675V18.541H133.498ZM131.33 27.4766V26.1875H140.705V30.9189H139.079V27.4766H131.33ZM137.424 22.1885V20.8701H139.079V17.6768H140.705V25.5723H139.079V22.1885H137.424ZM157.009 25.8359V30.7578H148.264V25.8359H157.009ZM146.682 24.6494V18.4092H148.293V23.2725C150.065 23.2578 151.787 23.1187 153.625 22.7598L153.801 24.1221C151.728 24.5396 149.802 24.6494 147.751 24.6494H146.682ZM149.86 29.4395H155.412V27.1396H149.86V29.4395ZM151.926 21.3242V20.0059H155.383V17.6768H157.009V25.2646H155.383V21.3242H151.926ZM169.606 21.4268V22.7158H160.437V18.1602H162.048V21.4268H169.606ZM158.869 25.543V24.2539H170.969V25.543H158.869ZM160.319 30.6113V26.7148H161.945V29.293H169.694V30.6113H160.319ZM177.355 18.8926V21.9541H179.509V18.8926H181.018V27.7109H175.817V18.8926H177.355ZM177.355 26.3926H179.509V23.2432H177.355V26.3926ZM182.321 30.2744V17.9111H183.859V22.7891H185.266V17.6768H186.833V30.9189H185.266V24.1367H183.859V30.2744H182.321ZM194.816 18.3945V19.6982H190.495V22.6426C192.905 22.6279 194.348 22.5327 195.988 22.2031L196.164 23.4629C194.384 23.8657 192.773 23.9243 189.953 23.917H188.884V18.3945H194.816ZM190.158 26.1729V24.8691H198.815V28.3848H191.784V29.4395H199.226V30.7578H190.173V27.1543H197.189V26.1729H190.158ZM197.189 24.2979V17.6768H198.815V20.2842H200.661V21.6172H198.815V24.2979H197.189ZM207.355 17.9404C210.285 17.9404 212.124 18.8999 212.131 20.5186C212.124 22.1006 210.285 23.0454 207.355 23.0381C204.455 23.0454 202.58 22.1006 202.58 20.5186C202.58 18.8999 204.455 17.9404 207.355 17.9404ZM201.335 25.25V23.9316H213.405V25.25H201.335ZM202.756 30.7578V26.3047H211.94V30.7578H202.756ZM204.279 20.5186C204.265 21.3169 205.422 21.771 207.355 21.7783C209.289 21.771 210.446 21.3169 210.446 20.5186C210.446 19.6763 209.289 19.2148 207.355 19.2148C205.422 19.2148 204.265 19.6763 204.279 20.5186ZM204.367 29.4395H210.358V27.5938H204.367V29.4395ZM219.235 19.5664C219.228 21.3096 220.327 22.9502 222.429 23.6094L221.623 24.8984C220.1 24.3931 219.008 23.3823 218.408 22.0859C217.814 23.4775 216.701 24.5835 215.134 25.1182L214.313 23.8438C216.452 23.1187 217.558 21.3608 217.551 19.5664V18.3066H219.235V19.5664ZM216.291 27.5059V26.2021H225.329V30.9189H223.688V27.5059H216.291ZM223.688 25.6016V17.6768H225.329V25.6016H223.688ZM229.841 28.5752L228.61 32.6768H227.219L227.98 28.5752H229.841ZM15.2778 34.6768V47.9189H13.7104V41.2246H12.2456V47.2451H10.7222V34.9258H12.2456V39.8916H13.7104V34.6768H15.2778ZM4.48193 44.623V36.2002H6.12256V43.1875C7.26514 43.1655 8.51025 43.063 9.90186 42.792L10.063 44.2129C8.27588 44.5278 6.75977 44.623 5.36084 44.623H4.48193ZM22.3823 35.8926V38.9541H24.5356V35.8926H26.0444V44.7109H20.8442V35.8926H22.3823ZM22.3823 43.3926H24.5356V40.2432H22.3823V43.3926ZM27.3481 47.2744V34.9111H28.8862V39.7891H30.2925V34.6768H31.8599V47.9189H30.2925V41.1367H28.8862V47.2744H27.3481ZM48.354 34.6768V47.9189H46.8013V41.166H45.3071V47.2451H43.813V34.9258H45.3071V39.8623H46.8013V34.6768H48.354ZM37.3677 44.8281V36.2441H42.3188V37.5625H39.0083V43.4512C40.4438 43.4365 41.6304 43.3633 42.978 43.1143L43.0952 44.4473C41.4912 44.7695 40.1069 44.8135 38.2612 44.8281H37.3677ZM60.9517 34.6914V44.3594H59.311V34.6914H60.9517ZM49.936 41.2393C52.082 40.4849 53.1807 38.6172 53.1733 36.7129V35.4238H54.8579V36.7129C54.8506 38.5586 55.9346 40.3018 58.0366 41.0049L57.2017 42.2939C55.6929 41.7666 54.6162 40.7119 54.0303 39.3569C53.4443 40.8071 52.3457 41.9644 50.7856 42.5283L49.936 41.2393ZM52.1919 47.6553V43.4365H53.8325V46.3369H61.3179V47.6553H52.1919ZM78.5151 41.5615V42.8506H66.4155V41.5615H71.645V40.5801H67.9683V35.0283H77.0649V36.2881H69.5942V37.1963H76.7427V38.3975H69.5942V39.335H77.1675V40.5801H73.271V41.5615H78.5151ZM67.8511 45.7363C67.8511 44.3521 69.5137 43.5757 72.4653 43.583C75.373 43.5757 77.043 44.3521 77.0503 45.7363C77.043 47.1572 75.373 47.9043 72.4653 47.9043C69.5137 47.9043 67.8511 47.1572 67.8511 45.7363ZM69.4771 45.7363C69.4771 46.3809 70.4731 46.6885 72.4653 46.6885C74.4209 46.6885 75.4097 46.3809 75.4243 45.7363C75.4097 45.1064 74.4209 44.7988 72.4653 44.7988C70.4731 44.7988 69.4771 45.1064 69.4771 45.7363ZM84.1548 37.0645C84.1548 38.6831 85.2021 40.2065 87.2749 40.8438L86.4985 42.1182C85.0117 41.6494 83.957 40.7046 83.3784 39.5107C82.7925 40.9023 81.6792 42.0083 80.0825 42.543L79.2622 41.2539C81.3936 40.5581 82.5142 38.8369 82.5142 37.0791V36.918H79.7163V35.5996H86.9087V36.918H84.1548V37.0645ZM81.064 45.3701C81.064 43.7881 82.7778 42.8652 85.5464 42.8652C88.293 42.8652 89.9775 43.7881 89.9849 45.3701C89.9775 46.9668 88.293 47.9043 85.5464 47.9043C82.7778 47.9043 81.064 46.9668 81.064 45.3701ZM82.6899 45.3701C82.6899 46.1904 83.73 46.6226 85.5464 46.6299C87.3555 46.6226 88.3735 46.1904 88.3735 45.3701C88.3735 44.5645 87.3555 44.1396 85.5464 44.1396C83.73 44.1396 82.6899 44.5645 82.6899 45.3701ZM88.2271 42.5723V34.6768H89.853V37.8555H91.6987V39.1885H89.853V42.5723H88.2271ZM100.678 37.2842C100.678 38.9395 101.748 40.5435 103.842 41.2246L102.949 42.4551C101.506 41.9644 100.466 40.9829 99.8872 39.7524C99.3013 41.1367 98.1953 42.25 96.6353 42.792L95.7856 41.5029C97.917 40.7852 99.0376 39.042 99.0376 37.2842V37.0352H96.2837V35.7314H103.432V37.0352H100.678V37.2842ZM97.895 47.6553V43.4365H99.521V46.3369H106.904V47.6553H97.895ZM104.75 44.374V34.6768H106.376V38.6025H108.222V39.9502H106.376V44.374H104.75ZM119.707 35.8926V37.167C119.692 38.8149 119.692 40.6533 119.179 43.4219L117.539 43.2461C118.059 40.668 118.059 38.7856 118.066 37.1963H110.156V35.8926H119.707ZM108.896 46.2051V44.8721H113.349V40.2725H114.96V44.8721H120.966V46.2051H108.896ZM133.945 40.6826V41.9131H121.845V40.6826H133.945ZM123.251 43.8467V42.7041H132.48V45.7217H124.892V46.6445H132.875V47.7725H123.266V44.667H130.869V43.8467H123.251ZM123.339 36.0977V34.9697H132.451V37.958H124.995V38.8223H132.685V39.9355H123.383V36.9033H130.825V36.0977H123.339ZM140.332 35.8926V38.9541H142.485V35.8926H143.994V44.7109H138.793V35.8926H140.332ZM140.332 43.3926H142.485V40.2432H140.332V43.3926ZM145.297 47.2744V34.9111H146.835V39.7891H148.242V34.6768H149.809V47.9189H148.242V41.1367H146.835V47.2744H145.297ZM163.432 42.3818V43.6709H158.159V47.9189H156.547V43.6709H151.333V42.3818H163.432ZM152.797 41.0049V35.2041H154.409V36.8301H160.327V35.2041H161.967V41.0049H152.797ZM154.409 39.6865H160.327V38.1191H154.409V39.6865ZM176.411 45.0186V46.3516H164.311V45.0186H176.411ZM165.717 36.9326V35.6143H174.975V39.877H167.373V41.6055H175.283V42.8945H165.747V38.5732H173.364V36.9326H165.717ZM188.701 34.6768V47.9189H187.148V34.6768H188.701ZM177.172 43.9639C179.912 42.3452 181.171 40.2725 181.42 37.6064H177.846V36.2881H183.032C183.032 37.5698 182.871 38.771 182.512 39.8916H184.35V34.999H185.888V47.2891H184.35V41.1953H181.977C181.208 42.7114 179.963 44.0371 178.095 45.1211L177.172 43.9639ZM200.258 36.7861V38.0898H193.769V36.7861H196.23V35.0576H197.841V36.7861H200.258ZM194.15 41.8691C194.135 40.0674 195.358 38.7856 197.036 38.793C198.72 38.7856 199.921 40.0674 199.921 41.8691C199.921 43.7075 198.72 44.9893 197.036 44.9893C195.358 44.9893 194.135 43.7075 194.15 41.8691ZM195.585 41.8691C195.578 42.9385 196.179 43.605 197.036 43.5977C197.885 43.605 198.486 42.9385 198.486 41.8691C198.486 40.8291 197.885 40.1406 197.036 40.1406C196.179 40.1406 195.578 40.8291 195.585 41.8691ZM200.815 47.3184V34.9551H202.338V40.126H203.627V34.6768H205.18V47.9189H203.627V41.4443H202.338V47.3184H200.815ZM218.833 42.0596V43.3779H213.574V47.9043H211.962V43.3779H206.762V42.0596H218.833ZM207.392 39.8916C209.992 39.562 211.735 38.1631 211.853 36.7129H207.875V35.4238H217.719V36.7129H213.742C213.852 38.1631 215.581 39.562 218.203 39.8916L217.617 41.166C215.361 40.8438 213.603 39.811 212.797 38.3828C211.984 39.811 210.241 40.8438 208.007 41.166L207.392 39.8916ZM224.472 38.4414C224.465 40.4849 225.695 42.814 227.783 43.7881L226.875 45.0771C225.38 44.374 224.274 42.9531 223.681 41.2979C223.081 43.1143 221.923 44.667 220.4 45.3994L219.448 44.125C221.557 43.1216 222.839 40.646 222.846 38.4414V37.3281H219.96V35.9805H227.241V37.3281H224.472V38.4414ZM228.471 47.9189V34.6768H230.097V39.833H232.133V41.1953H230.097V47.9189H228.471ZM243.281 35.4824V36.6689C243.273 37.9067 243.273 39.2617 242.929 41.1367H244.76V42.4551H239.501V47.9336H237.861V42.4551H232.69V41.1367H241.274C241.64 39.335 241.655 37.98 241.655 36.8008H234.111V35.4824H243.281ZM257.753 44.9746V46.3076H245.654V44.9746H248.452V41.6274C247.397 41.0195 246.76 40.0674 246.767 38.8955C246.76 36.7861 248.825 35.3945 251.674 35.3945C254.538 35.3945 256.618 36.7861 256.611 38.8955C256.618 40.0527 255.996 40.9829 254.97 41.5908V44.9746H257.753ZM248.364 38.8955C248.356 40.2505 249.697 41.1147 251.674 41.1074C253.645 41.1147 255.014 40.2505 255.014 38.8955C255.014 37.5186 253.645 36.6763 251.674 36.6836C249.697 36.6763 248.356 37.5186 248.364 38.8955ZM250.063 44.9746H253.315V42.2134C252.81 42.3232 252.26 42.3818 251.674 42.3818C251.103 42.3818 250.561 42.3232 250.063 42.2207V44.9746ZM261.342 36.0098L261.181 43.4951H259.526L259.35 36.0098H261.342ZM259.218 45.5898C259.211 44.9746 259.731 44.4692 260.361 44.4619C260.969 44.4692 261.489 44.9746 261.489 45.5898C261.489 46.2197 260.969 46.7324 260.361 46.7324C259.731 46.7324 259.211 46.2197 259.218 45.5898Z" fill="#A9B3B9"/>
</svg>
