<svg width="229" height="48" viewBox="0 0 229 48" fill="none" xmlns="http://www.w3.org/2000/svg">
<path d="M54.5898 9.1438V13.9338H52.9639V10.4475H45.5664V9.1438H54.5898ZM44.0723 7.7229V1.6438H50.2979V3.89966H52.9639V0.677002H54.5898V8.49927H52.9639V5.21802H50.2979V7.7229H44.0723ZM45.6982 6.43384H48.6865V2.96216H45.6982V6.43384ZM60.083 1.6438C61.8701 1.6438 63.1958 3.13794 63.4302 5.55493H65.957V0.677002H67.5684V13.9338H65.957V6.87329H63.4448C63.269 9.42944 61.9214 11.0042 60.083 11.0042C58.0908 11.0042 56.6772 9.19507 56.6846 6.31665C56.6772 3.46021 58.0908 1.6438 60.083 1.6438ZM58.252 6.31665C58.2446 8.35278 58.9917 9.53198 60.083 9.53931C61.1816 9.53198 61.9214 8.35278 61.9287 6.31665C61.9214 4.29517 61.1816 3.10864 60.083 3.10864C58.9917 3.10864 58.2446 4.29517 58.252 6.31665ZM79.917 0.69165V4.19263H81.7041V5.54028H79.917V8.76294H78.291V0.69165H79.917ZM69.3701 7.25415C70.3589 7.24683 71.4868 7.23218 72.666 7.20288V5.99438H70.2783V1.24829H71.875V2.36157H75.0977V1.24829H76.709V5.99438H74.3066V7.13696C75.4053 7.07837 76.5039 6.99048 77.5293 6.85864L77.6318 7.95728C74.9219 8.43335 71.8457 8.47729 69.5312 8.48462L69.3701 7.25415ZM69.6924 12.5276C71.4282 12.0002 72.2705 10.7698 72.2705 9.51001V9.23169H73.8525V9.51001C73.8525 10.5354 74.3506 11.634 75.4858 12.3298C76.6284 11.6194 77.1631 10.4988 77.1631 9.51001V9.23169H78.7744V9.51001C78.7671 10.7698 79.5874 12.0002 81.3232 12.5276L80.5322 13.7434C79.2651 13.3186 78.4082 12.5056 77.9395 11.5022C77.5146 12.5203 76.731 13.4065 75.5078 13.8459C74.2773 13.4138 73.4863 12.5642 73.0542 11.5608C72.5854 12.5422 71.7358 13.3259 70.498 13.7434L69.6924 12.5276ZM71.875 4.70532H75.0977V3.62134H71.875V4.70532ZM87.1387 4.44165C87.1313 6.48511 88.3618 8.81421 90.4492 9.78833L89.541 11.0774C88.0469 10.3743 86.9409 8.95337 86.3477 7.2981C85.7471 9.1145 84.5898 10.6672 83.0664 11.3997L82.1143 10.1252C84.2236 9.12183 85.5054 6.64624 85.5127 4.44165V3.32837H82.627V1.98071H89.9072V3.32837H87.1387V4.44165ZM91.1377 13.9192V0.677002H92.7637V5.83325H94.7998V7.19556H92.7637V13.9192H91.1377ZM110.283 0.677002V13.9192H108.716V7.22485H107.251V13.2454H105.728V0.926025H107.251V5.89185H108.716V0.677002H110.283ZM99.4873 10.6233V2.20044H101.128V9.18774C102.271 9.16577 103.516 9.06323 104.907 8.79224L105.068 10.2131C103.281 10.5281 101.765 10.6233 100.366 10.6233H99.4873ZM122.251 0.677002V5.8479H124.214V7.21021H122.251V13.8899H120.625V0.677002H122.251ZM111.807 10.2717C115.029 8.6604 116.772 6.41919 117.095 3.40161H112.524V2.05396H118.75C118.743 5.94312 117.131 9.36353 112.729 11.5315L111.807 10.2717ZM131.963 1.6438C133.955 1.6438 135.391 3.46021 135.405 6.31665C135.391 9.19507 133.955 11.0042 131.963 11.0042C129.949 11.0042 128.513 9.19507 128.521 6.31665C128.513 3.46021 129.949 1.6438 131.963 1.6438ZM130.088 6.31665C130.081 8.35278 130.85 9.53198 131.963 9.53931C133.083 9.53198 133.831 8.35278 133.838 6.31665C133.831 4.29517 133.083 3.10864 131.963 3.10864C130.85 3.10864 130.081 4.29517 130.088 6.31665ZM137.148 13.9192V0.677002H138.774V5.76001H140.811V7.13696H138.774V13.9192H137.148ZM152.09 4.427V5.71606H142.92V1.1604H144.531V4.427H152.09ZM141.353 8.54321V7.25415H153.452V8.54321H141.353ZM142.803 13.6116V9.71509H144.429V12.2932H152.178V13.6116H142.803ZM168.423 1.96606V3.46021C168.423 5.23267 168.423 7.0564 167.939 9.84692L166.284 9.70044C166.797 7.10034 166.797 5.1814 166.797 3.46021V3.28442H159.165V1.96606H168.423ZM157.891 12.1028V10.7698H169.961V12.1028H157.891ZM181.05 1.62915V7.66431H174.868V1.62915H181.05ZM175.601 12.5715C178.252 12.198 179.878 10.7771 179.878 9.1731V8.80688H181.504V9.1731C181.489 10.7771 183.13 12.198 185.796 12.5715L185.151 13.8459C183.101 13.5164 181.504 12.5789 180.706 11.2605C179.893 12.5789 178.296 13.5164 176.245 13.8459L175.601 12.5715ZM176.465 6.3606H179.438V2.93286H176.465V6.3606ZM183.232 9.43677V0.677002H184.858V4.09009H186.704V5.45239H184.858V9.43677H183.232ZM10.4028 18.9661V22.2327H11.7944V18.9661H12.937V27.7112H9.24561V18.9661H10.4028ZM10.4028 26.5833H11.7944V23.3167H10.4028V26.5833ZM13.8599 27.7112V18.9661H15.0317V22.2327H16.3794V18.9661H17.5073V27.7112H13.8599ZM15.0317 26.5833H16.3794V23.3167H15.0317V26.5833ZM18.7671 30.8606V17.7356H20.1001V30.8606H18.7671ZM23.894 18.5266V20.4895H27.395V18.5266H28.772V24.7815H22.5317V18.5266H23.894ZM23.8354 27.4622V26.3489H32.7271V30.8606H31.3354V27.4622H23.8354ZM23.894 23.6536H27.395V21.5881H23.894V23.6536ZM31.3354 25.6604V17.7356H32.7271V25.6604H31.3354ZM37.2241 19.01L37.0923 26.554H35.6421L35.5103 19.01H37.2241ZM35.3345 28.678C35.3271 28.1067 35.8032 27.6379 36.3745 27.6379C36.9385 27.6379 37.4072 28.1067 37.4146 28.678C37.4072 29.2493 36.9385 29.7107 36.3745 29.718C35.8032 29.7107 35.3271 29.2493 35.3345 28.678ZM46.8481 18.5706C48.9209 18.5706 50.415 19.845 50.4224 21.6907C50.415 23.324 49.2432 24.5105 47.5366 24.7595V26.8323C48.7744 26.7737 50.0342 26.6638 51.2134 26.4954L51.3159 27.5061C48.3496 28.0554 45.1636 28.0701 42.8198 28.0774L42.644 26.9348C43.6768 26.9348 44.8779 26.9275 46.145 26.8909V24.7595C44.4458 24.5032 43.2666 23.3167 43.2739 21.6907C43.2666 19.845 44.7827 18.5706 46.8481 18.5706ZM44.6509 21.6907C44.6362 22.8406 45.5737 23.6243 46.8481 23.6096C48.1226 23.6243 49.0601 22.8406 49.0601 21.6907C49.0601 20.5188 48.1226 19.7717 46.8481 19.7717C45.5737 19.7717 44.6362 20.5188 44.6509 21.6907ZM52.0337 30.8899V17.7356H53.4253V30.8899H52.0337ZM60.3101 19.6252C60.3027 21.4417 61.5332 23.1042 63.562 23.7708L62.8589 24.8694C61.3354 24.342 60.2002 23.2727 59.6069 21.9031C59.021 23.3679 57.8638 24.5325 56.311 25.0891L55.6079 24.0051C57.6514 23.28 58.8818 21.5002 58.8892 19.6252V18.3655H60.3101V19.6252ZM57.5269 27.3743V26.2463H66.4185V30.8606H65.0269V27.3743H57.5269ZM65.0269 25.6165V17.7356H66.4185V25.6165H65.0269ZM82.6489 18.3948V19.3909C82.6562 20.4163 82.6562 21.6028 82.312 23.1848H84.1724V24.3274H72.1606V23.1848H80.9058C81.2573 21.6541 81.272 20.5334 81.272 19.5374H73.6694V18.3948H82.6489ZM73.6255 30.6995V25.9973H82.6636V30.6995H73.6255ZM74.9878 29.5715H81.2866V27.0959H74.9878V29.5715ZM88.2446 18.5413C89.9805 18.5486 91.2622 19.8376 91.2622 21.6907C91.2622 23.5364 89.9805 24.7961 88.2446 24.7961C86.4941 24.7961 85.2344 23.5364 85.2417 21.6907C85.2344 19.8376 86.4941 18.5486 88.2446 18.5413ZM86.4868 21.6907C86.4795 22.8333 87.2266 23.6316 88.2446 23.6243C89.2554 23.6316 89.9878 22.8333 90.0024 21.6907C89.9878 20.5261 89.2554 19.7424 88.2446 19.7424C87.2266 19.7424 86.4795 20.5261 86.4868 21.6907ZM87.395 27.3596V26.2463H96.3159V30.8606H94.939V27.3596H87.395ZM92.1704 25.4846V17.9846H93.4741V21.0608H94.9976V17.7502H96.3159V25.5725H94.9976V22.1887H93.4741V25.4846H92.1704ZM102.366 18.6731C104.438 18.6658 105.933 19.9475 105.94 21.7932C105.933 23.6389 104.438 24.9207 102.366 24.928C100.3 24.9207 98.7842 23.6389 98.7915 21.7932C98.7842 19.9475 100.3 18.6658 102.366 18.6731ZM98.1616 26.9055C100.549 26.9055 103.86 26.8835 106.731 26.4661L106.833 27.4768C103.867 28.0481 100.681 28.0627 98.3374 28.0627L98.1616 26.9055ZM100.168 21.7932C100.154 22.9578 101.091 23.7122 102.366 23.7122C103.64 23.7122 104.578 22.9578 104.578 21.7932C104.578 20.6433 103.64 19.8743 102.366 19.8743C101.091 19.8743 100.154 20.6433 100.168 21.7932ZM107.551 30.8899V17.7356H108.943V30.8899H107.551ZM125.027 17.7502V21.969H126.931V23.1262H125.027V27.5647H123.635V17.7502H125.027ZM114.729 20.4016V19.2737H117.952V17.7356H119.343V19.2737H122.551V20.4016H114.729ZM115.447 23.5071C115.439 22.0056 116.736 21.0242 118.64 21.0315C120.522 21.0242 121.819 22.0056 121.819 23.5071C121.819 24.9939 120.522 25.9607 118.64 25.968C116.736 25.9607 115.439 24.9939 115.447 23.5071ZM116.707 30.5823V26.7883H118.098V29.4543H125.583V30.5823H116.707ZM116.794 23.5071C116.78 24.364 117.527 24.8914 118.64 24.884C119.753 24.8914 120.5 24.364 120.515 23.5071C120.5 22.6428 119.753 22.1082 118.64 22.1008C117.527 22.1082 116.78 22.6428 116.794 23.5071ZM138.313 23.7854V24.8987H134.343V28.1067H139.69V29.2493H127.678V28.1067H132.966V24.8987H129.172V18.7463H138.196V19.8743H130.564V23.7854H138.313ZM150.867 17.7356V22.9651H152.903V24.1223H150.867V30.8459H149.475V17.7356H150.867ZM140.657 27.345C143.945 25.7043 145.732 23.3313 146.018 20.2698H141.316V19.1125H147.439C147.424 22.9065 145.754 26.2976 141.433 28.429L140.657 27.345ZM168.21 25.8801V30.6995H159.612V25.8801H168.21ZM158.044 24.5471V18.4973H159.421V23.3606C161.318 23.3533 163.047 23.2214 164.915 22.8479L165.076 24.0198C163.032 24.4373 161.179 24.5471 159.07 24.5471H158.044ZM160.989 29.5715H166.848V26.9934H160.989V29.5715ZM163.215 21.2512V20.1233H166.819V17.7356H168.21V25.2795H166.819V21.2512H163.215ZM181.174 17.7356V25.6165H179.783V23.8879H177.571V22.76H179.783V21.6614H177.571V20.5188H179.783V17.7356H181.174ZM170.217 24.342C172.209 23.7195 173.455 22.2034 173.455 20.5481V20.2844H170.598V19.1711H173.455V17.6917H174.846V19.1711H177.688V20.2844H174.832V20.5481C174.832 22.1082 176.084 23.573 178.083 24.1516L177.439 25.2209C175.908 24.7742 174.758 23.8 174.165 22.5623C173.594 23.8879 172.444 24.9133 170.891 25.4114L170.217 24.342ZM170.964 29.7473C172.634 29.176 173.557 27.8357 173.572 26.5979V25.9973H174.905V26.5979C174.905 27.6965 175.454 28.8684 176.641 29.5789C177.842 28.8098 178.413 27.572 178.42 26.5979V25.9973H179.783V26.5979C179.783 27.9089 180.698 29.2346 182.419 29.7473L181.731 30.7874C180.427 30.3552 179.541 29.4763 179.094 28.407C178.677 29.447 177.886 30.4138 176.648 30.9045C175.417 30.4431 174.626 29.5276 174.216 28.4656C173.748 29.4836 172.876 30.3479 171.638 30.7874L170.964 29.7473ZM186.052 25.6018V26.9934H192.219V25.6018H193.611V30.6995H184.675V25.6018H186.052ZM183.196 24.7815V23.6243H195.164V24.7815H183.196ZM183.84 21.72C186.382 21.3904 188.462 19.9915 188.469 18.4387V17.8821H189.89V18.4387C189.897 19.9475 191.992 21.4124 194.504 21.72L194.006 22.8186C191.882 22.5256 190.029 21.5149 189.187 20.116C188.337 21.5222 186.477 22.5256 184.368 22.8186L183.84 21.72ZM186.052 29.5862H192.219V28.0774H186.052V29.5862ZM207.058 17.7356V30.8606H205.667V17.7356H207.058ZM196.965 27.5208V19.01H198.342V26.3196C200.261 26.3123 202.275 26.1438 204.377 25.719L204.568 26.8909C202.246 27.3669 200.137 27.5281 198.064 27.5208H196.965ZM219.348 17.7356V22.8186H221.458V23.9612H219.348V30.8899H217.957V17.7356H219.348ZM209.68 27.6233V18.9954H215.818V20.1233H211.072V26.4661C213.276 26.4587 214.924 26.3635 216.799 26.0266L216.975 27.1985C214.917 27.5647 213.174 27.6306 210.735 27.6233H209.68ZM12.5342 41.635V42.7336H0.537109V41.635H5.83984V40.4924H2.10449V35.0872H11.0693V36.1858H3.51074V37.2551H10.7324V38.2952H3.51074V39.4084H11.1572V40.4924H7.23145V41.635H12.5342ZM1.9873 45.7219C1.9873 44.345 3.62061 43.5906 6.54297 43.5979C9.42139 43.5906 11.062 44.345 11.0693 45.7219C11.062 47.1062 9.42139 47.8386 6.54297 47.8313C3.62061 47.8386 1.9873 47.1062 1.9873 45.7219ZM3.37891 45.7219C3.37158 46.4324 4.47021 46.7913 6.54297 46.7766C8.58643 46.7913 9.67773 46.4324 9.67773 45.7219C9.67773 45.0115 8.58643 44.6379 6.54297 44.6379C4.47021 44.6379 3.37158 45.0115 3.37891 45.7219ZM18.1152 37.1526C18.1079 38.8225 19.2725 40.3459 21.2646 40.9758L20.6055 42.0598C19.1113 41.5837 18.02 40.595 17.4414 39.3499C16.8701 40.7854 15.7202 41.9207 14.1455 42.47L13.4277 41.3567C15.4785 40.6829 16.7163 38.991 16.7236 37.1672V36.801H13.8379V35.6731H20.9424V36.801H18.1152V37.1526ZM15.2002 45.3704C15.2002 43.8323 16.8774 42.9314 19.6094 42.9387C22.312 42.9314 23.96 43.8323 23.96 45.3704C23.96 46.9304 22.312 47.8386 19.6094 47.8313C16.8774 47.8386 15.2002 46.9304 15.2002 45.3704ZM16.5918 45.3704C16.5845 46.2493 17.7124 46.74 19.6094 46.7327C21.4917 46.74 22.605 46.2493 22.5977 45.3704C22.605 44.5134 21.4917 44.03 19.6094 44.0374C17.7124 44.03 16.5845 44.5134 16.5918 45.3704ZM22.4512 42.6165V34.7356H23.8428V37.9875H25.7471V39.1301H23.8428V42.6165H22.4512ZM37.7881 34.7356V47.8606H36.4551V34.7356H37.7881ZM26.6406 40.4045C26.6406 37.5627 27.7539 35.783 29.4678 35.7903C31.0645 35.783 32.1411 37.2991 32.3022 39.76H33.7891V34.9846H35.1221V47.2161H33.7891V40.8879H32.3096C32.1851 43.4514 31.0938 45.0408 29.4678 45.0334C27.7539 45.0408 26.6406 43.2537 26.6406 40.4045ZM27.9297 40.4045C27.9297 42.4919 28.5229 43.7224 29.4678 43.7151C30.4346 43.7224 31.0352 42.4919 31.0352 40.4045C31.0352 38.3098 30.4346 37.0867 29.4678 37.094C28.5229 37.0867 27.9297 38.3098 27.9297 40.4045ZM54.1504 42.9387V44.0374H50.5029C50.6934 45.3264 52.4146 46.447 54.6924 46.7473L54.1943 47.802C52.1802 47.509 50.5176 46.6228 49.7559 45.3777C49.0015 46.6155 47.3608 47.509 45.3613 47.802L44.8633 46.7473C47.1411 46.447 48.833 45.3264 49.0308 44.0374H45.4346V42.9387H54.1504ZM43.8086 41.5471V35.4534H45.1709V37.3577H48.6719V35.4534H50.0488V41.5471H43.8086ZM45.1709 40.4192H48.6719V38.4417H45.1709V40.4192ZM52.6123 42.3235V34.7502H54.0039V42.3235H52.6123ZM66.9531 34.7356V47.8899H65.5615V34.7356H66.9531ZM56.5381 40.3167C56.5381 37.5115 57.9517 35.7244 59.9365 35.717C61.8848 35.7244 63.3203 37.5115 63.3203 40.3167C63.3203 43.1511 61.8848 44.9382 59.9365 44.9309C57.9517 44.9382 56.5381 43.1511 56.5381 40.3167ZM57.8857 40.3167C57.8784 42.4041 58.7134 43.6858 59.9365 43.6858C61.1377 43.6858 61.9727 42.4041 61.9727 40.3167C61.9727 38.2585 61.1377 36.9695 59.9365 36.9622C58.7134 36.9695 57.8784 38.2585 57.8857 40.3167ZM76.2256 35.717C78.1885 35.7244 79.5874 37.5115 79.5947 40.3167C79.5874 43.1511 78.1885 44.9382 76.2256 44.9309C74.2627 44.9382 72.8638 43.1511 72.8711 40.3167C72.8638 37.5115 74.2627 35.7244 76.2256 35.717ZM74.2041 40.3167C74.1968 42.4041 75.0317 43.6858 76.2256 43.6858C77.4414 43.6858 78.2617 42.4041 78.2617 40.3167C78.2617 38.2585 77.4414 36.9695 76.2256 36.9622C75.0317 36.9695 74.1968 38.2585 74.2041 40.3167ZM81.543 47.8606V34.7356H82.9346V39.8772H85.0439V41.0491H82.9346V47.8606H81.543ZM96.5576 34.7502V44.2717H95.166V34.7502H96.5576ZM86.4795 41.8254V35.717H87.8711V40.6536C89.9951 40.6536 91.8481 40.5217 93.833 40.0969L94.0234 41.2395C91.8628 41.6936 89.8779 41.8328 87.5635 41.8254H86.4795ZM87.8857 47.5823V43.2756H89.2773V46.4543H96.9531V47.5823H87.8857ZM113.169 34.7356V42.3235H111.792V34.7356H113.169ZM102.988 41.1809V35.2776H104.351V37.1819H107.852V35.2776H109.229V41.1809H102.988ZM103.853 46.7913C106.211 46.5569 108.064 45.4143 108.196 44.2717H104.38V43.1877H108.232V41.9866H109.609V43.1877H113.477V44.2717H109.646C109.785 45.3777 111.594 46.5276 113.945 46.7766L113.462 47.8459C111.411 47.5896 109.712 46.718 108.928 45.5754C108.137 46.7473 106.401 47.6042 104.336 47.8459L103.853 46.7913ZM104.351 40.0823H107.852V38.2512H104.351V40.0823ZM121.24 34.9553C124.199 34.948 125.92 35.7463 125.928 37.2112C125.92 38.6833 124.199 39.4817 121.24 39.4817C118.281 39.4817 116.545 38.6833 116.553 37.2112C116.545 35.7463 118.281 34.948 121.24 34.9553ZM115.264 41.4006V40.2874H127.231V41.4006H115.264ZM116.699 43.4514V42.4114H125.723V45.4875H118.076V46.6594H126.089V47.7288H116.714V44.4768H124.346V43.4514H116.699ZM118.003 37.2112C117.996 38.0242 119.153 38.4417 121.24 38.4417C123.342 38.4417 124.5 38.0242 124.492 37.2112C124.5 36.4348 123.342 35.9807 121.24 35.9807C119.153 35.9807 117.996 36.4348 118.003 37.2112ZM143.901 45.0774V46.2346H131.89V45.0774H137.178V42.3821H133.267V35.6292H134.658V37.885H141.104V35.6292H142.48V42.3821H138.555V45.0774H143.901ZM134.658 41.2542H141.104V39.0129H134.658V41.2542ZM156.133 34.7356V47.8606H154.814V34.7356H156.133ZM144.81 44.0667C147.593 42.4114 148.926 40.2068 149.167 37.5042H145.425V36.3616H150.552C150.544 37.6433 150.369 38.8665 149.966 40.009H152.046V35.0725H153.364V47.2161H152.046V41.1223H149.482C148.706 42.6458 147.454 43.9788 145.601 45.0627L144.81 44.0667ZM167.969 36.9036V38.0315H161.45V36.9036H164.028V35.1165H165.405V36.9036H167.969ZM161.875 41.8401C161.868 40.075 163.069 38.8225 164.717 38.8225C166.379 38.8225 167.566 40.075 167.573 41.8401C167.566 43.6345 166.379 44.8943 164.717 44.887C163.069 44.8943 161.868 43.6345 161.875 41.8401ZM163.105 41.8401C163.098 42.9534 163.772 43.7004 164.717 43.7004C165.662 43.7004 166.343 42.9534 166.343 41.8401C166.343 40.7488 165.662 39.9871 164.717 39.9797C163.772 39.9871 163.098 40.7488 163.105 41.8401ZM168.569 47.2454V35.0286H169.888V40.1995H171.396V34.7356H172.715V47.8606H171.396V41.342H169.888V47.2454H168.569ZM186.411 42.1331V43.261H181.079V47.8459H179.717V43.261H174.443V42.1331H186.411ZM175.117 40.0383C177.563 39.7014 179.6 38.2439 179.644 36.6252H175.557V35.512H185.283V36.6252H181.226C181.248 38.2439 183.269 39.7014 185.752 40.0383L185.239 41.137C183.086 40.8 181.226 39.738 180.427 38.2439C179.622 39.738 177.769 40.8 175.645 41.137L175.117 40.0383ZM191.978 38.6028C191.97 40.6755 193.34 42.99 195.332 43.9348L194.541 45.0188C193.069 44.3157 191.897 42.8362 191.304 41.1223C190.703 42.99 189.473 44.6086 187.979 45.3557L187.158 44.2571C189.15 43.2976 190.593 40.822 190.601 38.6028V37.2112H187.642V36.054H194.834V37.2112H191.978V38.6028ZM196.24 47.8606V34.7356H197.632V39.9358H199.741V41.1077H197.632V47.8606H196.24ZM210.815 35.5559V36.7131C210.815 37.9583 210.815 39.3132 210.449 41.1809H212.339V42.3235H207.021V47.8752H205.615V42.3235H200.371V41.1809H209.043C209.431 39.3059 209.431 37.9363 209.438 36.7131V36.6985H201.836V35.5559H210.815ZM225.347 45.0627V46.22H213.335V45.0627H216.206V41.635C215.129 41.0417 214.47 40.1042 214.478 38.925C214.47 36.8596 216.499 35.5046 219.312 35.4973C222.131 35.5046 224.16 36.8596 224.16 38.925C224.16 40.0823 223.53 41.0125 222.476 41.6057V45.0627H225.347ZM215.825 38.925C215.825 40.3313 217.253 41.2468 219.312 41.2542C221.355 41.2468 222.805 40.3313 222.812 38.925C222.805 37.5115 221.355 36.6106 219.312 36.6106C217.253 36.6106 215.825 37.5115 215.825 38.925ZM217.583 45.0627H221.069V42.1477C220.535 42.2722 219.941 42.3381 219.312 42.3381C218.696 42.3381 218.11 42.2722 217.583 42.1477V45.0627ZM228.716 36.01L228.584 43.554H227.134L227.002 36.01H228.716ZM226.826 45.678C226.819 45.1067 227.295 44.6379 227.866 44.6379C228.43 44.6379 228.899 45.1067 228.906 45.678C228.899 46.2493 228.43 46.7107 227.866 46.718C227.295 46.7107 226.819 46.2493 226.826 45.678Z" fill="#A9B3B9"/>
</svg>
