<svg width="170" height="65" viewBox="0 0 170 65" fill="none" xmlns="http://www.w3.org/2000/svg">
<path d="M16.8096 8.29395V9.56836H4.73926V8.29395H16.8096ZM5.33984 3.06445V1.83398H9.9541V0.588867H11.5801V1.83398H16.1504V3.06445H5.33984ZM6.2334 13.6553V10.3447H7.85938V12.3662H15.4473V13.6553H6.2334ZM6.36523 5.58398C6.36523 4.229 7.96924 3.5332 10.7598 3.5332C13.5503 3.5332 15.1616 4.229 15.1689 5.58398C15.1616 6.89502 13.5503 7.60547 10.7598 7.60547C7.96924 7.60547 6.36523 6.89502 6.36523 5.58398ZM8.03516 5.58398C8.02051 6.1626 8.93604 6.44092 10.7598 6.43359C12.5908 6.44092 13.5063 6.1626 13.499 5.58398C13.5063 5.00537 12.5908 4.69043 10.7598 4.69043C8.93604 4.69043 8.02051 5.00537 8.03516 5.58398ZM29.7881 5.97949V7.26855H17.7031V5.97949H29.7881ZM19.124 9.40723V8.17676H28.2646V11.502H20.7354V12.5127H28.6309V13.7871H19.1387V10.3301H26.668V9.40723H19.124ZM19.2412 5.12988V1.01367H28.2354V2.31738H20.8672V3.84082H28.3525V5.12988H19.2412ZM41.6973 0.676758V13.9336H40.0859V0.676758H41.6973ZM31.3848 3.15234V1.83398H37.625V6.7998H33.0693V9.46582C35.1567 9.45117 36.9512 9.34131 39.0166 8.99707L39.1631 10.3301C36.9146 10.7183 34.937 10.8062 32.5566 10.7988H31.3994V5.51074H35.9697V3.15234H31.3848ZM54.3535 4.42676V5.71582H45.1836V1.16016H46.7949V4.42676H54.3535ZM43.6162 8.54297V7.25391H55.7158V8.54297H43.6162ZM45.0664 13.6113V9.71484H46.6924V12.293H54.4414V13.6113H45.0664ZM71.2432 0.691406V10.4033H69.6172V5.9502H67.0684V4.60254H69.6172V0.691406H71.2432ZM60.3301 7.70801C63.1792 6.80713 65.0615 5.11523 65.3765 3.02051H61.0186V1.6875H67.1562C67.1562 5.18115 64.8491 7.78857 61.0186 9.01172L60.3301 7.70801ZM62.6152 13.6553V9.42188H64.2705V12.3369H71.5801V13.6553H62.6152ZM88.0449 0.676758V13.9189H86.4775V7.22461H85.0127V13.2451H83.4893V0.925781H85.0127V5.8916H86.4775V0.676758H88.0449ZM77.249 10.623V2.2002H78.8896V9.1875C80.0322 9.16553 81.2773 9.06299 82.6689 8.79199L82.8301 10.2129C81.043 10.5278 79.5269 10.623 78.1279 10.623H77.249ZM101.155 6.8584V8.14746H98.416V9.97852C99.5659 9.9126 100.723 9.81006 101.814 9.65625L101.946 10.8281C98.98 11.4067 95.8013 11.4067 93.4648 11.4287L93.2598 10.0957C94.2925 10.0957 95.5083 10.0884 96.79 10.0444V8.14746H94.2266V1.80469H101.111V3.1084H95.8672V4.33887H100.848V5.59863H95.8672V6.8584H101.155ZM102.605 13.9336V0.676758H104.231V13.9336H102.605ZM110.896 3.85547C110.882 6.22119 112.068 8.60889 114.119 9.59766L113.123 10.9014C111.688 10.1763 110.655 8.77734 110.091 7.09277C109.512 8.89453 108.428 10.3887 106.912 11.1504L105.916 9.84668C108.047 8.83594 109.263 6.30176 109.271 3.85547V1.74609H110.896V3.85547ZM114.91 13.9189V0.676758H116.536V5.8623H118.572V7.25391H116.536V13.9189H114.91ZM133.777 0.676758V7.38574H132.151V6.22852H128.958V4.9834H132.151V3.67969H129.126C128.306 5.70117 126.365 7.01953 123.436 7.67871L122.864 6.3457C125.977 5.69385 127.53 4.32422 127.757 2.56641H123.597V1.24805H129.573C129.573 1.66553 129.537 2.06104 129.478 2.43457H132.151V0.676758H133.777ZM125.062 9.1875V7.89844H133.777V11.3848H126.702V12.4834H134.129V13.7871H125.076V10.1689H132.151V9.1875H125.062ZM146.683 0.691406V8.17676H145.042V0.691406H146.683ZM135.652 6.62402C137.798 5.94287 138.912 4.22168 138.904 2.47852V1.18945H140.589V2.47852C140.582 4.17041 141.709 5.74512 143.782 6.4043L142.991 7.64941C141.46 7.17334 140.362 6.19922 139.761 4.93213C139.168 6.29443 138.047 7.38574 136.458 7.91309L135.652 6.62402ZM137.894 13.7578V8.83594H146.683V13.7578H137.894ZM139.505 12.4395H145.086V10.125H139.505V12.4395ZM154.725 1.11621V2.55176H156.248V1.11621H157.771V6.49219H153.187V1.11621H154.725ZM152.161 8.86523V7.57617H164.261V8.86523H159.148V11.1797H157.537V8.86523H152.161ZM153.626 13.7139V10.125H155.237V12.3955H162.928V13.7139H153.626ZM154.725 5.18848H156.248V3.78223H154.725V5.18848ZM158.636 6.49219V1.11621H160.188V2.55176H161.683V1.11621H163.235V6.49219H158.636ZM160.188 5.18848H161.683V3.78223H160.188V5.18848ZM27.7739 21.4414C27.7739 23.6094 29.0483 25.8945 31.187 26.7881L30.2935 28.0771C28.7261 27.396 27.5835 26.0117 26.9756 24.3271C26.3677 26.1436 25.2031 27.667 23.6577 28.3994L22.7202 27.125C24.8076 26.1582 26.1113 23.6899 26.1187 21.4414V20.3281H23.2036V18.9805H30.6743V20.3281H27.7739V21.4414ZM32.1538 30.9189V17.6768H33.7944V30.9189H32.1538ZM41.8804 25.8506C44.627 25.8506 46.3115 26.7808 46.3188 28.3701C46.3115 29.9814 44.627 30.9116 41.8804 30.9189C39.1118 30.9116 37.3979 29.9814 37.3979 28.3701C37.3979 26.7808 39.1118 25.8506 41.8804 25.8506ZM36.1968 24.6934V18.5117H37.8081V20.2988H40.8989V18.5117H42.5103V24.6934H36.1968ZM37.8081 23.4043H40.8989V21.5732H37.8081V23.4043ZM39.0239 28.3701C39.0239 29.1904 40.064 29.6372 41.8804 29.6299C43.6895 29.6372 44.7075 29.1904 44.7075 28.3701C44.7075 27.5498 43.6895 27.1323 41.8804 27.125C40.064 27.1323 39.0239 27.5498 39.0239 28.3701ZM44.561 25.5283V17.6768H46.187V20.8408H48.0327V22.2031H46.187V25.5283H44.561ZM60.7769 24.5176V25.8213H48.7065V24.5176H60.7769ZM49.9517 20.7822C49.9517 19.105 51.834 18.0942 54.7271 18.1016C57.6128 18.0942 59.4951 19.105 59.5024 20.7822C59.4951 22.4668 57.6128 23.4922 54.7271 23.4922C51.834 23.4922 49.9517 22.4668 49.9517 20.7822ZM50.2007 30.6553V26.8027H51.8267V29.3369H59.4146V30.6553H50.2007ZM51.6509 20.7822C51.6362 21.6831 52.8008 22.1665 54.7271 22.1592C56.6606 22.1665 57.8179 21.6831 57.8179 20.7822C57.8179 19.9106 56.6606 19.4053 54.7271 19.4053C52.8008 19.4053 51.6362 19.9106 51.6509 20.7822ZM70.2251 21.4414C70.2251 23.6094 71.4995 25.8945 73.6382 26.7881L72.7446 28.0771C71.1772 27.396 70.0347 26.0117 69.4268 24.3271C68.8188 26.1436 67.6543 27.667 66.1089 28.3994L65.1714 27.125C67.2588 26.1582 68.5625 23.6899 68.5698 21.4414V20.3281H65.6548V18.9805H73.1255V20.3281H70.2251V21.4414ZM74.605 30.9189V17.6768H76.2456V30.9189H74.605ZM84.9614 18.9805C84.9614 19.7568 84.9102 20.5186 84.8076 21.251H87.6567V17.6768H89.2827V30.9043H87.6567V26.1289H84.3608V24.8252H87.6567V22.5693H84.5293C83.8555 25.0376 82.2808 27.1836 79.0288 28.8535L78.1353 27.6084C80.3325 26.4731 81.7021 25.1548 82.4858 23.5801L78.4282 23.9609L78.1938 22.5693L82.9912 22.2764C83.1743 21.6538 83.2842 20.9946 83.3354 20.2988H78.8823V18.9805H84.9614ZM103.228 25.0596V26.3779H97.9692V30.9043H96.3579V26.3779H91.1577V25.0596H103.228ZM91.7876 22.8916C94.3877 22.562 96.1309 21.1631 96.248 19.7129H92.271V18.4238H102.115V19.7129H98.1377C98.2476 21.1631 99.9761 22.562 102.598 22.8916L102.012 24.166C99.7563 23.8438 97.9985 22.811 97.1929 21.3828C96.3799 22.811 94.6367 23.8438 92.4028 24.166L91.7876 22.8916ZM108.868 21.4414C108.86 23.4849 110.091 25.814 112.178 26.7881L111.27 28.0771C109.776 27.374 108.67 25.9531 108.077 24.2979C107.476 26.1143 106.319 27.667 104.795 28.3994L103.843 27.125C105.953 26.1216 107.234 23.646 107.242 21.4414V20.3281H104.356V18.9805H111.636V20.3281H108.868V21.4414ZM112.867 30.9189V17.6768H114.493V22.833H116.529V24.1953H114.493V30.9189H112.867ZM127.676 18.4824V19.6689C127.669 20.9067 127.669 22.2617 127.325 24.1367H129.156V25.4551H123.897V30.9336H122.256V25.4551H117.085V24.1367H125.669C126.036 22.335 126.05 20.98 126.05 19.8008H118.506V18.4824H127.676ZM142.149 27.9746V29.3076H130.049V27.9746H132.847V24.6274C131.792 24.0195 131.155 23.0674 131.163 21.8955C131.155 19.7861 133.221 18.3945 136.07 18.3945C138.934 18.3945 141.014 19.7861 141.006 21.8955C141.014 23.0527 140.391 23.9829 139.366 24.5908V27.9746H142.149ZM132.759 21.8955C132.752 23.2505 134.092 24.1147 136.07 24.1074C138.04 24.1147 139.41 23.2505 139.41 21.8955C139.41 20.5186 138.04 19.6763 136.07 19.6836C134.092 19.6763 132.752 20.5186 132.759 21.8955ZM134.458 27.9746H137.71V25.2134C137.205 25.3232 136.656 25.3818 136.07 25.3818C135.499 25.3818 134.957 25.3232 134.458 25.2207V27.9746ZM144.625 29.7324C143.995 29.7324 143.475 29.2197 143.482 28.5898C143.475 27.9746 143.995 27.4692 144.625 27.4619C145.232 27.4692 145.752 27.9746 145.752 28.5898C145.752 29.2197 145.232 29.7324 144.625 29.7324ZM18.4795 34.6768V38.4854H20.3252V39.8477H18.4795V44.2275H16.8242V34.6768H18.4795ZM7.99121 41.5615C11.0234 40.6826 12.8179 39.0347 13.0962 37.0205H8.54785V35.6875H14.876C14.8833 39.2031 12.5835 41.7153 8.66504 42.8506L7.99121 41.5615ZM9.96875 47.6553V43.2461H11.624V46.3369H18.9775V47.6553H9.96875ZM31.4434 34.6768V38.3975H33.3037V39.7451H31.4434V44.2568H29.8174V34.6768H31.4434ZM21.5557 42.0156V35.7754H27.4883V37.0791H23.167V40.6826C25.6572 40.6826 27.0415 40.6021 28.6162 40.2725L28.792 41.5908C27.0562 41.9351 25.5181 42.0156 22.625 42.0156H21.5557ZM22.9619 47.6553V43.2461H24.5879V46.3369H31.9707V47.6553H22.9619ZM44.4072 34.6914V38.8516H46.2529V40.1992H44.4072V44.5791H42.7812V34.6914H44.4072ZM33.9775 37.46V36.1562H37.0977V34.6768H38.7236V36.1562H41.8291V37.46H33.9775ZM34.6514 40.5361C34.6514 39.0127 35.9771 38.002 37.9033 38.002C39.8149 38.002 41.1333 39.0127 41.1406 40.5361C41.1333 42.0522 39.8149 43.041 37.9033 43.041C35.9771 43.041 34.6514 42.0522 34.6514 40.5361ZM35.9258 47.6553V43.8027H37.5518V46.3369H44.9346V47.6553H35.9258ZM36.2334 40.5361C36.2261 41.3345 36.8999 41.7886 37.9033 41.7812C38.9067 41.7886 39.5879 41.3345 39.5879 40.5361C39.5879 39.7305 38.9067 39.2617 37.9033 39.2617C36.8999 39.2617 36.2261 39.7305 36.2334 40.5361ZM61.0918 43.9053V47.7578H51.9072V43.9053H61.0918ZM50.4863 43.1289V41.8398H55.7012V41.0708C53.4014 40.9609 52.1123 40.3311 52.1123 39.2031C52.1123 37.958 53.7017 37.3281 56.5068 37.3281C59.3413 37.3281 60.9087 37.958 60.916 39.2031C60.9087 40.3311 59.6416 40.9609 57.3271 41.0708V41.8398H62.5566V43.1289H50.4863ZM51.0869 36.918V35.6875H55.7012V34.5303H57.3271V35.6875H61.8975V36.918H51.0869ZM53.5186 46.5273H59.5098V45.1357H53.5186V46.5273ZM53.8555 39.2031C53.8555 39.7231 54.7563 39.9795 56.5068 39.9795C58.2866 39.9795 59.1655 39.7231 59.1729 39.2031C59.1655 38.6685 58.2866 38.4341 56.5068 38.4268C54.7563 38.4341 53.8555 38.6685 53.8555 39.2031ZM74.2168 41.6201V42.9092H64.9297V35.7168H74.0996V37.0352H66.585V38.6318H73.792V39.9062H66.585V41.6201H74.2168ZM63.4502 46.3076V44.9746H75.5498V46.3076H63.4502ZM86.7852 34.6768V39.7598H88.8213V41.1221H86.7852V47.9336H85.1738V34.6768H86.7852ZM76.9414 37.1523V35.834H83.0352V40.8291H78.582V43.4658C80.6841 43.4512 82.3174 43.3633 84.1631 43.041L84.3096 44.3594C82.2661 44.7256 80.4644 44.8135 78.0547 44.8135H76.9707V39.5254H81.4092V37.1523H76.9414ZM100.13 40.6973V41.9863H96.2041V45.0186H101.478V46.3516H89.3779V45.0186H94.5928V41.9863H90.8428V35.6582H100.027V36.9619H92.4688V40.6973H100.13ZM112.054 35.6875V36.5664C112.046 37.4966 112.046 38.7271 111.746 40.3164L110.237 40.1699C110.479 38.8516 110.516 37.8408 110.523 37.0059H106.429V35.6875H112.054ZM105.755 41.3711C106.333 41.3711 107.022 41.3638 107.762 41.3491V38.7197H109.271V41.3052C110.384 41.2612 111.512 41.188 112.479 41.0635L112.566 42.2354C110.428 42.6309 107.674 42.6895 105.901 42.6895L105.755 41.3711ZM108.011 47.6553V43.6709H109.681V46.3369H117.649V47.6553H108.011ZM113.064 44.3594V34.9258H114.573V38.7051H115.774V34.6914H117.342V44.6963H115.774V40.0381H114.573V44.3594H113.064ZM129.31 34.6768V37.5332H131.155V38.8809H129.31V41.459H127.684V34.6768H129.31ZM118.777 40.4336C120.872 39.9502 122 38.6685 122 37.2549V37.2109H119.231V35.9072H122V34.6328H123.641V35.9072H126.395V37.2109H123.626V37.2549C123.619 38.4854 124.747 39.6426 126.79 40.0967L126.116 41.3418C124.571 40.9976 123.465 40.2358 122.857 39.2324C122.278 40.4116 121.136 41.3125 119.495 41.708L118.777 40.4336ZM120.125 47.6553V42.6016H121.722V46.3003C122.476 46.2637 123.26 46.1611 124.021 45.9121L124.256 47.1865C123.084 47.5747 121.956 47.6626 120.828 47.6553H120.125ZM123.802 43.9639V42.7773H126.351V41.7373H127.947V42.7773H130.467V43.9639H123.802ZM124.607 46.1318C124.593 45.0405 125.64 44.3374 127.127 44.3301C128.599 44.3374 129.654 45.0405 129.661 46.1318C129.654 47.2085 128.599 47.9116 127.127 47.9189C125.64 47.9116 124.593 47.2085 124.607 46.1318ZM126.072 46.1318C126.072 46.5713 126.526 46.813 127.127 46.8057C127.728 46.813 128.182 46.5713 128.182 46.1318C128.182 45.6924 127.728 45.436 127.127 45.4287C126.526 45.436 126.072 45.6924 126.072 46.1318ZM135.389 35.6436C137.381 35.6436 138.816 37.46 138.831 40.3164C138.816 43.1948 137.381 45.0039 135.389 45.0039C133.375 45.0039 131.939 43.1948 131.946 40.3164C131.939 37.46 133.375 35.6436 135.389 35.6436ZM133.514 40.3164C133.506 42.3525 134.275 43.5317 135.389 43.5391C136.509 43.5317 137.256 42.3525 137.264 40.3164C137.256 38.2949 136.509 37.1084 135.389 37.1084C134.275 37.1084 133.506 38.2949 133.514 40.3164ZM140.574 47.9189V34.6768H142.2V39.7598H144.236V41.1367H142.2V47.9189H140.574ZM156.893 44.9746V46.3076H144.793V44.9746H147.591V41.6274C146.536 41.0195 145.899 40.0674 145.906 38.8955C145.899 36.7861 147.964 35.3945 150.813 35.3945C153.677 35.3945 155.757 36.7861 155.75 38.8955C155.757 40.0527 155.135 40.9829 154.109 41.5908V44.9746H156.893ZM147.503 38.8955C147.496 40.2505 148.836 41.1147 150.813 41.1074C152.784 41.1147 154.153 40.2505 154.153 38.8955C154.153 37.5186 152.784 36.6763 150.813 36.6836C148.836 36.6763 147.496 37.5186 147.503 38.8955ZM149.202 44.9746H152.454V42.2134C151.949 42.3232 151.399 42.3818 150.813 42.3818C150.242 42.3818 149.7 42.3232 149.202 42.2207V44.9746ZM159.368 46.7324C158.738 46.7324 158.218 46.2197 158.226 45.5898C158.218 44.9746 158.738 44.4692 159.368 44.4619C159.976 44.4692 160.496 44.9746 160.496 45.5898C160.496 46.2197 159.976 46.7324 159.368 46.7324ZM10.0786 51.6768V56.7158H12.1147V58.0928H10.0786V64.9189H8.45264V51.6768H10.0786ZM0.17627 61.8135V52.7607H1.7876V56.0713H4.90771V52.7607H6.53369V61.8135H0.17627ZM1.7876 60.4805H4.90771V57.3457H1.7876V60.4805ZM24.771 62.0332V63.3809H12.6714V62.0332H17.8862V59.8799H14.1069V55.5439H21.7241V53.9033H14.0776V52.585H23.3354V56.833H15.7329V58.5469H23.6431V59.8799H19.4976V62.0332H24.771ZM34.1899 55.4414C34.1899 57.6094 35.4644 59.8945 37.603 60.7881L36.7095 62.0771C35.1421 61.396 33.9995 60.0117 33.3916 58.3271C32.7837 60.1436 31.6191 61.667 30.0737 62.3994L29.1362 61.125C31.2236 60.1582 32.5273 57.6899 32.5347 55.4414V54.3281H29.6196V52.9805H37.0903V54.3281H34.1899V55.4414ZM38.5698 64.9189V51.6768H40.2104V64.9189H38.5698ZM52.7788 52.3213V53.3467C52.7861 54.3794 52.7861 55.5513 52.4565 57.1113H54.2583V58.4297H42.1587V57.1113H50.8086C51.1235 55.6758 51.1528 54.5918 51.1528 53.625H43.6528V52.3213H52.7788ZM43.6089 64.7578V59.9678H52.7642V64.7578H43.6089ZM45.2056 63.4395H51.1528V61.2422H45.2056V63.4395ZM67.2075 59.3818V60.6709H61.9341V64.9189H60.3228V60.6709H55.1079V59.3818H67.2075ZM56.5728 58.0049V52.2041H58.1841V53.8301H64.1021V52.2041H65.7427V58.0049H56.5728ZM58.1841 56.6865H64.1021V55.1191H58.1841V56.6865ZM79.1899 51.6768V64.9336H77.5786V57.7852H75.0884V56.4668H77.5786V51.6768H79.1899ZM68.687 61.8867V52.8193H74.8833V54.1523H70.3276V56.5254H74.356V57.8145H70.3276V60.5391C72.3418 60.5317 73.8506 60.4585 75.5571 60.1875L75.7183 61.5059C73.792 61.7988 72.0928 61.8721 69.7271 61.8867H68.687ZM89.6196 54.8555C89.605 57.2871 90.8867 59.7188 93.0327 60.6416L92.0659 61.9453C90.5425 61.2422 89.4292 59.8433 88.814 58.1147C88.2061 59.9751 87.0635 61.4985 85.4595 62.2529L84.4634 60.8906C86.668 59.9385 87.957 57.4116 87.9644 54.8555V52.7461H89.6196V54.8555ZM93.9849 64.9336V51.6768H95.6255V64.9336H93.9849ZM102.32 53.9766C102.32 55.6099 103.367 57.2139 105.455 57.9023L104.634 59.1621C103.147 58.6641 102.1 57.6753 101.521 56.4375C100.936 57.7925 99.8369 58.8691 98.2915 59.3965L97.4272 58.1367C99.5586 57.4263 100.679 55.7124 100.679 53.9766V53.8154H97.8813V52.5117H105.074V53.8154H102.32V53.9766ZM99.1997 61.5791V60.2754H108.018V64.9189H106.392V61.5791H99.1997ZM106.392 59.6602V51.6768H108.018V54.9873H109.864V56.3496H108.018V59.6602H106.392ZM116.998 53.7861V55.0898H110.508V53.7861H112.969V52.0576H114.581V53.7861H116.998ZM110.889 58.8691C110.875 57.0674 112.098 55.7856 113.775 55.793C115.459 55.7856 116.661 57.0674 116.661 58.8691C116.661 60.7075 115.459 61.9893 113.775 61.9893C112.098 61.9893 110.875 60.7075 110.889 58.8691ZM112.325 58.8691C112.317 59.9385 112.918 60.605 113.775 60.5977C114.625 60.605 115.225 59.9385 115.225 58.8691C115.225 57.8291 114.625 57.1406 113.775 57.1406C112.918 57.1406 112.317 57.8291 112.325 58.8691ZM117.554 64.3184V51.9551H119.078V57.126H120.367V51.6768H121.919V64.9189H120.367V58.4443H119.078V64.3184H117.554ZM126.68 51.8818V52.9219H132.393V51.8818H134.004V56.291H130.313V57.3018H135.572V58.5908H123.501V57.3018H128.702V56.291H125.069V51.8818H126.68ZM124.922 60.627V59.4258H134.063V62.6338H126.534V63.5566H134.429V64.8018H124.937V61.4912H132.466V60.627H124.922ZM126.68 55.0752H132.393V54.1084H126.68V55.0752ZM147.027 51.6768V56.9648H148.858V58.3125H147.027V64.9189H145.386V51.6768H147.027ZM136.275 61.125C138.135 59.1475 138.75 57.0454 138.882 54.4014H136.802V53.0684H140.435C140.428 56.54 139.937 59.4624 137.549 62.0479L136.275 61.125ZM140.025 62.0039C141.915 59.748 142.449 57.2725 142.552 54.4014H140.875V53.0684H144.097C144.09 56.6279 143.716 60.0264 141.329 62.8975L140.025 62.0039ZM161.529 61.9746V63.3076H149.429V61.9746H152.227V58.6274C151.172 58.0195 150.535 57.0674 150.542 55.8955C150.535 53.7861 152.601 52.3945 155.45 52.3945C158.313 52.3945 160.394 53.7861 160.386 55.8955C160.394 57.0527 159.771 57.9829 158.746 58.5908V61.9746H161.529ZM152.139 55.8955C152.132 57.2505 153.472 58.1147 155.45 58.1074C157.42 58.1147 158.79 57.2505 158.79 55.8955C158.79 54.5186 157.42 53.6763 155.45 53.6836C153.472 53.6763 152.132 54.5186 152.139 55.8955ZM153.838 61.9746H157.09V59.2134C156.585 59.3232 156.036 59.3818 155.45 59.3818C154.878 59.3818 154.336 59.3232 153.838 59.2207V61.9746ZM164.634 60.3633C164.649 58.4956 165.176 57.9243 166.099 57.3604C166.722 56.9575 167.205 56.4668 167.198 55.7344C167.205 54.9141 166.561 54.3867 165.762 54.3867C165.037 54.3867 164.334 54.8555 164.283 55.8369H162.452C162.503 53.8667 163.968 52.8633 165.777 52.8633C167.754 52.8633 169.109 53.9619 169.117 55.7051C169.109 56.8989 168.516 57.6753 167.564 58.2393C166.714 58.7593 166.363 59.2646 166.348 60.3633V60.4951H164.634V60.3633ZM164.4 62.5898C164.393 61.9746 164.913 61.4692 165.542 61.4619C166.15 61.4692 166.67 61.9746 166.67 62.5898C166.67 63.2197 166.15 63.7324 165.542 63.7324C164.913 63.7324 164.393 63.2197 164.4 62.5898Z" fill="#A9B3B9"/>
</svg>
