<svg width="226" height="48" viewBox="0 0 226 48" fill="none" xmlns="http://www.w3.org/2000/svg">
<path d="M42.1382 1.64355C44.1304 1.64355 45.5659 3.45996 45.5806 6.31641C45.5659 9.19482 44.1304 11.0039 42.1382 11.0039C40.124 11.0039 38.6885 9.19482 38.6958 6.31641C38.6885 3.45996 40.124 1.64355 42.1382 1.64355ZM40.2632 6.31641C40.2559 8.35254 41.0249 9.53174 42.1382 9.53906C43.2588 9.53174 44.0059 8.35254 44.0132 6.31641C44.0059 4.29492 43.2588 3.1084 42.1382 3.1084C41.0249 3.1084 40.2559 4.29492 40.2632 6.31641ZM47.3237 13.9189V0.676758H48.9497V5.75977H50.9858V7.13672H48.9497V13.9189H47.3237ZM63.6128 8.05957V9.37793H58.354V13.9043H56.7427V9.37793H51.5425V8.05957H63.6128ZM52.1724 5.8916C54.7725 5.56201 56.5156 4.16309 56.6328 2.71289H52.6558V1.42383H62.4995V2.71289H58.5225C58.6323 4.16309 60.3608 5.56201 62.9829 5.8916L62.397 7.16602C60.1411 6.84375 58.3833 5.81104 57.5776 4.38281C56.7646 5.81104 55.0215 6.84375 52.7876 7.16602L52.1724 5.8916ZM72.7974 2.93262C72.79 4.55127 73.8447 6.11865 75.9468 6.77051L75.1265 8.07422C73.6396 7.59082 72.5776 6.6167 71.9917 5.40088C71.3984 6.75586 70.2998 7.83984 68.7397 8.36719L67.8901 7.06348C70.0435 6.375 71.1421 4.69043 71.1567 2.94727V2.81543H68.3442V1.51172H75.5366V2.81543H72.7974V2.93262ZM69.9556 13.7578V8.93848H78.5103V13.7578H69.9556ZM71.5669 12.4395H76.8989V10.2275H71.5669V12.4395ZM76.8843 8.39648V0.676758H78.5103V3.78223H80.356V5.11523H78.5103V8.39648H76.8843ZM84.9702 1.76074C84.9556 4.57324 84.2305 6.70459 82.0112 8.49902L80.9272 7.47363C82.502 6.24316 83.2271 4.97607 83.4102 3.09375H81.4106V1.76074H84.9702ZM82.8901 13.6553V9.53906H84.5015V12.3369H91.9575V13.6553H82.8901ZM84.6187 8.03027C86.3032 6.646 86.9844 5.14453 87.1528 3.09375H85.439V1.76074H88.7056C88.6982 4.69775 88.0684 7.0708 85.688 9.04102L84.6187 8.03027ZM89.8481 10.3447V0.676758H91.4741V4.73438H93.3198V6.11133H91.4741V10.3447H89.8481ZM105.009 0.676758V13.9336H103.369V0.676758H105.009ZM94.4185 6.31641C94.4111 3.45996 95.8687 1.64355 97.8755 1.64355C99.8604 1.64355 101.325 3.45996 101.333 6.31641C101.325 9.19482 99.8604 11.0039 97.8755 11.0039C95.8687 11.0039 94.4111 9.19482 94.4185 6.31641ZM95.9858 6.31641C95.9858 8.35254 96.7549 9.53174 97.8755 9.53906C98.9888 9.53174 99.7505 8.35254 99.7505 6.31641C99.7505 4.29492 98.9888 3.1084 97.8755 3.1084C96.7549 3.1084 95.9858 4.29492 95.9858 6.31641ZM110.576 1.64355C112.363 1.64355 113.688 3.1377 113.923 5.55469H116.45V0.676758H118.061V13.9336H116.45V6.87305H113.938C113.762 9.4292 112.414 11.0039 110.576 11.0039C108.583 11.0039 107.17 9.19482 107.177 6.31641C107.17 3.45996 108.583 1.64355 110.576 1.64355ZM108.745 6.31641C108.737 8.35254 109.484 9.53174 110.576 9.53906C111.674 9.53174 112.414 8.35254 112.421 6.31641C112.414 4.29492 111.674 3.1084 110.576 3.1084C109.484 3.1084 108.737 4.29492 108.745 6.31641ZM130.673 6.69727V7.98633H126.748V11.0186H132.021V12.3516H119.921V11.0186H125.136V7.98633H121.386V1.6582H130.571V2.96191H123.012V6.69727H130.673ZM142.597 1.6875V2.56641C142.59 3.49658 142.59 4.72705 142.29 6.31641L140.781 6.16992C141.022 4.85156 141.059 3.84082 141.066 3.00586H136.972V1.6875H142.597ZM136.298 7.37109C136.877 7.37109 137.565 7.36377 138.305 7.34912V4.71973H139.814V7.30518C140.927 7.26123 142.055 7.18799 143.022 7.06348L143.11 8.23535C140.971 8.63086 138.217 8.68945 136.445 8.68945L136.298 7.37109ZM138.554 13.6553V9.6709H140.224V12.3369H148.193V13.6553H138.554ZM143.608 10.3594V0.925781H145.117V4.70508H146.318V0.691406H147.885V10.6963H146.318V6.03809H145.117V10.3594H143.608ZM159.853 0.676758V3.5332H161.699V4.88086H159.853V7.45898H158.227V0.676758H159.853ZM149.321 6.43359C151.416 5.9502 152.543 4.66846 152.543 3.25488V3.21094H149.775V1.90723H152.543V0.632812H154.184V1.90723H156.938V3.21094H154.169V3.25488C154.162 4.48535 155.29 5.64258 157.333 6.09668L156.66 7.3418C155.114 6.99756 154.008 6.23584 153.4 5.23242C152.822 6.41162 151.679 7.3125 150.039 7.70801L149.321 6.43359ZM150.668 13.6553V8.60156H152.265V12.3003C153.02 12.2637 153.803 12.1611 154.565 11.9121L154.799 13.1865C153.627 13.5747 152.5 13.6626 151.372 13.6553H150.668ZM154.345 9.96387V8.77734H156.894V7.7373H158.491V8.77734H161.01V9.96387H154.345ZM155.151 12.1318C155.136 11.0405 156.184 10.3374 157.67 10.3301C159.143 10.3374 160.197 11.0405 160.205 12.1318C160.197 13.2085 159.143 13.9116 157.67 13.9189C156.184 13.9116 155.136 13.2085 155.151 12.1318ZM156.616 12.1318C156.616 12.5713 157.07 12.813 157.67 12.8057C158.271 12.813 158.725 12.5713 158.725 12.1318C158.725 11.6924 158.271 11.436 157.67 11.4287C157.07 11.436 156.616 11.6924 156.616 12.1318ZM165.932 1.64355C167.924 1.64355 169.36 3.45996 169.375 6.31641C169.36 9.19482 167.924 11.0039 165.932 11.0039C163.918 11.0039 162.482 9.19482 162.49 6.31641C162.482 3.45996 163.918 1.64355 165.932 1.64355ZM164.057 6.31641C164.05 8.35254 164.819 9.53174 165.932 9.53906C167.053 9.53174 167.8 8.35254 167.807 6.31641C167.8 4.29492 167.053 3.1084 165.932 3.1084C164.819 3.1084 164.05 4.29492 164.057 6.31641ZM171.118 13.9189V0.676758H172.744V5.75977H174.78V7.13672H172.744V13.9189H171.118ZM187.436 10.9746V12.3076H175.336V10.9746H178.134V7.62744C177.08 7.01953 176.442 6.06738 176.45 4.89551C176.442 2.78613 178.508 1.39453 181.357 1.39453C184.221 1.39453 186.301 2.78613 186.293 4.89551C186.301 6.05273 185.678 6.98291 184.653 7.59082V10.9746H187.436ZM178.046 4.89551C178.039 6.25049 179.379 7.11475 181.357 7.10742C183.327 7.11475 184.697 6.25049 184.697 4.89551C184.697 3.51855 183.327 2.67627 181.357 2.68359C179.379 2.67627 178.039 3.51855 178.046 4.89551ZM179.746 10.9746H182.998V8.21338C182.492 8.32324 181.943 8.38184 181.357 8.38184C180.786 8.38184 180.244 8.32324 179.746 8.2207V10.9746ZM5.59033 20.2109C5.58301 21.4854 6.71094 22.6938 8.75439 23.1406L8.06592 24.3711C6.51318 24.0269 5.3999 23.2285 4.80664 22.1885C4.20605 23.353 3.06348 24.2466 1.44482 24.6348L0.741699 23.375C2.81445 22.877 3.96436 21.6025 3.96436 20.2109V20.1963H1.1958V18.9072H3.96436V17.6328H5.60498V18.9072H8.35889V20.1963H5.59033V20.2109ZM2.6167 26.4219V25.1768H11.2739V28.5459H4.24268V29.542H11.6841V30.8018H2.63135V27.3594H9.64795V26.4219H2.6167ZM9.64795 24.5908V17.6768H11.2739V20.4453H13.1196V21.7783H11.2739V24.5908H9.64795ZM26.1274 22.7891V24.1221H24.1646V30.8896H22.5386V17.6768H24.1646V22.7891H26.1274ZM14.2622 27.623V18.9658H15.8735V26.2754C17.6387 26.2461 19.5137 26.0923 21.5132 25.6748L21.689 27.0518C19.4551 27.4985 17.3384 27.6157 15.3755 27.623H14.2622ZM31.0493 18.5996C33.1514 18.5923 34.6821 19.918 34.6968 21.793C34.6821 23.6753 33.1514 24.9937 31.0493 25.001C28.9692 24.9937 27.4092 23.6753 27.4165 21.793C27.4092 19.918 28.9692 18.5923 31.0493 18.5996ZM26.8159 26.832C29.2036 26.832 32.5068 26.8027 35.3706 26.3926L35.5024 27.5791C32.5361 28.1431 29.3574 28.165 27.021 28.165L26.8159 26.832ZM29.0278 21.793C29.0205 22.8989 29.8921 23.5801 31.0493 23.5801C32.2212 23.5801 33.0928 22.8989 33.1001 21.793C33.0928 20.6943 32.2285 20.0059 31.0493 20.0059C29.8921 20.0059 29.0205 20.6943 29.0278 21.793ZM36.1616 30.9336V17.6768H37.7876V30.9336H36.1616ZM46.8989 18.6436C48.0928 18.6436 49.0815 19.3101 49.6748 20.4746H52.7729V17.6768H54.3843V30.9336H52.7729V25.9238H49.792C49.2134 27.2422 48.1733 28.0039 46.8989 28.0039C44.9067 28.0039 43.4932 26.1948 43.5005 23.3164C43.4932 20.46 44.9067 18.6436 46.8989 18.6436ZM45.0679 23.3164C45.0605 25.3525 45.8076 26.5317 46.8989 26.5391C47.9976 26.5317 48.7373 25.3525 48.7446 23.3164C48.7373 21.2949 47.9976 20.1084 46.8989 20.1084C45.8076 20.1084 45.0605 21.2949 45.0679 23.3164ZM50.1362 21.8076C50.2314 22.269 50.2827 22.7744 50.2827 23.3164C50.2827 23.7705 50.2461 24.2026 50.1729 24.6055H52.7729V21.8076H50.1362ZM68.3296 25.1035V26.4219H65.3853V30.9189H63.73V26.4219H60.8003V30.9189H59.1304V26.4219H56.23V25.1035H68.3296ZM57.5044 21.1045C57.4971 19.3027 59.4307 18.1528 62.2505 18.1455C65.0703 18.1528 67.0186 19.3027 67.0259 21.1045C67.0186 22.8843 65.0703 24.0049 62.2505 24.0049C59.4307 24.0049 57.4971 22.8843 57.5044 21.1045ZM59.1743 21.1045C59.167 22.1152 60.3828 22.7085 62.2505 22.7158C64.1255 22.7085 65.3413 22.1152 65.3413 21.1045C65.3413 20.0645 64.1255 19.4639 62.2505 19.4639C60.3828 19.4639 59.167 20.0645 59.1743 21.1045ZM73.1636 18.4971C75.1997 18.4971 76.7524 19.8081 76.7671 21.6904C76.7524 23.3091 75.6099 24.5029 73.9985 24.8032V26.7588C75.1045 26.7002 76.2031 26.6196 77.2358 26.4805L77.353 27.6963C74.5771 28.1943 71.5522 28.209 69.2817 28.1797L69.0474 26.8467C70.0435 26.8467 71.186 26.8394 72.3726 26.8101V24.8179C70.71 24.5249 69.5601 23.3237 69.5747 21.6904C69.5601 19.8081 71.0835 18.4971 73.1636 18.4971ZM71.1567 21.6904C71.1494 22.7964 72.0063 23.5068 73.1636 23.4922C74.2988 23.5068 75.1484 22.7964 75.1558 21.6904C75.1484 20.5771 74.2988 19.8887 73.1636 19.874C72.0063 19.8887 71.1494 20.5771 71.1567 21.6904ZM77.9976 30.9189V17.6768H79.6235V22.9648H81.5425V24.3418H79.6235V30.9189H77.9976ZM97.1431 19.0537V20.3428H86.3325V19.0537H90.9468V17.6475H92.5581V19.0537H97.1431ZM85.7319 27.4619V26.1436H97.8315V27.4619H94.9019V30.9336H93.2612V27.4619H90.2876V30.9336H88.6616V27.4619H85.7319ZM87.27 23.1846C87.27 21.7417 88.9546 20.9507 91.7524 20.9434C94.5503 20.9507 96.2349 21.7417 96.2349 23.1846C96.2349 24.6201 94.5503 25.4258 91.7524 25.4258C88.9546 25.4258 87.27 24.6201 87.27 23.1846ZM88.9692 23.1846C88.9619 23.8438 89.9214 24.188 91.7524 24.1807C93.5762 24.188 94.543 23.8438 94.5503 23.1846C94.543 22.5107 93.5762 22.1812 91.7524 22.1738C89.9214 22.1812 88.9619 22.5107 88.9692 23.1846ZM103.632 19.5664C103.625 21.3096 104.724 22.9502 106.826 23.6094L106.02 24.8984C104.497 24.3931 103.405 23.3823 102.805 22.0859C102.211 23.4775 101.098 24.5835 99.5308 25.1182L98.7104 23.8438C100.849 23.1187 101.955 21.3608 101.948 19.5664V18.3066H103.632V19.5664ZM100.688 27.5059V26.2021H109.726V30.9189H108.085V27.5059H100.688ZM108.085 25.6016V17.6768H109.726V25.6016H108.085ZM122.675 17.6768V30.9336H121.035V17.6768H122.675ZM112.084 23.3164C112.077 20.46 113.535 18.6436 115.542 18.6436C117.526 18.6436 118.991 20.46 118.999 23.3164C118.991 26.1948 117.526 28.0039 115.542 28.0039C113.535 28.0039 112.077 26.1948 112.084 23.3164ZM113.652 23.3164C113.652 25.3525 114.421 26.5317 115.542 26.5391C116.655 26.5317 117.417 25.3525 117.417 23.3164C117.417 21.2949 116.655 20.1084 115.542 20.1084C114.421 20.1084 113.652 21.2949 113.652 23.3164ZM138.642 17.6768V20.9287H140.473V22.2617H138.642V25.4111H137.001V17.6768H138.642ZM128.696 24.5762V18.6143H134.628V19.9326H130.307V23.2578C132.841 23.2505 134.255 23.1699 135.815 22.8477L135.976 24.1514C134.262 24.5176 132.702 24.5762 129.765 24.5762H128.696ZM129.838 28.2676C129.838 26.627 131.582 25.6602 134.321 25.6602C137.038 25.6602 138.752 26.627 138.759 28.2676C138.752 29.9375 137.038 30.9043 134.321 30.9043C131.582 30.9043 129.838 29.9375 129.838 28.2676ZM131.45 28.2676C131.442 29.1245 132.504 29.6006 134.321 29.6006C136.101 29.6006 137.17 29.1245 137.177 28.2676C137.17 27.4253 136.101 26.9565 134.321 26.9639C132.504 26.9565 131.442 27.4253 131.45 28.2676ZM152.177 17.6914V27.3594H150.537V17.6914H152.177ZM141.162 24.2393C143.308 23.4849 144.406 21.6172 144.399 19.7129V18.4238H146.083V19.7129C146.076 21.5586 147.16 23.3018 149.262 24.0049L148.427 25.2939C146.918 24.7666 145.842 23.7119 145.256 22.3569C144.67 23.8071 143.571 24.9644 142.011 25.5283L141.162 24.2393ZM143.417 30.6553V26.4365H145.058V29.3369H152.543V30.6553H143.417ZM165.537 17.6768V30.9189H163.969V17.6768H165.537ZM154.243 23.4043C154.243 20.4893 155.371 18.6802 157.099 18.6875C158.703 18.6802 159.794 20.1816 159.985 22.6572H161.259V17.9111H162.812V30.2744H161.259V23.9756H160C159.846 26.561 158.74 28.1431 157.099 28.1357C155.371 28.1431 154.243 26.3267 154.243 23.4043ZM155.751 23.4043C155.744 25.4771 156.257 26.5903 157.099 26.583C157.978 26.5903 158.498 25.4771 158.505 23.4043C158.498 21.3389 157.978 20.2183 157.099 20.2256C156.257 20.2183 155.744 21.3389 155.751 23.4043ZM178.5 17.6768V30.9189H176.948V17.6768H178.5ZM166.972 26.9639C169.711 25.3452 170.971 23.2725 171.22 20.6064H167.646V19.2881H172.832C172.832 20.5698 172.67 21.771 172.312 22.8916H174.15V17.999H175.688V30.2891H174.15V24.1953H171.777C171.008 25.7114 169.763 27.0371 167.895 28.1211L166.972 26.9639ZM187.158 18.6436C189.15 18.6436 190.585 20.46 190.6 23.3164C190.585 26.1948 189.15 28.0039 187.158 28.0039C185.144 28.0039 183.708 26.1948 183.715 23.3164C183.708 20.46 185.144 18.6436 187.158 18.6436ZM185.283 23.3164C185.275 25.3525 186.044 26.5317 187.158 26.5391C188.278 26.5317 189.025 25.3525 189.033 23.3164C189.025 21.2949 188.278 20.1084 187.158 20.1084C186.044 20.1084 185.275 21.2949 185.283 23.3164ZM192.343 30.9189V17.6768H193.969V22.7598H196.005V24.1367H193.969V30.9189H192.343ZM208.632 25.0596V26.3779H203.374V30.9043H201.762V26.3779H196.562V25.0596H208.632ZM197.192 22.8916C199.792 22.562 201.535 21.1631 201.652 19.7129H197.675V18.4238H207.519V19.7129H203.542C203.652 21.1631 205.38 22.562 208.002 22.8916L207.417 24.166C205.161 23.8438 203.403 22.811 202.597 21.3828C201.784 22.811 200.041 23.8438 197.807 24.166L197.192 22.8916ZM223.706 18.3213V19.5078C223.713 20.7969 223.713 22.1738 223.354 24.0635H225.156V25.3818H213.085V24.0635H221.706C221.845 23.3823 221.926 22.7671 221.984 22.1958L214.433 22.5107L214.243 21.1777L222.058 20.9873C222.08 20.5112 222.08 20.0571 222.08 19.625H214.58V18.3213H223.706ZM214.536 30.6553V26.4658H216.162V29.3369H223.94V30.6553H214.536ZM28.1562 35.2627C30.1704 35.2554 31.6279 36.3833 31.6279 38.0459C31.6279 39.6792 30.1704 40.8218 28.1562 40.8145C26.1641 40.8218 24.7139 39.6792 24.7139 38.0459C24.7139 36.3833 26.1641 35.2554 28.1562 35.2627ZM23.8496 41.7227C26.2373 41.7227 29.5845 41.6787 32.4336 41.2539L32.5508 42.4551C31.4082 42.6748 30.2217 42.814 29.0645 42.9019V47.5088H27.4238V42.9971C26.2007 43.0483 25.0508 43.063 24.0547 43.0703L23.8496 41.7227ZM26.2959 38.0459C26.2886 38.9321 27.0723 39.4888 28.1562 39.4814C29.2842 39.4888 30.0752 38.9321 30.0752 38.0459C30.0752 37.1304 29.2842 36.5664 28.1562 36.5811C27.0723 36.5664 26.2886 37.1304 26.2959 38.0459ZM33.2979 47.9043V34.6914H34.9092V47.9043H33.2979ZM48.8984 45.0332V46.3809H36.7988V45.0332H42.0137V42.8799H38.2344V38.5439H45.8516V36.9033H38.2051V35.585H47.4629V39.833H39.8604V41.5469H47.7705V42.8799H43.625V45.0332H48.8984ZM53.7178 35.4971C55.7539 35.4971 57.3066 36.8081 57.3213 38.6904C57.3066 40.3091 56.1641 41.5029 54.5527 41.8032V43.7588C55.6587 43.7002 56.7573 43.6196 57.79 43.4805L57.9072 44.6963C55.1313 45.1943 52.1064 45.209 49.8359 45.1797L49.6016 43.8467C50.5977 43.8467 51.7402 43.8394 52.9268 43.8101V41.8179C51.2642 41.5249 50.1143 40.3237 50.1289 38.6904C50.1143 36.8081 51.6377 35.4971 53.7178 35.4971ZM51.7109 38.6904C51.7036 39.7964 52.5605 40.5068 53.7178 40.4922C54.853 40.5068 55.7026 39.7964 55.71 38.6904C55.7026 37.5771 54.853 36.8887 53.7178 36.874C52.5605 36.8887 51.7036 37.5771 51.7109 38.6904ZM58.5518 47.9189V34.6768H60.1777V39.9648H62.0967V41.3418H60.1777V47.9189H58.5518ZM77.3164 34.6768V47.9189H75.6904V34.6768H77.3164ZM66.3447 44.2422C67.3994 44.2349 68.5933 44.2349 69.8457 44.1982V42.9824C68.3589 42.748 67.3848 41.8398 67.3848 40.5801C67.3848 39.0859 68.7104 38.0972 70.6367 38.0898C72.585 38.0972 73.9326 39.0859 73.9326 40.5801C73.9326 41.8325 72.9585 42.7334 71.4717 42.9751V44.1396C72.6362 44.0884 73.8081 43.9932 74.9141 43.8467L75.0312 45.0625C72.1235 45.5532 68.9595 45.5898 66.5791 45.5898L66.3447 44.2422ZM66.623 37.4893V36.2002H69.8457V34.7207H71.4717V36.2002H74.6797V37.4893H66.623ZM68.9375 40.5801C68.9229 41.3418 69.6333 41.7886 70.6367 41.7812C71.6694 41.7886 72.3726 41.3418 72.3652 40.5801C72.3726 39.811 71.6694 39.3423 70.6367 39.335C69.6333 39.3423 68.9229 39.811 68.9375 40.5801ZM91.3203 41.3418V42.6455H79.25V41.3418H84.4502V40.0674H80.8174V34.999H82.4287V36.3174H88.1416V34.999H89.7529V40.0674H86.0908V41.3418H91.3203ZM80.583 44.9893V43.7002H89.8408V47.9189H88.2148V44.9893H80.583ZM82.4287 38.7637H88.1416V37.5332H82.4287V38.7637ZM98.2344 34.8818C101.252 34.8892 103.002 35.6875 103.01 37.1523C103.002 38.6318 101.252 39.4302 98.2344 39.4375C95.2241 39.4302 93.459 38.6318 93.459 37.1523C93.459 35.6875 95.2241 34.8892 98.2344 34.8818ZM92.2139 41.4443V40.1406H104.284V41.4443H92.2139ZM93.6348 43.5391V42.3379H102.775V45.5752H95.2461V46.5566H103.142V47.8018H93.6494V44.418H101.179V43.5391H93.6348ZM95.1729 37.1523C95.1655 37.8848 96.2202 38.2217 98.2344 38.2217C100.278 38.2217 101.325 37.8848 101.325 37.1523C101.325 36.4712 100.278 36.083 98.2344 36.083C96.2202 36.083 95.1655 36.4712 95.1729 37.1523ZM119.108 34.6768V39.8477H121.071V41.21H119.108V47.8896H117.482V34.6768H119.108ZM108.664 44.2715C111.887 42.6602 113.63 40.4189 113.952 37.4014H109.382V36.0537H115.607C115.6 39.9429 113.989 43.3633 109.587 45.5312L108.664 44.2715ZM132.805 34.6768V47.9189H131.179V42.4844H128.82V41.1367H131.179V39.6865H128.82V38.3535H131.179V34.6768H132.805ZM121.555 44.1982C123.657 43.1729 124.895 40.6094 124.909 38.1924V37.3135H122.067V35.9805H129.362V37.3135H126.564V38.1924C126.564 40.2725 127.824 42.8213 129.89 43.8613L128.923 45.1064C127.473 44.3667 126.374 42.8506 125.781 41.1221C125.217 43.019 124.111 44.6304 122.624 45.4434L121.555 44.1982ZM145.036 34.6768V39.7012H147.072V41.0342H145.036V47.9336H143.41V34.6768H145.036ZM135.207 44.6963V35.9365H141.403V37.2549H136.833V43.334C138.891 43.3267 140.524 43.2241 142.341 42.9092L142.531 44.2861C140.473 44.6377 138.693 44.6963 136.306 44.6963H135.207ZM163.259 40.0381V41.3271H158.015V42.3379H161.75V45.5898H154.221V46.5566H162.116V47.8018H152.624V44.4473H160.153V43.5537H152.609V42.3379H156.403V41.3271H151.188V40.0381H163.259ZM151.774 38.3389C154.213 38.1631 155.81 37.3281 156.176 36.3467H152.287V35.0869H162.175V36.3467H158.249C158.608 37.3208 160.219 38.1631 162.688 38.3389L162.175 39.5693C159.802 39.3789 158.007 38.5806 157.209 37.4014C156.411 38.5806 154.638 39.3789 152.287 39.5693L151.774 38.3389ZM175.241 34.6768V47.9189H173.615V41.1807H170.817V39.8477H173.615V34.6768H175.241ZM164.064 44.2568C167.492 42.5723 168.964 40.3384 169.235 37.3721H164.68V36.083H170.876C170.861 39.9941 169.477 43.2827 164.914 45.5312L164.064 44.2568ZM188.542 34.6768V47.9189H186.975V34.6768H188.542ZM177.248 40.4043C177.248 37.4893 178.376 35.6802 180.104 35.6875C181.708 35.6802 182.8 37.1816 182.99 39.6572H184.265V34.9111H185.817V47.2744H184.265V40.9756H183.005C182.851 43.561 181.745 45.1431 180.104 45.1357C178.376 45.1431 177.248 43.3267 177.248 40.4043ZM178.757 40.4043C178.75 42.4771 179.262 43.5903 180.104 43.583C180.983 43.5903 181.503 42.4771 181.511 40.4043C181.503 38.3389 180.983 37.2183 180.104 37.2256C179.262 37.2183 178.75 38.3389 178.757 40.4043ZM202.18 44.9746V46.3076H190.08V44.9746H192.878V41.6274C191.823 41.0195 191.186 40.0674 191.193 38.8955C191.186 36.7861 193.251 35.3945 196.101 35.3945C198.964 35.3945 201.044 36.7861 201.037 38.8955C201.044 40.0527 200.422 40.9829 199.396 41.5908V44.9746H202.18ZM192.79 38.8955C192.783 40.2505 194.123 41.1147 196.101 41.1074C198.071 41.1147 199.44 40.2505 199.44 38.8955C199.44 37.5186 198.071 36.6763 196.101 36.6836C194.123 36.6763 192.783 37.5186 192.79 38.8955ZM194.489 44.9746H197.741V42.2134C197.236 42.3232 196.687 42.3818 196.101 42.3818C195.529 42.3818 194.987 42.3232 194.489 42.2207V44.9746Z" fill="#A9B3B9"/>
</svg>
