<svg width="240" height="59" viewBox="0 0 240 59" fill="none" xmlns="http://www.w3.org/2000/svg">
<path d="M14.2892 24.1274C11.8692 24.1274 9.79024 23.6434 8.05224 22.6754C6.33624 21.6854 5.01624 20.2994 4.09224 18.5174C3.16824 16.7134 2.70624 14.5904 2.70624 12.1484C2.70624 9.70636 3.16824 7.59436 4.09224 5.81236C5.01624 4.03036 6.33624 2.65536 8.05224 1.68736C9.79024 0.697362 11.8692 0.202362 14.2892 0.202362C15.8512 0.202362 17.3252 0.444362 18.7112 0.928363C20.1192 1.41236 21.2742 2.10536 22.1762 3.00736L20.7902 6.37336C19.8002 5.53736 18.7882 4.93236 17.7542 4.55836C16.7202 4.16236 15.6092 3.96436 14.4212 3.96436C12.0672 3.96436 10.2742 4.67936 9.04224 6.10936C7.81024 7.51736 7.19424 9.53036 7.19424 12.1484C7.19424 14.7664 7.81024 16.7904 9.04224 18.2204C10.2742 19.6504 12.0672 20.3654 14.4212 20.3654C15.6092 20.3654 16.7202 20.1784 17.7542 19.8044C18.7882 19.4084 19.8002 18.7924 20.7902 17.9564L22.1762 21.3224C21.2742 22.2024 20.1192 22.8954 18.7112 23.4014C17.3252 23.8854 15.8512 24.1274 14.2892 24.1274ZM25.1467 23.7974V0.532362H29.2717V10.8944H28.8097C29.2937 9.72836 30.0417 8.84836 31.0537 8.25436C32.0877 7.63836 33.2537 7.33036 34.5517 7.33036C35.8497 7.33036 36.9167 7.57236 37.7527 8.05636C38.5887 8.54036 39.2157 9.27736 39.6337 10.2674C40.0517 11.2354 40.2607 12.4674 40.2607 13.9634V23.7974H36.1357V14.1614C36.1357 13.3254 36.0257 12.6434 35.8057 12.1154C35.6077 11.5874 35.2887 11.2024 34.8487 10.9604C34.4307 10.6964 33.8917 10.5644 33.2317 10.5644C32.4397 10.5644 31.7467 10.7404 31.1527 11.0924C30.5587 11.4224 30.0967 11.9064 29.7667 12.5444C29.4367 13.1604 29.2717 13.8864 29.2717 14.7224V23.7974H25.1467ZM49.4434 24.1274C48.2774 24.1274 47.2324 23.9074 46.3084 23.4674C45.4064 23.0054 44.6914 22.3894 44.1634 21.6194C43.6574 20.8494 43.4044 19.9804 43.4044 19.0124C43.4044 17.8244 43.7124 16.8894 44.3284 16.2074C44.9444 15.5034 45.9454 14.9974 47.3314 14.6894C48.7174 14.3814 50.5764 14.2274 52.9084 14.2274H54.5584V16.6034H52.9414C51.9074 16.6034 51.0384 16.6474 50.3344 16.7354C49.6304 16.8014 49.0584 16.9224 48.6184 17.0984C48.2004 17.2524 47.8924 17.4724 47.6944 17.7584C47.5184 18.0444 47.4304 18.3964 47.4304 18.8144C47.4304 19.5404 47.6834 20.1344 48.1894 20.5964C48.6954 21.0584 49.3994 21.2894 50.3014 21.2894C51.0274 21.2894 51.6654 21.1244 52.2154 20.7944C52.7874 20.4424 53.2384 19.9694 53.5684 19.3754C53.8984 18.7814 54.0634 18.0994 54.0634 17.3294V13.5344C54.0634 12.4344 53.8214 11.6424 53.3374 11.1584C52.8534 10.6744 52.0394 10.4324 50.8954 10.4324C49.9934 10.4324 49.0694 10.5754 48.1234 10.8614C47.1774 11.1254 46.2204 11.5434 45.2524 12.1154L44.0644 9.31036C44.6364 8.91436 45.3074 8.57336 46.0774 8.28736C46.8694 7.97936 47.6944 7.74836 48.5524 7.59436C49.4324 7.41836 50.2574 7.33036 51.0274 7.33036C52.6114 7.33036 53.9094 7.57236 54.9214 8.05636C55.9554 8.54036 56.7254 9.27736 57.2314 10.2674C57.7374 11.2354 57.9904 12.4894 57.9904 14.0294V23.7974H54.1294V20.3654H54.3934C54.2394 21.1354 53.9314 21.8064 53.4694 22.3784C53.0294 22.9284 52.4684 23.3574 51.7864 23.6654C51.1044 23.9734 50.3234 24.1274 49.4434 24.1274ZM67.4673 24.1274C65.5533 24.1274 64.1343 23.6104 63.2103 22.5764C62.3083 21.5204 61.8573 19.9804 61.8573 17.9564V0.532362H65.9823V17.7584C65.9823 18.3964 66.0703 18.9464 66.2463 19.4084C66.4443 19.8484 66.7303 20.1784 67.1043 20.3984C67.4783 20.6184 67.9403 20.7284 68.4903 20.7284C68.7323 20.7284 68.9743 20.7174 69.2163 20.6954C69.4583 20.6734 69.6893 20.6294 69.9093 20.5634L69.8433 23.8304C69.4473 23.9184 69.0513 23.9844 68.6553 24.0284C68.2813 24.0944 67.8853 24.1274 67.4673 24.1274ZM77.6854 24.1274C75.7714 24.1274 74.3524 23.6104 73.4284 22.5764C72.5264 21.5204 72.0754 19.9804 72.0754 17.9564V0.532362H76.2004V17.7584C76.2004 18.3964 76.2884 18.9464 76.4644 19.4084C76.6624 19.8484 76.9484 20.1784 77.3224 20.3984C77.6964 20.6184 78.1584 20.7284 78.7084 20.7284C78.9504 20.7284 79.1924 20.7174 79.4344 20.6954C79.6764 20.6734 79.9074 20.6294 80.1274 20.5634L80.0614 23.8304C79.6654 23.9184 79.2694 23.9844 78.8734 24.0284C78.4994 24.0944 78.1034 24.1274 77.6854 24.1274ZM90.0853 24.1274C88.2593 24.1274 86.6863 23.7864 85.3663 23.1044C84.0463 22.4224 83.0233 21.4544 82.2973 20.2004C81.5933 18.9464 81.2413 17.4614 81.2413 15.7454C81.2413 14.0734 81.5823 12.6104 82.2643 11.3564C82.9683 10.1024 83.9253 9.12336 85.1353 8.41936C86.3673 7.69336 87.7643 7.33036 89.3263 7.33036C90.8663 7.33036 92.1863 7.66036 93.2863 8.32036C94.3863 8.98036 95.2333 9.91536 95.8273 11.1254C96.4433 12.3354 96.7513 13.7764 96.7513 15.4484V16.6694H84.5743V14.2934H93.8473L93.3193 14.7884C93.3193 13.2924 92.9893 12.1484 92.3293 11.3564C91.6693 10.5424 90.7233 10.1354 89.4913 10.1354C88.5673 10.1354 87.7753 10.3554 87.1153 10.7954C86.4773 11.2134 85.9823 11.8184 85.6303 12.6104C85.3003 13.3804 85.1353 14.3044 85.1353 15.3824V15.6134C85.1353 16.8234 85.3223 17.8244 85.6963 18.6164C86.0703 19.4084 86.6313 20.0024 87.3793 20.3984C88.1273 20.7944 89.0513 20.9924 90.1513 20.9924C91.0533 20.9924 91.9553 20.8604 92.8573 20.5964C93.7593 20.3104 94.5843 19.8704 95.3323 19.2764L96.4873 22.0484C95.7173 22.6864 94.7493 23.1924 93.5833 23.5664C92.4173 23.9404 91.2513 24.1274 90.0853 24.1274ZM99.6981 23.7974V7.66036H103.724V10.8944H103.361C103.845 9.72836 104.593 8.84836 105.605 8.25436C106.639 7.63836 107.805 7.33036 109.103 7.33036C110.401 7.33036 111.468 7.57236 112.304 8.05636C113.14 8.54036 113.767 9.27736 114.185 10.2674C114.603 11.2354 114.812 12.4674 114.812 13.9634V23.7974H110.687V14.1614C110.687 13.3254 110.577 12.6434 110.357 12.1154C110.159 11.5874 109.84 11.2024 109.4 10.9604C108.982 10.6964 108.443 10.5644 107.783 10.5644C106.991 10.5644 106.298 10.7404 105.704 11.0924C105.11 11.4224 104.648 11.9064 104.318 12.5444C103.988 13.1604 103.823 13.8864 103.823 14.7224V23.7974H99.6981ZM126.206 30.0674C124.71 30.0674 123.302 29.8914 121.982 29.5394C120.684 29.2094 119.54 28.6924 118.55 27.9884L119.738 25.1174C120.354 25.5134 121.003 25.8434 121.685 26.1074C122.367 26.3934 123.06 26.6024 123.764 26.7344C124.468 26.8664 125.172 26.9324 125.876 26.9324C127.35 26.9324 128.45 26.5694 129.176 25.8434C129.924 25.1394 130.298 24.0834 130.298 22.6754V19.7054H130.595C130.265 20.8274 129.572 21.7294 128.516 22.4114C127.482 23.0714 126.305 23.4014 124.985 23.4014C123.533 23.4014 122.268 23.0714 121.19 22.4114C120.112 21.7294 119.276 20.7834 118.682 19.5734C118.088 18.3634 117.791 16.9554 117.791 15.3494C117.791 13.7434 118.088 12.3464 118.682 11.1584C119.276 9.94836 120.112 9.01336 121.19 8.35336C122.268 7.67136 123.533 7.33036 124.985 7.33036C126.349 7.33036 127.537 7.67136 128.549 8.35336C129.583 9.01336 130.254 9.89336 130.562 10.9934H130.298V7.66036H134.324V22.1804C134.324 23.9184 134.016 25.3704 133.4 26.5364C132.784 27.7244 131.871 28.6044 130.661 29.1764C129.451 29.7704 127.966 30.0674 126.206 30.0674ZM126.107 20.2664C127.383 20.2664 128.395 19.8264 129.143 18.9464C129.891 18.0664 130.265 16.8674 130.265 15.3494C130.265 13.8314 129.891 12.6434 129.143 11.7854C128.395 10.9054 127.383 10.4654 126.107 10.4654C124.831 10.4654 123.819 10.9054 123.071 11.7854C122.323 12.6434 121.949 13.8314 121.949 15.3494C121.949 16.8674 122.323 18.0664 123.071 18.9464C123.819 19.8264 124.831 20.2664 126.107 20.2664ZM146.231 24.1274C144.405 24.1274 142.832 23.7864 141.512 23.1044C140.192 22.4224 139.169 21.4544 138.443 20.2004C137.739 18.9464 137.387 17.4614 137.387 15.7454C137.387 14.0734 137.728 12.6104 138.41 11.3564C139.114 10.1024 140.071 9.12336 141.281 8.41936C142.513 7.69336 143.91 7.33036 145.472 7.33036C147.012 7.33036 148.332 7.66036 149.432 8.32036C150.532 8.98036 151.379 9.91536 151.973 11.1254C152.589 12.3354 152.897 13.7764 152.897 15.4484V16.6694H140.72V14.2934H149.993L149.465 14.7884C149.465 13.2924 149.135 12.1484 148.475 11.3564C147.815 10.5424 146.869 10.1354 145.637 10.1354C144.713 10.1354 143.921 10.3554 143.261 10.7954C142.623 11.2134 142.128 11.8184 141.776 12.6104C141.446 13.3804 141.281 14.3044 141.281 15.3824V15.6134C141.281 16.8234 141.468 17.8244 141.842 18.6164C142.216 19.4084 142.777 20.0024 143.525 20.3984C144.273 20.7944 145.197 20.9924 146.297 20.9924C147.199 20.9924 148.101 20.8604 149.003 20.5964C149.905 20.3104 150.73 19.8704 151.478 19.2764L152.633 22.0484C151.863 22.6864 150.895 23.1924 149.729 23.5664C148.563 23.9404 147.397 24.1274 146.231 24.1274ZM164.814 23.7974V0.532362H174.978C177.42 0.532362 179.312 1.07136 180.654 2.14936C181.996 3.20536 182.667 4.67936 182.667 6.57136C182.667 7.97936 182.26 9.16736 181.446 10.1354C180.632 11.1034 179.521 11.7524 178.113 12.0824V11.5874C179.191 11.7414 180.115 12.0714 180.885 12.5774C181.655 13.0834 182.238 13.7324 182.634 14.5244C183.052 15.3164 183.261 16.2404 183.261 17.2964C183.261 18.6604 182.942 19.8374 182.304 20.8274C181.688 21.7954 180.786 22.5324 179.598 23.0384C178.41 23.5444 176.991 23.7974 175.341 23.7974H164.814ZM168.873 20.5964H174.813C175.407 20.5964 175.935 20.5524 176.397 20.4644C176.881 20.3764 177.288 20.2444 177.618 20.0684C177.97 19.8704 178.256 19.6284 178.476 19.3424C178.718 19.0564 178.894 18.7264 179.004 18.3524C179.114 17.9784 179.169 17.5604 179.169 17.0984C179.169 16.6144 179.114 16.1854 179.004 15.8114C178.894 15.4374 178.718 15.1184 178.476 14.8544C178.256 14.5684 177.97 14.3374 177.618 14.1614C177.288 13.9634 176.881 13.8204 176.397 13.7324C175.935 13.6444 175.407 13.6004 174.813 13.6004H168.873V20.5964ZM168.873 10.3994H174.252C175.704 10.3994 176.782 10.1244 177.486 9.57436C178.212 9.00236 178.575 8.16636 178.575 7.06636C178.575 5.96636 178.212 5.14136 177.486 4.59136C176.782 4.01936 175.704 3.73336 174.252 3.73336H168.873V10.3994ZM192.131 24.1274C190.965 24.1274 189.92 23.9074 188.996 23.4674C188.094 23.0054 187.379 22.3894 186.851 21.6194C186.345 20.8494 186.092 19.9804 186.092 19.0124C186.092 17.8244 186.4 16.8894 187.016 16.2074C187.632 15.5034 188.633 14.9974 190.019 14.6894C191.405 14.3814 193.264 14.2274 195.596 14.2274H197.246V16.6034H195.629C194.595 16.6034 193.726 16.6474 193.022 16.7354C192.318 16.8014 191.746 16.9224 191.306 17.0984C190.888 17.2524 190.58 17.4724 190.382 17.7584C190.206 18.0444 190.118 18.3964 190.118 18.8144C190.118 19.5404 190.371 20.1344 190.877 20.5964C191.383 21.0584 192.087 21.2894 192.989 21.2894C193.715 21.2894 194.353 21.1244 194.903 20.7944C195.475 20.4424 195.926 19.9694 196.256 19.3754C196.586 18.7814 196.751 18.0994 196.751 17.3294V13.5344C196.751 12.4344 196.509 11.6424 196.025 11.1584C195.541 10.6744 194.727 10.4324 193.583 10.4324C192.681 10.4324 191.757 10.5754 190.811 10.8614C189.865 11.1254 188.908 11.5434 187.94 12.1154L186.752 9.31036C187.324 8.91436 187.995 8.57336 188.765 8.28736C189.557 7.97936 190.382 7.74836 191.24 7.59436C192.12 7.41836 192.945 7.33036 193.715 7.33036C195.299 7.33036 196.597 7.57236 197.609 8.05636C198.643 8.54036 199.413 9.27736 199.919 10.2674C200.425 11.2354 200.678 12.4894 200.678 14.0294V23.7974H196.817V20.3654H197.081C196.927 21.1354 196.619 21.8064 196.157 22.3784C195.717 22.9284 195.156 23.3574 194.474 23.6654C193.792 23.9734 193.011 24.1274 192.131 24.1274ZM204.545 23.7974V7.66036H208.571V10.8944H208.208C208.692 9.72836 209.44 8.84836 210.452 8.25436C211.486 7.63836 212.652 7.33036 213.95 7.33036C215.248 7.33036 216.315 7.57236 217.151 8.05636C217.987 8.54036 218.614 9.27736 219.032 10.2674C219.45 11.2354 219.659 12.4674 219.659 13.9634V23.7974H215.534V14.1614C215.534 13.3254 215.424 12.6434 215.204 12.1154C215.006 11.5874 214.687 11.2024 214.247 10.9604C213.829 10.6964 213.29 10.5644 212.63 10.5644C211.838 10.5644 211.145 10.7404 210.551 11.0924C209.957 11.4224 209.495 11.9064 209.165 12.5444C208.835 13.1604 208.67 13.8864 208.67 14.7224V23.7974H204.545ZM223.528 23.7974V0.532362H227.653V14.5244H227.719L234.22 7.66036H239.203L231.085 16.2404V14.5244L239.665 23.7974H234.616L227.719 16.6034H227.653V23.7974H223.528Z" fill="#424242"/>
<path d="M81.3645 42.8599C81.3645 45.2036 82.9953 47.4106 85.6613 48.3091L84.7043 49.7739C82.7414 49.0903 81.2766 47.6938 80.5051 45.9263C79.7434 47.8989 78.2395 49.4224 76.1887 50.1841L75.1535 48.7192C77.927 47.772 79.5187 45.4087 79.5285 42.8013V40.731H81.3645V42.8599ZM77.966 56.7856V51.2974H79.8605V55.2817H89.802V56.7856H77.966ZM87.1848 52.5474V39.6372H89.0402V44.9106H91.5793V46.4927H89.0402V52.5474H87.1848ZM97.5484 43.5044C97.5484 45.4771 98.7984 47.4009 101.025 48.1919L100.146 49.5981C98.4956 48.9634 97.3433 47.7622 96.7183 46.2974C96.103 47.8892 94.9312 49.1978 93.232 49.8911L92.353 48.5239C94.5698 47.6255 95.7808 45.6235 95.7905 43.5044V43.3481H92.7437V41.8638H95.7905V39.8521H97.5484V41.8638H100.556V43.3481H97.5484V43.5044ZM95.2827 52.7622V51.2583H107.177V57.1567H105.341V52.7622H95.2827ZM101.65 50.3013V39.9692H103.427V44.2466H105.419V39.6763H107.177V50.3794H105.419V45.77H103.427V50.3013H101.65ZM119.076 43.0552C119.076 44.7153 120.404 46.4146 122.592 47.1567L121.791 48.5239C120.082 47.9575 118.871 46.8247 118.227 45.4575C117.592 46.9321 116.381 48.2017 114.682 48.856L113.822 47.4497C116.01 46.6099 117.309 44.7739 117.319 43.0552V42.9966H114.272V41.5317H117.319V39.7349H119.076V41.5317H122.084V42.9966H119.076V43.0552ZM116.967 51.1021V49.6958H128.705V53.9146H118.842V55.5356H129.369V56.9419H117.006V52.5474H126.889V51.1021H116.967ZM123.178 48.8364V39.9888H124.955V43.5239H126.947V39.6763H128.705V48.9731H126.947V45.0278H124.955V48.8364H123.178ZM145.241 39.6763V52.5474H143.405V39.6763H145.241ZM131.627 42.3716V40.8872H139.674V46.1021H133.483V48.6216C136.696 48.6021 138.893 48.5044 141.491 48.0356L141.686 49.5591C138.932 50.0376 136.608 50.1353 133.131 50.145H131.666V44.6958H137.838V42.3716H131.627ZM133.678 56.7856V51.5317H135.534V55.2817H145.729V56.7856H133.678ZM154.159 44.813C154.149 47.7427 156.073 50.77 158.768 51.9224L157.753 53.3677C155.692 52.4595 154.052 50.5259 153.241 48.1919C152.43 50.6919 150.79 52.8208 148.749 53.8169L147.675 52.3521C150.311 51.1118 152.264 47.8306 152.284 44.813V42.9575H148.28V41.4146H158.143V42.9575H154.159V44.813ZM160.35 57.1567V39.6567H162.206V57.1567H160.35Z" fill="#424242"/>
</svg>
