<svg width="87" height="44" viewBox="0 0 87 44" fill="none" xmlns="http://www.w3.org/2000/svg">
<path d="M19.8684 40.6719C18.255 40.6719 16.869 40.3492 15.7104 39.7039C14.5664 39.0439 13.6864 38.1199 13.0704 36.9319C12.4544 35.7292 12.1464 34.3139 12.1464 32.6859C12.1464 31.0579 12.4544 29.6499 13.0704 28.4619C13.6864 27.2739 14.5664 26.3572 15.7104 25.7119C16.869 25.0519 18.255 24.7219 19.8684 24.7219C20.9097 24.7219 21.8924 24.8832 22.8164 25.2059C23.755 25.5286 24.525 25.9906 25.1264 26.5919L24.2024 28.8359C23.5424 28.2786 22.8677 27.8752 22.1784 27.6259C21.489 27.3619 20.7484 27.2299 19.9564 27.2299C18.387 27.2299 17.1917 27.7066 16.3704 28.6599C15.549 29.5986 15.1384 30.9406 15.1384 32.6859C15.1384 34.4312 15.549 35.7806 16.3704 36.7339C17.1917 37.6872 18.387 38.1639 19.9564 38.1639C20.7484 38.1639 21.489 38.0392 22.1784 37.7899C22.8677 37.5259 23.5424 37.1152 24.2024 36.5579L25.1264 38.8019C24.525 39.3886 23.755 39.8506 22.8164 40.1879C21.8924 40.5106 20.9097 40.6719 19.8684 40.6719ZM31.1326 40.6719C30.0179 40.6719 29.0499 40.4446 28.2286 39.9899C27.4072 39.5352 26.7692 38.8899 26.3146 38.0539C25.8599 37.2032 25.6326 36.2059 25.6326 35.0619C25.6326 33.9179 25.8599 32.9279 26.3146 32.0919C26.7692 31.2559 27.4072 30.6106 28.2286 30.1559C29.0499 29.7012 30.0179 29.4739 31.1326 29.4739C32.2472 29.4739 33.2152 29.7012 34.0366 30.1559C34.8579 30.6106 35.4959 31.2559 35.9506 32.0919C36.4052 32.9279 36.6326 33.9179 36.6326 35.0619C36.6326 36.2059 36.4052 37.2032 35.9506 38.0539C35.4959 38.8899 34.8579 39.5352 34.0366 39.9899C33.2152 40.4446 32.2472 40.6719 31.1326 40.6719ZM31.1326 38.5819C31.9539 38.5819 32.6139 38.2886 33.1126 37.7019C33.6112 37.1006 33.8606 36.2206 33.8606 35.0619C33.8606 33.8886 33.6112 33.0159 33.1126 32.4439C32.6139 31.8572 31.9539 31.5639 31.1326 31.5639C30.3112 31.5639 29.6512 31.8572 29.1526 32.4439C28.6539 33.0159 28.4046 33.8886 28.4046 35.0619C28.4046 36.2206 28.6539 37.1006 29.1526 37.7019C29.6512 38.2886 30.3112 38.5819 31.1326 38.5819ZM39.2009 40.4519V31.7619H37.1329V29.6939H39.9929L39.2009 30.4199V29.6719C39.2009 28.1466 39.5969 26.9952 40.3889 26.2179C41.1956 25.4406 42.4423 25.0006 44.1289 24.8979L45.2069 24.8319L45.3829 26.8559L44.3709 26.9219C43.7843 26.9512 43.3149 27.0612 42.9629 27.2519C42.6109 27.4279 42.3543 27.6772 42.1929 27.9999C42.0316 28.3226 41.9509 28.7332 41.9509 29.2319V30.0459L41.5989 29.6939H44.8769V31.7619H41.9509V40.4519H39.2009ZM46.4005 40.4519V31.7619H44.3325V29.6939H47.1925L46.4005 30.4199V29.6719C46.4005 28.1466 46.7965 26.9952 47.5885 26.2179C48.3951 25.4406 49.6418 25.0006 51.3285 24.8979L52.4065 24.8319L52.5825 26.8559L51.5705 26.9219C50.9838 26.9512 50.5145 27.0612 50.1625 27.2519C49.8105 27.4279 49.5538 27.6772 49.3925 27.9999C49.2311 28.3226 49.1505 28.7332 49.1505 29.2319V30.0459L48.7985 29.6939H52.0765V31.7619H49.1505V40.4519H46.4005ZM58.3908 40.6719C57.1735 40.6719 56.1248 40.4446 55.2448 39.9899C54.3648 39.5352 53.6828 38.8899 53.1988 38.0539C52.7295 37.2179 52.4948 36.2279 52.4948 35.0839C52.4948 33.9692 52.7222 32.9939 53.1768 32.1579C53.6462 31.3219 54.2842 30.6692 55.0908 30.1999C55.9122 29.7159 56.8435 29.4739 57.8848 29.4739C58.9115 29.4739 59.7915 29.6939 60.5248 30.1339C61.2582 30.5739 61.8228 31.1972 62.2188 32.0039C62.6295 32.8106 62.8348 33.7712 62.8348 34.8859V35.6999H54.7168V34.1159H60.8988L60.5468 34.4459C60.5468 33.4486 60.3268 32.6859 59.8868 32.1579C59.4468 31.6152 58.8162 31.3439 57.9948 31.3439C57.3788 31.3439 56.8508 31.4906 56.4108 31.7839C55.9855 32.0626 55.6555 32.4659 55.4208 32.9939C55.2008 33.5072 55.0908 34.1232 55.0908 34.8419V34.9959C55.0908 35.8026 55.2155 36.4699 55.4648 36.9979C55.7142 37.5259 56.0882 37.9219 56.5868 38.1859C57.0855 38.4499 57.7015 38.5819 58.4348 38.5819C59.0362 38.5819 59.6375 38.4939 60.2388 38.3179C60.8402 38.1272 61.3902 37.8339 61.8888 37.4379L62.6588 39.2859C62.1455 39.7112 61.5002 40.0486 60.7228 40.2979C59.9455 40.5472 59.1682 40.6719 58.3908 40.6719ZM69.9947 40.6719C68.7773 40.6719 67.7287 40.4446 66.8487 39.9899C65.9687 39.5352 65.2867 38.8899 64.8027 38.0539C64.3333 37.2179 64.0987 36.2279 64.0987 35.0839C64.0987 33.9692 64.326 32.9939 64.7807 32.1579C65.25 31.3219 65.888 30.6692 66.6947 30.1999C67.516 29.7159 68.4473 29.4739 69.4887 29.4739C70.5153 29.4739 71.3953 29.6939 72.1287 30.1339C72.862 30.5739 73.4267 31.1972 73.8227 32.0039C74.2333 32.8106 74.4387 33.7712 74.4387 34.8859V35.6999H66.3207V34.1159H72.5027L72.1507 34.4459C72.1507 33.4486 71.9307 32.6859 71.4907 32.1579C71.0507 31.6152 70.42 31.3439 69.5987 31.3439C68.9827 31.3439 68.4547 31.4906 68.0147 31.7839C67.5893 32.0626 67.2593 32.4659 67.0247 32.9939C66.8047 33.5072 66.6947 34.1232 66.6947 34.8419V34.9959C66.6947 35.8026 66.8193 36.4699 67.0687 36.9979C67.318 37.5259 67.692 37.9219 68.1907 38.1859C68.6893 38.4499 69.3053 38.5819 70.0387 38.5819C70.64 38.5819 71.2413 38.4939 71.8427 38.3179C72.444 38.1272 72.994 37.8339 73.4927 37.4379L74.2627 39.2859C73.7493 39.7112 73.104 40.0486 72.3267 40.2979C71.5493 40.5472 70.772 40.6719 69.9947 40.6719Z" fill="white"/>
<path d="M6.15369 7.30396C6.15369 10.2219 5.01697 12.9758 1.38416 14.7805L0.96228 14.2063C2.93689 13.2278 4.1615 11.9563 4.81775 10.4915L1.13806 10.8313L0.973999 10.175L5.05212 9.8938C5.26306 9.27271 5.38025 8.6106 5.42712 7.92505H1.50134V7.30396H6.15369ZM9.42322 6.20239V16.5383H8.69666V11.0422H6.11853V10.4094H8.69666V6.20239H9.42322ZM19.4626 6.20239V16.5383H18.736V6.20239H19.4626ZM17.1423 7.37427V7.99536H15.8884V13.1282C16.5153 13.0872 17.1364 13.0344 17.7282 12.9641L17.7751 13.5266C15.5017 13.8665 12.9704 13.9016 11.0485 13.9133L10.9548 13.2571L12.4782 13.2454V7.99536H11.2243V7.37427H17.1423ZM13.1931 13.2336C13.8317 13.2219 14.4997 13.1985 15.1618 13.1633V7.99536H13.1931V13.2336ZM31.6429 6.19067V9.40161H33.2367V10.0344H31.6429V13.8547H30.9046V6.19067H31.6429ZM32.1468 15.6711V16.2922H25.2445V13.0579H25.971V15.6711H32.1468ZM26.5101 6.95239C28.0335 6.95239 29.1702 7.98364 29.182 9.46021C29.1702 10.9485 28.0335 11.9915 26.5101 11.9915C24.9749 11.9915 23.8265 10.9485 23.8265 9.46021C23.8265 7.98364 24.9749 6.95239 26.5101 6.95239ZM26.5101 7.59692C25.3968 7.59692 24.5413 8.3938 24.5531 9.46021C24.5413 10.5383 25.3968 11.3352 26.5101 11.3352C27.6234 11.3352 28.4554 10.5383 28.4671 9.46021C28.4554 8.3938 27.6234 7.59692 26.5101 7.59692ZM42.1628 12.9055V16.55H41.4245V13.5032H35.2604V12.9055H42.1628ZM42.1628 6.20239V12.2844H41.4245V9.46021H38.8346V11.5461H34.1471V6.97583H38.8346V8.83911H41.4245V6.20239H42.1628ZM34.8737 7.59692V10.925H38.1081V7.59692H34.8737ZM52.1904 6.20239V16.5383H51.4638V6.20239H52.1904ZM49.1435 7.33911C49.1318 10.2571 47.667 12.8938 44.2685 14.5344L43.8584 13.925C46.6943 12.5833 48.2119 10.468 48.4053 7.94849H44.3154V7.33911H49.1435ZM59.3199 8.19458C59.3199 9.29614 60.2574 10.4094 61.5582 10.8665L61.2067 11.429C60.152 11.0422 59.3492 10.2629 58.9801 9.34302C58.6168 10.3333 57.8199 11.1946 56.7652 11.6282L56.3902 11.054C57.7027 10.5383 58.6051 9.34302 58.6168 8.19458V8.04224H56.6129V7.43286H58.6168V6.26099H59.3199V7.43286H61.277V8.04224H59.3199V8.19458ZM65.0621 6.20239V11.7688H64.359V9.26099H62.8356V11.675H62.109V6.40161H62.8356V8.63989H64.359V6.20239H65.0621ZM65.0621 12.261V14.5344H59.027V15.8H65.5074V16.386H58.3004V13.9602H64.3473V12.8469H58.2652V12.261H65.0621ZM74.8554 6.20239V13.8196H74.1288V6.20239H74.8554ZM75.1718 15.6711V16.2922H68.1406V13.2336H68.8788V15.6711H75.1718ZM67.7304 11.6633C69.6171 11.6633 71.0117 11.593 72.7226 11.3118L72.8046 11.9329C71.0468 12.2258 69.6406 12.2844 67.7304 12.2844H66.9101V9.23755H70.8593V7.57349H66.8867V6.95239H71.5859V9.83521H67.6249V11.6633H67.7304ZM80.0198 9.49536C80.0198 11.2649 81.4378 13.0579 82.8909 13.6907L82.469 14.2766C81.2795 13.72 80.1428 12.4836 79.6565 11.0071C79.176 12.5598 78.0452 13.9309 76.8909 14.5344L76.4456 13.9485C77.8518 13.2571 79.2698 11.2883 79.2815 9.49536V7.91333H76.762V7.28052H82.5745V7.91333H80.0198V9.49536ZM84.9065 6.20239V16.5383H84.1682V6.20239H84.9065Z" fill="white"/>
</svg>
