<svg width="110" height="44" viewBox="0 0 110 44" fill="none" xmlns="http://www.w3.org/2000/svg">
<path d="M2.37341 7.52417V10.1257H4.90466V7.52417H5.59607V14.2273H1.67029V7.52417H2.37341ZM2.37341 13.5945H4.90466V10.7351H2.37341V13.5945ZM10.0844 6.52808V16.864H9.36951V11.2976H7.75232V16.325H7.04919V6.76245H7.75232V10.6648H9.36951V6.52808H10.0844ZM12.6003 10.6882C14.6628 10.7 15.9167 10.6296 17.3933 10.325L17.4987 10.9343C15.9753 11.2507 14.6979 11.321 12.6003 11.3093H11.8151V7.13745H16.3972V7.75854H12.5417V10.6882H12.6003ZM19.362 6.52808V8.77808H20.9558V9.41089H19.362V11.7546H18.6237V6.52808H19.362ZM19.362 12.3054V14.7546H13.5964V16.1023H19.7604V16.7117H12.8698V14.157H18.6237V12.9265H12.8464V12.3054H19.362ZM26.6908 7.34839C28.1029 7.34839 29.1107 8.58472 29.2337 10.5476H31.7298V6.52808H32.4564V16.8757H31.7298V11.157H29.2454C29.1576 13.2019 28.138 14.4968 26.6908 14.4968C25.179 14.4968 24.1244 13.1023 24.1361 10.9226C24.1244 8.74292 25.179 7.34839 26.6908 7.34839ZM26.6908 8.00464C25.5892 8.00464 24.8392 9.19995 24.8392 10.9226C24.8392 12.657 25.5892 13.8406 26.6908 13.8406C27.7806 13.8406 28.5423 12.657 28.5423 10.9226C28.5423 9.19995 27.7806 8.00464 26.6908 8.00464ZM42.484 6.8562V7.45386H40.82V9.6687H42.4606V10.2546H34.902V9.6687H36.5544V7.45386H34.8903V6.8562H42.484ZM43.4098 11.2273V11.8484H33.9879V11.2273H43.4098ZM42.1676 12.8679V15.0242H35.8981V16.1375H42.4958V16.7351H35.1833V14.4617H41.4528V13.4539H35.1481V12.8679H42.1676ZM37.2926 9.6687H40.0817V7.45386H37.2926V9.6687ZM56.0354 10.9109V11.532H51.6878V12.6921H54.7933V14.9539H48.5237V16.1257H55.1214V16.7351H47.8089V14.3914H54.0784V13.2781H47.7737V12.6921H50.9495V11.532H46.6136V10.9109H56.0354ZM55.1917 6.90308V7.51245H51.7347C51.764 8.73706 53.7679 9.58667 55.5081 9.75073L55.2503 10.325C53.6448 10.1492 51.9339 9.47534 51.3362 8.36792C50.7151 9.47534 49.0101 10.1492 47.4104 10.325L47.1526 9.75073C48.8694 9.58667 50.8792 8.74878 50.9144 7.51245H47.4808V6.90308H55.1917ZM65.149 6.52808V16.8757H64.4108V6.52808H65.149ZM59.6881 7.34839C61.2115 7.34839 62.3014 8.74292 62.3014 10.9226C62.3014 13.1023 61.2115 14.4968 59.6881 14.4968C58.1529 14.4968 57.0748 13.1023 57.0748 10.9226C57.0748 8.74292 58.1529 7.34839 59.6881 7.34839ZM59.6881 8.00464C58.5748 8.00464 57.7897 9.19995 57.7897 10.9226C57.7897 12.657 58.5748 13.8406 59.6881 13.8406C60.8014 13.8406 61.5748 12.657 61.5748 10.9226C61.5748 9.19995 60.8014 8.00464 59.6881 8.00464ZM75.2119 6.52808V16.864H74.4853V6.52808H75.2119ZM72.165 7.66479C72.1533 10.5828 70.6884 13.2195 67.29 14.8601L66.8798 14.2507C69.7158 12.9089 71.2333 10.7937 71.4267 8.27417H67.3369V7.66479H72.165ZM82.3414 8.52026C82.3414 9.62183 83.2789 10.7351 84.5797 11.1921L84.2281 11.7546C83.1734 11.3679 82.3707 10.5886 82.0015 9.6687C81.6383 10.6589 80.8414 11.5203 79.7867 11.9539L79.4117 11.3796C80.7242 10.864 81.6265 9.6687 81.6383 8.52026V8.36792H79.6344V7.75854H81.6383V6.58667H82.3414V7.75854H84.2984V8.36792H82.3414V8.52026ZM88.0836 6.52808V12.0945H87.3804V9.58667H85.857V12.0007H85.1304V6.72729H85.857V8.96558H87.3804V6.52808H88.0836ZM88.0836 12.5867V14.8601H82.0484V16.1257H88.5289V16.7117H81.3219V14.2859H87.3687V13.1726H81.2867V12.5867H88.0836ZM97.8769 6.52808V14.1453H97.1503V6.52808H97.8769ZM98.1933 15.9968V16.6179H91.162V13.5593H91.9003V15.9968H98.1933ZM90.7519 11.989C92.6386 11.989 94.0331 11.9187 95.744 11.6375L95.8261 12.2585C94.0683 12.5515 92.662 12.6101 90.7519 12.6101H89.9315V9.56323H93.8808V7.89917H89.9081V7.27808H94.6073V10.1609H90.6464V11.989H90.7519ZM103.041 9.82104C103.041 11.5906 104.459 13.3835 105.912 14.0164L105.49 14.6023C104.301 14.0457 103.164 12.8093 102.678 11.3328C102.197 12.8855 101.067 14.2566 99.9123 14.8601L99.467 14.2742C100.873 13.5828 102.291 11.614 102.303 9.82104V8.23901H99.7834V7.6062H105.596V8.23901H103.041V9.82104ZM107.928 6.52808V16.864H107.19V6.52808H107.928Z" fill="#424242"/>
<path d="M2.4971 39.95V24.44H8.2611C9.99177 24.44 11.4584 24.7406 12.6611 25.342C13.8784 25.9433 14.8024 26.8233 15.4331 27.982C16.0784 29.126 16.4011 30.5266 16.4011 32.184C16.4011 33.8413 16.0784 35.2493 15.4331 36.408C14.8024 37.5666 13.8784 38.4466 12.6611 39.048C11.4584 39.6493 9.99177 39.95 8.2611 39.95H2.4971ZM5.3131 37.618H8.0851C9.8891 37.618 11.2311 37.1706 12.1111 36.276C13.0058 35.3666 13.4531 34.0026 13.4531 32.184C13.4531 30.3653 13.0058 29.0086 12.1111 28.114C11.2164 27.2193 9.87443 26.772 8.0851 26.772H5.3131V37.618ZM23.9729 40.17C22.7556 40.17 21.7069 39.9426 20.8269 39.488C19.9469 39.0333 19.2649 38.388 18.7809 37.552C18.3116 36.716 18.0769 35.726 18.0769 34.582C18.0769 33.4673 18.3042 32.492 18.7589 31.656C19.2282 30.82 19.8662 30.1673 20.6729 29.698C21.4942 29.214 22.4256 28.972 23.4669 28.972C24.4936 28.972 25.3736 29.192 26.1069 29.632C26.8402 30.072 27.4049 30.6953 27.8009 31.502C28.2116 32.3086 28.4169 33.2693 28.4169 34.384V35.198H20.2989V33.614H26.4809L26.1289 33.944C26.1289 32.9466 25.9089 32.184 25.4689 31.656C25.0289 31.1133 24.3982 30.842 23.5769 30.842C22.9609 30.842 22.4329 30.9886 21.9929 31.282C21.5676 31.5606 21.2376 31.964 21.0029 32.492C20.7829 33.0053 20.6729 33.6213 20.6729 34.34V34.494C20.6729 35.3006 20.7976 35.968 21.0469 36.496C21.2962 37.024 21.6702 37.42 22.1689 37.684C22.6676 37.948 23.2836 38.08 24.0169 38.08C24.6182 38.08 25.2196 37.992 25.8209 37.816C26.4222 37.6253 26.9722 37.332 27.4709 36.936L28.2409 38.784C27.7276 39.2093 27.0822 39.5466 26.3049 39.796C25.5276 40.0453 24.7502 40.17 23.9729 40.17ZM34.0147 40.17C32.7387 40.17 31.7927 39.8253 31.1767 39.136C30.5754 38.432 30.2747 37.4053 30.2747 36.056V24.44H33.0247V35.924C33.0247 36.3493 33.0834 36.716 33.2007 37.024C33.3327 37.3173 33.5234 37.5373 33.7727 37.684C34.0221 37.8306 34.3301 37.904 34.6967 37.904C34.8581 37.904 35.0194 37.8966 35.1807 37.882C35.3421 37.8673 35.4961 37.838 35.6427 37.794L35.5987 39.972C35.3347 40.0306 35.0707 40.0746 34.8067 40.104C34.5574 40.148 34.2934 40.17 34.0147 40.17ZM36.8041 26.882V24.198H39.8841V26.882H36.8041ZM36.9801 39.95V29.192H39.7301V39.95H36.9801ZM45.4356 39.95L40.7716 29.192H43.6976L47.0196 37.53H46.3596L49.7916 29.192H52.5416L47.8116 39.95H45.4356ZM58.6363 40.17C57.4189 40.17 56.3703 39.9426 55.4903 39.488C54.6103 39.0333 53.9283 38.388 53.4443 37.552C52.9749 36.716 52.7403 35.726 52.7403 34.582C52.7403 33.4673 52.9676 32.492 53.4223 31.656C53.8916 30.82 54.5296 30.1673 55.3363 29.698C56.1576 29.214 57.0889 28.972 58.1303 28.972C59.1569 28.972 60.0369 29.192 60.7703 29.632C61.5036 30.072 62.0683 30.6953 62.4643 31.502C62.8749 32.3086 63.0803 33.2693 63.0803 34.384V35.198H54.9623V33.614H61.1443L60.7923 33.944C60.7923 32.9466 60.5723 32.184 60.1323 31.656C59.6923 31.1133 59.0616 30.842 58.2403 30.842C57.6243 30.842 57.0963 30.9886 56.6563 31.282C56.2309 31.5606 55.9009 31.964 55.6663 32.492C55.4463 33.0053 55.3363 33.6213 55.3363 34.34V34.494C55.3363 35.3006 55.4609 35.968 55.7103 36.496C55.9596 37.024 56.3336 37.42 56.8323 37.684C57.3309 37.948 57.9469 38.08 58.6803 38.08C59.2816 38.08 59.8829 37.992 60.4843 37.816C61.0856 37.6253 61.6356 37.332 62.1343 36.936L62.9043 38.784C62.3909 39.2093 61.7456 39.5466 60.9683 39.796C60.1909 40.0453 59.4136 40.17 58.6363 40.17ZM64.9381 39.95V29.192H67.6221V31.788H67.4021C67.6074 30.908 68.0108 30.2406 68.6121 29.786C69.2134 29.3166 70.0128 29.0453 71.0101 28.972L71.8461 28.906L72.0221 31.238L70.4381 31.392C69.5434 31.48 68.8688 31.7586 68.4141 32.228C67.9594 32.6826 67.7321 33.328 67.7321 34.164V39.95H64.9381ZM74.8674 43.91L77.1114 38.96V40.104L72.3814 29.192H75.3074L78.6514 37.53H77.9914L81.4014 29.192H84.1734L77.7054 43.91H74.8674Z" fill="#424242"/>
</svg>
