<svg width="107" height="44" viewBox="0 0 107 44" fill="none" xmlns="http://www.w3.org/2000/svg">
<path d="M22.2172 6.8938C23.8461 6.8938 24.9711 7.85474 24.9828 9.28442C24.9711 10.6028 24.0101 11.5168 22.5804 11.6399V13.5266C23.6527 13.4797 24.7543 13.3918 25.7914 13.2336L25.85 13.7844C23.4594 14.218 20.8812 14.2297 19.0062 14.2297L18.889 13.5969C19.7621 13.5969 20.7758 13.5969 21.8422 13.5618V11.6399C20.4242 11.511 19.4515 10.6028 19.4515 9.28442C19.4515 7.85474 20.6 6.8938 22.2172 6.8938ZM22.2172 7.55005C21.0336 7.55005 20.1664 8.26489 20.1781 9.28442C20.1664 10.2922 21.0336 11.0305 22.2172 11.0188C23.4008 11.0305 24.2562 10.2922 24.2562 9.28442C24.2562 8.26489 23.4008 7.55005 22.2172 7.55005ZM27.2445 6.20239V16.55H26.5062V6.20239H27.2445ZM32.444 7.70239C32.4323 9.28442 33.6394 10.6555 35.1276 11.1946L34.7409 11.7805C33.5397 11.3176 32.5378 10.3743 32.0808 9.15552C31.6354 10.4563 30.6276 11.47 29.4206 11.968L29.0222 11.3821C30.5222 10.8079 31.694 9.34302 31.7058 7.70239V6.7063H32.444V7.70239ZM37.3776 12.9875V16.5383H36.6394V13.5969H30.4753V12.9875H37.3776ZM37.3776 6.20239V12.4485H36.6394V6.20239H37.3776ZM49.5579 6.20239V9.69458H51.1517V10.3274H49.5579V13.9602H48.8197V6.20239H49.5579ZM47.7064 7.52661V8.14771H41.5423V7.52661H44.2611V6.21411H44.9876V7.52661H47.7064ZM44.6244 8.78052C46.0892 8.78052 47.0853 9.53052 47.0853 10.6907C47.0853 11.8508 46.0892 12.5891 44.6244 12.5891C43.1361 12.5891 42.1517 11.8508 42.1517 10.6907C42.1517 9.53052 43.1361 8.78052 44.6244 8.78052ZM44.6244 9.37817C43.5579 9.37817 42.8431 9.90552 42.8548 10.6907C42.8431 11.4641 43.5579 11.9915 44.6244 11.9797C45.679 11.9915 46.3822 11.4641 46.3939 10.6907C46.3822 9.90552 45.679 9.37817 44.6244 9.37817ZM50.0619 15.6711V16.2922H43.1595V13.3274H43.8861V15.6711H50.0619ZM59.8786 11.1125V11.7219H56.6325V14.5579H61.027V15.1907H51.5583V14.5579H55.8942V11.7219H52.8004V7.06958H59.7731V7.69067H53.5387V11.1125H59.8786ZM67.1839 8.19458C67.1839 9.29614 68.1214 10.4094 69.4222 10.8665L69.0706 11.429C68.0159 11.0422 67.2132 10.2629 66.844 9.34302C66.4808 10.3333 65.6839 11.1946 64.6292 11.6282L64.2542 11.054C65.5667 10.5383 66.469 9.34302 66.4808 8.19458V8.04224H64.4769V7.43286H66.4808V6.26099H67.1839V7.43286H69.1409V8.04224H67.1839V8.19458ZM72.9261 6.20239V11.7688H72.2229V9.26099H70.6995V11.675H69.9729V6.40161H70.6995V8.63989H72.2229V6.20239H72.9261ZM72.9261 12.261V14.5344H66.8909V15.8H73.3714V16.386H66.1644V13.9602H72.2112V12.8469H66.1292V12.261H72.9261ZM82.7193 6.20239V13.8196H81.9928V6.20239H82.7193ZM83.0358 15.6711V16.2922H76.0045V13.2336H76.7428V15.6711H83.0358ZM75.5943 11.6633C77.4811 11.6633 78.8756 11.593 80.5865 11.3118L80.6686 11.9329C78.9108 12.2258 77.5045 12.2844 75.5943 12.2844H74.774V9.23755H78.7233V7.57349H74.7506V6.95239H79.4498V9.83521H75.4889V11.6633H75.5943ZM87.8837 9.49536C87.8837 11.2649 89.3017 13.0579 90.7548 13.6907L90.3329 14.2766C89.1435 13.72 88.0068 12.4836 87.5204 11.0071C87.04 12.5598 85.9091 13.9309 84.7548 14.5344L84.3095 13.9485C85.7158 13.2571 87.1337 11.2883 87.1454 9.49536V7.91333H84.6259V7.28052H90.4384V7.91333H87.8837V9.49536ZM92.7704 6.20239V16.5383H92.0322V6.20239H92.7704Z" fill="#424242"/>
<path d="M2.56741 40.4519V24.9419H8.33141C10.0621 24.9419 11.5287 25.2426 12.7314 25.8439C13.9487 26.4452 14.8727 27.3252 15.5034 28.4839C16.1487 29.6279 16.4714 31.0286 16.4714 32.6859C16.4714 34.3432 16.1487 35.7512 15.5034 36.9099C14.8727 38.0686 13.9487 38.9486 12.7314 39.5499C11.5287 40.1512 10.0621 40.4519 8.33141 40.4519H2.56741ZM5.38341 38.1199H8.15541C9.95941 38.1199 11.3014 37.6726 12.1814 36.7779C13.0761 35.8686 13.5234 34.5046 13.5234 32.6859C13.5234 30.8672 13.0761 29.5106 12.1814 28.6159C11.2867 27.7212 9.94475 27.2739 8.15541 27.2739H5.38341V38.1199ZM18.5652 27.3839V24.6999H21.6452V27.3839H18.5652ZM18.7412 40.4519V29.6939H21.4912V40.4519H18.7412ZM24.0286 40.4519V29.6939H26.7126V31.8499H26.4706C26.7933 31.0726 27.292 30.4859 27.9666 30.0899C28.656 29.6792 29.4333 29.4739 30.2986 29.4739C31.164 29.4739 31.8753 29.6352 32.4326 29.9579C32.99 30.2806 33.408 30.7719 33.6866 31.4319C33.9653 32.0772 34.1046 32.8986 34.1046 33.8959V40.4519H31.3546V34.0279C31.3546 33.4706 31.2813 33.0159 31.1346 32.6639C31.0026 32.3119 30.79 32.0552 30.4966 31.8939C30.218 31.7179 29.8586 31.6299 29.4186 31.6299C28.8906 31.6299 28.4286 31.7472 28.0326 31.9819C27.6366 32.2019 27.3286 32.5246 27.1086 32.9499C26.8886 33.3606 26.7786 33.8446 26.7786 34.4019V40.4519H24.0286ZM36.5778 40.4519V29.6939H39.2618V31.8499H39.0198C39.3425 31.0726 39.8411 30.4859 40.5158 30.0899C41.2051 29.6792 41.9825 29.4739 42.8478 29.4739C43.7131 29.4739 44.4245 29.6352 44.9818 29.9579C45.5391 30.2806 45.9571 30.7719 46.2358 31.4319C46.5145 32.0772 46.6538 32.8986 46.6538 33.8959V40.4519H43.9038V34.0279C43.9038 33.4706 43.8305 33.0159 43.6838 32.6639C43.5518 32.3119 43.3391 32.0552 43.0458 31.8939C42.7671 31.7179 42.4078 31.6299 41.9678 31.6299C41.4398 31.6299 40.9778 31.7472 40.5818 31.9819C40.1858 32.2019 39.8778 32.5246 39.6578 32.9499C39.4378 33.3606 39.3278 33.8446 39.3278 34.4019V40.4519H36.5778ZM54.4289 40.6719C53.2116 40.6719 52.1629 40.4446 51.2829 39.9899C50.4029 39.5352 49.7209 38.8899 49.2369 38.0539C48.7676 37.2179 48.5329 36.2279 48.5329 35.0839C48.5329 33.9692 48.7603 32.9939 49.2149 32.1579C49.6843 31.3219 50.3223 30.6692 51.1289 30.1999C51.9503 29.7159 52.8816 29.4739 53.9229 29.4739C54.9496 29.4739 55.8296 29.6939 56.5629 30.1339C57.2963 30.5739 57.8609 31.1972 58.2569 32.0039C58.6676 32.8106 58.8729 33.7712 58.8729 34.8859V35.6999H50.7549V34.1159H56.9369L56.5849 34.4459C56.5849 33.4486 56.3649 32.6859 55.9249 32.1579C55.4849 31.6152 54.8543 31.3439 54.0329 31.3439C53.4169 31.3439 52.8889 31.4906 52.4489 31.7839C52.0236 32.0626 51.6936 32.4659 51.4589 32.9939C51.2389 33.5072 51.1289 34.1232 51.1289 34.8419V34.9959C51.1289 35.8026 51.2536 36.4699 51.5029 36.9979C51.7523 37.5259 52.1263 37.9219 52.6249 38.1859C53.1236 38.4499 53.7396 38.5819 54.4729 38.5819C55.0743 38.5819 55.6756 38.4939 56.2769 38.3179C56.8783 38.1272 57.4283 37.8339 57.9269 37.4379L58.6969 39.2859C58.1836 39.7112 57.5383 40.0486 56.7609 40.2979C55.9836 40.5472 55.2063 40.6719 54.4289 40.6719ZM60.7308 40.4519V29.6939H63.4148V32.2899H63.1948C63.4001 31.4099 63.8034 30.7426 64.4048 30.2879C65.0061 29.8186 65.8054 29.5472 66.8028 29.4739L67.6388 29.4079L67.8148 31.7399L66.2308 31.8939C65.3361 31.9819 64.6614 32.2606 64.2068 32.7299C63.7521 33.1846 63.5248 33.8299 63.5248 34.6659V40.4519H60.7308ZM79.5417 40.6719C78.427 40.6719 77.459 40.4446 76.6377 39.9899C75.8163 39.5352 75.1783 38.8899 74.7237 38.0539C74.269 37.2032 74.0417 36.2059 74.0417 35.0619C74.0417 33.9179 74.269 32.9279 74.7237 32.0919C75.1783 31.2559 75.8163 30.6106 76.6377 30.1559C77.459 29.7012 78.427 29.4739 79.5417 29.4739C80.6563 29.4739 81.6243 29.7012 82.4457 30.1559C83.267 30.6106 83.905 31.2559 84.3597 32.0919C84.8143 32.9279 85.0417 33.9179 85.0417 35.0619C85.0417 36.2059 84.8143 37.2032 84.3597 38.0539C83.905 38.8899 83.267 39.5352 82.4457 39.9899C81.6243 40.4446 80.6563 40.6719 79.5417 40.6719ZM79.5417 38.5819C80.363 38.5819 81.023 38.2886 81.5217 37.7019C82.0203 37.1006 82.2697 36.2206 82.2697 35.0619C82.2697 33.8886 82.0203 33.0159 81.5217 32.4439C81.023 31.8572 80.363 31.5639 79.5417 31.5639C78.7203 31.5639 78.0603 31.8572 77.5617 32.4439C77.063 33.0159 76.8137 33.8886 76.8137 35.0619C76.8137 36.2206 77.063 37.1006 77.5617 37.7019C78.0603 38.2886 78.7203 38.5819 79.5417 38.5819ZM90.8855 40.6719C89.9908 40.6719 89.2501 40.5106 88.6635 40.1879C88.0768 39.8506 87.6368 39.3519 87.3435 38.6919C87.0648 38.0319 86.9255 37.2106 86.9255 36.2279V29.6939H89.6755V36.2719C89.6755 36.7706 89.7415 37.1886 89.8735 37.5259C90.0201 37.8632 90.2328 38.1126 90.5115 38.2739C90.8048 38.4352 91.1715 38.5159 91.6115 38.5159C92.1101 38.5159 92.5428 38.4059 92.9095 38.1859C93.2908 37.9512 93.5841 37.6286 93.7895 37.2179C94.0095 36.7926 94.1195 36.3012 94.1195 35.7439V29.6939H96.8695V40.4519H94.1855V38.2079H94.4935C94.1855 38.9999 93.7161 39.6086 93.0855 40.0339C92.4695 40.4592 91.7361 40.6719 90.8855 40.6719ZM104.34 40.6719C102.902 40.6719 101.832 40.3126 101.128 39.5939C100.424 38.8752 100.072 37.8266 100.072 36.4479V31.7619H98.0037V29.6939H100.072V26.4819H102.822V29.6939H106.078V31.7619H102.822V36.2939C102.822 36.9979 102.976 37.5259 103.284 37.8779C103.592 38.2299 104.09 38.4059 104.78 38.4059C104.985 38.4059 105.198 38.3839 105.418 38.3399C105.638 38.2812 105.865 38.2226 106.1 38.1639L106.518 40.1879C106.254 40.3346 105.916 40.4519 105.506 40.5399C105.11 40.6279 104.721 40.6719 104.34 40.6719Z" fill="#424242"/>
</svg>
