<svg width="235" height="56" viewBox="0 0 235 56" fill="none" xmlns="http://www.w3.org/2000/svg">
<g filter="url(#filter0_d_95_8303)">
<g clip-path="url(#clip0_95_8303)">
<rect x="10" y="8" width="215" height="29" rx="8" fill="#C6C6C8"/>
<rect width="219" height="29" transform="translate(8 8)" fill="#56CCC3"/>
<path d="M27.0596 19.3516V26.5H26.1562V20.4795L24.335 21.1436V20.3281L26.918 19.3516H27.0596ZM36.445 18.25H37.285V24.85H36.445V18.25ZM31.475 26.4H37.555V27.08H31.475V26.4ZM31.475 24.17H32.295V26.63H31.475V24.17ZM32.435 18.87C33.785 18.87 34.785 19.79 34.785 21.1C34.785 22.4 33.785 23.33 32.435 23.33C31.085 23.33 30.075 22.4 30.075 21.1C30.075 19.79 31.085 18.87 32.435 18.87ZM32.435 19.59C31.555 19.59 30.885 20.21 30.885 21.1C30.885 21.98 31.555 22.6 32.435 22.6C33.315 22.6 33.985 21.98 33.985 21.1C33.985 20.21 33.315 19.59 32.435 19.59ZM48.1747 18.24H49.0047V27.28H48.1747V18.24ZM48.8047 21.95H50.4847V22.65H48.8047V21.95ZM42.0047 19.68H47.3347V20.36H42.0047V19.68ZM44.7047 21.11C45.9847 21.11 46.9047 21.97 46.9047 23.19C46.9047 24.41 45.9847 25.27 44.7047 25.27C43.4347 25.27 42.5047 24.41 42.5047 23.19C42.5047 21.97 43.4347 21.11 44.7047 21.11ZM44.7047 21.8C43.8847 21.8 43.2947 22.37 43.2947 23.19C43.2947 24 43.8847 24.58 44.7047 24.58C45.5247 24.58 46.1147 24 46.1147 23.19C46.1147 22.37 45.5247 21.8 44.7047 21.8ZM44.2747 18.35H45.1047V19.99H44.2747V18.35ZM52.4739 18.6H58.6939V20.96H53.3339V22.52H52.4939V20.32H57.8639V19.27H52.4739V18.6ZM52.4939 22.11H58.9039V22.79H52.4939V22.11ZM51.4939 23.72H59.6939V24.41H51.4939V23.72ZM55.1639 23.98H55.9839V27.29H55.1639V23.98ZM68.8036 19.85H70.7436V20.53H68.8036V19.85ZM68.8036 21.47H70.7436V22.15H68.8036V21.47ZM63.9436 18.92H68.7036V19.6H63.9436V18.92ZM63.7936 23.28L63.7036 22.58C65.1836 22.58 67.2936 22.56 68.9836 22.36L69.0336 22.98C67.2936 23.26 65.2636 23.28 63.7936 23.28ZM64.8436 19.45H65.6436V22.81H64.8436V19.45ZM67.0036 19.45H67.8036V22.81H67.0036V19.45ZM70.2836 18.24H71.1136V23.82H70.2836V18.24ZM68.1436 24C70.0136 24 71.1536 24.59 71.1536 25.63C71.1536 26.67 70.0136 27.26 68.1436 27.26C66.2636 27.26 65.1236 26.67 65.1236 25.63C65.1236 24.59 66.2636 24 68.1436 24ZM68.1436 24.65C66.7736 24.65 65.9536 25.01 65.9536 25.63C65.9536 26.25 66.7736 26.62 68.1436 26.62C69.5136 26.62 70.3336 26.25 70.3336 25.63C70.3336 25.01 69.5136 24.65 68.1436 24.65ZM74.1528 18.72H79.9228V19.4H74.1528V18.72ZM73.1328 22.12H81.3228V22.8H73.1328V22.12ZM75.8528 22.55H76.6628V24.98H75.8528V22.55ZM79.4528 18.72H80.2628V19.41C80.2628 20.21 80.2628 21.14 79.9928 22.42L79.1828 22.33C79.4528 21.07 79.4528 20.19 79.4528 19.41V18.72ZM74.1128 26.4H80.5128V27.08H74.1128V26.4ZM74.1128 24.24H74.9428V26.57H74.1128V24.24ZM78.2428 22.55H79.0528V24.98H78.2428V22.55ZM89.0625 19.18H89.8625C89.8625 21.79 88.9625 24.19 85.7825 25.79L85.3125 25.15C88.1025 23.75 89.0625 21.74 89.0625 19.27V19.18ZM85.8025 19.18H89.5625V19.85H85.8025V19.18ZM89.0125 21.42V22.05L85.4825 22.38L85.3425 21.66L89.0125 21.42ZM91.9125 18.24H92.7425V27.28H91.9125V18.24ZM89.8425 21.86H92.3125V22.55H89.8425V21.86ZM101.342 18.24H102.172V27.28H101.342V18.24ZM94.9817 19.21H100.102V19.89H94.9817V19.21ZM94.8417 25.05L94.7417 24.34C96.4217 24.34 98.6417 24.32 100.562 24.09L100.612 24.7C98.6617 25.01 96.4917 25.04 94.8417 25.05ZM95.9817 19.72H96.7817V24.53H95.9817V19.72ZM98.2917 19.72H99.1017V24.53H98.2917V19.72ZM109.331 19.53H110.001V21C110.001 22.91 108.851 24.83 107.411 25.54L106.931 24.88C108.241 24.26 109.331 22.56 109.331 21V19.53ZM109.491 19.53H110.161V21C110.161 22.53 111.251 24.09 112.581 24.66L112.111 25.32C110.651 24.64 109.491 22.88 109.491 21V19.53ZM107.231 19.16H112.281V19.86H107.231V19.16ZM113.501 18.24H114.331V27.28H113.501V18.24ZM120.051 22.74H120.881V24.11H120.051V22.74ZM116.391 22.25H124.551V22.89H116.391V22.25ZM120.061 18.18H120.881V19.28H120.061V18.18ZM120.021 19.36H120.751V19.5C120.751 20.92 119.061 21.68 117.061 21.85L116.821 21.21C118.601 21.1 120.021 20.47 120.021 19.5V19.36ZM120.191 19.36H120.921V19.5C120.921 20.47 122.341 21.1 124.111 21.21L123.871 21.85C121.871 21.68 120.191 20.92 120.191 19.5V19.36ZM117.221 19.03H123.721V19.66H117.221V19.03ZM117.371 23.71H123.511V25.7H118.211V26.79H117.391V25.11H122.691V24.34H117.371V23.71ZM117.391 26.55H123.781V27.18H117.391V26.55ZM127.98 18.81C129.16 18.81 130.03 19.68 130.03 20.95C130.03 22.2 129.16 23.07 127.98 23.07C126.78 23.07 125.92 22.2 125.92 20.95C125.92 19.68 126.78 18.81 127.98 18.81ZM127.98 19.51C127.23 19.51 126.68 20.11 126.68 20.95C126.68 21.78 127.23 22.38 127.98 22.38C128.72 22.38 129.28 21.78 129.28 20.95C129.28 20.11 128.72 19.51 127.98 19.51ZM132.66 18.25H133.45V23.62H132.66V18.25ZM131.2 20.56H132.91V21.25H131.2V20.56ZM130.73 18.41H131.52V23.57H130.73V18.41ZM127.39 24.12H133.45V27.28H132.63V24.8H127.39V24.12ZM135.279 22.99H143.449V23.67H135.279V22.99ZM136.339 26.4H142.549V27.08H136.339V26.4ZM136.339 24.46H137.169V26.61H136.339V24.46ZM139.369 18.54C141.299 18.54 142.549 19.22 142.549 20.35C142.549 21.47 141.299 22.15 139.369 22.15C137.429 22.15 136.189 21.47 136.189 20.35C136.189 19.22 137.429 18.54 139.369 18.54ZM139.369 19.22C137.949 19.22 137.039 19.64 137.039 20.35C137.039 21.06 137.949 21.48 139.369 21.48C140.789 21.48 141.699 21.06 141.699 20.35C141.699 19.64 140.789 19.22 139.369 19.22ZM147.389 25.3086V24.0098L150.318 19.4297H152.418V24H153.277V25.3086H152.418V26.5H150.826V25.3086H147.389ZM149.049 24H150.855V21.1973H150.797L149.049 23.9414V24ZM156.076 25.7578L155.207 28.5801H154.064L154.533 25.7578H156.076ZM159.891 19.4297V26.5H158.221V20.9922H158.182L156.59 21.9688V20.5234L158.338 19.4297H159.891ZM161.986 26.5L164.877 20.8262V20.7773H161.498V19.4297H166.605V20.7871L163.705 26.5H161.986ZM170.41 26.5977C168.75 26.5977 167.549 25.7383 167.549 24.5859C167.549 23.707 168.242 22.9941 169.141 22.8574V22.8086C168.359 22.6621 167.812 22.0273 167.812 21.2461C167.812 20.1426 168.906 19.332 170.41 19.332C171.895 19.332 172.998 20.1426 172.998 21.2461C172.998 22.0273 172.432 22.6621 171.67 22.8086V22.8574C172.549 22.9941 173.262 23.707 173.262 24.5859C173.262 25.7383 172.061 26.5977 170.41 26.5977ZM170.41 25.3672C171.064 25.3672 171.514 24.9668 171.514 24.4102C171.514 23.8535 171.045 23.4434 170.41 23.4434C169.766 23.4434 169.287 23.8535 169.297 24.4102C169.287 24.9668 169.746 25.3672 170.41 25.3672ZM170.41 22.3008C170.967 22.3008 171.367 21.9395 171.367 21.4219C171.367 20.9238 170.967 20.5625 170.41 20.5625C169.834 20.5625 169.443 20.9141 169.443 21.4219C169.443 21.9297 169.844 22.3008 170.41 22.3008ZM181.822 18.4824V25.2402H180.406V24.5957H178.736V23.6484H180.406V18.4824H181.822ZM182.008 26.168V27.291H175.23V24.5957H176.461V23.4629C175.689 23.4922 174.952 23.502 174.293 23.502L174.137 22.3984C175.777 22.3789 177.975 22.3594 179.859 22.125L179.938 23.1211C179.264 23.2383 178.565 23.3213 177.877 23.375V25.0547H176.637V26.168H182.008ZM177.037 18.7656C178.346 18.7656 179.283 19.4395 179.283 20.3867C179.283 21.3535 178.346 21.9785 177.037 21.9785C175.709 21.9785 174.781 21.3535 174.781 20.3867C174.781 19.4395 175.709 18.7656 177.037 18.7656ZM177.037 19.791C176.48 19.791 176.109 19.9863 176.109 20.3867C176.109 20.7773 176.48 20.9727 177.037 20.9727C177.564 20.9727 177.945 20.7773 177.955 20.3867C177.945 19.9863 177.564 19.791 177.037 19.791ZM189.884 18.23H190.714V27.29H189.884V18.23ZM185.944 18.93C187.284 18.93 188.244 20.16 188.244 22.08C188.244 24.01 187.284 25.24 185.944 25.24C184.614 25.24 183.654 24.01 183.654 22.08C183.654 20.16 184.614 18.93 185.944 18.93ZM185.944 19.68C185.064 19.68 184.444 20.62 184.444 22.08C184.444 23.55 185.064 24.51 185.944 24.51C186.834 24.51 187.444 23.55 187.444 22.08C187.444 20.62 186.834 19.68 185.944 19.68ZM196.433 21.75H198.143V22.44H196.433V21.75ZM199.653 18.24H200.453V27.28H199.653V18.24ZM197.863 18.43H198.653V26.83H197.863V18.43ZM194.803 18.99C195.973 18.99 196.733 20.2 196.733 22.14C196.733 24.08 195.973 25.29 194.803 25.29C193.633 25.29 192.883 24.08 192.883 22.14C192.883 20.2 193.633 18.99 194.803 18.99ZM194.803 19.76C194.093 19.76 193.643 20.68 193.643 22.14C193.643 23.6 194.093 24.52 194.803 24.52C195.523 24.52 195.973 23.6 195.973 22.14C195.973 20.68 195.523 19.76 194.803 19.76ZM204.223 22.89H205.043V25.6H204.223V22.89ZM207.563 22.89H208.393V25.6H207.563V22.89ZM202.223 25.44H210.413V26.13H202.223V25.44ZM206.303 18.81C208.213 18.81 209.583 19.72 209.583 21.14C209.583 22.55 208.213 23.46 206.303 23.46C204.383 23.46 203.013 22.55 203.013 21.14C203.013 19.72 204.383 18.81 206.303 18.81ZM206.303 19.47C204.853 19.47 203.813 20.13 203.813 21.14C203.813 22.14 204.853 22.8 206.303 22.8C207.753 22.8 208.783 22.14 208.783 21.14C208.783 20.13 207.753 19.47 206.303 19.47Z" fill="white"/>
</g>
<path fill-rule="evenodd" clip-rule="evenodd" d="M200.614 37C201.882 37 203.757 39.1563 205.223 41.1565C206.075 42.3191 206.502 42.9004 206.904 43.0595C207.294 43.2135 207.612 43.214 208.002 43.0613C208.405 42.9036 208.834 42.3226 209.692 41.1607C211.169 39.1593 213.068 37 214.386 37H200.614Z" fill="#56CCC3"/>
</g>
<defs>
<filter id="filter0_d_95_8303" x="0" y="0" width="235" height="56.5" filterUnits="userSpaceOnUse" color-interpolation-filters="sRGB">
<feFlood flood-opacity="0" result="BackgroundImageFix"/>
<feColorMatrix in="SourceAlpha" type="matrix" values="0 0 0 0 0 0 0 0 0 0 0 0 0 0 0 0 0 0 127 0" result="hardAlpha"/>
<feOffset dy="2"/>
<feGaussianBlur stdDeviation="5"/>
<feComposite in2="hardAlpha" operator="out"/>
<feColorMatrix type="matrix" values="0 0 0 0 0 0 0 0 0 0 0 0 0 0 0 0 0 0 0.15 0"/>
<feBlend mode="normal" in2="BackgroundImageFix" result="effect1_dropShadow_95_8303"/>
<feBlend mode="normal" in="SourceGraphic" in2="effect1_dropShadow_95_8303" result="shape"/>
</filter>
<clipPath id="clip0_95_8303">
<rect x="10" y="8" width="215" height="29" rx="8" fill="white"/>
</clipPath>
</defs>
</svg>
