<svg width="236" height="56" viewBox="0 0 236 56" fill="none" xmlns="http://www.w3.org/2000/svg">
<g filter="url(#filter0_d_124_8441)">
<g clip-path="url(#clip0_124_8441)">
<rect x="10.3004" y="8" width="215" height="29" rx="8" fill="#C6C6C8"/>
<rect width="219" height="29" transform="translate(8.30042 8)" fill="#56CCC3"/>
<path d="M31.36 18.3516V25.5H30.4567V19.4795L28.6354 20.1436V19.3281L31.2184 18.3516H31.36ZM40.7454 17.25H41.5854V23.85H40.7454V17.25ZM35.7754 25.4H41.8554V26.08H35.7754V25.4ZM35.7754 23.17H36.5954V25.63H35.7754V23.17ZM36.7354 17.87C38.0854 17.87 39.0854 18.79 39.0854 20.1C39.0854 21.4 38.0854 22.33 36.7354 22.33C35.3854 22.33 34.3754 21.4 34.3754 20.1C34.3754 18.79 35.3854 17.87 36.7354 17.87ZM36.7354 18.59C35.8554 18.59 35.1854 19.21 35.1854 20.1C35.1854 20.98 35.8554 21.6 36.7354 21.6C37.6154 21.6 38.2854 20.98 38.2854 20.1C38.2854 19.21 37.6154 18.59 36.7354 18.59ZM49.8146 17.24H50.6446V22.61H49.8146V17.24ZM50.4046 19.59H51.9746V20.28H50.4046V19.59ZM47.7546 22.8C49.5846 22.8 50.7246 23.45 50.7246 24.54C50.7246 25.63 49.5846 26.27 47.7546 26.27C45.9246 26.27 44.7846 25.63 44.7846 24.54C44.7846 23.45 45.9246 22.8 47.7546 22.8ZM47.7546 23.48C46.4146 23.48 45.5946 23.86 45.5946 24.54C45.5946 25.2 46.4146 25.59 47.7546 25.59C49.0946 25.59 49.9146 25.2 49.9146 24.54C49.9146 23.86 49.0946 23.48 47.7546 23.48ZM44.0246 21.22H44.7246C46.5946 21.22 47.6446 21.16 48.8546 20.91L48.9546 21.59C47.7046 21.84 46.6346 21.9 44.7246 21.9H44.0246V21.22ZM44.0246 17.93H48.0146V18.61H44.8446V21.66H44.0246V17.93ZM60.9243 18.85H62.8643V19.53H60.9243V18.85ZM60.9243 20.47H62.8643V21.15H60.9243V20.47ZM56.0643 17.92H60.8243V18.6H56.0643V17.92ZM55.9143 22.28L55.8243 21.58C57.3043 21.58 59.4143 21.56 61.1043 21.36L61.1543 21.98C59.4143 22.26 57.3843 22.28 55.9143 22.28ZM56.9643 18.45H57.7643V21.81H56.9643V18.45ZM59.1243 18.45H59.9243V21.81H59.1243V18.45ZM62.4043 17.24H63.2343V22.82H62.4043V17.24ZM60.2643 23C62.1343 23 63.2743 23.59 63.2743 24.63C63.2743 25.67 62.1343 26.26 60.2643 26.26C58.3843 26.26 57.2443 25.67 57.2443 24.63C57.2443 23.59 58.3843 23 60.2643 23ZM60.2643 23.65C58.8943 23.65 58.0743 24.01 58.0743 24.63C58.0743 25.25 58.8943 25.62 60.2643 25.62C61.6343 25.62 62.4543 25.25 62.4543 24.63C62.4543 24.01 61.6343 23.65 60.2643 23.65ZM66.2735 17.72H72.0435V18.4H66.2735V17.72ZM65.2535 21.12H73.4435V21.8H65.2535V21.12ZM67.9735 21.55H68.7835V23.98H67.9735V21.55ZM71.5735 17.72H72.3835V18.41C72.3835 19.21 72.3835 20.14 72.1135 21.42L71.3035 21.33C71.5735 20.07 71.5735 19.19 71.5735 18.41V17.72ZM66.2335 25.4H72.6335V26.08H66.2335V25.4ZM66.2335 23.24H67.0635V25.57H66.2335V23.24ZM70.3635 21.55H71.1735V23.98H70.3635V21.55ZM77.7532 18.09H78.5432V20.3H80.4332V18.09H81.2032V24.02H77.7532V18.09ZM78.5432 20.97V23.34H80.4332V20.97H78.5432ZM84.3132 17.24H85.1132V26.28H84.3132V17.24ZM82.8632 20.82H84.6032V21.5H82.8632V20.82ZM82.3132 17.43H83.1032V25.83H82.3132V17.43ZM87.2824 20.78H87.9824C89.8024 20.78 90.8724 20.72 92.1124 20.47L92.2124 21.14C90.9324 21.4 89.8324 21.46 87.9824 21.46H87.2824V20.78ZM87.2824 17.76H91.2724V18.43H88.1024V21.18H87.2824V17.76ZM93.0624 17.24H93.8924V21.79H93.0624V17.24ZM93.6624 19.14H95.2324V19.83H93.6624V19.14ZM88.1524 22.25H93.8924V24.48H88.9924V25.88H88.1724V23.84H93.0824V22.91H88.1524V22.25ZM88.1724 25.49H94.2224V26.16H88.1724V25.49ZM101.452 18.53H102.122V20C102.122 21.91 100.972 23.83 99.5321 24.54L99.0521 23.88C100.362 23.26 101.452 21.56 101.452 20V18.53ZM101.612 18.53H102.282V20C102.282 21.53 103.372 23.09 104.702 23.66L104.232 24.32C102.772 23.64 101.612 21.88 101.612 20V18.53ZM99.3521 18.16H104.402V18.86H99.3521V18.16ZM105.622 17.24H106.452V26.28H105.622V17.24ZM112.171 21.74H113.001V23.11H112.171V21.74ZM108.511 21.25H116.671V21.89H108.511V21.25ZM112.181 17.18H113.001V18.28H112.181V17.18ZM112.141 18.36H112.871V18.5C112.871 19.92 111.181 20.68 109.181 20.85L108.941 20.21C110.721 20.1 112.141 19.47 112.141 18.5V18.36ZM112.311 18.36H113.041V18.5C113.041 19.47 114.461 20.1 116.231 20.21L115.991 20.85C113.991 20.68 112.311 19.92 112.311 18.5V18.36ZM109.341 18.03H115.841V18.66H109.341V18.03ZM109.491 22.71H115.631V24.7H110.331V25.79H109.511V24.11H114.811V23.34H109.491V22.71ZM109.511 25.55H115.901V26.18H109.511V25.55ZM121.731 17.71H127.551V18.39H121.731V17.71ZM120.691 21.04H128.881V21.72H120.691V21.04ZM127.011 17.71H127.821V18.38C127.821 19.15 127.821 20.03 127.521 21.28L126.711 21.24C127.011 20 127.011 19.13 127.011 18.38V17.71ZM121.691 22.95H127.851V26.16H121.691V22.95ZM127.041 23.61H122.501V25.49H127.041V23.61ZM132.28 17.81C133.46 17.81 134.33 18.68 134.33 19.95C134.33 21.2 133.46 22.07 132.28 22.07C131.08 22.07 130.22 21.2 130.22 19.95C130.22 18.68 131.08 17.81 132.28 17.81ZM132.28 18.51C131.53 18.51 130.98 19.11 130.98 19.95C130.98 20.78 131.53 21.38 132.28 21.38C133.02 21.38 133.58 20.78 133.58 19.95C133.58 19.11 133.02 18.51 132.28 18.51ZM136.96 17.25H137.75V22.62H136.96V17.25ZM135.5 19.56H137.21V20.25H135.5V19.56ZM135.03 17.41H135.82V22.57H135.03V17.41ZM131.69 23.12H137.75V26.28H136.93V23.8H131.69V23.12ZM139.579 21.99H147.749V22.67H139.579V21.99ZM140.639 25.4H146.849V26.08H140.639V25.4ZM140.639 23.46H141.469V25.61H140.639V23.46ZM143.669 17.54C145.599 17.54 146.849 18.22 146.849 19.35C146.849 20.47 145.599 21.15 143.669 21.15C141.729 21.15 140.489 20.47 140.489 19.35C140.489 18.22 141.729 17.54 143.669 17.54ZM143.669 18.22C142.249 18.22 141.339 18.64 141.339 19.35C141.339 20.06 142.249 20.48 143.669 20.48C145.089 20.48 145.999 20.06 145.999 19.35C145.999 18.64 145.089 18.22 143.669 18.22ZM156.518 24.7578V25.5H151.865V24.8506L154.194 22.2578C154.48 21.9388 154.702 21.6686 154.858 21.4473C155.018 21.2227 155.128 21.0225 155.19 20.8467C155.255 20.6676 155.288 20.4854 155.288 20.2998C155.288 20.0654 155.239 19.8538 155.141 19.665C155.047 19.473 154.907 19.32 154.721 19.2061C154.536 19.0921 154.311 19.0352 154.047 19.0352C153.732 19.0352 153.468 19.097 153.256 19.2207C153.048 19.3411 152.892 19.5104 152.788 19.7285C152.684 19.9466 152.631 20.1973 152.631 20.4805H151.728C151.728 20.0801 151.816 19.7139 151.992 19.3818C152.168 19.0498 152.428 18.7861 152.773 18.5908C153.118 18.3923 153.543 18.293 154.047 18.293C154.497 18.293 154.881 18.3727 155.2 18.5322C155.519 18.6885 155.763 18.9098 155.932 19.1963C156.105 19.4795 156.191 19.8115 156.191 20.1924C156.191 20.4007 156.155 20.6123 156.084 20.8271C156.015 21.0387 155.919 21.2503 155.796 21.4619C155.675 21.6735 155.533 21.8818 155.371 22.0869C155.211 22.292 155.04 22.4938 154.858 22.6924L152.954 24.7578H156.518ZM158.014 18.05H162.164V22.24H158.014V18.05ZM161.354 18.72H158.824V21.57H161.354V18.72ZM163.824 17.23H164.654V23.86H163.824V17.23ZM164.394 19.99H165.994V20.68H164.394V19.99ZM159.024 25.4H165.064V26.08H159.024V25.4ZM159.024 23.23H159.854V25.69H159.024V23.23ZM169.653 21.79H170.483V23.8H169.653V21.79ZM173.663 17.24H174.493V24.12H173.663V17.24ZM168.323 25.4H174.713V26.08H168.323V25.4ZM168.323 23.45H169.153V25.59H168.323V23.45ZM167.153 22.1L167.043 21.42C168.713 21.42 170.953 21.4 172.873 21.15L172.933 21.76C170.983 22.07 168.793 22.1 167.153 22.1ZM171.823 22.58H173.873V23.19H171.823V22.58ZM169.983 17.61C171.303 17.61 172.203 18.23 172.203 19.18C172.203 20.14 171.303 20.76 169.983 20.76C168.653 20.76 167.753 20.14 167.753 19.18C167.753 18.23 168.653 17.61 169.983 17.61ZM169.983 18.23C169.133 18.23 168.543 18.6 168.543 19.18C168.543 19.76 169.133 20.13 169.983 20.13C170.823 20.13 171.413 19.76 171.413 19.18C171.413 18.6 170.823 18.23 169.983 18.23ZM183.103 17.23H183.933V26.29H183.103V17.23ZM179.163 17.93C180.503 17.93 181.463 19.16 181.463 21.08C181.463 23.01 180.503 24.24 179.163 24.24C177.833 24.24 176.873 23.01 176.873 21.08C176.873 19.16 177.833 17.93 179.163 17.93ZM179.163 18.68C178.283 18.68 177.663 19.62 177.663 21.08C177.663 22.55 178.283 23.51 179.163 23.51C180.053 23.51 180.663 22.55 180.663 21.08C180.663 19.62 180.053 18.68 179.163 18.68ZM186.282 23.43H186.882C187.982 23.43 188.982 23.39 190.202 23.18L190.272 23.87C189.022 24.09 188.002 24.12 186.882 24.12H186.282V23.43ZM186.262 18.22H189.652V21.4H187.092V23.69H186.282V20.72H188.842V18.9H186.262V18.22ZM192.862 17.24H193.662V26.28H192.862V17.24ZM191.332 20.81H193.072V21.49H191.332V20.81ZM190.812 17.44H191.592V25.82H190.812V17.44ZM197.441 21.89H198.261V24.6H197.441V21.89ZM200.781 21.89H201.611V24.6H200.781V21.89ZM195.441 24.44H203.631V25.13H195.441V24.44ZM199.521 17.81C201.431 17.81 202.801 18.72 202.801 20.14C202.801 21.55 201.431 22.46 199.521 22.46C197.601 22.46 196.231 21.55 196.231 20.14C196.231 18.72 197.601 17.81 199.521 17.81ZM199.521 18.47C198.071 18.47 197.031 19.13 197.031 20.14C197.031 21.14 198.071 21.8 199.521 21.8C200.971 21.8 202.001 21.14 202.001 20.14C202.001 19.13 200.971 18.47 199.521 18.47ZM206.153 18.3906L206.089 23.4932H205.274L205.206 18.3906H206.153ZM205.176 25.0459C205.176 24.8994 205.22 24.7757 205.308 24.6748C205.399 24.5739 205.533 24.5234 205.709 24.5234C205.881 24.5234 206.013 24.5739 206.104 24.6748C206.199 24.7757 206.246 24.8994 206.246 25.0459C206.246 25.1859 206.199 25.3063 206.104 25.4072C206.013 25.5081 205.881 25.5586 205.709 25.5586C205.533 25.5586 205.399 25.5081 205.308 25.4072C205.22 25.3063 205.176 25.1859 205.176 25.0459Z" fill="white"/>
</g>
<path fill-rule="evenodd" clip-rule="evenodd" d="M200.914 37C202.182 37 204.057 39.1563 205.523 41.1565C206.376 42.3191 206.802 42.9004 207.205 43.0595C207.594 43.2135 207.912 43.214 208.302 43.0613C208.705 42.9036 209.134 42.3226 209.992 41.1607C211.469 39.1593 213.369 37 214.687 37H200.914Z" fill="#56CCC3"/>
</g>
<defs>
<filter id="filter0_d_124_8441" x="0.300415" y="0" width="235" height="56.5" filterUnits="userSpaceOnUse" color-interpolation-filters="sRGB">
<feFlood flood-opacity="0" result="BackgroundImageFix"/>
<feColorMatrix in="SourceAlpha" type="matrix" values="0 0 0 0 0 0 0 0 0 0 0 0 0 0 0 0 0 0 127 0" result="hardAlpha"/>
<feOffset dy="2"/>
<feGaussianBlur stdDeviation="5"/>
<feComposite in2="hardAlpha" operator="out"/>
<feColorMatrix type="matrix" values="0 0 0 0 0 0 0 0 0 0 0 0 0 0 0 0 0 0 0.15 0"/>
<feBlend mode="normal" in2="BackgroundImageFix" result="effect1_dropShadow_124_8441"/>
<feBlend mode="normal" in="SourceGraphic" in2="effect1_dropShadow_124_8441" result="shape"/>
</filter>
<clipPath id="clip0_124_8441">
<rect x="10.3004" y="8" width="215" height="29" rx="8" fill="white"/>
</clipPath>
</defs>
</svg>
