<svg width="236" height="56" viewBox="0 0 236 56" fill="none" xmlns="http://www.w3.org/2000/svg">
<g filter="url(#filter0_d_124_5373)">
<g clip-path="url(#clip0_124_5373)">
<rect x="10.3004" y="8" width="215" height="29" rx="8" fill="#C6C6C8"/>
<rect width="219" height="29" transform="translate(8.30042 8)" fill="#56CCC3"/>
<path d="M23.6204 19.5H25.6304V20.19H23.6204V19.5ZM25.4004 17.24H26.2304V22.53H25.4004V17.24ZM20.3704 22.97H26.2304V26.16H20.3704V22.97ZM25.4204 23.63H21.1804V25.49H25.4204V23.63ZM21.1004 18.1H21.7804V18.83C21.7804 20.48 20.7604 21.89 19.2504 22.45L18.8204 21.79C20.1704 21.31 21.1004 20.11 21.1004 18.83V18.1ZM21.2604 18.1H21.9304V18.82C21.9304 19.99 22.8104 21.12 24.1204 21.58L23.7004 22.24C22.2304 21.71 21.2604 20.34 21.2604 18.82V18.1ZM19.0804 17.82H23.9104V18.49H19.0804V17.82ZM34.8196 17.25H35.6596V22.38H34.8196V17.25ZM29.8196 22.9H35.6596V26.16H29.8196V22.9ZM34.8396 23.56H30.6296V25.49H34.8396V23.56ZM30.5996 17.59H31.2896V18.47C31.2896 20.15 30.2496 21.59 28.7196 22.16L28.3096 21.5C29.6696 21.01 30.5996 19.79 30.5996 18.47V17.59ZM30.7496 17.59H31.4296V18.47C31.4296 19.75 32.3696 20.88 33.7096 21.33L33.2996 21.98C31.7896 21.46 30.7496 20.11 30.7496 18.47V17.59ZM43.8789 17.24H44.7089V22.15H43.8789V17.24ZM44.4789 19.32H46.0489V20.01H44.4789V19.32ZM41.3689 17.78H42.2589C42.2589 20.06 40.6789 21.59 38.0289 22.24L37.7089 21.56C40.0489 21 41.3689 19.77 41.3689 18.19V17.78ZM38.1089 17.78H41.8689V18.46H38.1089V17.78ZM38.6789 22.62H39.4589V23.7H41.0089V22.62H41.7789V26.15H38.6789V22.62ZM39.4589 24.34V25.51H41.0089V24.34H39.4589ZM43.3989 22.53H44.0489V23.28C44.0489 24.45 43.4689 25.7 42.2689 26.24L41.8289 25.62C42.8689 25.15 43.3989 24.15 43.3989 23.28V22.53ZM43.5489 22.53H44.1889V23.26C44.1889 24.14 44.7089 25.16 45.7489 25.62L45.2989 26.24C44.0989 25.7 43.5489 24.45 43.5489 23.26V22.53ZM52.9381 18.3516V25.5H52.0348V19.4795L50.2135 20.1436V19.3281L52.7965 18.3516H52.9381ZM56.1235 18.05H60.2735V22.24H56.1235V18.05ZM59.4635 18.72H56.9335V21.57H59.4635V18.72ZM61.9335 17.23H62.7635V23.86H61.9335V17.23ZM62.5035 19.99H64.1035V20.68H62.5035V19.99ZM57.1335 25.4H63.1735V26.08H57.1335V25.4ZM57.1335 23.23H57.9635V25.69H57.1335V23.23ZM67.7628 21.79H68.5928V23.8H67.7628V21.79ZM71.7728 17.24H72.6028V24.12H71.7728V17.24ZM66.4328 25.4H72.8228V26.08H66.4328V25.4ZM66.4328 23.45H67.2628V25.59H66.4328V23.45ZM65.2628 22.1L65.1528 21.42C66.8228 21.42 69.0628 21.4 70.9828 21.15L71.0428 21.76C69.0928 22.07 66.9028 22.1 65.2628 22.1ZM69.9328 22.58H71.9828V23.19H69.9328V22.58ZM68.0928 17.61C69.4128 17.61 70.3128 18.23 70.3128 19.18C70.3128 20.14 69.4128 20.76 68.0928 20.76C66.7628 20.76 65.8628 20.14 65.8628 19.18C65.8628 18.23 66.7628 17.61 68.0928 17.61ZM68.0928 18.23C67.2428 18.23 66.6528 18.6 66.6528 19.18C66.6528 19.76 67.2428 20.13 68.0928 20.13C68.9328 20.13 69.5228 19.76 69.5228 19.18C69.5228 18.6 68.9328 18.23 68.0928 18.23ZM79.7624 18.02H80.4424V19.64C80.4424 21.72 79.3224 23.65 77.8424 24.4L77.3324 23.72C78.6724 23.08 79.7624 21.35 79.7624 19.64V18.02ZM79.9024 18.02H80.5824V19.64C80.5824 21.29 81.6624 22.95 83.0024 23.57L82.5024 24.23C81.0324 23.51 79.9024 21.65 79.9024 19.64V18.02ZM83.9424 17.23H84.7724V26.29H83.9424V17.23ZM93.7017 17.24H94.5017V26.28H93.7017V17.24ZM92.1717 20.86H93.9117V21.55H92.1717V20.86ZM91.6517 17.44H92.4317V25.82H91.6517V17.44ZM87.1517 23.36H87.7417C89.0617 23.36 89.9617 23.31 91.0117 23.09L91.0917 23.78C90.0117 24.01 89.1017 24.05 87.7417 24.05H87.1517V23.36ZM87.1517 18.34H90.5117V19.02H87.9717V23.67H87.1517V18.34ZM97.2897 24.4258V25.1533C97.2897 25.4495 97.2148 25.762 97.0651 26.0908C96.9153 26.4229 96.7054 26.6995 96.4352 26.9209L95.9225 26.5645C96.0267 26.4212 96.1145 26.2747 96.1862 26.125C96.2578 25.9785 96.3115 25.8255 96.3473 25.666C96.3864 25.5098 96.4059 25.3438 96.4059 25.168V24.4258H97.2897ZM101.604 21.97H102.284C104.054 21.97 105.094 21.93 106.324 21.71L106.394 22.39C105.124 22.61 104.074 22.65 102.284 22.65H101.604V21.97ZM101.584 17.87H105.584V20.52H102.424V22.39H101.604V19.87H104.774V18.54H101.584V17.87ZM107.834 17.25H108.664V23.88H107.834V17.25ZM102.834 25.4H108.944V26.08H102.834V25.4ZM102.834 23.39H103.664V25.61H102.834V23.39ZM106.144 19.59H108.044V20.31H106.144V19.59ZM117.253 17.24H118.083V26.28H117.253V17.24ZM113.183 19.39H113.853V20.16C113.853 22.09 112.763 23.84 111.313 24.54L110.843 23.9C112.183 23.28 113.183 21.74 113.183 20.16V19.39ZM113.343 19.39H114.003V20.16C114.003 21.67 115.033 23.14 116.383 23.73L115.913 24.38C114.453 23.72 113.343 22.03 113.343 20.16V19.39ZM111.093 18.81H116.073V19.48H111.093V18.81ZM113.183 17.4H114.013V19.18H113.183V17.4ZM120.882 17.51H127.522V18.16H120.882V17.51ZM120.922 19.88H127.482V20.52H120.922V19.88ZM122.252 17.76H123.082V20.3H122.252V17.76ZM125.332 17.76H126.152V20.3H125.332V17.76ZM120.122 21.27H128.292V21.94H120.122V21.27ZM121.112 22.73H127.252V24.71H121.952V25.8H121.132V24.12H126.432V23.35H121.112V22.73ZM121.132 25.55H127.522V26.18H121.132V25.55ZM129.872 23.37H130.472C131.572 23.37 132.592 23.33 133.832 23.12L133.902 23.8C132.632 24.02 131.612 24.06 130.472 24.06H129.872V23.37ZM129.852 18.23H133.082V21.38H130.682V23.65H129.872V20.71H132.282V18.91H129.852V18.23ZM136.452 17.24H137.252V26.28H136.452V17.24ZM133.512 20.48H134.972V21.17H133.512V20.48ZM134.632 17.46H135.402V25.81H134.632V17.46ZM145.591 17.23H146.421V26.29H145.591V17.23ZM141.651 17.93C142.991 17.93 143.951 19.16 143.951 21.08C143.951 23.01 142.991 24.24 141.651 24.24C140.321 24.24 139.361 23.01 139.361 21.08C139.361 19.16 140.321 17.93 141.651 17.93ZM141.651 18.68C140.771 18.68 140.151 19.62 140.151 21.08C140.151 22.55 140.771 23.51 141.651 23.51C142.541 23.51 143.151 22.55 143.151 21.08C143.151 19.62 142.541 18.68 141.651 18.68ZM153.27 18.57H155.3V19.26H153.27V18.57ZM153.27 20.43H155.3V21.11H153.27V20.43ZM150.74 17.75H151.41V18.9C151.41 20.67 150.44 22.18 148.93 22.79L148.49 22.13C149.84 21.61 150.74 20.32 150.74 18.9V17.75ZM150.89 17.75H151.57V18.9C151.57 20.22 152.44 21.47 153.75 21.99L153.29 22.64C151.86 22.04 150.89 20.58 150.89 18.9V17.75ZM155.08 17.25H155.91V23.99H155.08V17.25ZM150.1 25.4H156.13V26.08H150.1V25.4ZM150.1 23.31H150.93V25.77H150.1V23.31ZM167.22 17.23H168.05V26.29H167.22V17.23ZM163.28 17.93C164.62 17.93 165.58 19.16 165.58 21.08C165.58 23.01 164.62 24.24 163.28 24.24C161.95 24.24 160.99 23.01 160.99 21.08C160.99 19.16 161.95 17.93 163.28 17.93ZM163.28 18.68C162.4 18.68 161.78 19.62 161.78 21.08C161.78 22.55 162.4 23.51 163.28 23.51C164.17 23.51 164.78 22.55 164.78 21.08C164.78 19.62 164.17 18.68 163.28 18.68ZM173.839 18.21H174.649C174.649 20.79 173.529 23.1 170.549 24.57L170.109 23.92C172.669 22.65 173.839 20.73 173.839 18.35V18.21ZM170.499 18.21H174.249V18.89H170.499V18.21ZM176.709 17.23H177.539V26.27H176.709V17.23ZM174.319 19.71H176.879V20.38H174.319V19.71ZM174.219 22.14H176.779V22.82H174.219V22.14ZM179.558 24.44H187.748V25.13H179.558V24.44ZM183.218 22.28H184.048V24.64H183.218V22.28ZM180.518 17.88H181.338V19.49H185.948V17.88H186.768V22.5H180.518V17.88ZM181.338 20.16V21.82H185.948V20.16H181.338ZM191.237 18.53H191.897V20C191.897 21.88 190.747 23.82 189.337 24.54L188.857 23.88C190.147 23.25 191.237 21.53 191.237 20V18.53ZM191.387 18.53H192.047V20C192.047 21.43 193.067 23.04 194.377 23.66L193.907 24.32C192.477 23.61 191.387 21.79 191.387 20V18.53ZM189.177 18.16H194.047V18.86H189.177V18.16ZM195.117 17.24H195.957V26.28H195.117V17.24ZM195.757 20.89H197.437V21.59H195.757V20.89ZM199.477 17.83H205.127V18.5H199.477V17.83ZM198.457 21.71H206.627V22.39H198.457V21.71ZM202.107 22.16H202.937V26.29H202.107V22.16ZM204.737 17.83H205.547V18.61C205.547 19.55 205.547 20.61 205.207 22.14L204.387 22.03C204.737 20.57 204.737 19.52 204.737 18.61V17.83ZM209.906 21.89H210.726V24.6H209.906V21.89ZM213.246 21.89H214.076V24.6H213.246V21.89ZM207.906 24.44H216.096V25.13H207.906V24.44ZM211.986 17.81C213.896 17.81 215.266 18.72 215.266 20.14C215.266 21.55 213.896 22.46 211.986 22.46C210.066 22.46 208.696 21.55 208.696 20.14C208.696 18.72 210.066 17.81 211.986 17.81ZM211.986 18.47C210.536 18.47 209.496 19.13 209.496 20.14C209.496 21.14 210.536 21.8 211.986 21.8C213.436 21.8 214.466 21.14 214.466 20.14C214.466 19.13 213.436 18.47 211.986 18.47Z" fill="white"/>
</g>
<path fill-rule="evenodd" clip-rule="evenodd" d="M200.914 37C202.182 37 204.057 39.1563 205.523 41.1565C206.376 42.3191 206.802 42.9004 207.205 43.0595C207.594 43.2135 207.912 43.214 208.302 43.0613C208.705 42.9036 209.134 42.3226 209.992 41.1607C211.469 39.1593 213.369 37 214.687 37H200.914Z" fill="#56CCC3"/>
</g>
<defs>
<filter id="filter0_d_124_5373" x="0.300415" y="0" width="235" height="56.5" filterUnits="userSpaceOnUse" color-interpolation-filters="sRGB">
<feFlood flood-opacity="0" result="BackgroundImageFix"/>
<feColorMatrix in="SourceAlpha" type="matrix" values="0 0 0 0 0 0 0 0 0 0 0 0 0 0 0 0 0 0 127 0" result="hardAlpha"/>
<feOffset dy="2"/>
<feGaussianBlur stdDeviation="5"/>
<feComposite in2="hardAlpha" operator="out"/>
<feColorMatrix type="matrix" values="0 0 0 0 0 0 0 0 0 0 0 0 0 0 0 0 0 0 0.15 0"/>
<feBlend mode="normal" in2="BackgroundImageFix" result="effect1_dropShadow_124_5373"/>
<feBlend mode="normal" in="SourceGraphic" in2="effect1_dropShadow_124_5373" result="shape"/>
</filter>
<clipPath id="clip0_124_5373">
<rect x="10.3004" y="8" width="215" height="29" rx="8" fill="white"/>
</clipPath>
</defs>
</svg>
